<svg xmlns="http://www.w3.org/2000/svg" width="224" height="244" viewBox="0 0 224 244">
    <defs>
        <linearGradient id="2sphttcdfa" x1="13.399%" x2="77.986%" y1="6.517%" y2="86.298%">
            <stop offset="0%" stop-color="#0098C7"/>
            <stop offset="100%" stop-color="#0DE9C9"/>
        </linearGradient>
    </defs>
    <g fill="none" fill-rule="evenodd">
        <g fill="url(#2sphttcdfa)" transform="translate(-1006 -13479)">
            <g>
                <g>
                    <path d="M886 356c8.271 0 15 6.73 15 15 0 8.271-6.729 15-15 15s-15-6.729-15-15c0-8.27 6.729-15 15-15zm0 5.317c-5.34 0-9.684 4.344-9.684 9.683 0 5.34 4.344 9.684 9.684 9.684 5.34 0 9.684-4.345 9.684-9.684 0-5.34-4.344-9.683-9.684-9.683zm22.994 4.48c0 .068.006.13.006.191.006 1.571-1.211 2.901-2.8 3.006-.067.006-.135.006-.204.006-1.562 0-2.88-1.212-2.99-2.795-.006-.068-.006-.13-.006-.192-.006-1.571 1.211-2.9 2.8-3.005 1.649-.118 3.076 1.138 3.194 2.789zm14.944-2.402c.043.198.062.402.062.6.006 1.397-.97 2.653-2.391 2.943-.204.043-.408.062-.613.062-1.39 0-2.638-.97-2.935-2.387-.036-.204-.061-.408-.061-.606 0-1.397.976-2.647 2.391-2.943 1.62-.34 3.207.705 3.547 2.331zm13.889-3.402c.118.334.173.668.173.995 0 1.237-.766 2.4-1.996 2.84-.334.116-.667.172-1.001.172-1.236 0-2.392-.766-2.83-1.991-.118-.334-.173-.668-.173-1.002-.007-1.237.76-2.393 1.995-2.832 1.558-.556 3.276.26 3.832 1.818zm-71.825-1.82c1.237.44 2.004 1.595 1.998 2.83 0 .334-.056.667-.173 1-.433 1.23-1.59 1.997-2.827 1.997-.334 0-.674-.056-1.002-.174-1.237-.438-2.004-1.599-1.998-2.835 0-.328.056-.667.173-.995.55-1.556 2.27-2.378 3.829-1.822zm-12.623-5.837c1.04.537 1.627 1.593 1.621 2.68 0 .458-.111.927-.334 1.366-.538 1.025-1.584 1.618-2.672 1.618-.464 0-.934-.112-1.373-.34-1.04-.537-1.627-1.587-1.621-2.681 0-.457.111-.927.334-1.359.767-1.47 2.573-2.044 4.045-1.284zm97.287 1.28c.222.439.334.903.334 1.367.012 1.087-.582 2.145-1.615 2.683-.445.229-.915.334-1.379.334-1.09 0-2.134-.588-2.666-1.614-.229-.44-.34-.903-.34-1.367-.006-1.088.581-2.146 1.62-2.678 1.467-.767 3.279-.197 4.046 1.275zm-108.939-9.064c.828.58 1.267 1.503 1.273 2.443 0 .6-.18 1.205-.55 1.737-.587.829-1.514 1.268-2.453 1.268-.6 0-1.205-.18-1.73-.544-.822-.588-1.267-1.509-1.267-2.449 0-.6.18-1.206.55-1.738.958-1.354 2.824-1.675 4.177-.717zm119.717.716c.377.525.556 1.137.556 1.736-.006.939-.445 1.859-1.272 2.446-.526.37-1.131.55-1.724.55-.946 0-1.873-.445-2.454-1.266-.377-.532-.556-1.137-.55-1.742 0-.934.445-1.86 1.267-2.44 1.353-.958 3.22-.637 4.177.716zM947.99 157.384c10.096 0 19.217 3.767 26.376 10.894 9.224 9.181 13.083 22.044 11.342 34.442l-.08.539h15.303c4.666 0 8.477 3.73 8.614 8.367l.004.258V330.84c0 5.39-4.308 9.794-9.658 9.942l-.278.003h-52.608c-.128 0-.253-.01-.375-.027l-.182-.033h-98.64c-.12.026-.243.044-.368.053l-.19.007h-49.046c-6.627 0-12.038-5.315-12.2-11.91l-.004-.305V213.56c0-5.586 4.465-10.148 10.01-10.298l.282-.004h50.958c.378 0 .737.08 1.063.222l.076-.11.074-.112h61.943c-1.9-12.548 1.95-25.632 11.304-34.945 7.18-7.15 16.27-10.93 26.28-10.93zm-36.413 51.221h-61.656v16.28h36.381c1.419 0 2.579 1.108 2.666 2.505l.005.169v12.476c0 1.42-1.106 2.58-2.502 2.667l-.169.005h-36.38v48.936h48.786c1.418 0 2.578 1.106 2.665 2.504l.005.17v12.475c0 1.419-1.105 2.58-2.502 2.668l-.168.005H849.92v26.3h34.64v-15.472c0-1.42 1.105-2.58 2.501-2.668l.17-.005h17.028c1.418 0 2.579 1.107 2.666 2.504l.005.169v15.473h37.403v-55.41h-11.83c-.834 0-1.615-.39-2.118-1.045l-.112-.156-15.277-23.169c-.552-.837-.586-1.908-.103-2.774l.103-.17 12.46-18.895-8.964-11.782c-3.219-4.23-5.514-8.906-6.916-13.76zm-66.997 0h-48.288c-2.658 0-4.834 2.108-4.946 4.74l-.005.216v11.325h34.882c1.419 0 2.578 1.107 2.666 2.504l.005.169v12.476c0 1.42-1.105 2.58-2.502 2.667l-.169.005h-34.882v8.242h34.882c1.419 0 2.578 1.107 2.666 2.505l.005.169v12.475c0 1.42-1.105 2.581-2.502 2.668l-.169.006h-34.882v7.128h34.882c1.419 0 2.578 1.107 2.666 2.505l.005.169v12.475c0 1.42-1.105 2.58-2.502 2.668l-.169.005h-34.882v34.847c0 3.708 2.952 6.74 6.627 6.865l.236.004h8.32v-15.145c0-1.42 1.105-2.58 2.502-2.668l.169-.005h17.028c1.419 0 2.578 1.107 2.666 2.504l.005.169v15.145h15.686V208.605zm156.351 0h-16.486c-1.342 4.607-3.49 9.051-6.468 13.107l-.431.577-9.247 12.154 12.264 18.598c.552.837.586 1.908.103 2.775l-.103.17-15.277 23.169c-.458.696-1.213 1.134-2.037 1.193l-.192.007h-13.381v8.972h37.476c1.418 0 2.578 1.107 2.665 2.505l.005.169v12.475c0 1.42-1.106 2.58-2.501 2.668l-.17.005h-37.475v28.289h16.08v-15.145c0-1.42 1.106-2.58 2.502-2.668l.17-.005h17.028c1.418 0 2.578 1.107 2.665 2.504l.005.169v15.145h11.487c2.463 0 4.48-1.95 4.59-4.389l.005-.21V211.884c0-1.808-1.47-3.279-3.277-3.279zM823.553 322.966h-11.688v12.21h11.688v-12.21zm159.232 0h-11.687v12.21h11.687v-12.21zm-81.195 0h-11.688v12.21h11.688v-12.21zm-5.553-25.976h-46.116v7.128h46.116v-7.128zm88.444-2.316h-34.805v7.129h34.805v-7.129zm-160.928-13.427H791.34v7.128h32.212v-7.128zm107.332-42.594l-10.459 15.86 13.514 20.496h27.68l13.514-20.495-10.263-15.565-14.756 19.395c-.505.664-1.29 1.053-2.125 1.053-.769 0-1.498-.331-2.003-.905l-.121-.148-14.981-19.691zm-107.332 17.643H791.34v7.129h32.212v-7.13zM947.99 162.73c-8.692 0-16.266 3.154-22.514 9.374-12.365 12.312-13.641 32.248-3.058 46.587l.324.433 25.248 33.187 25.306-33.263c10.933-14.37 9.774-34.567-2.696-46.98-6.225-6.196-13.832-9.338-22.61-9.338zm-124.437 67.501H791.34v7.129h32.212v-7.129zm60.078 0h-33.71v7.129h33.71v-7.129zM948 181c9.925 0 18 8.075 18 18 0 9.926-8.075 18-18 18s-18-8.074-18-18c0-9.925 8.075-18 18-18zm0 5.352c-6.974 0-12.648 5.674-12.648 12.649 0 6.973 5.674 12.647 12.648 12.647 6.974 0 12.648-5.674 12.648-12.647 0-6.975-5.674-12.649-12.648-12.649zm-127.106 8.317c.73.6 1.106 1.472 1.106 2.344-.006.661-.222 1.33-.674 1.88-.593.73-1.458 1.107-2.33 1.107-.66 0-1.328-.216-1.884-.668-.735-.6-1.112-1.472-1.112-2.344.006-.661.222-1.33.674-1.88 1.044-1.287 2.935-1.479 4.22-.44zm5.058-10.857c1.205-1.137 3.108-1.07 4.239.137.537.58.809 1.31.809 2.04 0 .81-.315 1.607-.952 2.2-.574.545-1.31.811-2.045.811-.803 0-1.6-.315-2.194-.946-.537-.581-.803-1.31-.809-2.04 0-.811.321-1.609.952-2.202zM863 142c11.58 0 21 9.42 21 21 0 11.579-9.42 21-21 21s-21-9.421-21-21c0-11.58 9.42-21 21-21zm-20.556 33.264c.377.531.556 1.137.556 1.736 0 .941-.439 1.862-1.267 2.45-.525.37-1.13.55-1.73.55-.94 0-1.866-.439-2.447-1.261-.377-.532-.556-1.138-.556-1.739.006-.939.445-1.86 1.267-2.448 1.347-.958 3.225-.636 4.177.712zM863 147.32c-8.645 0-15.679 7.034-15.679 15.679s7.034 15.678 15.679 15.678 15.679-7.033 15.679-15.678S871.645 147.32 863 147.32zm58.602 9.741c1.422.29 2.398 1.545 2.398 2.935 0 .204-.025.401-.062.605-.29 1.422-1.545 2.398-2.935 2.398-.198 0-.402-.02-.605-.062-1.422-.29-2.398-1.539-2.398-2.935 0-.198.019-.401.062-.605.333-1.625 1.915-2.67 3.54-2.336zm-26.608.728c.006.069.006.13.006.198.012 1.565-1.206 2.895-2.796 3.005-.068.007-.136.007-.204.007-1.565 0-2.882-1.212-2.994-2.796-.006-.061-.006-.13-.006-.19-.012-1.572 1.206-2.902 2.796-3.006 1.651-.118 3.086 1.131 3.198 2.782zm11.028-2.79l.176.007c1.59.105 2.808 1.429 2.802 3 0 .062 0 .123-.007.19-.098 1.584-1.422 2.803-2.987 2.803-.068 0-.137 0-.204-.007-1.59-.105-2.808-1.428-2.802-3 0-.06 0-.123.006-.19.103-1.534 1.343-2.726 2.842-2.8l.174-.003z" transform="translate(0 12540) translate(220 797)"/>
                </g>
            </g>
        </g>
    </g>
</svg>
