<svg xmlns="http://www.w3.org/2000/svg" xmlns:xlink="http://www.w3.org/1999/xlink" width="69" height="62" viewBox="0 0 69 62">
    <defs>
        <filter id="l8c0fpz3wa">
            <feColorMatrix in="SourceGraphic" values="0 0 0 0 1.000000 0 0 0 0 0.611765 0 0 0 0 0.000000 0 0 0 1.000000 0"/>
        </filter>
        <path id="y6gid3c06b" d="M0 0.28L68.959 0.28 68.959 48.2 0 48.2z"/>
    </defs>
    <g fill="none" fill-rule="evenodd">
        <g>
            <g filter="url(#l8c0fpz3wa)" transform="translate(-20 -10663) translate(0 9889)">
                <g>
                    <g transform="translate(20 774) translate(0 .52)">
                        <mask id="19p9ostgac" fill="#fff">
                            <use xlink:href="#y6gid3c06b"/>
                        </mask>
                        <path fill="#000" d="M54.64 19.24C54.48 8.76 45.92.28 35.36.28c-4.72 0-9.2 1.68-12.72 4.8-3.12 2.8-5.28 6.48-6.16 10.48h-.16C7.28 15.56 0 22.92 0 31.88S7.36 48.2 16.32 48.2h11.44c.8 0 1.44-.64 1.44-1.44 0-.8-.64-1.44-1.44-1.44H16.32c-7.36 0-13.36-6-13.36-13.36 0-7.36 6-13.44 13.36-13.44.4 0 .8 0 1.28.08.8.08 1.52-.48 1.6-1.28.56-3.84 2.48-7.44 5.36-10.08 2.96-2.64 6.8-4.08 10.8-4.08 9.04 0 16.32 7.36 16.32 16.32 0 .32 0 .64-.08 1.04v.16c0 .4.16.88.48 1.12.32.32.72.48 1.2.4.4 0 .8-.08 1.2-.08 6.4 0 11.52 5.2 11.52 11.52 0 6.4-5.2 11.52-11.52 11.52h-12c-.8 0-1.44.64-1.44 1.44 0 .8.64 1.44 1.44 1.44h12c8 0 14.48-6.48 14.48-14.48 0-7.76-6.4-14.16-14.32-14.32" mask="url(#19p9ostgac)"/>
                    </g>
                    <path fill="#000" d="M33.68 9.12c0 .8.64 1.44 1.44 1.44 4.72 0 8.72 3.52 9.36 8.16.08.72.72 1.28 1.44 1.28h.24c.8-.08 1.36-.88 1.28-1.68-.8-6.08-6.08-10.72-12.24-10.72-.88.08-1.52.72-1.52 1.52M28.16 55.92l5.36 4.8c.96.8 2.32.8 3.2 0l5.36-4.8c.64-.56.64-1.44.08-2.08-.56-.64-1.44-.64-2.08-.08l-3.52 3.12V38.8c0-.8-.64-1.44-1.44-1.44-.8 0-1.44.64-1.44 1.44v18.08l-3.52-3.12c-.32-.24-.64-.4-.96-.4-.4 0-.8.16-1.12.48-.56.64-.56 1.52.08 2.08" transform="translate(20 774)"/>
                </g>
            </g>
        </g>
    </g>
</svg>
