<svg xmlns="http://www.w3.org/2000/svg" xmlns:xlink="http://www.w3.org/1999/xlink" width="73" height="70" viewBox="0 0 73 70">
    <defs>
        <filter id="m9x0e6fewa">
            <feColorMatrix in="SourceGraphic" values="0 0 0 0 1.000000 0 0 0 0 0.611765 0 0 0 0 0.000000 0 0 0 1.000000 0"/>
        </filter>
        <path id="6iz36ebofb" d="M0 70L73 70 73 0 0 0z"/>
    </defs>
    <g fill="none" fill-rule="evenodd">
        <g>
            <g>
                <g>
                    <g filter="url(#m9x0e6fewa)" transform="translate(-347 -11549) translate(-255 9519) translate(255 1828) translate(225 202)">
                        <g transform="translate(122)">
                            <path fill="#262626" d="M2.92 14.167h67.16V12.75c0-5.467-4.586-9.917-10.22-9.917H13.14c-5.634 0-10.22 4.45-10.22 9.917v1.417zM71.54 17H1.46C.653 17 0 16.367 0 15.583V12.75C0 5.72 5.894 0 13.14 0h46.72C67.106 0 73 5.72 73 12.75v2.833c0 .784-.653 1.417-1.46 1.417z"/>
                            <path fill="#262626" d="M2.92 16.947v39.79c0 5.687 4.586 10.316 10.22 10.316h46.72c5.634 0 10.22-4.63 10.22-10.316v-39.79H2.92zM59.86 70H13.14C5.894 70 0 64.05 0 56.737V15.474C0 14.659.653 14 1.46 14h70.08c.807 0 1.46.659 1.46 1.474v41.263C73 64.05 67.106 70 59.86 70zM14.125 8.333c-.39 0-.708.3-.708.667 0 .367.318.667.708.667.39 0 .708-.3.708-.667 0-.367-.318-.667-.708-.667m0 2.667C12.953 11 12 10.103 12 9s.953-2 2.125-2c1.172 0 2.125.897 2.125 2s-.953 2-2.125 2M20.5 8.333c-.39 0-.708.3-.708.667 0 .367.318.667.708.667.39 0 .708-.3.708-.667 0-.367-.318-.667-.708-.667m0 2.667c-1.172 0-2.125-.897-2.125-2s.953-2 2.125-2c1.172 0 2.125.897 2.125 2s-.953 2-2.125 2m6.375-2.667c-.39 0-.708.3-.708.667 0 .367.318.667.708.667.39 0 .708-.3.708-.667 0-.367-.318-.667-.708-.667m0 2.667c-1.172 0-2.125-.897-2.125-2s.953-2 2.125-2C28.047 7 29 7.897 29 9s-.953 2-2.125 2"/>
                            <mask id="ayykitytkc" fill="#fff">
                                <use xlink:href="#6iz36ebofb"/>
                            </mask>
                            <path fill="#262626" d="M37.9 42.143h23.2V27.857H37.9v14.286zM62.55 45h-26.1c-.802 0-1.45-.639-1.45-1.429V26.43c0-.79.648-1.429 1.45-1.429h26.1c.802 0 1.45.639 1.45 1.429V43.57c0 .79-.648 1.429-1.45 1.429z" mask="url(#ayykitytkc)"/>
                            <path fill="#262626" d="M39.545 42.2h8.309L43.7 37.39l-4.155 4.81zm11.34 0h9.049l-4.61-7.119-4.438 7.12zM62.55 45h-26.1c-.562 0-1.075-.315-1.313-.806-.24-.491-.16-1.072.199-1.49l7.25-8.398c.552-.637 1.676-.637 2.229 0l4.418 5.118 4.825-7.742c.26-.416.725-.673 1.229-.677.535-.045.975.246 1.242.657l7.25 11.197c.28.43.295.975.04 1.419-.257.446-.742.722-1.27.722zM28.373 31H10.628C9.732 31 9 30.327 9 29.5s.732-1.5 1.628-1.5h17.745c.896 0 1.627.673 1.627 1.5s-.73 1.5-1.627 1.5zM28.373 39H10.628C9.732 39 9 38.327 9 37.5s.732-1.5 1.628-1.5h17.745c.896 0 1.627.673 1.627 1.5s-.73 1.5-1.627 1.5zM28.373 45H10.628C9.732 45 9 44.327 9 43.5s.732-1.5 1.628-1.5h17.745c.896 0 1.627.673 1.627 1.5s-.73 1.5-1.627 1.5zM63.387 53H10.614C9.726 53 9 52.327 9 51.5s.726-1.5 1.614-1.5h52.773c.889 0 1.613.673 1.613 1.5s-.724 1.5-1.613 1.5zM63.387 59H10.614C9.726 59 9 58.327 9 57.5s.726-1.5 1.614-1.5h52.773c.889 0 1.613.673 1.613 1.5s-.724 1.5-1.613 1.5z" mask="url(#ayykitytkc)"/>
                        </g>
                    </g>
                </g>
            </g>
        </g>
    </g>
</svg>
