<svg xmlns="http://www.w3.org/2000/svg" width="97" height="76" viewBox="0 0 97 76">
    <defs>
        <filter id="mawgznjsba">
            <feColorMatrix in="SourceGraphic" values="0 0 0 0 1.000000 0 0 0 0 0.611765 0 0 0 0 0.000000 0 0 0 1.000000 0"/>
        </filter>
    </defs>
    <g fill="none" fill-rule="evenodd">
        <g>
            <g>
                <g>
                    <g filter="url(#mawgznjsba)" transform="translate(-752 -11530) translate(-255 9519) translate(255 1828) translate(600 132)">
                        <g fill="#505050">
                            <path d="M34.398 63c-6.552 0-12.932-2.34-16.218-5.903-7.317 1.156-13.166-1.785-16.569-8.385-2.098-4.069-1.546-11.061.875-14.815C.47 30.704-.774 25.782.544 21.564c.81-2.592 2.906-5.97 8.257-7.694 2.076-3.73 5.445-6.485 9.575-7.807 3.565-1.141 7.411-1.145 10.424-.072C32.513 2.411 38.996.002 45.216 0h.01c5.705 0 10.624 1.98 13.969 5.599 10.557.22 20.651 7.135 22.39 15.061 2.87.265 5.79 1.727 8.105 4.119 2.718 2.808 4.107 6.341 3.903 9.837 4.575 4.745 4.567 12.193-.172 17.753-.72.844-1.997.956-2.85.239-.85-.715-.957-1.98-.238-2.825 3.539-4.152 3.458-9.699-.192-12.902l-.823-.723.166-1.077c.398-2.594-.592-5.34-2.71-7.528-1.96-2.027-4.555-3.147-6.736-2.899l-2.146.235-.093-2.14c-.29-6.678-10.094-13.27-19.493-13.146l-.989.018-.62-.761c-3.276-4.01-8.045-4.854-11.47-4.854h-.009c-5.638.002-11.667 2.378-14.336 5.653l-1.055 1.294-1.475-.791c-1.797-.958-5.194-1.416-8.733-.287-2.378.764-5.628 2.516-7.598 6.543l-.4.817-.886.24c-3.395.922-5.525 2.696-6.331 5.274-1.152 3.69.608 8.099 2.162 9.916l1.253 1.47-1.429 1.3C4.531 37.13 3.56 43.682 5.212 46.89c2.755 5.342 7.247 7.38 13.344 6.06l1.316-.285.772 1.092c3.104 4.386 15.274 7.555 23.293 2.884l.905-.527.956.431c1.065.483 2.348.791 3.812.92 1.113.098 1.934 1.071 1.835 2.173-.1 1.1-1.084 1.925-2.191 1.819-1.516-.135-2.91-.427-4.161-.874C41.82 62.261 38.083 63 34.398 63" transform="translate(152 51)"/>
                            <path d="M46.924 22c-.04 0-.077 0-.116-.004-1.89-.1-8.187-.463-9.848-.949l-.335-.096c-1.63-.466-4.093-1.17-5.881-2.857-1.379-1.305-2.041-3.513-2.683-5.644-.297-.993-.58-1.93-.893-2.64-.45-1.024.037-2.206 1.092-2.643 1.053-.445 2.276.032 2.727 1.057.411.933.744 2.035 1.061 3.098.422 1.404 1 3.322 1.593 3.884 1.051.993 2.775 1.484 4.158 1.883l.35.099c.817.238 5.249.592 8.887.787 1.145.059 2.023 1.01 1.96 2.121C48.936 21.17 48.02 22 46.925 22" transform="translate(152 51)"/>
                            <path d="M37.864 28c-1.076 0-2.002-.807-2.12-1.897l-.731-6.748c-.128-1.167.721-2.214 1.893-2.342 1.165-.131 2.223.716 2.35 1.885l.731 6.75c.128 1.164-.721 2.214-1.893 2.34-.076.008-.153.012-.23.012M4.932 36c-.994 0-1.838-.78-1.925-1.814-.092-1.092.697-2.054 1.76-2.148l9.23-.815c.797-1.993 2.542-5.831 4.838-7.77.826-.695 2.045-.578 2.724.268.679.845.56 2.095-.263 2.794-1.85 1.564-3.593 5.758-4.109 7.242l-.418 1.203-11.668 1.032c-.057.006-.113.008-.169.008" transform="translate(152 51)"/>
                            <path d="M22.968 41c-.276 0-.556-.058-.824-.185-3.618-1.703-7.324-6.797-7.734-7.373-.676-.946-.497-2.293.396-3.008.895-.713 2.166-.529 2.843.417.944 1.321 3.885 4.976 6.145 6.037 1.026.483 1.486 1.753 1.03 2.836-.335.801-1.079 1.276-1.856 1.276M19.063 57c-.052 0-.103-.002-.157-.006-1.133-.087-1.987-1.071-1.9-2.206.043-.586.474-5.8 2.14-8.743.56-.99 1.817-1.335 2.806-.781.991.56 1.341 1.817.78 2.808-1.027 1.819-1.516 5.688-1.617 7.022-.08 1.082-.985 1.906-2.052 1.906M45.048 61c-.564 0-1.122-.254-1.507-.745-1.801-2.294-7.72-10.013-8.274-13.027-.537-2.912-.106-9.748-.057-10.518l.078-1.163.994-.526c1.29-.682 3.642-2.165 4.462-3.246.672-.89 1.901-1.032 2.745-.33.843.704.984 1.993.312 2.877-1.17 1.542-3.432 3.01-4.761 3.795-.125 2.427-.256 6.62.06 8.335.252 1.34 4.059 6.87 7.453 11.198.688.874.568 2.164-.265 2.881-.363.315-.802.469-1.24.469" transform="translate(152 51)"/>
                            <path d="M36.904 39c-.602 0-1.198-.252-1.613-.74-.023-.032-2.88-3.323-6.667-4.186-1.129-.258-1.831-1.366-1.57-2.476.26-1.11 1.393-1.8 2.516-1.545 5.188 1.182 8.793 5.383 8.944 5.56.74.878.621 2.18-.268 2.91-.392.32-.868.477-1.342.477M54.029 33c-.673 0-1.329-.335-1.716-.946-.598-.949-.314-2.203.632-2.802 2.31-1.462 5.482-4.904 5.514-4.937l.975-1.062 1.318.57c2.863 1.242 8.227 3.071 10.475 2.706 1.99-.323 5.391-3.572 7.172-5.775.703-.872 1.977-1.008 2.85-.303.867.707 1.005 1.984.302 2.857-.54.666-5.373 6.528-9.673 7.23-3.284.527-8.843-1.427-11.42-2.446-1.243 1.267-3.451 3.393-5.35 4.595-.336.211-.708.313-1.08.313" transform="translate(152 51)"/>
                            <path d="M59.263 28c-.582 0-1.15-.348-1.48-.981l-2.522-4.854c-.506-.972-.254-2.25.562-2.854.815-.603 1.886-.302 2.392.668l2.524 4.854c.506.973.254 2.252-.562 2.856-.285.21-.601.311-.914.311M70 40c-7.168 0-13 5.832-13 13s5.832 13 13 13 13-5.832 13-13-5.832-13-13-13m0 30c-9.374 0-17-7.626-17-17 0-9.374 7.626-17 17-17 9.374 0 17 7.626 17 17 0 9.374-7.626 17-17 17" transform="translate(152 51)"/>
                            <path d="M63 57c-1.106 0-2-.894-2-2 0-5.514 4.486-10 10-10 1.106 0 2 .894 2 2 0 1.106-.894 2-2 2-3.308 0-6 2.692-6 6 0 1.106-.894 2-2 2M89.134 76L79 65.866 81.866 63 92 73.134z" transform="translate(152 51)"/>
                        </g>
                    </g>
                </g>
            </g>
        </g>
    </g>
</svg>
