<svg xmlns="http://www.w3.org/2000/svg" width="224" height="232" viewBox="0 0 224 232">
    <defs>
        <linearGradient id="2px32m7e5a" x1="9.351%" x2="81.08%" y1="6.517%" y2="86.298%">
            <stop offset="0%" stop-color="#0098C7"/>
            <stop offset="100%" stop-color="#0DE9C9"/>
        </linearGradient>
    </defs>
    <g fill="none" fill-rule="evenodd">
        <g fill="url(#2px32m7e5a)" transform="translate(-373 -12851)">
            <g>
                <g>
                    <path d="M269.423 385.305c1.196 0 2.165 1.05 2.165 2.348 0 1.242-.89 2.259-2.016 2.342l-.149.005H230.46c-1.196 0-2.165-1.05-2.165-2.347 0-1.243.89-2.26 2.016-2.343l.149-.005h38.964zm-73.435-11.268c1.209 0 2.188 1.05 2.188 2.347 0 1.243-.9 2.26-2.038 2.342l-.15.006h-24.8c-1.209 0-2.188-1.051-2.188-2.348 0-1.243.9-2.26 2.038-2.342l.15-.005h24.8zm157.13 0c1.234 0 2.235 1.05 2.235 2.347 0 1.243-.92 2.26-2.082 2.342l-.154.006h-13.411c-1.235 0-2.235-1.051-2.235-2.348 0-1.243.918-2.26 2.082-2.342l.153-.005h13.411zM279.508 158c11.583 0 21.005 11.112 21.005 24.771 0 6.223-1.96 11.913-5.185 16.268 15.548 3.392 21.285 12.662 23.4 23.942H369c4.786 0 8 3.38 8 6.535v108.907c0 3.156-3.214 6.535-8 6.535h-73.906l13.277 24.37c.056.103.095.21.132.316h15.406c1.205 0 2.182.975 2.182 2.178 0 1.203-.977 2.178-2.182 2.178h-93.091c-1.205 0-2.182-.975-2.182-2.178 0-1.203.977-2.178 2.182-2.178h21.226c.033-.094.064-.19.112-.28l12.733-24.406h-73.344c-3.792 0-6.545-2.748-6.545-6.535v-77.272c-.211-.387-.377-.804-.488-1.248l-1.188-4.744c-.075-.3-.287-.537-.553-.618-1.873-.57-3.696-1.323-5.419-2.237-.247-.132-.566-.114-.83.045l-4.198 2.514c-2.074 1.243-4.718.918-6.428-.79l-3.07-3.065c-1.71-1.708-2.036-4.346-.792-6.417l2.518-4.19c.16-.265.177-.583.045-.83-.915-1.721-1.669-3.54-2.24-5.41-.081-.265-.319-.477-.62-.552l-4.751-1.186c-2.347-.586-3.986-2.681-3.986-5.096v-4.335c0-2.414 1.639-4.51 3.986-5.096l4.751-1.186c.301-.075.539-.287.62-.552.571-1.869 1.325-3.69 2.24-5.41.132-.247.115-.565-.044-.83l-2.519-4.19c-1.244-2.07-.919-4.71.791-6.417l3.07-3.065c1.711-1.708 4.355-2.032 6.429-.79l4.197 2.514c.266.16.584.176.832.045 1.723-.914 3.546-1.666 5.418-2.237.266-.081.478-.318.553-.618l1.188-4.744c.587-2.343 2.686-3.98 5.105-3.98h4.342c2.419 0 4.518 1.637 5.104 3.98l1.189 4.743c.075.3.287.538.553.619 1.872.57 3.695 1.323 5.418 2.237.247.13.567.114.832-.045l4.197-2.514c2.074-1.242 4.717-.918 6.428.79l3.07 3.065c1.71 1.707 2.036 4.346.792 6.417l-2.519 4.19c-.159.265-.176.583-.045.83.916 1.72 1.67 3.541 2.241 5.41.082.265.318.477.62.552l4.751 1.186c2.343.585 3.98 2.675 3.985 5.085h10.396c.464-2.45 1.098-4.801 1.984-7.023 3.46-8.68 10.316-14.145 20.922-16.664-3.337-4.387-5.372-10.179-5.372-16.523 0-13.659 9.423-24.771 21.004-24.771zm10.618 186.958H269.81l-12.88 24.686h46.647l-13.449-24.686zm82.51-21.782H189.363v15.247c0 1.405.774 2.179 2.181 2.179h76.31c.22-.075.452-.118.692-.118h22.813c.24 0 .472.043.692.118H369c1.733 0 3.636-1.14 3.636-2.179v-15.247zm-132.314-95.838h-9.748c-.005 2.41-1.642 4.5-3.985 5.085l-4.752 1.186c-.3.075-.537.287-.62.553-.57 1.868-1.324 3.688-2.24 5.408-.131.248-.114.566.045.83l2.519 4.191c1.244 2.07.919 4.71-.792 6.417l-3.07 3.065c-1.71 1.708-4.353 2.033-6.428.79l-4.197-2.514c-.265-.159-.584-.175-.832-.045-1.722.914-3.545 1.666-5.418 2.237-.266.081-.478.318-.553.618l-1.189 4.744c-.586 2.343-2.686 3.98-5.104 3.98h-4.342c-.085 0-.17-.007-.253-.011v54.948h183.272v-89.304c0-1.038-1.903-2.178-3.636-2.178h-49.632c.596 5.371.597 11.061.597 16.699 0 1.203-.976 2.178-2.181 2.178h-75.855c-1.205 0-2.182-.975-2.182-2.178v-1.202c.002-5.388.039-10.607.576-15.497zm111.883 29.32c1.165 0 2.12.893 2.2 2.023l.006.156v50.106c0 1.151-.904 2.094-2.048 2.173l-.158.006h-19.118c-1.165 0-2.12-.893-2.2-2.023l-.006-.156v-50.106c0-1.151.904-2.093 2.048-2.173l.158-.005h19.118zm-31.06 10.33c1.167 0 2.12.881 2.201 2l.006.153v39.828c0 1.137-.903 2.069-2.049 2.148l-.157.005H302.03c-1.166 0-2.12-.882-2.2-2l-.006-.153V269.14c0-1.138.903-2.069 2.048-2.148l.158-.005h19.117zm-31.058 7.512c1.165 0 2.12.9 2.2 2.04l.006.157v32.227c0 1.161-.904 2.112-2.048 2.192l-.158.006H270.97c-1.165 0-2.119-.9-2.2-2.04l-.005-.158v-32.227c0-1.16.903-2.111 2.048-2.191l.157-.006h19.118zm-31.059 5.634c1.166 0 2.12.886 2.2 2.007l.006.155v26.664c0 1.142-.903 2.077-2.048 2.157l-.158.005h-19.117c-1.165 0-2.12-.886-2.2-2.008l-.006-.154v-26.664c0-1.142.904-2.077 2.048-2.156l.158-.006h19.117zm-30.117 7.512c1.165 0 2.12.875 2.2 1.982l.006.153v19.207c0 1.127-.904 2.05-2.048 2.129l-.158.005h-19.118c-1.165 0-2.12-.874-2.2-1.982l-.006-.152V289.78c0-1.128.904-2.051 2.048-2.13l.158-.005h19.118zm-2.206 4.269H212v14.938h14.706v-14.938zm92.235-20.622h-14.706v35.523h14.706v-35.523zm-62.117 13.165h-14.706v22.34h14.706v-22.34zM350 261.016h-14.706v45.749H350v-45.75zm-62.118 17.879h-14.706v27.832h14.706v-27.832zm-93.923-88.102h-4.342c-.413 0-.771.28-.871.68l-1.188 4.743c-.445 1.774-1.79 3.203-3.512 3.728-1.606.49-3.17 1.135-4.647 1.918-1.59.844-3.553.784-5.123-.156l-4.197-2.514c-.355-.212-.806-.157-1.098.134l-3.07 3.065c-.292.292-.347.742-.135 1.096l2.518 4.19c.942 1.567 1.002 3.527.158 5.115-.785 1.475-1.432 3.035-1.922 4.638-.526 1.72-1.957 3.063-3.735 3.506l-4.75 1.186c-.401.1-.681.458-.681.87v4.335c0 .412.28.77.68.87l4.751 1.186c1.778.443 3.209 1.786 3.735 3.506.49 1.603 1.137 3.164 1.922 4.639.844 1.588.784 3.548-.158 5.114l-2.518 4.19c-.212.354-.157.804.135 1.096l3.07 3.065c.292.292.743.347 1.098.135l4.197-2.514c.832-.5 1.775-.75 2.715-.75.832 0 1.661.197 2.408.593 1.477.783 3.04 1.428 4.646 1.918 1.723.525 3.068 1.954 3.513 3.728l.874 3.49c.562.394.932 1.044.932 1.782v.112c.08.024.165.039.253.039h4.342c.413 0 .77-.28.871-.68l1.189-4.743c.443-1.774 1.789-3.203 3.511-3.728 1.607-.49 3.17-1.135 4.646-1.918 1.591-.844 3.555-.784 5.124.157l4.197 2.514c.355.212.806.157 1.097-.135l3.07-3.065c.293-.292.348-.742.136-1.096l-2.519-4.19c-.941-1.566-1.002-3.526-.156-5.114.784-1.475 1.43-3.036 1.92-4.639.527-1.72 1.958-3.063 3.735-3.506l4.752-1.186c.4-.1.68-.458.68-.87v-4.335c0-.412-.28-.77-.68-.87l-4.752-1.186c-1.777-.443-3.208-1.787-3.734-3.506-.49-1.603-1.137-3.163-1.921-4.638-.846-1.588-.785-3.548.156-5.115l2.519-4.19c.212-.354.157-.804-.135-1.096l-3.07-3.065c-.292-.291-.743-.347-1.098-.135l-4.197 2.515c-1.57.94-3.533 1-5.123.156-1.478-.783-3.04-1.428-4.647-1.918-1.722-.525-3.068-1.954-3.512-3.728l-1.188-4.743c-.1-.4-.458-.68-.871-.68zm97.878 12.017c-1.983 1.701-4.227 3.001-6.646 3.804l5.631 17.473c.217.673.093 1.409-.332 1.974l-8.967 11.932c-.407.541-1.043.863-1.721.87h-.024c-.67 0-1.302-.306-1.716-.832l-8.968-11.4c-.43-.545-.573-1.264-.385-1.932l5.084-18.096c-2.349-.785-4.53-2.04-6.47-3.674-.171.086-.353.157-.552.196-10.354 2.004-16.633 6.594-19.762 14.444-2.688 6.746-2.883 15.237-2.898 24.29h71.485c-.116-21.964-2.306-35.59-23.759-39.05zm-100.249 11.592c6.228 0 11.294 5.055 11.294 11.269 0 6.213-5.066 11.268-11.294 11.268-6.228 0-11.294-5.055-11.294-11.268 0-6.214 5.066-11.269 11.294-11.269zm86.492-6.923l-4.87 17.332 6.528 8.298 6.584-8.76-5.435-16.866c-.456.035-.914.06-1.378.06-.48 0-.956-.026-1.43-.064zm-86.492 11.262c-3.83 0-6.945 3.109-6.945 6.93 0 3.82 3.115 6.93 6.945 6.93s6.945-3.11 6.945-6.93c0-3.821-3.115-6.93-6.945-6.93zM368.108 159c4.979 0 8.755 3.582 8.888 8.375l.004.263v23.099c0 4.962-3.848 9.015-8.63 9.159l-.262.004h-26.196l-7.343 10.738c-.414.604-1.09.947-1.792.947-.215 0-.432-.032-.645-.099-.856-.268-1.455-1.035-1.523-1.924l-.006-.168v-10.443c-2.485-1.247-7.037-4.051-7.243-7.941l-.007-.273v-23.1c0-4.836 3.688-8.504 8.622-8.633l.27-.004h35.863zm-88.599 3.356c-9.175 0-16.64 9.158-16.64 20.415 0 9.785 5.64 17.98 13.142 19.958.177-.046.358-.077.547-.077h5.766c.215 0 .423.035.621.094 7.533-1.947 13.205-10.163 13.205-19.975 0-11.257-7.465-20.415-16.64-20.415zm88.6 1.026h-35.864c-2.554 0-4.43 1.686-4.537 4.04l-.005.216v23.099c0 1.081 2.43 3.314 5.915 4.79.757.32 1.267 1.041 1.328 1.857l.006.164v4.805l4.027-5.888c.372-.544.965-.887 1.613-.94l.178-.007h27.338c2.394 0 4.426-2.07 4.538-4.566l.004-.215v-23.1c0-2.465-1.91-4.255-4.542-4.255z" transform="translate(0 12540) translate(220 153)"/>
                </g>
            </g>
        </g>
    </g>
</svg>
