<svg xmlns="http://www.w3.org/2000/svg" xmlns:xlink="http://www.w3.org/1999/xlink" width="80" height="67" viewBox="0 0 80 67">
    <defs>
        <filter id="7hcqia83qa">
            <feColorMatrix in="SourceGraphic" values="0 0 0 0 1.000000 0 0 0 0 0.611765 0 0 0 0 0.000000 0 0 0 1.000000 0"/>
        </filter>
        <path id="z0oidn0exb" d="M0 0.003L80 0.003 80 67 0 67z"/>
    </defs>
    <g fill="none" fill-rule="evenodd">
        <g>
            <g>
                <g>
                    <g filter="url(#7hcqia83qa)" transform="translate(-1186 -11561) translate(-255 9519) translate(255 1828) translate(1075 214)">
                        <g>
                            <g transform="translate(111)">
                                <mask id="k5t3zk5hoc" fill="#fff">
                                    <use xlink:href="#z0oidn0exb"/>
                                </mask>
                                <path fill="#262626" d="M14.677 3.194C8.349 3.194 3.2 8.327 3.2 14.636v28.378c0 6.31 5.149 11.443 11.477 11.443.883 0 1.6.713 1.6 1.595v6.743c0 .61.438.857.627.935.189.08.673.212 1.105-.219l8.613-8.587c.301-.3.707-.467 1.131-.467h37.57c6.328 0 11.477-5.134 11.477-11.443V14.636c0-6.309-5.149-11.442-11.477-11.442H14.677zM17.296 67c-.544 0-1.091-.105-1.618-.322-1.579-.653-2.601-2.176-2.601-3.883v-5.234C5.734 56.763 0 50.544 0 43.014V14.636C0 6.568 6.584.003 14.677.003h50.646C73.416.003 80 6.568 80 14.636v28.378c0 8.069-6.584 14.633-14.677 14.633H28.416l-8.143 8.12c-.808.805-1.881 1.233-2.977 1.233z" mask="url(#k5t3zk5hoc)"/>
                            </g>
                            <path fill="#262626" d="M32.158 17.214c-3.847 0-6.976 3.161-6.976 7.047 0 6.15 9.684 13.402 14.318 16.263 4.636-2.86 14.318-10.114 14.318-16.263 0-3.886-3.13-7.047-6.976-7.047-2.466 0-4.701 1.284-5.977 3.435-.574.966-2.153.967-2.728 0-1.278-2.15-3.513-3.435-5.979-3.435M39.5 44c-.274 0-.547-.07-.792-.214C38.025 43.391 22 33.978 22 24.261 22 18.603 26.556 14 32.158 14c2.83 0 5.449 1.159 7.342 3.177C41.393 15.16 44.013 14 46.842 14 52.444 14 57 18.603 57 24.261c0 9.717-16.025 19.13-16.708 19.525-.245.143-.518.214-.792.214" transform="translate(111)"/>
                        </g>
                    </g>
                </g>
            </g>
        </g>
    </g>
</svg>
