<svg xmlns="http://www.w3.org/2000/svg" width="88" height="113" viewBox="0 0 88 113">
    <g fill="none" fill-rule="evenodd">
        <g>
            <g>
                <g>
                    <g>
                        <path fill="#FF9C00" d="M26.728 27.775l8.335 8.335c.447.447 1.042.595 1.638.298.595-.298.893-.744.893-1.34 0-2.68 1.19-5.21 3.126-7.145 3.72-3.572 9.973-3.72 13.843-.148 2.083 1.935 3.125 4.465 3.274 7.144 0 2.828-1.042 5.359-2.977 7.294-1.935 1.935-4.316 2.977-6.996 2.977-.595 0-1.19.446-1.34.893-.297.595-.148 1.19.298 1.637l8.336 8.336-6.103 6.103c-.595-2.233-1.786-4.317-3.423-5.954-2.53-2.53-5.954-3.87-9.527-3.87-.446 0-.893 0-1.34.148-3.125.298-5.804 1.787-8.037 4.02-4.614 4.911-4.614 12.95.149 17.861 1.34 1.34 2.828 2.382 4.465 2.976.596.299 1.042.448 1.638.597l-6.252 6.4L2.912 60.67C1.722 59.48.977 57.842.977 56.056s.744-3.424 1.935-4.614l23.816-23.667z" transform="translate(-740 -4815) translate(-334 3174) translate(334 1356) translate(740 285)"/>
                        <path fill="#FF9C00" d="M57.093 112.023c-1.786 0-3.423-.744-4.614-1.937L28.812 86.421l8.335-8.337c.447-.445.596-1.04.298-1.636-.298-.595-.744-.893-1.34-.893-.744 0-1.34-.149-1.935-.149-1.935-.446-3.72-1.34-5.21-2.828-.446-.446-.893-1.042-1.19-1.488-1.042-1.638-1.489-3.424-1.489-5.359 0-2.53.893-5.06 2.68-6.996 1.935-2.084 4.465-3.126 7.144-3.275 2.828 0 5.359 1.042 7.294 2.977 1.935 1.935 2.977 4.317 2.977 6.996 0 .596.446 1.191.893 1.34.595.298 1.19.149 1.637-.298l8.336-8.335 6.103 6.103c-2.233.595-4.317 1.786-5.954 3.423-.298.298-.596.595-.893 1.042-1.935 2.382-2.977 5.359-2.977 8.484 0 3.573 1.488 6.846 4.167 9.378 4.912 4.614 12.95 4.614 17.862-.149 1.786-1.639 2.977-3.721 3.573-6.104l6.102 6.104-23.518 23.816c-1.19 1.19-2.828 1.786-4.614 1.786z" transform="translate(-740 -4815) translate(-334 3174) translate(334 1356) translate(740 285)"/>
                        <path fill="#FFF" d="M57.093.089c1.786 0 3.424.744 4.614 1.935L85.374 25.69l-8.335 8.335c-.447.447-.596 1.042-.298 1.638.298.595.744.893 1.34.893 1.042 0 2.084.148 2.977.446 1.637.447 2.977 1.34 4.167 2.68 3.573 3.72 3.722 9.972.15 13.842-1.936 2.084-4.466 3.126-7.145 3.275h-2.084c-.298 0-.447-.149-.745-.149h-.297c-.15-.595-.447-.595-.744-.744h-.15c-.892-.298-1.786-.893-2.53-1.489-.297-.148-.446-.446-.744-.744-1.935-1.935-2.977-4.316-2.977-6.996 0-.595-.447-1.19-.893-1.34-.149 0-.298-.148-.447-.148h-.595c-.149 0-.298 0-.298.149h-.149c-.148 0-.148.149-.297.297l-8.187 8.336-6.103-6.103c2.233-.595 4.317-1.786 5.954-3.423.298-.298.596-.596.893-1.042 1.935-2.382 2.977-5.359 2.977-8.485 0-3.572-1.488-6.847-4.168-9.377-4.167-3.87-10.27-4.466-15.033-1.935-.596.297-1.34.744-1.935 1.19l-.893.894c-1.787 1.637-2.977 3.72-3.573 6.102l-6.4-6.102L52.479 2.024C53.669.684 55.307.089 57.093.089z" transform="translate(-740 -4815) translate(-334 3174) translate(334 1356) translate(740 285)"/>
                    </g>
                </g>
            </g>
        </g>
    </g>
</svg>
