<svg xmlns="http://www.w3.org/2000/svg" xmlns:xlink="http://www.w3.org/1999/xlink" width="177" height="68" viewBox="0 0 177 68">
    <defs>
        <path id="1r02mkfs6a" d="M0 0.768L176.38 0.768 176.38 66.999 0 66.999z"/>
    </defs>
    <g fill="none" fill-rule="evenodd">
        <g>
            <g>
                <g>
                    <g>
                        <g transform="translate(-293 -4843) translate(-334 3174) translate(334 1356) translate(293 313) translate(0 .232)">
                            <mask id="vehrxs4qeb" fill="#fff">
                                <use xlink:href="#1r02mkfs6a"/>
                            </mask>
                            <path fill="#432A43" d="M151.375.767l-8.731 22.024 6.98 19.495h-14.708l-5.095 12.85h23.846L157.939 67h18.44L151.376.768zM31.527 28.787c-1.524 1.75-4.33 2.625-8.42 2.625h-6.3V13.619h6.348c3.81 0 6.505.795 8.087 2.386h-.001c1.58 1.59 2.372 3.72 2.372 6.387 0 2.688-.696 4.819-2.086 6.395zm13.654-21.3c-4.046-4.48-9.967-6.72-17.763-6.72H0V67h16.807V44.263H27.71c3.304 0 6.245-.368 8.825-1.105l2.82-8.69 7.883-24.283c-.606-.958-1.294-1.86-2.058-2.699z" mask="url(#vehrxs4qeb)"/>
                        </g>
                        <path fill="#FF9C00" d="M122.948 1L104.635 43.801 91.61 1 77.967 1 63.985 43.801 54.124 24.297 45.2 51.722 54.26 67.232 71.728 67.232 84.364 28.85 96.411 67.232 113.924 67.231 140.697 1z" transform="translate(-293 -4843) translate(-334 3174) translate(334 1356) translate(293 313)"/>
                    </g>
                </g>
            </g>
        </g>
    </g>
</svg>
