<?xml version="1.0" encoding="utf-8"?>
<!-- Generator: Adobe Illustrator 19.0.1, SVG Export Plug-In . SVG Version: 6.00 Build 0)  -->
<svg version="1.1" id="Layer_1" xmlns="http://www.w3.org/2000/svg" xmlns:xlink="http://www.w3.org/1999/xlink" x="0px" y="0px"
	 viewBox="-129 313.6 352.9 167.4" style="enable-background:new -129 313.6 352.9 167.4;" xml:space="preserve">
<style type="text/css">
	.st0{fill:#516B2E;}
</style>
<g>
	<polygon class="st0" points="-52.8,407 -31.5,407 -34.9,391.9 	"/>
	<path class="st0" d="M46.9,321.3c-97.1,0-175.9,34.2-175.9,76.5c0,42.2,78.7,76.5,175.9,76.5c97.1,0,175.9-34.2,175.9-76.5
		C222.7,355.5,144,321.3,46.9,321.3z M46.9,469.4c-89.4,0-162-32.1-162-71.7c0-39.6,72.5-71.7,162-71.7c89.4,0,162,32.1,162,71.7
		C208.9,437.3,136.4,469.4,46.9,469.4z"/>
	<path class="st0" d="M181.5,369L181.5,369c-24.5-23-75.3-38-134-38c-37.6,0-71.9,6-98.1,16.3l208.8,21.3L-87.5,369h0
		c-9.6,8-15,18.3-15,28.9c0,37.2,66.9,67.1,149.5,67.1c82.6,0,149.5-29.7,149.5-66.9C196.5,387.5,191.1,377,181.5,369z M-18.5,423.9
		c-3.4,0-6.7,0.4-10.1,0.5c-0.5-4.8-0.9-9.4-2-13.4h-27c-5.3,5-10,8.8-14.3,13.3c-1.8-0.1-3.5-0.3-5.4-0.3c-1.9,0-3.8,0.1-5.7,0.2
		l53.8-45c1.4,0.1,2.8,0.2,4.3,0.2s2.9-0.1,4.5-0.2l11.6,45.1C-12,424.1-15.2,423.9-18.5,423.9z M13.2,424.2
		c-2.8-0.1-5.7-0.3-8.6-0.3c-2.9,0-5.9,0.2-8.8,0.3l18.3-39.9c-8.2,0-15.8,0.5-22,0.9c0.6-0.9,1.4-1.7,1.9-2.6
		c0.4-0.9,0.5-1.6,0.7-2.6h59.7c-0.7,1-1.4,1.7-1.8,2.6c-0.4,1-0.5,1.8-0.7,2.7c-6.6-0.5-13.3-0.9-20.3-0.9L13.2,424.2z M94.9,400.5
		c-0.4,0.9-0.5,2-0.7,2.9c-4.1-0.3-8.8-0.5-14-0.5H68.1l-7.6,16.4c11.9-0.1,19.9-0.5,27.2-1c-0.7,0.9-1.4,1.9-1.9,2.8
		c-0.4,0.9-0.5,1.8-0.7,2.8H41l20.3-44h44.2c-0.7,1-1.4,1.7-1.9,2.6c-0.4,0.9-0.5,1.8-0.7,2.7c-6.8-0.5-14.5-0.7-26.4-0.6L70.1,399
		h12.1c5.2,0,10.1-0.6,14.5-0.9C96.1,399,95.3,399.6,94.9,400.5z M174.1,389h-1.6c-2.7-4-9-6.3-16.5-6.3
		c-19.3,0-31.8,10.2-36.2,19.7c-5.1,11.1,1.1,18.8,18.9,18.8c7.2,0,16.5-2.1,23-4.9l1.3,0.4l-5.1,5.6c-7.9,2-16.5,2.8-24.3,2.8
		c-24.8,0-39.7-8.6-33.6-21.9c7.8-17,32.2-24.7,57.5-24.7c7.7,0,16.4,1.4,22.2,3.5C177.8,384.2,176.1,387,174.1,389z"/>
</g>
</svg>
