<?xml version="1.0" encoding="utf-8"?>
<!-- Generator: Adobe Illustrator 19.2.1, SVG Export Plug-In . SVG Version: 6.00 Build 0)  -->
<svg version="1.1" id="Layer_1" xmlns="http://www.w3.org/2000/svg" xmlns:xlink="http://www.w3.org/1999/xlink" x="0px" y="0px"
	 viewBox="0 0 803.8 783" style="enable-background:new 0 0 803.8 783;" xml:space="preserve">
<style type="text/css">
	.Arched_x0020_Green{fill:url(#SVGID_1_);stroke:#FFFFFF;stroke-width:0.25;stroke-miterlimit:1;}
	.st0{fill:#9E8B60;}
</style>
<linearGradient id="SVGID_1_" gradientUnits="userSpaceOnUse" x1="-183.8301" y1="744.1318" x2="-183.123" y2="743.4247">
	<stop  offset="0" style="stop-color:#20AC4B"/>
	<stop  offset="0.9831" style="stop-color:#19361A"/>
</linearGradient>
<g>
	<path class="st0" d="M655.5,516.7c5.6-4,132.5-97.1,67.4-252C666.4,130,596.1,47.5,526,29.9C478.8,18,419.5,35,373.2,66.7
		L64.5,275.5l77.4,163.3l178.5-126L192.6,544.7L273.3,733l57.3-94.9l41.6,78.7L655.5,516.7L655.5,516.7z M533.4,325
		c13.2,28.9,25.7,56.3-23.3,93.3l-91,63.5c-15-27.6-35.4-70-61.4-125L332.8,304c27-19.1,64.9-44.7,64.8-44.6l6.4-4.2
		c36.5-25.9,45.5-28.8,63.6-25.1C492.7,235.2,515.7,285.4,533.4,325L533.4,325z"/>
</g>
<g>
	<path class="st0" d="M504.1,679.8c21.4,0,38.4,17.4,38.4,39.1c0,22-17,39.2-38.6,39.2c-21.3,0-38.7-17.2-38.7-39.2
		c0-21.7,17.4-39.1,38.7-39.1H504.1z M503.9,685.9c-17.2,0-31.3,14.8-31.3,33c0,18.6,14.1,33.2,31.4,33.2
		c17.4,0.2,31.3-14.6,31.3-33c0-18.4-13.9-33.2-31.3-33.2H503.9z M496.6,741.6h-6.9V698c3.7-0.5,7.1-1,12.3-1
		c6.6,0,10.9,1.4,13.5,3.3c2.6,1.9,4,4.9,4,9c0,5.7-3.8,9.2-8.5,10.6v0.3c3.9,0.7,6.4,4.2,7.3,10.6c1.1,6.8,2.1,9.4,2.8,10.8h-7.3
		c-1-1.4-2.1-5.4-3-11.1c-1-5.6-3.8-7.7-9.4-7.7h-4.9V741.6z M496.6,717.5h5c5.7,0,10.6-2.1,10.6-7.5c0-3.8-2.8-7.6-10.6-7.6
		c-2.2,0-3.8,0.2-5,0.4V717.5z"/>
</g>
</svg>
