<svg xmlns="http://www.w3.org/2000/svg" width="14" height="22" viewBox="0 0 14 22">
    <defs>
        <filter id="54344uap1a">
            <feColorMatrix in="SourceGraphic" values="0 0 0 0 1.000000 0 0 0 0 1.000000 0 0 0 0 1.000000 0 0 0 1.000000 0"/>
        </filter>
    </defs>
    <g fill="none" fill-rule="evenodd">
        <g>
            <g filter="url(#54344uap1a)" transform="translate(-793 -5727) translate(0 4601)">
                <g>
                    <path fill="#FF9C00" d="M15.741.707l4.95 4.95c.39.39.39 1.024 0 1.414l-4.95 4.95c-.39.39-1.023.39-1.414 0-.39-.39-.39-1.024 0-1.414l3.25-3.252H2c-.552 0-1-.447-1-1 0-.551.448-1 1-1h15.561l-3.234-3.234c-.39-.39-.39-1.023 0-1.414.39-.39 1.024-.39 1.414 0z" transform="rotate(90 -159.5 966.5)"/>
                </g>
            </g>
        </g>
    </g>
</svg>
