<svg xmlns="http://www.w3.org/2000/svg" width="85" height="86" viewBox="0 0 85 86">
    <g fill="none" fill-rule="evenodd">
        <g fill="#FF9C00">
            <g>
                <g>
                    <g>
                        <path d="M74.363 8.074c.504-.172 1.058-.039 1.433.338.376.375.506.93.338 1.432l-2.061 6.185c-.07.207-.185.395-.339.548L51.756 38.555l21.683 21.683c1.622 1.623 2.517 3.789 2.517 6.097 0 2.31-.895 4.476-2.517 6.1-1.682 1.682-3.89 2.522-6.099 2.522-2.207 0-4.417-.84-6.098-2.522L39.559 50.752 37.5 52.81c.792 1.179 1.218 2.568 1.218 4.026 0 1.937-.75 3.752-2.11 5.112L26.316 72.24c-1.908 1.91-4.457 2.96-7.173 2.96-2.718 0-5.266-1.05-7.175-2.96-3.957-3.957-3.957-10.394 0-14.35l10.291-10.292c2.48-2.48 6.328-2.773 9.136-.889l2.061-2.06-5.19-5.19c-1.055.218-2.139.337-3.242.337-4.215 0-8.177-1.64-11.158-4.621-.05-.05-.095-.104-.137-.16-3.408-3.5-5.01-8.334-4.315-13.215.204-1.43 1.183-2.6 2.555-3.059 1.378-.462 2.87-.11 3.896.916l3.37 3.371c1.323 1.325 3.475 1.325 4.8 0 .636-.637.986-1.49.986-2.398 0-.911-.35-1.763-.987-2.4l-3.371-3.37c-1.025-1.026-1.376-2.517-.916-3.894.46-1.374 1.636-2.354 3.068-2.558 4.96-.707 9.832.92 13.366 4.453l.023.024c3.884 3.9 5.295 9.34 4.25 14.366l5.199 5.2 21.979-21.978c.154-.154.341-.27.547-.339zm-46.991 40.21c-1.134 0-2.27.43-3.133 1.295L13.947 59.87c-2.864 2.865-2.864 7.527 0 10.39 2.863 2.864 7.525 2.863 10.39 0l10.291-10.292c.833-.833 1.29-1.943 1.29-3.132 0-1.19-.457-2.301-1.29-3.133l-4.122-4.124c-.865-.864-1.999-1.295-3.134-1.295zm22.404-7.75l-8.238 8.238 21.684 21.682c2.27 2.27 5.965 2.27 8.237 0 1.094-1.095 1.697-2.556 1.697-4.119 0-1.56-.603-3.022-1.697-4.117L49.776 40.535zM30.472 57.859c.514.513.546 1.41.097 1.97l-.096.107-8.23 8.23c-.263.264-.667.432-1.038.432s-.777-.168-1.04-.431c-.512-.512-.545-1.41-.096-1.97l.097-.108 8.229-8.23c.525-.525 1.553-.525 2.078 0zm35.369 6.977c.824-.825 2.171-.826 2.999 0 .401.4.623.934.623 1.5 0 .57-.222 1.103-.623 1.503-.4.399-.931.62-1.5.62-.568 0-1.102-.221-1.502-.624-.399-.396-.62-.93-.62-1.498 0-.567.221-1.1.623-1.501zm1.5.823c-.18 0-.355.073-.481.2-.125.125-.197.3-.197.478 0 .179.072.354.2.481.262.262.693.264.957-.001.125-.126.198-.301.198-.48 0-.178-.073-.353-.199-.48-.123-.124-.298-.198-.479-.198zM26.35 53.735c.513.514.545 1.41.096 1.97l-.096.108-8.23 8.23c-.263.262-.667.43-1.04.43-.37 0-.775-.168-1.039-.43-.511-.513-.543-1.41-.096-1.97l.096-.108 8.231-8.23c.546-.547 1.53-.547 2.078 0zm46.243-42.12l-3.216 1.072-22.734 22.735-10.217 10.217-2.95 2.95 1.07 1.072 1.072 1.073L71.52 14.83l1.072-3.216zm-33.085 18.65c-.056.13-.127.254-.186.383-.138.298-.276.596-.434.888-.08.147-.17.287-.255.43-.168.29-.336.58-.525.86-.121.18-.259.352-.387.528-.168.23-.328.46-.51.682-.325.396-.668.777-1.03 1.14-.356.355-.728.693-1.116 1.012-1.158.959-2.435 1.732-3.793 2.318l4.164 4.164 8.237-8.238zm-5.33-15.445c-2.904-2.89-6.9-4.219-10.97-3.638-.55.077-.746.496-.805.672-.059.178-.154.632.24 1.027l3.37 3.37c1.167 1.166 1.808 2.72 1.808 4.38 0 1.656-.641 3.212-1.807 4.38-2.415 2.413-6.344 2.413-8.759 0l-3.37-3.373c-.394-.395-.85-.296-1.028-.241-.177.059-.593.255-.67.8-.595 4.168.852 8.297 3.885 11.2l.618.556c.035.033.068.065.1.098 3.457 2.842 8.05 3.617 12.13 2.338.473-.147.931-.319 1.378-.516.075-.032.148-.073.224-.11.348-.162.687-.34 1.018-.531.138-.079.274-.164.41-.25.278-.175.547-.362.812-.56.122-.09.246-.179.367-.274.37-.298.73-.61 1.072-.952.34-.34.652-.701.95-1.07.099-.123.188-.252.282-.378.193-.26.378-.526.552-.8.088-.14.173-.28.256-.42.186-.322.358-.653.516-.99.04-.086.086-.168.124-.254.196-.445.37-.903.516-1.373 1.283-4.103.492-8.72-2.387-12.18l-.04-.045z" transform="translate(-1175 -9358) translate(0 9026) translate(1071 332.189) translate(104)"/>
                    </g>
                </g>
            </g>
        </g>
    </g>
</svg>
