<svg xmlns="http://www.w3.org/2000/svg" width="86" height="86" viewBox="0 0 86 86">
    <g fill="none" fill-rule="evenodd">
        <g fill="#FF9C00">
            <g>
                <g>
                    <g>
                        <path d="M67.239 7.23c3.305 0 6.023 2.636 6.142 5.904l.004.223v12.18c0 3.294-2.644 6.004-5.922 6.123l-.224.004H44.037v5.438h23.202c3.305 0 6.023 2.636 6.142 5.904l.004.224v12.179c0 3.295-2.644 6.004-5.922 6.123l-.224.004H44.037V75.4h25.968c.845 0 1.536.69 1.536 1.532 0 .796-.616 1.455-1.397 1.526l-.14.006H14.996c-.845 0-1.536-.69-1.536-1.532 0-.796.616-1.455 1.397-1.526l.14-.006h25.967V61.536H17.761c-3.305 0-6.023-2.636-6.142-5.904l-.004-.223v-12.18c0-3.295 2.644-6.004 5.922-6.123l.224-.004h23.202v-5.438H17.761c-3.305 0-6.023-2.636-6.142-5.904l-.004-.224V13.357c0-3.295 2.644-6.004 5.922-6.123l.224-.004h49.478zm0 32.936H17.761c-1.63 0-2.974 1.282-3.068 2.884l-.005.18v12.179c0 1.624 1.286 2.964 2.893 3.058l.18.005h49.478c1.63 0 2.974-1.282 3.068-2.884l.005-.18V43.23c0-1.685-1.383-3.064-3.073-3.064zm-41.104 3.217c3.304 0 5.993 2.68 5.993 5.974s-2.689 5.975-5.993 5.975c-3.303 0-5.992-2.68-5.992-5.975 0-3.293 2.689-5.974 5.992-5.974zm0 2.987c-1.613 0-2.92 1.302-2.92 2.91 0 1.61 1.307 2.911 2.92 2.911 1.614 0 2.92-1.302 2.92-2.91 0-1.609-1.306-2.91-2.92-2.91zM63.09 47.75c.845 0 1.537.69 1.537 1.532 0 .842-.692 1.532-1.537 1.532H39.12c-.846 0-1.537-.69-1.537-1.532 0-.843.691-1.532 1.537-1.532zm4.149-37.455H17.761c-1.63 0-2.974 1.282-3.068 2.884l-.005.18v12.178c0 1.625 1.286 2.965 2.893 3.059l.18.005h49.478c1.63 0 2.974-1.282 3.068-2.885l.005-.179V13.357c0-1.685-1.383-3.063-3.073-3.063zm-41.104 3.14c3.304 0 5.993 2.68 5.993 5.975 0 3.293-2.689 5.974-5.993 5.974-3.303 0-5.992-2.68-5.992-5.974s2.689-5.975 5.992-5.975zm0 3.064c-1.613 0-2.92 1.302-2.92 2.91 0 1.609 1.307 2.911 2.92 2.911 1.614 0 2.92-1.302 2.92-2.91 0-1.609-1.306-2.911-2.92-2.911zm36.955 1.379c.845 0 1.537.689 1.537 1.532 0 .795-.617 1.454-1.397 1.525l-.14.006H39.12c-.846 0-1.537-.689-1.537-1.531 0-.796.617-1.455 1.397-1.526l.14-.006h23.97z" transform="translate(-764 -9358) translate(0 9026) translate(636 290.189) translate(128.97 42)"/>
                    </g>
                </g>
            </g>
        </g>
    </g>
</svg>
