<svg version="1.1" xmlns="http://www.w3.org/2000/svg" xmlns:xlink="http://www.w3.org/1999/xlink" x="0px" y="0px" viewBox="173.8 162.1 1566.3 357" style="enable-background:new 0 0 1920 717;" xml:space="preserve">
<style type="text/css">
	.st0{enable-background:new    ;}
	.st1{fill-rule:evenodd;clip-rule:evenodd;fill:#FF9C00;}
	.st2{fill-rule:evenodd;clip-rule:evenodd;fill:#4EA6B9;}
</style>
	<g id="O_1_" class="st0">
	<g id="O">
		<g>
			<path class="st1" d="M1730.1,344.5c-6.3-15-15.4-28.5-27.2-40.5c-12.1-11.7-25.8-20.7-41.2-27c-15.4-6.3-31.7-9.4-48.9-9.4
				s-33.5,3.1-48.7,9.4c-15.3,6.3-28.9,15.3-41,27c-11.8,12-20.8,25.4-27.2,40.2c-6.3,14.8-9.7,30.6-10,47.4v2.2
				c0.3,16.5,3.6,32.3,10,47.4c6.3,15.1,15.4,28.5,27.2,40.2c12.1,12,25.7,21.1,41,27.4c15.2,6.3,31.5,9.4,48.7,9.4
				s33.5-3.1,48.9-9.4c15.4-6.3,29.1-15.4,41.2-27.4c11.8-11.7,20.8-25.1,27.2-40.2c6.3-15.1,9.7-30.9,10-47.4v-1.8
				C1739.7,375.4,1736.4,359.5,1730.1,344.5z M1699.9,429.3c-5,11.2-11.8,21.1-20.4,29.4c-8.6,8.4-18.7,15.1-30.1,20
				c-11.5,4.9-23.7,7.4-36.7,7.4c-13,0-25.1-2.5-36.5-7.4c-11.3-4.9-21.3-11.6-29.9-20c-8.6-8.4-15.4-18.2-20.4-29.4
				c-5-11.2-7.5-23.3-7.5-36.2V390c0.3-12.6,3-24.3,8.2-35.3c5.1-10.9,12-20.5,20.6-28.5s18.5-14.5,29.7-19.1
				c11.2-4.6,23.1-7,35.8-7c13,0,25.2,2.5,36.7,7.4c11.5,4.9,21.5,11.6,30.1,20c8.6,8.4,15.4,18.2,20.4,29.4
				c5,11.2,7.5,23.3,7.5,36.2C1707.4,406,1704.9,418.1,1699.9,429.3z"></path>
		</g>
	</g>
</g>
	<g id="LUMA_1_" class="st0">
	<g id="LUMA">
		<g>
			<path class="st2" d="M367,485.3h-65.7c-13,0-25.1-2.5-36.5-7.4c-11.3-4.9-21.2-11.6-29.7-20c-8.5-8.4-15.2-18.2-20.2-29.4
				c-5-11.2-7.5-23.3-7.5-36.2V178.7c0-4.8-1.6-8.8-4.8-11.9c-3.2-3.1-7.2-4.7-12-4.7c-4.5,0-8.5,1.6-11.8,4.7
				c-3.3,3.1-5,7.1-5,11.9v213.5c0,17.1,3.2,33.3,9.5,48.6c6.3,15.3,15.6,28.9,27.6,40.9c12.4,12,26.2,21.1,41.5,27.4
				c15.2,6.3,31.5,9.4,48.7,9.4H367c4.8,0,8.9-1.6,12.2-4.7c3.3-3.1,5-7.1,5-11.9c0-4.5-1.7-8.4-5-11.7
				C375.9,486.9,371.8,485.3,367,485.3z M639.7,267.2c-4.5,0-8.4,1.6-11.6,4.7c-3.2,3.1-4.8,7-4.8,11.5v119.1
				c0,11.7-2.3,22.6-6.8,32.8c-4.5,10.2-10.6,19.1-18.3,26.7c-7.7,7.6-16.7,13.6-27,18c-10.3,4.3-21.3,6.5-33.1,6.5
				c-11.8,0-22.9-2.2-33.3-6.5c-10.4-4.3-19.5-10.3-27.2-18c-7.7-7.6-13.7-16.6-18.1-27c-4.4-10.3-6.6-21.4-6.6-33V283.4
				c0-4.5-1.6-8.3-4.8-11.5c-3.2-3.1-7-4.7-11.6-4.7c-4.5,0-8.4,1.6-11.6,4.7c-3.2,3.1-4.8,7-4.8,11.5v118.7c0,15.9,2.9,30.9,8.8,45
				c5.9,14.1,14.4,26.7,25.6,37.8c11.2,11.1,23.9,19.6,38.3,25.4c14.3,5.8,29.4,8.8,45.1,8.8c16,0,31.1-2.9,45.3-8.8
				c14.2-5.8,26.9-14.3,38.1-25.4c11.2-11.1,19.7-23.7,25.6-37.8c5.9-14.1,8.8-29.1,8.8-45V283.4c0-4.5-1.6-8.3-4.8-11.5
				C648.1,268.8,644.2,267.2,639.7,267.2z M1095.9,300.5c-11.5-11.1-24.3-19.6-38.5-25.4c-14.2-5.8-29.3-8.8-45.3-8.8
				c-15.7,0-30.7,2.9-45.1,8.8c-14.3,5.8-27.1,14.3-38.3,25.4c-7.2,7.2-13.3,15-18.1,23.4c-2.4-4.2-5.2-8.2-8.4-12.1
				c-3.2-3.9-6.4-7.6-9.7-11.2c-11.5-11.1-24.3-19.6-38.5-25.4c-14.2-5.8-29.3-8.8-45.3-8.8c-15.7,0-30.7,2.9-45.1,8.8
				c-14.3,5.8-27.1,14.3-38.3,25.4c-11.2,11.1-19.7,23.8-25.6,38c-5.9,14.2-8.8,29.2-8.8,44.7v119.1c0,4.5,1.6,8.3,4.8,11.5
				c3.2,3.1,7,4.7,11.6,4.7c4.5,0,8.4-1.6,11.6-4.7c3.2-3.1,4.8-7,4.8-11.5V383.2c0-11.7,2.3-22.6,6.8-32.8
				c4.5-10.2,10.6-19.1,18.3-26.7c7.7-7.6,16.7-13.7,27-18.2c10.3-4.5,21.3-6.7,33.1-6.7c11.8,0,22.9,2.2,33.3,6.7
				c10.4,4.5,19.5,10.6,27.2,18.2c7.7,7.6,13.8,16.6,18.3,26.7c4.5,10.2,6.8,21.1,6.8,32.8v119.1c0,4.5,1.6,8.3,4.8,11.5
				c3.2,3.1,7,4.7,11.6,4.7c4.5,0,8.4-1.6,11.6-4.7c3.2-3.1,4.8-7,4.8-11.5V383.2c0-11.7,2.3-22.6,6.8-32.8
				c4.5-10.2,10.6-19.1,18.3-26.7c7.7-7.6,16.7-13.7,27-18.2c10.3-4.5,21.3-6.7,33.1-6.7c11.8,0,22.9,2.2,33.3,6.7
				c10.4,4.5,19.5,10.6,27.2,18.2c7.7,7.6,13.8,16.6,18.3,26.7c4.5,10.2,6.8,21.1,6.8,32.8v119.1c0,4.5,1.6,8.3,4.8,11.5
				c3.2,3.1,7,4.7,11.6,4.7c4.5,0,8.4-1.6,11.6-4.7c3.2-3.1,4.8-7,4.8-11.5V383.2c0-15.6-2.9-30.5-8.8-44.7
				C1115.6,324.2,1107,311.6,1095.9,300.5z M1435.8,271.9c-3.2-3.1-7-4.7-11.6-4.7c-4.5,0-8.5,1.6-11.8,4.7c-3.3,3.1-5,7-5,11.5V309
				c-0.6-0.6-1.3-1.4-2-2.2c-0.8-0.9-1.6-1.6-2.5-2.2c-12.1-12-25.8-21.1-41-27.4c-15.3-6.3-31.5-9.4-48.7-9.4
				c-17.2,0-33.5,3.1-48.9,9.4c-15.4,6.3-29.1,15.4-41.2,27.4c-11.8,11.7-20.8,25-27.2,40c-6.3,15-9.7,30.9-10,47.7v1.8
				c0.3,16.8,3.6,32.7,10,47.9c6.3,15.1,15.4,28.5,27.2,40.2c12.1,12,25.8,21.1,41.2,27.4c15.4,6.3,31.7,9.4,48.9,9.4
				c17.2,0,33.4-3.1,48.7-9.4c15.2-6.3,28.9-15.4,41-27.4c2.1-2.1,3.6-3.7,4.5-4.9v25.6c0,4.5,1.7,8.3,5,11.5
				c3.3,3.1,7.2,4.7,11.8,4.7c4.5,0,8.4-1.6,11.6-4.7c3.2-3.1,4.8-7,4.8-11.5V283.4C1440.6,278.9,1439,275.1,1435.8,271.9z
				 M1400.1,429.5c-5,11.4-11.7,21.3-20.2,29.7c-8.5,8.4-18.4,15.1-29.9,20c-11.5,4.9-23.7,7.4-36.7,7.4c-13,0-25.2-2.5-36.7-7.4
				c-11.5-4.9-21.5-11.6-30.1-20c-8.6-8.4-15.4-18.2-20.4-29.4c-5-11.2-7.5-23.3-7.5-36.2V390c0.3-12.6,3-24.3,8.2-35.3
				c5.1-10.9,12-20.5,20.6-28.5c8.6-8.1,18.6-14.5,29.9-19.1c11.3-4.6,23.3-7,36-7c13,0,25.2,2.5,36.7,7.4
				c11.5,4.9,21.4,11.6,29.9,20c8.5,8.4,15.2,18.2,20.2,29.4c5,11.2,7.5,23.3,7.5,36.2C1407.5,406,1405,418.1,1400.1,429.5z
				 M1313.3,360.3c-4.5,0-8.4,1.6-11.6,4.7c-3.2,3.1-4.8,7-4.8,11.5v41.4c0,4.5,1.6,8.3,4.8,11.5c3.2,3.1,7,4.7,11.6,4.7
				c4.5,0,8.4-1.6,11.6-4.7c3.2-3.1,4.8-7,4.8-11.5v-41.4c0-4.5-1.6-8.3-4.8-11.5C1321.7,361.9,1317.8,360.3,1313.3,360.3z"></path>
		</g>
	</g>
</g>
</svg>