<?xml version="1.0" standalone="no"?>
<!DOCTYPE svg PUBLIC "-//W3C//DTD SVG 20010904//EN"
 "http://www.w3.org/TR/2001/REC-SVG-20010904/DTD/svg10.dtd">
<svg version="1.0" xmlns="http://www.w3.org/2000/svg"
 width="728.000000pt" height="728.000000pt" viewBox="0 0 728.000000 728.000000"
 preserveAspectRatio="xMidYMid meet">
<metadata>
Created by potrace 1.11, written by Peter Selinger 2001-2013
</metadata>
<g transform="translate(0.000000,728.000000) scale(0.100000,-0.100000)"
fill="#000000" stroke="none">
<path d="M3070 7230 c0 -5 5 -10 11 -10 5 0 7 5 4 10 -3 6 -8 10 -11 10 -2 0
-4 -4 -4 -10z"/>
<path d="M3113 7227 c-4 -6 -1 -7 7 -2 10 6 12 4 7 -8 -3 -9 -3 -16 1 -16 23
4 24 -4 2 -16 -24 -13 -24 -14 -2 -12 12 1 22 5 22 10 0 4 5 5 12 1 7 -5 8 -3
3 6 -5 8 -3 11 6 8 8 -3 13 -11 11 -18 -2 -10 0 -11 11 -2 8 7 16 10 19 7 2
-3 5 2 5 10 0 8 -3 12 -7 10 -4 -2 -7 2 -7 10 0 11 4 12 14 4 10 -9 13 -8 13
2 1 11 3 11 13 -1 7 -8 19 -16 27 -18 21 -4 48 -32 32 -32 -7 0 -12 5 -12 10
0 6 -5 10 -11 10 -5 0 -7 -4 -4 -10 7 -12 13 -11 -97 -14 -52 -2 -85 1 -82 6
3 5 -3 4 -15 -4 -18 -11 -23 -10 -36 7 -12 16 -14 16 -9 3 5 -15 -1 -17 -38
-17 -97 0 -138 -4 -138 -15 0 -7 -3 -7 -8 -1 -11 15 -64 17 -55 2 5 -8 2 -8
-9 1 -10 8 -18 9 -22 3 -7 -11 27 -34 38 -26 3 3 3 2 0 -2 -3 -5 -10 -9 -15
-9 -5 -1 -12 -2 -16 -3 -4 0 1 -7 10 -13 16 -12 15 -13 -9 -15 -15 0 -23 2
-17 5 5 4 1 15 -10 25 -18 18 -18 18 -15 -4 3 -21 -1 -24 -34 -25 -23 -1 -38
3 -38 10 0 6 -5 3 -11 -7 -8 -13 -14 -15 -30 -7 -13 8 -25 7 -39 0 -11 -6 -31
-8 -44 -6 -14 2 -27 -1 -30 -7 -3 -9 -5 -9 -5 1 -1 6 -11 11 -23 11 -17 -1
-19 -2 -5 -6 9 -2 17 -9 17 -14 0 -6 -5 -7 -11 -3 -8 4 -8 0 0 -15 18 -32 -2
-25 -22 9 -18 30 -40 32 -52 2 -5 -13 -3 -13 14 2 20 18 20 18 18 -9 -2 -22 2
-28 20 -30 37 -3 37 -13 1 -14 -84 -3 -204 -8 -210 -10 -5 0 -8 -6 -8 -12 0
-5 6 -7 13 -3 10 6 10 4 0 -7 -16 -16 -17 -30 -2 -26 6 1 13 -4 15 -11 1 -7 0
-8 -2 -3 -3 5 -16 4 -31 -4 -17 -9 -32 -11 -43 -5 -10 5 -21 6 -25 2 -3 -4
-25 -8 -47 -8 -40 -2 -59 -16 -57 -44 1 -11 3 -10 6 3 2 9 8 17 13 17 9 0 7
-26 -3 -36 -7 -7 -74 -15 -135 -16 -25 0 -30 -3 -22 -13 8 -10 7 -16 -7 -24
-10 -6 -13 -11 -7 -11 7 0 14 -6 17 -14 5 -12 -3 -14 -34 -12 -22 2 -42 0 -44
-4 -2 -4 -24 -6 -47 -5 -38 1 -43 -1 -44 -22 -1 -13 1 -23 5 -23 4 0 8 -6 8
-14 0 -9 -10 -13 -29 -12 -15 1 -28 0 -28 -4 0 -3 -20 -5 -44 -5 -26 1 -42 -3
-39 -9 4 -6 -1 -6 -13 -2 -15 6 -17 5 -6 -5 15 -16 16 -33 1 -23 -8 5 -8 1 0
-14 13 -24 1 -31 -47 -27 -18 1 -32 -2 -32 -7 0 -5 -6 -6 -12 -2 -10 5 -10 4
-2 -5 16 -17 5 -58 -17 -64 -10 -3 -22 -1 -25 4 -3 5 -13 5 -23 -1 -10 -5 -21
-7 -23 -4 -3 2 -11 -4 -19 -13 -12 -16 -12 -17 2 -6 24 19 30 4 8 -18 -24 -24
-29 -24 -29 0 0 11 -5 23 -11 27 -8 4 -9 -1 -4 -17 11 -38 25 -46 39 -26 17
22 21 22 23 -2 1 -17 -4 -19 -37 -17 -39 3 -58 -13 -43 -36 3 -7 1 -8 -5 -4
-16 9 -15 -7 0 -22 9 -9 9 -12 0 -12 -7 0 -12 5 -12 11 0 5 -5 7 -10 4 -6 -4
-8 -11 -5 -16 4 -5 2 -9 -3 -9 -15 0 -23 43 -10 51 7 4 15 6 19 3 4 -2 9 2 12
9 3 9 -4 13 -23 12 -22 0 -30 -6 -33 -22 -2 -13 -1 -23 3 -23 4 0 7 -7 7 -14
0 -8 -3 -15 -6 -14 -3 0 -10 -1 -16 -2 -5 -2 -23 -3 -39 -4 -28 -1 -30 -4 -31
-44 -1 -23 -7 -48 -14 -55 -10 -9 -11 -8 -6 6 5 12 2 17 -10 17 -9 0 -13 -4
-10 -10 4 -7 -2 -7 -18 -1 -28 11 -42 4 -27 -14 16 -20 -5 -66 -26 -58 -13 5
-15 3 -9 -8 6 -11 5 -12 -6 -1 -22 21 -38 14 -35 -15 4 -38 -13 -71 -25 -52
-5 8 -9 9 -9 3 0 -6 -7 -11 -15 -11 -8 0 -15 5 -15 11 0 6 -5 4 -10 -4 -14
-22 -12 -30 7 -24 15 5 16 4 3 -5 -8 -6 -15 -20 -15 -33 0 -18 -6 -23 -28 -25
-19 -1 -25 2 -20 10 5 9 3 8 -9 0 -8 -7 -18 -10 -21 -6 -4 3 -7 -1 -7 -11 0
-10 5 -14 12 -10 7 5 8 3 2 -7 -5 -8 -7 -22 -6 -31 2 -10 -1 -18 -7 -18 -6 0
-8 -8 -5 -17 5 -17 5 -17 -6 0 -11 17 -46 25 -36 8 4 -5 -2 -7 -13 -4 -15 4
-18 0 -16 -21 2 -13 6 -30 11 -37 4 -8 3 -9 -4 -5 -12 7 -14 -2 -15 -56 0 -23
-4 -27 -23 -24 -13 3 -25 -1 -28 -7 -3 -9 -5 -9 -5 1 -1 18 -21 15 -21 -4 0
-9 -5 -12 -12 -8 -10 6 -10 4 -2 -7 28 -39 -13 -81 -54 -55 -9 6 -11 0 -8 -20
3 -17 0 -31 -7 -36 -9 -6 -9 -8 0 -8 7 0 10 -7 7 -15 -4 -8 -10 -12 -15 -9
-12 7 -11 -3 1 -26 7 -12 6 -21 -3 -28 -9 -7 -17 -3 -31 16 -20 27 -20 27 0
10 28 -24 34 -22 21 5 -8 16 -17 22 -32 19 -17 -3 -21 -10 -20 -38 1 -19 -2
-34 -8 -34 -5 0 -5 -6 2 -13 6 -8 8 -17 5 -20 -4 -4 -7 -17 -8 -29 -1 -18 -7
-23 -29 -23 -15 -1 -27 3 -27 9 0 19 -14 -5 -18 -30 -2 -18 1 -24 9 -18 8 5 9
3 3 -7 -8 -14 -14 -34 -16 -56 -1 -7 -5 -10 -10 -7 -4 3 -8 0 -8 -7 0 -8 -4
-8 -15 1 -8 7 -15 17 -15 22 0 6 6 6 14 -1 10 -9 15 -8 19 2 3 9 -2 13 -16 11
-12 -1 -24 -3 -27 -4 -3 -1 -7 -2 -10 -2 -3 0 -5 -11 -5 -24 0 -20 2 -22 11
-9 6 8 14 12 17 8 4 -3 1 -13 -6 -21 -10 -13 -9 -14 3 -7 25 16 48 16 46 0 -3
-23 -16 -31 -26 -15 -7 12 -11 12 -26 -1 -11 -9 -15 -9 -10 -1 4 6 2 12 -3 12
-11 0 -12 -7 -14 -117 0 -37 -2 -62 -4 -56 -2 5 -15 8 -30 5 -18 -3 -24 -1
-19 7 4 6 12 9 17 6 5 -4 14 -3 20 1 8 5 8 9 -1 14 -9 6 -9 12 0 29 10 21 10
22 -8 12 -13 -7 -22 -7 -29 0 -7 7 -12 5 -16 -5 -4 -10 -1 -13 8 -10 16 6 15
-25 -1 -43 -6 -6 -10 -32 -9 -57 2 -26 -2 -46 -7 -46 -6 0 -8 -7 -4 -15 7 -19
-8 -19 -24 0 -10 12 -10 15 0 15 8 0 11 2 8 5 -3 3 -13 3 -22 -1 -14 -5 -12
-10 11 -28 31 -23 42 -56 19 -52 -9 1 -19 6 -23 11 -4 4 -1 4 7 0 13 -8 13 -6
-1 15 -9 13 -22 26 -30 28 -11 3 -11 1 1 -7 10 -7 11 -11 3 -11 -7 0 -13 -5
-13 -11 0 -8 6 -7 17 2 15 12 16 12 10 -4 -4 -10 -7 -20 -7 -23 0 -2 -6 -1
-14 2 -16 6 -17 -37 -1 -48 6 -5 6 -8 -1 -8 -8 0 -12 -19 -11 -52 0 -31 -4
-53 -11 -56 -7 -2 -9 -9 -5 -15 13 -19 10 -54 -4 -54 -7 0 -13 4 -13 9 0 4 -5
8 -11 8 -5 0 -8 -4 -4 -9 6 -11 -13 -26 -22 -18 -3 3 -1 12 3 19 13 20 14 39
2 32 -7 -4 -8 -2 -4 5 4 6 11 9 15 6 5 -2 16 3 24 13 15 16 15 18 -3 18 -10 0
-16 -4 -14 -8 3 -4 -3 -8 -13 -8 -15 0 -18 -9 -19 -65 -1 -36 2 -62 7 -60 4 3
2 -7 -6 -22 -9 -17 -11 -29 -5 -31 5 -2 6 -11 2 -20 -4 -9 -7 -38 -7 -64 0
-25 -3 -44 -7 -42 -5 3 -5 10 -2 16 4 7 2 8 -4 4 -9 -5 -9 -13 0 -29 10 -21
10 -21 -7 -7 -10 8 -19 13 -21 10 -1 -3 -6 -1 -11 4 -5 5 -2 6 6 1 9 -5 12 -4
7 3 -3 6 2 15 11 21 10 6 14 11 10 11 -4 0 -3 9 3 21 10 18 10 19 -8 10 -13
-7 -22 -7 -29 0 -7 7 -12 6 -16 -4 -4 -10 1 -13 18 -11 17 1 22 -2 18 -13 -4
-10 -8 -11 -13 -3 -5 8 -11 6 -20 -5 -11 -13 -10 -14 5 -9 16 7 16 5 3 -17
-11 -16 -15 -47 -14 -96 1 -40 -1 -73 -4 -73 -8 0 -6 -72 3 -87 4 -6 3 -14 -3
-18 -6 -4 -8 -11 -5 -16 4 -5 0 -9 -7 -9 -9 0 -10 -3 -2 -8 9 -6 12 -120 4
-142 -4 -8 -7 -24 -9 -40 -1 -10 -4 -11 -9 -4 -4 6 -16 16 -27 22 -11 6 -14
12 -7 12 6 0 12 5 12 11 0 5 -4 8 -8 5 -4 -2 -8 4 -8 14 0 10 3 17 7 14 15 -9
16 22 1 39 -9 10 -10 17 -4 17 6 0 18 -10 28 -22 11 -15 14 -17 11 -6 -4 10
-1 20 5 24 7 4 5 10 -6 16 -9 5 -13 14 -10 20 5 7 2 8 -5 3 -9 -5 -10 -10 -2
-18 16 -16 13 -31 -4 -17 -24 20 -39 1 -18 -23 15 -17 15 -19 2 -15 -14 5 -16
-32 -16 -375 -1 -276 2 -386 10 -396 9 -12 9 -13 0 -7 -18 10 -18 -55 -1 -73
7 -8 8 -11 3 -8 -7 3 -10 -30 -10 -97 0 -77 3 -103 13 -103 9 0 9 4 2 11 -5 5
-10 15 -10 21 1 5 10 -1 20 -14 11 -13 20 -19 20 -14 0 5 -6 15 -12 22 -11 10
-9 12 6 9 10 -2 21 4 23 12 4 13 3 13 -6 0 -8 -12 -11 -12 -11 -1 0 11 -3 11
-17 0 -14 -12 -16 -12 -11 1 3 8 12 15 20 14 8 -1 15 4 15 11 0 7 -6 11 -14 8
-13 -5 -15 -2 -16 40 -1 12 -5 25 -10 28 -5 4 -4 9 2 13 6 4 11 2 11 -3 0 -6
5 -11 10 -11 6 0 10 7 10 15 0 8 4 15 10 15 5 0 9 -3 9 -7 -1 -5 0 -10 1 -13
6 -17 4 -58 -3 -53 -5 3 -7 14 -4 24 6 21 -1 23 -22 10 -10 -6 -10 -10 -1 -16
6 -4 9 -14 6 -22 -3 -8 -2 -11 3 -8 16 10 26 -18 26 -75 0 -35 -5 -59 -14 -66
-11 -9 -12 -12 -1 -19 9 -5 11 -4 6 3 -4 7 -3 12 3 12 13 0 23 -17 14 -23 -10
-6 -9 -60 2 -77 6 -9 4 -11 -4 -5 -10 5 -11 3 -4 -11 5 -11 8 -33 7 -49 -2
-24 2 -31 17 -32 12 -1 17 3 13 9 -4 7 -2 8 5 4 16 -10 3 -27 -17 -24 -13 2
-17 -5 -17 -27 0 -16 4 -36 9 -42 5 -8 5 -13 -1 -13 -6 0 -9 -12 -7 -26 3 -27
14 -47 14 -24 0 9 3 10 14 1 10 -9 16 -8 26 3 10 13 8 15 -8 11 -22 -4 -33 12
-27 41 2 11 4 22 4 26 1 3 12 1 24 -5 19 -9 24 -19 25 -52 1 -114 10 -266 14
-271 3 -2 8 2 11 11 4 8 1 15 -5 15 -7 0 -3 7 8 16 10 8 13 12 5 8 -9 -5 -12
-3 -7 5 4 6 2 19 -6 28 -11 14 -11 15 2 8 8 -6 20 -10 25 -10 6 0 9 -11 7 -25
-3 -24 -2 -24 13 -6 12 15 15 16 15 5 0 -9 -11 -21 -23 -28 -13 -7 -24 -19
-24 -27 0 -9 4 -11 12 -4 7 5 16 6 20 2 5 -4 5 -2 1 5 -3 6 -3 14 2 17 8 5 12
-13 15 -69 0 -16 8 -36 17 -43 13 -11 13 -11 -1 -7 -12 5 -15 -2 -14 -34 1
-22 8 -48 16 -57 13 -16 12 -17 -5 -11 -15 6 -17 5 -8 -6 7 -8 10 -16 8 -18
-2 -2 6 -4 19 -4 13 0 21 3 19 7 -2 3 2 8 8 11 10 3 10 8 -1 21 -8 9 -20 15
-27 12 -15 -6 -27 21 -14 29 6 4 10 2 10 -3 0 -5 9 -12 20 -15 11 -3 18 -1 15
3 -3 5 -1 11 4 14 4 3 8 -12 7 -34 -1 -22 0 -40 3 -40 4 0 6 -29 5 -64 0 -79
9 -108 32 -99 10 4 15 2 11 -4 -3 -5 0 -10 8 -10 11 0 12 3 3 14 -6 8 -17 12
-24 9 -13 -5 -13 19 1 31 4 4 5 2 1 -4 -4 -7 -2 -13 4 -13 7 0 10 6 7 13 -2 6
-9 11 -15 10 -5 -1 -12 4 -15 11 -4 10 1 12 15 8 16 -4 19 -2 13 8 -5 8 -4 11
3 6 6 -4 8 -14 5 -24 -6 -14 -4 -15 8 -5 13 10 16 10 16 -2 0 -8 -4 -12 -9 -9
-10 6 -11 -10 -1 -20 9 -9 14 -34 15 -73 0 -34 9 -41 49 -38 24 2 26 -1 22
-26 -2 -16 0 -36 5 -46 6 -10 6 -26 1 -40 -5 -15 -5 -23 2 -23 6 0 7 -4 4 -10
-3 -5 -1 -10 5 -10 6 0 8 -6 4 -12 -4 -7 -4 -10 1 -6 4 4 14 3 22 -4 10 -8 17
-8 26 1 9 10 8 11 -4 6 -10 -4 -20 -2 -24 4 -4 7 2 10 17 8 27 -5 32 -36 8
-54 -12 -10 -11 -11 10 -7 20 5 22 3 10 -5 -14 -10 -7 -16 14 -12 5 1 4 -4 -2
-12 -15 -17 -9 -63 7 -60 6 2 11 -3 11 -10 0 -8 4 -7 10 3 9 13 11 13 20 0 5
-8 10 -11 10 -6 0 6 6 1 14 -10 8 -10 11 -23 6 -29 -4 -5 -6 -18 -4 -28 3 -22
14 -36 14 -19 0 7 5 12 11 12 5 0 7 -6 3 -12 -6 -10 -4 -10 7 0 7 6 20 12 28
12 11 0 10 -4 -5 -16 -15 -12 -15 -14 -2 -11 10 4 18 -1 21 -14 5 -17 3 -18
-10 -7 -15 12 -15 11 -4 -9 6 -13 9 -23 5 -23 -3 0 -2 -6 3 -12 5 -7 9 -25 8
-40 -1 -21 3 -25 19 -22 11 2 25 -1 31 -6 7 -6 11 -3 12 9 1 14 -5 18 -25 17
-18 -1 -27 4 -27 14 0 8 -4 21 -8 27 -6 9 -3 11 8 7 11 -4 14 -13 9 -28 -6
-18 -5 -19 9 -7 9 7 15 17 12 21 -3 4 2 10 10 13 10 4 12 1 8 -10 -4 -10 -2
-14 4 -10 6 4 9 -6 8 -24 -1 -16 2 -32 7 -35 4 -3 6 -19 3 -36 -5 -24 -3 -29
9 -25 10 4 13 1 10 -8 -4 -10 0 -12 15 -8 12 3 18 10 14 17 -3 6 3 3 14 -7 11
-9 22 -16 24 -15 2 2 -2 -3 -10 -9 -8 -7 -10 -13 -4 -13 6 0 10 -8 8 -17 -4
-28 14 -44 36 -32 11 5 16 15 13 21 -4 7 -3 8 5 4 6 -4 9 -12 6 -17 -4 -5 0
-12 9 -15 8 -3 12 -12 9 -20 -8 -22 5 -61 21 -61 8 0 13 4 10 9 -7 11 3 10 27
-3 11 -5 17 -14 14 -20 -4 -5 -1 -9 6 -9 8 0 8 -4 1 -13 -7 -8 -7 -17 1 -27
14 -17 57 -23 57 -7 0 6 5 6 13 -1 7 -6 12 -27 11 -46 -1 -20 2 -39 7 -42 5
-3 9 -1 9 4 0 5 7 9 15 9 8 0 15 -5 15 -10 0 -5 7 -3 16 4 14 11 16 10 14 -11
-4 -40 0 -74 6 -67 3 3 17 2 29 -3 16 -6 25 -5 29 3 3 9 5 8 5 -1 1 -7 5 -11
10 -8 4 3 7 -12 6 -34 -1 -22 1 -37 6 -35 4 3 10 1 14 -5 4 -6 12 -7 18 -3 19
12 37 12 37 2 0 -6 4 -8 9 -4 5 3 13 1 16 -5 5 -7 11 -8 19 -1 6 5 16 7 22 3
13 -9 12 -52 -1 -51 -15 1 -33 13 -37 24 -2 5 -7 9 -11 7 -5 -1 -5 3 -1 10 4
7 3 9 -2 5 -4 -4 -9 -20 -9 -35 -1 -24 3 -28 30 -29 101 -5 141 -16 129 -34
-4 -6 -10 -6 -18 0 -9 8 -13 7 -13 -4 0 -7 3 -14 6 -13 21 2 30 -4 25 -17 -7
-18 17 -20 35 -3 11 10 13 10 7 1 -5 -8 -1 -13 10 -13 9 0 27 -11 40 -25 13
-14 19 -25 14 -25 -5 0 -12 5 -15 10 -3 6 -11 10 -17 10 -7 0 -6 -6 2 -15 10
-12 10 -15 -1 -15 -12 0 -12 -2 0 -9 8 -5 23 -8 33 -6 10 2 18 1 18 -3 0 -4
18 -7 40 -6 26 0 37 -3 33 -10 -4 -6 1 -5 11 3 14 12 19 12 29 1 9 -10 9 -11
0 -6 -7 4 -13 2 -13 -3 0 -6 5 -11 11 -11 8 0 8 -4 -1 -15 -6 -8 -9 -18 -6
-23 8 -13 55 -21 62 -11 3 5 13 5 22 0 9 -4 28 -7 42 -6 35 3 52 -12 40 -35
-7 -13 -6 -20 3 -23 7 -4 8 -6 1 -6 -6 -1 -17 6 -24 14 -10 12 -10 18 0 30 9
10 9 15 1 15 -6 0 -11 -5 -11 -11 0 -8 -5 -8 -15 1 -11 9 -15 9 -15 1 0 -7 -4
-10 -8 -7 -4 2 -8 -8 -7 -23 0 -29 -11 -27 137 -33 36 -2 64 -6 61 -10 -2 -5
0 -8 6 -8 6 0 7 -8 4 -17 -4 -11 -8 -13 -11 -5 -2 7 -12 16 -21 22 -14 7 -17
5 -16 -11 2 -22 18 -42 39 -45 10 -1 12 4 9 14 -4 9 -2 13 4 9 7 -4 9 5 7 25
-2 17 -1 28 3 24 4 -4 8 -21 8 -39 1 -19 6 -31 13 -29 7 1 12 -3 12 -8 0 -7 6
-7 19 0 11 5 22 6 25 2 3 -5 26 -8 51 -7 25 0 45 -3 45 -8 0 -4 4 -6 9 -2 5 3
13 0 17 -6 4 -7 3 -9 -4 -5 -11 7 -25 -9 -29 -35 -2 -12 8 -16 40 -17 23 -1
65 -2 93 -3 l52 -2 -14 -34 c-8 -18 -13 -33 -12 -34 2 -1 19 -2 38 -3 20 -1
41 -6 48 -10 7 -4 12 -3 12 2 0 11 50 3 67 -10 6 -5 14 -5 17 0 7 12 125 7
139 -7 6 -6 7 -11 3 -11 -5 0 -3 -6 3 -14 9 -11 9 -16 0 -22 -8 -5 -9 -3 -4 6
6 9 4 11 -5 5 -8 -5 -11 -4 -7 3 5 6 0 8 -13 5 -12 -3 -20 0 -20 6 0 7 4 10 9
6 5 -3 12 -1 15 4 4 5 1 13 -5 17 -7 4 -9 3 -6 -3 3 -5 0 -10 -8 -10 -8 0 -15
4 -15 9 0 5 -6 3 -14 -4 -9 -8 -11 -17 -5 -22 13 -15 11 -28 -3 -20 -7 4 -9 3
-5 -1 13 -15 36 -14 30 1 -4 10 0 12 11 8 9 -3 14 -9 11 -14 -2 -4 8 -6 22 -4
15 1 35 -2 45 -7 14 -8 18 -6 18 8 0 11 3 14 8 7 9 -13 8 -13 160 -17 91 -3
126 -7 132 -17 9 -15 4 -30 -10 -30 -5 0 -7 9 -5 19 3 14 -1 18 -12 14 -8 -3
-11 -9 -6 -12 10 -7 10 -22 1 -37 -5 -8 159 -11 593 -11 330 0 602 4 605 8 3
5 -1 6 -8 4 -9 -4 -14 3 -15 16 -2 17 1 19 10 10 6 -6 16 -11 22 -11 12 1 -25
23 -43 26 -6 1 -9 -2 -6 -7 3 -5 2 -9 -3 -8 -20 3 -25 -2 -13 -16 8 -10 9 -15
2 -15 -6 0 -16 9 -22 20 -6 11 -15 18 -21 15 -5 -4 -9 -1 -9 5 0 6 -4 9 -9 5
-5 -3 -12 -1 -15 4 -4 5 -2 12 3 15 5 4 12 2 16 -4 4 -6 12 -7 18 -3 19 12 40
13 54 1 9 -8 13 -7 13 2 0 9 7 7 20 -5 11 -10 23 -15 27 -12 3 4 1 7 -6 7 -7
0 -10 4 -7 8 6 10 36 9 53 -1 6 -4 14 -4 16 0 3 5 46 8 96 8 71 0 90 3 86 13
-3 8 0 10 8 5 6 -4 23 -9 37 -10 20 -3 22 -1 10 7 -13 8 -13 10 2 10 9 0 24
-7 32 -16 9 -8 16 -11 16 -5 0 5 9 8 20 6 27 -5 35 13 16 34 -17 18 -50 25
-39 8 4 -6 1 -7 -7 -2 -9 6 -11 4 -5 -5 6 -9 4 -11 -5 -5 -9 5 -11 4 -6 -3 5
-8 1 -10 -10 -5 -14 5 -13 9 7 25 21 17 21 19 4 13 -16 -5 -17 -4 -8 6 10 10
15 9 28 -1 8 -7 15 -8 15 -3 0 5 7 10 15 10 8 0 11 -5 8 -11 -4 -6 0 -5 8 1
12 10 18 10 29 0 10 -9 11 -9 6 1 -5 8 0 11 16 8 13 -2 31 0 40 5 11 6 18 5
21 -4 3 -9 8 -9 18 -1 16 12 48 12 66 1 6 -4 14 -3 18 3 4 6 11 7 17 4 7 -4 8
-2 4 4 -4 7 -1 12 6 12 10 0 10 2 -1 9 -9 6 -10 11 -2 15 6 4 9 12 5 17 -3 5
-9 7 -14 4 -5 -3 -11 -2 -14 3 -3 5 18 9 47 9 137 2 136 2 132 23 -2 11 0 18
4 16 4 -3 14 6 21 19 7 14 17 25 22 25 5 0 5 -8 0 -17 -5 -10 -7 -24 -5 -31 3
-7 -1 -11 -7 -10 -7 2 -15 -4 -17 -12 -4 -12 -3 -12 5 -2 5 8 13 13 18 13 5
-1 10 8 10 20 2 31 15 38 78 41 32 2 60 7 63 11 3 5 10 3 14 -4 6 -9 8 -5 5
14 -3 19 -1 27 7 24 7 -3 11 -10 9 -16 -1 -7 2 -10 8 -6 8 5 8 11 1 19 -8 9
-6 18 4 32 8 10 15 15 15 9 0 -5 16 -10 35 -10 19 0 33 5 32 10 -2 6 10 18 26
28 16 10 26 21 23 25 -4 3 -11 0 -16 -8 -6 -8 -10 -10 -10 -5 0 6 -5 3 -10 -5
-5 -8 -10 -10 -10 -5 1 21 26 40 53 39 15 -1 30 3 34 9 3 6 8 6 12 0 4 -6 19
-6 40 -1 33 9 33 9 15 30 -11 12 -13 18 -5 13 11 -6 13 -4 8 8 -7 18 -6 19 33
21 16 1 24 -4 22 -12 -1 -8 2 -11 8 -7 6 3 8 10 5 15 -9 15 15 22 30 10 8 -7
15 -11 16 -9 7 35 6 39 -8 37 -10 -2 -17 5 -18 19 -1 15 3 19 13 15 9 -3 13
-1 10 4 -4 5 4 9 16 9 13 0 23 -6 23 -13 0 -7 -7 -10 -18 -7 -9 3 -20 2 -23
-3 -3 -5 8 -9 25 -10 17 0 29 4 28 11 -4 31 1 38 20 27 13 -6 22 -7 26 0 3 5
13 6 22 3 13 -5 15 -2 11 15 -4 15 -2 20 5 15 7 -4 7 0 -1 9 -17 21 -1 32 45
33 17 0 35 3 39 8 4 4 1 7 -6 7 -9 0 -8 6 5 20 10 11 13 20 7 20 -7 0 -12 5
-12 11 0 6 7 9 15 5 8 -3 15 -2 15 3 0 9 24 12 95 13 22 1 32 3 23 5 -10 3
-18 8 -18 13 0 4 -10 7 -23 6 -17 -2 -23 2 -22 16 1 10 8 24 15 31 12 10 12 9
2 -4 -9 -13 -6 -15 23 -16 25 -1 32 3 28 13 -5 12 12 17 43 13 4 0 11 5 15 13
7 10 9 10 9 1 0 -7 4 -13 9 -13 5 0 9 17 8 38 -1 23 3 37 11 38 36 4 37 4 22
14 -8 5 -10 10 -4 10 5 0 15 -5 22 -12 18 -18 44 20 31 44 -7 13 -6 18 3 20 7
0 18 2 23 2 6 1 16 5 23 9 7 5 12 3 12 -3 0 -6 4 -9 9 -6 4 3 7 23 5 45 -2 23
1 43 7 46 5 4 9 2 9 -4 0 -6 11 -6 28 -1 23 6 31 4 40 -11 8 -12 9 -19 2 -19
-7 0 -8 -6 0 -19 7 -14 7 -22 0 -26 -6 -4 -8 -11 -4 -16 3 -5 9 -7 14 -4 5 3
12 0 16 -6 4 -7 3 -9 -3 -6 -6 4 -16 0 -23 -8 -8 -9 -8 -15 -2 -15 7 0 8 -10
3 -27 -5 -16 -5 -37 -1 -48 4 -11 3 -25 -2 -32 -6 -7 -5 -14 2 -18 6 -3 8 -11
4 -16 -8 -13 -8 -124 0 -137 3 -6 3 -13 -1 -15 -9 -6 -8 -212 1 -225 3 -5 2
-12 -1 -16 -10 -10 -10 -50 1 -57 4 -4 3 -16 -3 -28 -10 -18 -9 -21 6 -22 11
0 13 -3 6 -6 -7 -2 -13 -10 -13 -16 0 -5 3 -7 7 -4 3 4 12 2 20 -5 14 -11 28
-4 28 15 0 5 6 11 13 13 7 1 8 0 2 -3 -5 -2 -8 -9 -4 -14 3 -5 7 -37 8 -70 2
-39 8 -64 17 -70 10 -6 10 -9 2 -9 -7 0 -13 -5 -13 -12 0 -6 3 -8 7 -5 3 4 12
2 19 -4 16 -13 37 -2 28 14 -3 7 2 3 11 -8 9 -11 24 -19 33 -17 16 3 16 2 1
-10 -22 -18 -30 -54 -13 -56 8 -1 30 -2 49 -3 31 -1 34 -4 29 -23 -3 -14 1
-27 10 -35 10 -8 16 -9 16 -3 0 6 -5 12 -11 14 -7 2 -9 13 -5 24 5 18 17 21
68 15 12 -2 -1 -46 -18 -58 -12 -8 35 -11 198 -10 l213 2 0 28 c1 16 -3 31 -9
34 -5 3 -6 1 -2 -6 9 -14 -16 -11 -26 4 -5 6 -8 5 -8 -2 0 -21 -3 -27 -16 -40
-16 -17 -21 -16 -21 2 0 8 4 12 8 10 4 -3 9 2 12 10 4 10 1 12 -11 9 -13 -5
-14 -4 -3 4 10 7 10 11 1 14 -7 2 26 4 74 3 79 0 87 1 83 17 -3 10 -1 18 4 18
6 0 5 8 -1 20 -12 22 -11 22 40 24 33 2 35 4 35 37 0 19 3 39 6 44 3 6 5 27 4
47 -1 22 3 34 9 31 5 -4 7 1 3 10 -3 9 -2 19 4 22 5 4 9 3 8 -2 -4 -22 2 -34
14 -27 6 4 9 4 5 -1 -4 -4 -2 -15 5 -23 8 -11 8 -14 0 -9 -6 4 -15 2 -19 -4
-5 -8 -3 -9 6 -4 8 5 11 4 7 -1 -3 -5 2 -10 12 -10 9 0 17 8 17 17 0 10 -5 15
-10 12 -6 -4 -6 1 -2 13 14 34 15 56 6 74 -5 10 -6 20 -3 24 12 12 11 61 -1
68 -7 5 -7 8 -1 8 12 0 14 168 2 187 -4 6 -4 14 1 17 10 6 9 607 -1 623 -4 6
-4 14 1 17 10 6 9 607 -1 623 -4 6 -4 14 1 17 11 6 9 448 -2 465 -6 8 -5 12 0
8 11 -6 12 292 2 309 -4 6 -4 14 0 18 10 10 9 776 0 783 -5 2 -5 10 -1 16 13
19 11 770 -1 786 -7 9 -7 12 -1 9 13 -8 14 291 1 311 -5 8 -5 12 0 8 12 -7 12
293 0 312 -5 8 -5 12 0 8 11 -6 12 292 2 309 -4 6 -4 14 0 18 10 10 9 776 0
783 -5 2 -5 10 -1 16 12 19 10 646 -2 639 -5 -3 -4 2 4 12 13 15 13 19 0 27
-8 5 -9 9 -4 9 6 0 10 26 10 59 0 33 -2 59 -5 59 -19 -1 -21 4 -5 16 16 11 12
12 -30 9 -42 -4 -47 -3 -36 10 8 11 9 17 1 22 -6 4 -10 12 -9 18 3 23 -3 52
-7 40 -4 -9 -13 -9 -32 -2 -15 6 -29 9 -31 7 -3 -2 -4 16 -4 39 0 36 -2 41
-16 35 -21 -10 -42 -9 -60 2 -11 7 -12 6 -6 -5 8 -12 6 -12 -8 0 -19 15 -23
32 -6 28 6 -1 14 5 16 13 4 13 3 13 -6 0 -6 -8 -11 -12 -11 -8 0 3 -3 14 -7
24 -4 11 -3 15 5 10 6 -3 13 -3 15 1 3 5 -31 9 -74 10 -61 2 -78 0 -73 -10 6
-9 4 -9 -7 -1 -8 7 -54 12 -103 13 -72 2 -90 -1 -101 -15 -9 -13 -14 -14 -20
-4 -5 9 -4 11 3 6 7 -4 12 -2 12 3 0 16 -23 13 -46 -5 -10 -8 -13 -13 -6 -9 6
3 12 1 12 -5 0 -6 5 -8 10 -5 6 3 10 2 10 -4 0 -5 -5 -13 -10 -16 -6 -4 -8
-10 -6 -14 3 -4 -15 -7 -39 -6 -25 2 -45 -2 -45 -7 0 -6 -6 -8 -14 -5 -17 7
-39 -16 -28 -28 4 -5 1 -5 -6 -1 -11 6 -11 11 0 24 11 13 11 14 -2 10 -10 -3
-15 -17 -15 -39 0 -19 -5 -38 -12 -42 -8 -5 -11 -12 -8 -16 2 -5 -2 -14 -10
-21 -8 -7 -15 -9 -15 -4 0 5 -5 2 -11 -6 -9 -13 -10 -13 -6 0 2 8 10 15 18 15
8 0 14 8 14 18 0 9 -4 16 -10 15 -5 -2 -9 -7 -7 -12 2 -5 -4 -4 -12 4 -9 7
-17 10 -17 6 -1 -3 -2 -10 -3 -15 0 -5 -4 -13 -8 -16 -4 -4 -3 -16 2 -26 6
-11 6 -20 1 -23 -5 -4 -9 -23 -8 -43 1 -21 -3 -38 -11 -41 -8 -2 -10 2 -5 15
4 11 -3 7 -16 -9 -12 -16 -30 -28 -39 -28 -15 -1 -14 -3 2 -15 11 -8 14 -15 7
-15 -7 0 -9 -4 -6 -10 3 -5 1 -10 -6 -10 -10 0 -10 -3 -2 -11 7 -7 8 -21 3
-38 -4 -15 -3 -35 2 -44 6 -11 5 -17 -2 -17 -7 0 -8 -6 0 -19 7 -14 7 -22 0
-26 -8 -5 -8 -11 -1 -19 6 -7 8 -15 5 -19 -8 -8 -8 -122 0 -135 3 -6 3 -13 -2
-16 -5 -3 -7 -31 -5 -63 2 -32 4 -77 6 -101 1 -23 -2 -44 -8 -46 -5 -3 -4 -5
3 -5 9 -1 10 -7 4 -18 -4 -10 -7 -48 -7 -85 l2 -67 -36 4 c-54 4 -73 14 -58
30 7 7 17 10 22 7 6 -3 4 2 -3 11 -8 9 -11 20 -8 25 3 5 -7 9 -22 10 -59 0
-60 1 -57 29 4 43 -4 54 -34 46 -14 -3 -30 -11 -34 -17 -6 -7 -7 -5 -4 6 7 19
-8 27 -45 23 -21 -2 -25 0 -21 13 4 9 2 13 -4 9 -6 -4 -9 6 -8 23 1 24 -2 29
-24 29 -50 0 -66 7 -63 27 2 11 7 23 12 28 11 11 32 -2 24 -16 -4 -6 -10 -5
-15 3 -7 11 -9 10 -9 -3 0 -23 16 -32 24 -12 6 16 26 11 26 -7 0 -6 -5 -7 -12
-3 -7 4 -8 3 -4 -4 4 -6 13 -9 22 -5 13 5 12 8 -3 26 -17 20 -17 20 1 13 15
-5 17 -4 8 7 -7 8 -8 17 -4 22 4 4 -3 3 -15 -4 -16 -8 -24 -8 -29 0 -4 8 -9 7
-15 -2 -6 -11 -9 -10 -14 3 -5 12 -16 15 -41 12 -20 -2 -34 0 -34 6 0 6 6 8
13 4 9 -6 9 -4 1 7 -6 8 -14 26 -18 42 -6 24 -9 26 -26 17 -15 -8 -20 -8 -20
1 0 8 -5 7 -17 -2 -15 -13 -16 -12 -11 8 4 13 2 25 -3 28 -4 3 -6 12 -2 20 5
15 3 16 -44 19 -16 1 -33 5 -40 9 -6 4 -14 1 -16 -5 -4 -10 -6 -10 -6 -1 -1 7
-8 10 -16 7 -18 -7 -47 14 -39 27 3 5 9 7 14 4 5 -3 11 -1 15 5 3 5 12 10 18
10 7 -1 1 -10 -12 -20 -13 -11 -18 -20 -13 -20 6 0 14 5 18 11 4 8 9 7 15 -2
7 -11 9 -11 9 -1 0 7 4 10 10 7 5 -3 7 0 4 8 -8 22 -55 40 -108 42 -31 1 -51
6 -54 15 -3 7 -1 10 4 7 11 -6 11 39 1 50 -4 4 -35 8 -70 9 -34 2 -66 3 -71 3
-4 1 -5 8 -2 17 6 15 4 15 -11 3 -10 -7 -15 -9 -11 -5 4 5 2 16 -5 24 -8 10
-8 13 -1 9 7 -4 15 0 18 9 3 8 2 12 -4 9 -6 -3 -10 -2 -10 4 0 5 -8 10 -17 9
-10 0 -42 1 -71 2 -45 2 -53 6 -58 26 -3 12 -3 27 0 32 3 6 -1 13 -10 16 -25
10 -27 7 -13 -11 13 -17 13 -17 -7 -1 -16 14 -23 15 -32 6 -8 -8 -12 -8 -12
-1 0 5 -21 10 -47 10 -36 0 -51 5 -65 23 -18 23 -16 40 5 40 9 0 9 -2 0 -8 -8
-5 -7 -12 4 -27 12 -16 14 -16 10 -3 -3 10 -2 20 3 23 15 10 -10 30 -36 30
-28 0 -28 3 -9 -43 13 -33 13 -35 0 -18 -8 11 -15 26 -15 34 0 7 -4 10 -10 7
-5 -3 -7 0 -5 7 4 10 -5 14 -37 13 -32 -1 -48 4 -61 19 -17 19 -18 19 -13 3 4
-12 2 -17 -6 -14 -7 2 -21 0 -32 -5 -13 -7 -16 -7 -12 1 4 6 2 11 -4 11 -6 0
-8 5 -4 12 5 7 2 9 -7 6 -11 -4 -15 1 -15 17 0 13 4 21 8 19 5 -3 6 -10 3 -15
-12 -19 23 -8 41 13 12 14 13 18 3 10 -9 -6 -19 -9 -22 -6 -12 12 -62 13 -69
1 -6 -9 -8 -9 -8 0 0 7 -20 12 -55 13 -85 2 -90 2 -97 14 -5 7 -8 7 -8 0 0
-15 -87 -11 -102 6 -11 12 -10 12 6 0 18 -14 19 -13 13 3 -5 12 -3 16 4 11 7
-4 10 -1 7 7 -3 8 -12 13 -21 13 -8 -1 -13 4 -11 11 4 9 -18 12 -81 13 -47 1
-90 4 -96 7 -5 4 -9 1 -9 -5 0 -6 -5 -8 -12 -3 -7 4 -56 8 -108 9 -52 0 -104
5 -114 9 -12 5 -17 5 -13 -2 3 -5 -3 -9 -16 -8 -12 2 -21 8 -20 14 2 6 -2 11
-9 11 -6 0 -3 7 8 16 16 13 16 15 2 10 -10 -3 -18 -1 -18 4 0 13 27 13 35 0 4
-7 13 -7 26 0 17 10 59 -1 59 -14 0 -2 -9 -2 -20 1 -11 3 -20 0 -20 -6 0 -7
10 -10 25 -7 14 3 25 0 25 -5 0 -6 6 -9 13 -6 6 2 11 10 9 17 -2 7 3 10 11 7
7 -3 14 1 14 8 0 8 -7 11 -15 7 -9 -3 -13 -1 -10 4 4 5 -110 10 -284 11 -233
1 -287 -1 -279 -11 8 -9 7 -13 -4 -13 -7 0 -13 5 -12 11 3 16 -72 19 -91 4 -9
-7 -13 -8 -9 -2 4 7 -16 11 -63 11 -39 0 -70 -4 -70 -8 0 -5 8 -6 18 -2 14 5
15 4 4 -8 -11 -12 -15 -12 -25 1 -15 20 -110 21 -129 3 -18 -19 -32 -15 -17 5
10 13 8 12 -10 -3 -19 -15 -23 -16 -19 -4 7 17 -19 22 -29 6z m203 -28 c3 -6
-5 -3 -20 6 -14 10 -26 19 -26 22 0 7 39 -17 46 -28z m110 6 c2 -12 -2 -12
-17 -5 -23 13 -25 22 -2 13 12 -5 14 -3 8 8 -5 8 -4 11 0 6 5 -4 10 -14 11
-22z m61 7 c-17 -18 -51 -27 -41 -10 3 5 9 6 14 3 4 -3 13 2 20 10 7 8 15 15
18 15 3 0 -2 -8 -11 -18z m327 10 c3 -5 -1 -9 -9 -9 -8 0 -12 4 -9 9 3 4 7 8
9 8 2 0 6 -4 9 -8z m92 -17 c1 -9 -4 -11 -14 -7 -10 4 -12 7 -4 10 7 2 9 9 5
15 -3 7 -2 8 2 4 5 -4 10 -14 11 -22z m34 5 c-11 -7 -12 -11 0 -24 7 -9 10
-19 6 -23 -3 -3 -6 -1 -6 6 0 7 -4 10 -8 7 -12 -7 -11 26 1 42 5 7 12 10 16 7
3 -3 -1 -10 -9 -15z m187 -5 c0 -11 -4 -12 -14 -4 -7 6 -13 15 -13 20 0 5 6 6
13 3 8 -3 14 -11 14 -19z m2854 5 c6 0 7 6 3 13 -5 8 -2 8 9 -2 9 -7 17 -19
17 -25 0 -6 -5 -4 -11 4 -9 12 -10 11 -6 -7 4 -19 1 -23 -18 -23 -13 0 -27 4
-30 10 -3 5 0 7 8 4 8 -3 18 0 23 7 5 8 3 10 -6 4 -9 -5 -11 -4 -6 3 4 7 2 12
-4 12 -6 0 -8 5 -4 12 6 9 9 9 12 0 2 -7 8 -12 13 -12z m-3784 -5 c0 -8 -4
-12 -9 -9 -5 3 -6 10 -3 15 9 13 12 11 12 -6z m770 0 c-4 -8 -2 -17 3 -20 6
-4 10 -11 10 -18 0 -6 -6 -2 -14 8 -12 17 -12 45 1 45 3 0 3 -7 0 -15z m-577
-20 c0 -2 -7 -1 -17 2 -11 5 -14 3 -8 -6 6 -10 3 -11 -14 -2 -25 14 -28 23 -4
14 11 -5 14 -3 8 6 -6 10 -3 11 14 2 11 -7 21 -14 21 -16z m3320 15 c0 -5 -4
-10 -10 -10 -5 0 -10 5 -10 10 0 6 5 10 10 10 6 0 10 -4 10 -10z m-2845 -10
c3 -6 -1 -7 -9 -4 -18 7 -21 14 -7 14 6 0 13 -4 16 -10z m-464 -23 c-10 -9
-11 -8 -5 6 3 10 9 15 12 12 3 -3 0 -11 -7 -18z m200 6 c13 -16 12 -17 -3 -4
-10 7 -18 15 -18 17 0 8 8 3 21 -13z m174 8 c-9 -8 -36 -10 -30 -2 2 4 11 8
20 8 8 0 13 -3 10 -6z m70 -9 c-3 -3 -11 0 -18 7 -9 10 -8 11 6 5 10 -3 15 -9
12 -12z m36 -5 c-10 -9 -11 -8 -5 6 3 10 9 15 12 12 3 -3 0 -11 -7 -18z m2804
14 c3 -5 0 -13 -6 -17 -7 -4 -9 -3 -5 4 3 5 0 13 -6 15 -9 4 -10 6 -1 6 6 1
14 -3 18 -8z m-4230 -140 c3 -5 1 -12 -5 -16 -5 -3 -10 1 -10 9 0 18 6 21 15
7z m2285 -6 c11 -13 10 -14 -4 -9 -9 3 -16 10 -16 15 0 13 6 11 20 -6z m-2207
-8 c3 -8 -1 -14 -8 -14 -7 0 -11 6 -8 14 3 7 6 13 8 13 2 0 5 -6 8 -13z m-243
-41 c0 -3 -4 -8 -10 -11 -5 -3 -10 -1 -10 4 0 6 5 11 10 11 6 0 10 -2 10 -4z
m4955 -5 c-3 -5 -1 -12 4 -16 6 -3 7 -13 4 -22 -5 -12 -3 -14 8 -8 12 8 12 6
0 -8 -7 -9 -23 -15 -34 -13 -16 2 -22 11 -23 34 -1 20 3 29 11 25 7 -2 16 0
20 6 3 6 8 11 11 11 3 0 3 -4 -1 -9z m-4938 -16 c0 -8 -4 -12 -9 -9 -5 3 -6
10 -3 15 9 13 12 11 12 -6z m-19 -30 c-3 -3 -9 2 -12 12 -6 14 -5 15 5 6 7 -7
10 -15 7 -18z m2897 -63 c-3 -3 -11 0 -18 7 -9 10 -8 11 6 5 10 -3 15 -9 12
-12z m1195 8 c12 -7 10 -9 -8 -7 -12 0 -22 5 -22 9 0 11 12 10 30 -2z m-10
-35 c0 -8 -2 -15 -4 -15 -2 0 -6 7 -10 15 -3 8 -1 15 4 15 6 0 10 -7 10 -15z
m-1060 -19 c0 -3 -4 -8 -10 -11 -5 -3 -10 -1 -10 4 0 6 5 11 10 11 6 0 10 -2
10 -4z m1040 -46 c0 -5 -2 -10 -4 -10 -3 0 -8 5 -11 10 -3 6 -1 10 4 10 6 0
11 -4 11 -10z m-865 -50 c5 -8 11 -7 21 1 12 10 13 9 8 -5 -3 -9 -9 -16 -13
-16 -12 1 -45 30 -34 30 7 0 15 -5 18 -10z m900 -58 c-3 -3 -11 0 -18 7 -9 10
-8 11 6 5 10 -3 15 -9 12 -12z m-4708 -24 c1 -10 -3 -18 -9 -18 -7 0 -7 -4 0
-13 9 -10 6 -13 -13 -13 -20 0 -22 2 -12 15 10 12 9 14 -6 8 -18 -7 -17 1 4
29 13 17 35 12 36 -8z m3947 1 c-6 -11 -24 -2 -24 11 0 5 7 7 15 4 8 -4 12
-10 9 -15z m722 -45 c1 -9 0 -13 -4 -10 -3 4 -7 14 -8 22 -1 9 0 13 4 10 3 -4
7 -14 8 -22z m-606 -29 c0 -2 -9 -3 -19 -2 -11 0 -18 5 -15 9 4 6 34 0 34 -7z
m14 -34 c-3 -4 -9 -6 -12 -6 -4 0 -12 -3 -18 -7 -6 -4 -11 -1 -11 5 0 7 11 13
23 13 13 0 21 -2 18 -5z m-4487 -223 c-3 -8 -6 -5 -6 6 -1 11 2 17 5 13 3 -3
4 -12 1 -19z m2355 10 c-14 -14 -44 -20 -36 -7 3 5 9 7 14 4 5 -3 11 -1 15 5
3 5 9 10 13 10 3 0 1 -5 -6 -12z m14 -26 c-17 -16 -18 -16 -5 5 7 12 15 20 18
17 3 -2 -3 -12 -13 -22z m-2371 -12 c-3 -5 -12 -10 -18 -10 -7 0 -6 4 3 10 19
12 23 12 15 0z m2215 -10 c9 5 19 5 27 -2 9 -7 13 -7 13 1 0 8 6 9 18 4 27
-13 99 -8 118 8 10 8 15 9 11 3 -4 -8 5 -14 26 -17 17 -2 33 -1 35 4 2 4 10 5
19 2 12 -5 14 -3 8 8 -5 9 -1 8 10 -3 13 -12 24 -14 41 -7 13 4 24 5 24 0 0
-4 7 -8 15 -8 8 0 15 3 15 6 0 3 11 6 25 6 14 0 25 -2 25 -5 0 -3 55 -5 123
-6 93 0 121 -3 119 -13 -1 -7 2 -10 8 -6 5 3 10 -1 10 -9 0 -9 -5 -16 -11 -16
-6 0 -9 -5 -7 -12 5 -14 55 -18 81 -6 9 5 17 5 17 0 0 -5 12 -9 28 -9 171 -4
180 -6 175 -22 -4 -14 -3 -14 6 1 11 16 57 16 71 1 3 -3 -5 -4 -17 -1 -26 7
-46 -13 -37 -36 3 -9 9 -16 13 -17 3 0 24 -3 46 -5 22 -3 72 -6 112 -7 39 -1
69 -5 67 -9 -3 -5 -1 -8 5 -8 10 0 6 -38 -5 -49 -4 -3 -4 2 -1 11 4 12 2 15
-9 11 -11 -4 -12 -8 -3 -19 7 -8 14 -12 17 -10 2 3 13 1 23 -5 13 -7 19 -6 19
1 0 7 6 8 18 1 10 -5 34 -9 53 -9 60 1 66 -1 49 -12 -11 -7 -11 -10 -2 -10 7
0 10 -5 7 -10 -5 -8 -11 -7 -21 1 -8 6 -14 8 -14 3 0 -5 -5 -2 -11 6 -9 13
-10 13 -6 0 2 -8 9 -14 15 -13 6 2 16 -6 22 -17 6 -11 15 -18 21 -15 5 4 9 2
9 -3 0 -5 7 -9 15 -9 8 0 15 5 15 10 0 6 10 2 22 -9 12 -10 18 -13 13 -5 -6
10 4 7 26 -6 19 -12 37 -22 42 -22 10 -1 9 -16 -2 -16 -5 0 -13 -4 -18 -10 -4
-6 -4 -7 1 -3 4 4 15 0 24 -8 8 -9 18 -11 21 -6 3 5 15 7 26 5 11 -3 28 -5 37
-6 12 -1 14 -6 8 -17 -5 -9 -7 -25 -6 -36 3 -19 9 -20 81 -23 23 -1 27 -3 15
-11 -8 -5 -10 -10 -4 -10 6 0 14 3 18 7 11 12 36 12 43 1 3 -7 1 -8 -5 -4 -7
4 -12 2 -12 -3 0 -6 4 -11 9 -11 5 0 8 -12 5 -26 -3 -16 -1 -23 6 -19 5 3 10
2 10 -3 0 -5 19 -8 43 -7 23 2 36 1 29 -2 -10 -4 -9 -9 4 -24 15 -17 16 -19 2
-14 -12 5 -16 2 -13 -12 2 -10 4 -21 4 -24 1 -3 19 -5 41 -3 22 2 39 0 39 -4
-4 -28 1 -34 19 -21 14 11 13 10 -2 -9 -14 -17 -16 -22 -5 -22 11 0 11 -2 -1
-10 -12 -8 -10 -10 8 -10 16 0 21 4 16 13 -5 8 -2 8 9 -2 9 -7 17 -10 17 -7 0
4 6 1 13 -6 8 -7 13 -27 11 -45 -1 -18 3 -36 9 -40 5 -3 7 -1 4 4 -4 6 4 11
18 11 14 0 25 -4 25 -9 0 -5 5 -8 11 -7 6 2 14 -3 17 -11 2 -8 0 -11 -6 -7 -9
5 -10 -14 -2 -34 1 -3 2 -9 1 -14 -1 -5 5 -6 14 -3 8 4 15 1 15 -5 0 -7 4 -7
14 1 16 14 38 -8 36 -36 -4 -31 0 -41 16 -47 10 -4 13 -2 8 7 -5 8 -2 7 9 -2
14 -11 17 -11 17 0 0 8 7 6 19 -7 19 -20 18 -39 -2 -27 -8 5 -8 2 0 -9 7 -8
10 -18 6 -21 -3 -4 -1 -7 6 -7 7 0 9 -5 5 -12 -4 -7 -4 -10 1 -6 4 4 14 3 22
-4 8 -6 13 -7 11 -2 -2 5 2 10 7 11 6 1 9 -6 7 -15 -2 -14 0 -14 13 2 11 15
15 16 15 5 0 -8 -5 -20 -12 -27 -8 -8 -9 -12 -1 -12 6 0 10 -8 8 -17 -1 -10 0
-22 4 -28 3 -5 6 -22 7 -38 1 -26 14 -53 14 -29 0 6 7 9 15 5 9 -3 21 2 28 11
10 14 12 7 12 -38 -1 -59 4 -65 51 -62 27 2 30 -1 30 -30 0 -19 -5 -30 -11
-28 -5 3 -3 0 6 -8 11 -9 14 -20 9 -33 -12 -32 5 -53 39 -50 32 3 43 -12 37
-50 -2 -11 1 -28 6 -37 6 -13 5 -18 -4 -19 -9 0 -9 -2 -2 -5 7 -3 10 -13 7
-23 -5 -20 15 -67 24 -57 3 3 1 11 -5 19 -8 10 -6 13 8 13 10 0 16 -4 14 -8
-3 -4 0 -8 5 -8 6 0 11 6 12 13 0 6 4 3 8 -8 5 -11 7 -34 6 -50 -2 -16 1 -35
6 -41 7 -8 6 -14 -1 -19 -7 -4 -7 -11 -2 -18 5 -7 8 -33 8 -58 -1 -37 1 -46
13 -41 9 3 12 1 8 -5 -7 -12 17 -12 29 -1 8 9 -32 29 -41 20 -4 -4 -2 4 5 17
10 19 9 22 -1 16 -7 -5 -10 -4 -5 3 4 6 14 8 23 5 11 -4 14 -3 9 5 -4 8 -2 10
7 6 8 -3 14 -13 12 -22 -1 -9 3 -20 9 -24 8 -5 7 -8 -2 -8 -9 0 -10 -6 -4 -17
4 -10 8 -52 7 -93 0 -41 4 -78 8 -81 5 -4 4 -16 -2 -27 -7 -14 -8 -23 -1 -27
11 -7 9 -32 -5 -55 -5 -9 0 -8 13 4 26 22 28 15 7 -18 -15 -22 -15 -24 2 -22
10 0 17 -5 16 -11 -2 -7 2 -13 7 -13 6 0 10 5 10 11 0 5 6 7 13 3 8 -5 8 -2
-2 9 -9 11 -10 17 -2 17 14 0 12 14 16 -170 2 -85 4 -157 5 -160 1 -3 1 -21 0
-40 -1 -19 -3 -46 -4 -60 -1 -14 2 -35 6 -47 5 -15 3 -23 -3 -23 -7 0 -4 -11
6 -26 9 -15 11 -23 4 -19 -9 6 -11 2 -7 -13 4 -12 1 -22 -4 -22 -7 0 -6 -5 1
-13 6 -8 8 -17 5 -20 -4 -3 -7 -88 -8 -189 -1 -101 -5 -189 -10 -196 -4 -7 -2
-12 6 -13 10 0 10 -2 0 -6 -6 -2 -9 -10 -5 -16 14 -22 13 -39 -2 -27 -8 7 -15
7 -19 1 -3 -5 -1 -11 6 -13 7 -3 5 -7 -6 -11 -10 -4 -15 -3 -11 3 3 6 1 10 -4
10 -6 0 -11 5 -11 11 0 5 5 7 11 3 8 -5 8 -1 0 14 -15 29 -14 37 4 22 8 -7 12
-17 8 -24 -3 -6 -2 -7 2 -3 14 12 15 38 2 30 -8 -5 -8 -2 0 9 7 8 9 19 5 23
-4 5 -1 5 7 0 10 -6 12 -4 7 4 -6 8 -12 9 -20 2 -7 -6 -22 -9 -35 -6 -12 2
-19 0 -16 -6 4 -5 11 -6 17 -3 8 5 9 1 3 -12 -4 -10 -7 -29 -6 -41 0 -13 -4
-23 -9 -23 -7 0 -7 -6 -1 -19 6 -10 8 -21 5 -24 -10 -10 -11 -57 -1 -57 6 0 6
-4 0 -12 -5 -7 -9 -37 -8 -65 1 -55 -4 -61 -46 -58 -23 2 -25 -2 -24 -34 1
-20 -2 -53 -6 -73 -4 -23 -2 -38 4 -38 6 0 6 -4 -1 -12 -5 -7 -9 -26 -7 -41 2
-20 0 -27 -10 -23 -9 3 -12 -3 -10 -20 3 -31 -1 -30 -20 4 -16 27 -16 27 -11
2 5 -24 5 -25 -11 -5 -15 19 -15 19 -9 -12 3 -18 2 -33 -2 -33 -4 0 -8 -26 -9
-58 -3 -77 -6 -102 -12 -97 -2 3 -9 1 -15 -5 -8 -6 -12 -3 -12 9 0 10 5 17 11
14 7 -2 12 3 12 11 0 8 -9 17 -19 19 -10 3 -16 1 -12 -4 3 -5 1 -9 -5 -9 -5 0
-12 6 -15 13 -3 6 -3 0 -1 -15 2 -15 -1 -30 -6 -34 -6 -4 -6 -11 1 -19 7 -9 7
-15 1 -19 -5 -4 -9 -19 -8 -34 3 -33 -12 -53 -34 -42 -26 14 -42 -5 -43 -53 0
-25 -4 -43 -8 -41 -6 4 -5 -21 1 -43 3 -8 0 -13 -5 -12 -4 0 -11 -5 -15 -13
-7 -10 -9 -10 -9 0 0 7 -4 11 -9 7 -5 -3 -13 0 -17 6 -5 8 -3 9 6 4 9 -6 11
-4 5 5 -5 9 -4 11 4 6 7 -5 10 -2 9 6 -2 7 3 12 10 10 8 -1 11 2 7 8 -3 6 -11
8 -16 5 -5 -4 -9 -2 -9 4 0 5 6 11 13 14 6 2 1 4 -13 3 -27 -1 -26 2 -32 -127
-1 -35 -2 -36 -39 -34 -21 1 -36 -2 -33 -7 3 -4 1 -8 -5 -8 -10 0 -10 -18 2
-37 11 -18 -22 -32 -55 -23 -16 5 -28 5 -28 -1 0 -5 6 -9 13 -9 9 0 9 -2 -1
-9 -16 -9 -15 -19 1 -41 6 -8 8 -12 3 -8 -5 4 -15 1 -23 -7 -18 -18 -43 -19
-43 -2 0 8 -4 7 -10 -3 -5 -8 -10 -11 -10 -7 0 5 -5 5 -11 2 -7 -5 -4 -14 8
-28 17 -20 17 -20 -1 -13 -15 5 -16 4 -8 -7 18 -21 -2 -40 -36 -35 -26 4 -32
1 -37 -20 -3 -13 0 -31 7 -40 10 -12 10 -14 1 -8 -7 4 -13 2 -13 -4 0 -6 -14
-9 -35 -7 -38 5 -49 -11 -48 -66 0 -23 -2 -25 -15 -15 -14 11 -15 10 -9 -7 6
-17 5 -18 -5 -5 -15 17 -53 27 -43 11 3 -6 1 -11 -5 -11 -6 0 -9 -4 -5 -9 3
-6 15 -8 27 -6 11 3 17 1 14 -3 -4 -4 -11 -6 -14 -5 -13 3 -31 -19 -26 -31 4
-10 -5 -13 -31 -10 -24 1 -38 -2 -42 -12 -3 -8 -8 -12 -12 -9 -4 2 -8 -2 -8
-10 0 -8 4 -12 9 -9 4 3 8 -2 8 -10 0 -17 -11 -25 -40 -31 -11 -2 -20 1 -20 7
0 7 -4 7 -13 -1 -8 -6 -18 -7 -22 -3 -5 4 -4 0 0 -8 5 -8 10 -26 12 -41 2 -24
-1 -28 -25 -27 -51 1 -63 -2 -56 -13 4 -8 0 -8 -15 0 -16 9 -21 9 -21 -1 0 -8
-3 -9 -8 -3 -4 6 -13 11 -19 12 -13 3 -17 -8 -13 -41 1 -10 -3 -15 -8 -12 -6
4 -14 1 -18 -5 -4 -7 -3 -9 4 -5 6 3 14 1 17 -5 5 -7 -3 -10 -21 -9 -48 3 -65
1 -59 -9 3 -5 0 -13 -6 -17 -7 -4 -9 -3 -5 4 3 6 2 13 -4 17 -9 5 -14 -7 -11
-27 0 -4 -7 -4 -16 -1 -11 4 -13 8 -5 11 21 7 13 17 -15 19 -15 0 -21 -2 -14
-7 16 -9 16 -20 -1 -32 -9 -6 -5 -7 12 -3 23 6 22 5 -8 -18 -21 -16 -40 -23
-58 -19 -17 3 -30 -2 -40 -14 -13 -16 -15 -16 -10 -2 4 13 -1 16 -22 13 -15
-1 -28 -4 -29 -5 -2 -1 -7 -3 -12 -4 -5 0 -12 -4 -16 -8 -10 -9 17 -4 35 7 11
7 11 2 -3 -18 -17 -26 -17 -28 -1 -25 9 2 18 -3 20 -10 1 -7 0 -8 -3 -2 -3 8
-9 7 -19 -1 -8 -6 -14 -8 -14 -5 0 4 -9 2 -20 -4 -14 -8 -20 -8 -20 0 0 7 -6
8 -17 2 -10 -5 -31 -8 -48 -7 -16 2 -34 0 -40 -3 -16 -10 -45 -9 -51 0 -3 5
-15 2 -25 -8 -14 -13 -16 -20 -8 -31 20 -23 -6 -41 -52 -36 -27 3 -39 1 -34
-6 4 -7 -3 -7 -20 1 -22 10 -28 9 -36 -3 -5 -8 -9 -9 -9 -4 0 6 -18 10 -39 10
-22 0 -37 -3 -35 -6 6 -10 -26 -20 -39 -13 -7 4 -5 -1 4 -10 16 -18 63 -31 54
-15 -4 5 -10 7 -15 4 -5 -3 -11 -1 -15 5 -3 5 2 11 12 12 48 4 58 2 58 -12 0
-8 3 -20 7 -25 4 -6 -2 -11 -12 -11 -10 0 -16 6 -13 13 4 10 -2 9 -23 -2 -22
-11 -31 -12 -43 -2 -9 7 -12 7 -8 1 4 -8 -23 -11 -92 -11 -55 0 -103 -3 -107
-5 -5 -2 -60 -4 -122 -3 -85 0 -111 -2 -108 -12 3 -7 -1 -10 -9 -6 -8 3 -12 9
-9 14 3 5 -13 8 -36 6 -31 -1 -39 -5 -34 -17 4 -8 6 -23 6 -32 0 -9 6 -19 14
-21 9 -3 8 -4 -3 -3 -10 1 -18 8 -19 16 -2 30 -20 64 -28 51 -4 -6 -3 -17 2
-24 15 -20 10 -43 -11 -44 -19 -2 -19 -2 -1 12 11 7 16 16 12 20 -3 4 -15 -2
-26 -13 -19 -19 -19 -19 -19 5 0 17 4 22 16 18 12 -3 17 1 17 15 0 11 -4 20
-8 20 -4 0 -8 -4 -8 -10 0 -5 -5 -10 -11 -10 -5 0 -8 4 -5 8 2 4 -24 8 -60 7
-35 0 -64 -4 -64 -9 0 -4 8 -5 18 -1 13 5 14 3 5 -5 -8 -9 -16 -9 -30 -1 -10
6 -13 11 -8 11 6 0 3 4 -5 10 -9 5 -19 5 -27 -2 -7 -6 -13 -7 -13 -3 0 4 -8 1
-17 -6 -11 -10 -14 -10 -9 -2 4 8 1 13 -9 13 -10 0 -13 -5 -9 -12 6 -10 4 -10
-7 -2 -13 9 -91 14 -315 18 -54 1 -80 5 -77 12 2 6 -3 11 -12 11 -9 0 -14 -6
-11 -12 2 -6 -2 -12 -9 -12 -8 0 -11 7 -7 15 4 11 1 13 -7 7 -10 -6 -11 -3 -2
12 6 11 9 22 8 25 -1 2 6 -5 17 -17 l19 -20 -8 24 c-5 16 -4 21 4 17 6 -4 11
-14 11 -22 0 -9 5 -12 12 -8 7 5 8 3 3 -6 -6 -9 -4 -11 5 -5 9 6 11 4 5 -5 -5
-8 -4 -11 3 -6 13 8 5 36 -11 36 -6 0 -3 6 6 12 14 11 -1 13 -89 13 -58 0
-108 3 -111 8 -2 4 -13 2 -25 -4 -12 -7 -18 -7 -14 -1 4 7 -8 9 -33 7 -32 -2
-38 0 -36 14 1 9 -2 22 -8 29 -14 17 7 16 22 -2 9 -11 9 -15 -1 -18 -8 -3 -6
-7 6 -11 11 -4 15 -3 11 4 -4 6 -1 10 6 8 26 -3 39 1 39 12 0 5 -5 7 -10 4 -6
-3 -13 1 -16 10 -5 13 -9 13 -22 3 -13 -11 -15 -10 -10 2 4 12 -2 15 -26 15
-17 0 -34 -4 -38 -10 -5 -6 -8 -6 -8 2 0 7 -17 10 -45 10 -25 -1 -45 1 -45 5
0 5 -3 7 -8 5 -4 -1 -17 8 -30 21 -24 24 -18 31 8 7 15 -13 17 -13 17 0 0 8
-5 15 -10 15 -5 0 -4 6 2 14 9 11 5 13 -24 10 -20 -1 -49 1 -65 6 -19 5 -30 5
-30 -1 0 -6 -7 -6 -19 0 -10 6 -21 8 -23 5 -3 -2 -11 3 -19 13 -8 9 -9 14 -4
11 6 -4 17 2 24 14 10 16 10 18 0 12 -8 -5 -11 -2 -7 7 4 11 -3 15 -26 16
-104 3 -127 8 -122 25 2 10 0 21 -6 24 -6 4 -5 10 3 15 15 9 8 11 -59 12 -23
0 -31 5 -28 14 4 10 1 11 -13 4 -32 -18 -57 -10 -56 18 1 15 -3 34 -8 45 -7
15 -11 16 -18 5 -6 -10 -9 -11 -9 -1 0 6 -5 12 -11 12 -5 0 -7 -5 -3 -11 5 -8
1 -8 -14 0 -23 12 -37 41 -19 41 8 0 6 4 -3 10 -12 8 -12 10 -1 10 20 0 5 13
-20 17 -11 2 -18 -1 -14 -6 3 -5 -8 -3 -25 5 -32 16 -38 30 -17 37 9 3 9 7 0
19 -7 8 -11 17 -8 19 2 3 -13 4 -35 3 -36 -1 -39 1 -38 26 1 14 -4 35 -9 44
-9 16 -11 16 -16 2 -4 -9 -2 -16 3 -16 6 0 10 -5 10 -12 0 -9 -3 -9 -12 0 -18
18 -33 15 -18 -3 10 -13 11 -18 1 -28 -7 -7 -12 -7 -11 -2 5 23 -1 36 -12 30
-7 -4 -3 2 10 13 12 11 22 23 22 26 0 8 -34 -6 -43 -18 -6 -7 -7 -4 -3 6 3 10
1 20 -5 23 -5 4 -6 11 -3 17 4 7 2 8 -4 4 -6 -4 -9 -14 -6 -24 3 -9 -2 -6 -10
8 -16 27 -22 55 -6 30 7 -11 10 -11 10 -2 0 7 4 11 8 8 5 -3 9 1 9 9 0 12 -3
12 -16 2 -12 -10 -14 -9 -9 3 5 12 -1 16 -26 15 -30 0 -31 2 -31 41 0 40 -7
47 -32 31 -7 -5 -13 -4 -13 2 0 6 -8 7 -17 4 -12 -5 -15 -2 -10 9 3 9 3 19 -1
23 -3 3 -7 16 -7 28 0 18 -6 22 -30 21 -36 -1 -57 23 -44 48 11 21 -4 32 -46
32 -16 1 -30 6 -30 13 0 6 -3 15 -7 18 -4 4 -3 15 2 24 5 10 5 23 -1 32 -5 7
-9 9 -9 3 0 -9 -31 -11 -50 -4 -3 1 -7 2 -10 2 -3 0 -6 8 -6 18 0 10 4 16 8
14 4 -3 8 -1 8 5 0 5 -6 12 -12 14 -10 4 -9 8 2 16 13 10 13 11 0 12 -8 1 -19
1 -23 0 -5 -1 -5 4 0 11 11 19 12 68 0 75 -6 4 -7 1 -2 -7 5 -8 3 -11 -6 -8
-8 3 -22 1 -31 -4 -14 -7 -16 -5 -11 8 4 11 2 15 -4 11 -6 -4 -9 9 -8 34 1 22
-2 42 -7 45 -4 3 -8 12 -8 20 0 10 5 12 13 8 9 -6 9 -5 0 7 -6 8 -13 18 -15
24 -1 5 -9 10 -16 11 -6 1 -10 -2 -6 -7 9 -15 -22 -10 -35 5 -6 8 -10 30 -8
50 2 20 1 39 -3 41 -4 3 -6 18 -5 35 3 34 -23 58 -43 38 -15 -15 -30 -2 -28
24 1 13 -2 31 -7 42 -6 13 -6 16 2 12 7 -5 9 -1 5 8 -3 9 -11 13 -18 9 -8 -5
-8 -3 -1 8 6 8 10 25 10 39 0 21 -4 25 -25 22 -13 -1 -27 -7 -31 -13 -9 -16
-17 22 -15 75 1 26 -3 46 -9 47 -5 0 -4 3 3 6 6 2 9 9 6 15 -4 6 -7 33 -8 62
-1 28 -5 57 -9 64 -5 6 -4 12 0 12 5 0 9 14 9 31 1 17 -1 28 -5 23 -3 -5 -15
-11 -26 -13 -20 -3 -20 -3 0 20 l20 24 -23 -20 c-20 -16 -21 -21 -9 -29 19
-12 0 -66 -23 -65 -10 0 -11 2 -2 6 6 2 12 9 12 14 0 6 -4 8 -8 5 -4 -2 -8 4
-8 14 0 10 5 16 10 13 6 -4 6 1 2 13 -12 28 -13 74 -4 80 5 3 5 11 0 17 -5 7
-8 31 -7 55 0 23 -3 42 -8 42 -4 0 -5 6 -1 12 11 17 12 48 3 48 -5 0 -5 10 0
23 10 26 -4 61 -21 51 -7 -4 -8 -2 -4 5 4 6 11 9 16 6 8 -5 18 65 12 84 -2 6
-9 8 -14 5 -7 -4 -8 -2 -4 5 4 6 2 20 -6 29 -12 15 -11 16 4 4 11 -9 18 -10
23 -2 3 5 3 10 -2 10 -4 0 -8 11 -8 25 0 14 3 25 7 25 4 0 5 7 2 15 -4 8 -10
13 -14 10 -5 -3 -12 0 -16 7 -4 7 -4 10 1 6 15 -14 34 25 23 45 -7 13 -6 23 1
30 7 7 7 16 0 30 -7 12 -7 23 -1 29 13 13 3 59 -12 52 -6 -3 -2 2 9 12 20 16
20 16 -1 12 -13 -3 -21 0 -21 7 0 7 6 11 13 8 10 -4 13 5 10 31 -1 20 2 36 8
37 6 0 5 3 -2 6 -6 2 -10 8 -7 13 10 16 12 70 4 76 -5 3 -6 11 -2 17 4 7 8 62
9 122 2 147 1 140 19 125 8 -6 20 -8 26 -4 8 5 10 2 5 -7 -4 -8 0 -5 8 5 19
23 20 31 5 58 -8 15 -8 19 0 14 11 -7 12 2 15 131 0 28 4 55 8 59 4 4 2 14 -5
23 -11 14 -10 14 6 2 13 -11 15 -17 6 -28 -17 -19 -3 -28 15 -10 17 16 9 60
-9 57 -5 -1 -10 3 -11 9 -2 8 -1 8 3 1 3 -7 9 -8 17 -1 8 7 12 4 13 -11 1 -12
7 -26 12 -31 7 -7 5 -15 -7 -24 -9 -8 -11 -12 -5 -8 7 3 13 0 14 -7 0 -7 5 -2
10 11 6 17 6 28 -3 39 -9 11 -9 14 -1 9 6 -4 14 -3 18 3 3 5 -2 10 -12 10 -15
0 -16 2 -3 10 8 5 11 10 7 10 -4 0 -3 9 3 19 7 14 7 22 -1 26 -7 5 -2 16 12
31 22 23 46 34 34 15 -3 -5 0 -13 6 -17 8 -5 9 -3 4 6 -6 10 -4 12 8 7 12 -4
15 -1 11 16 -2 11 2 25 9 29 7 5 8 8 1 8 -7 0 -8 17 -3 54 4 30 5 70 4 89 -4
33 -3 35 30 34 27 -1 32 -4 23 -14 -7 -9 -7 -13 1 -13 6 0 10 -5 9 -11 -2 -6
4 -14 12 -16 10 -3 11 -2 4 4 -11 8 -11 26 0 73 3 14 1 27 -7 32 -9 6 -9 8 1
8 7 0 10 5 7 10 -3 6 -2 10 4 10 6 0 7 7 4 17 -4 11 -3 14 5 9 7 -4 12 -15 13
-24 0 -9 3 -12 5 -6 3 7 14 9 25 7 18 -5 20 -2 16 25 -3 17 -8 36 -13 43 -4 7
-3 10 3 6 14 -9 22 11 18 45 -3 30 20 44 55 33 17 -5 20 -2 21 22 2 58 4 66
17 70 6 3 12 -1 12 -8 0 -8 7 -5 20 6 20 18 21 18 14 0 -5 -13 -4 -16 5 -11 7
5 11 17 8 27 -3 11 0 19 6 19 8 0 8 3 2 8 -17 12 -17 35 0 29 8 -4 15 -2 15 3
0 6 -5 10 -12 10 -6 0 -8 3 -5 6 4 4 13 1 22 -6 8 -7 15 -9 15 -5 0 4 7 2 15
-5 12 -10 15 -10 17 1 0 8 2 19 2 24 1 6 5 16 10 24 6 9 5 12 -1 8 -6 -4 -13
0 -17 8 -3 8 0 14 7 12 7 -1 11 4 9 11 -2 9 2 10 16 3 32 -17 56 -7 59 25 4
48 11 119 12 124 1 2 6 -1 13 -8 14 -14 32 -16 23 -3 -3 6 3 8 15 6 11 -2 22
0 25 5 3 5 21 7 40 6 19 -2 32 0 29 5 -3 5 0 9 6 9 7 0 8 5 1 17 -13 23 5 59
23 44 16 -13 62 11 57 30 -8 31 -5 44 9 44 8 0 21 4 29 9 9 6 12 5 8 0 -3 -5
3 -10 13 -10 10 0 16 4 14 8 -3 4 -1 8 5 8 7 0 7 8 1 25 -6 17 -6 25 1 25 6 0
7 5 4 10 -3 6 1 10 9 10 9 0 16 -4 16 -10 0 -5 5 -10 11 -10 5 0 7 5 3 12 -5
8 -2 9 9 5 9 -3 19 -2 22 3 3 5 14 7 25 5 12 -2 18 0 15 6 -8 12 1 12 24 0 14
-8 17 -5 16 22 -2 47 4 60 21 46 10 -9 14 -9 14 0 0 7 9 9 23 6 17 -4 25 0 33
19 7 14 9 25 5 24 -17 -2 -21 3 -9 15 7 8 26 12 45 10 20 -2 33 1 33 8 0 8 4
8 13 2 18 -15 82 4 69 20 -16 21 2 50 34 54 28 3 28 2 10 -12 -11 -8 -15 -15
-9 -15 6 0 16 7 23 15 7 9 19 14 27 11 7 -3 13 -2 13 3 0 4 12 7 28 6 35 -2
48 5 31 17 -10 7 -8 8 9 5 12 -3 20 -1 16 4 -3 5 -12 9 -20 9 -11 0 -12 4 -5
19 14 25 56 25 58 -1 2 -17 0 -18 -14 -6 -15 12 -15 11 -2 -10 8 -12 15 -18
17 -12 2 6 8 7 14 4 6 -4 6 1 -1 13 -14 27 4 46 31 32 12 -6 24 -6 37 1 26 13
34 13 25 -2 -6 -10 -4 -10 7 -2 8 6 23 10 34 8 13 -2 24 5 32 21 6 14 8 23 3
20 -4 -3 -10 2 -14 10 -8 21 0 23 89 23 44 1 82 2 85 3 3 1 40 2 82 3 47 1 83
7 90 15 11 10 9 11 -6 5 -15 -6 -17 -4 -11 6 6 9 4 11 -5 5 -8 -5 -11 -3 -8 6
3 8 11 13 17 12 6 -2 10 2 9 8 -2 7 12 13 30 15 21 1 30 -1 26 -8 -5 -7 -2 -8
7 -2 8 5 64 10 124 11 136 2 128 1 119 16 -4 6 1 4 12 -5 13 -11 24 -14 34 -8z
m-415 -9 c3 -5 1 -12 -5 -16 -5 -3 -10 1 -10 9 0 18 6 21 15 7z m36 -14 c-6
-8 -9 -21 -6 -29 4 -9 0 -15 -10 -15 -11 0 -14 7 -10 21 5 17 3 16 -9 -4 -10
-15 -15 -19 -16 -10 0 12 -2 12 -8 2 -6 -8 -9 -2 -9 19 0 29 1 30 12 9 10 -19
13 -20 18 -6 4 9 13 16 22 16 8 0 15 5 15 12 0 6 3 8 6 5 4 -4 2 -13 -5 -20z
m1139 14 c13 -1 13 -2 0 -11 -8 -5 -11 -10 -7 -10 4 0 4 -8 -1 -17 -11 -19
-42 -27 -42 -11 0 6 -7 4 -17 -3 -14 -12 -14 -10 1 14 11 16 14 27 7 27 -6 0
-11 4 -11 8 0 5 12 8 28 6 15 -1 34 -3 42 -3z m-1267 -16 c-3 -9 -8 -14 -10
-11 -3 3 -2 9 2 15 9 16 15 13 8 -4z m3170 0 c4 -8 3 -16 -1 -19 -4 -3 -9 4
-9 15 -2 23 3 25 10 4z m-3123 -20 c0 -2 -6 -5 -13 -8 -8 -3 -14 1 -14 8 0 7
6 11 14 8 7 -3 13 -6 13 -8z m1261 -2 c12 -16 12 -17 -2 -6 -9 7 -19 10 -22 6
-4 -3 -7 -1 -7 5 0 17 16 15 31 -5z m1832 10 c-7 -2 -13 -9 -13 -14 0 -6 4 -8
8 -5 4 2 14 0 22 -5 12 -7 10 -8 -7 -6 -12 2 -25 6 -29 9 -9 9 5 28 19 27 9 0
9 -2 0 -6z m-4972 -36 c-10 -9 -11 -8 -5 6 3 10 9 15 12 12 3 -3 0 -11 -7 -18z
m5205 -12 c-1 -8 -5 -17 -8 -21 -5 -4 -4 16 1 34 3 9 9 -1 7 -13z m-3584 -2
c-10 -4 -8 -9 7 -19 12 -9 18 -21 14 -30 -4 -12 -8 -13 -14 -3 -4 7 -5 17 -2
23 4 6 -1 7 -13 2 -10 -4 -15 -4 -11 0 4 4 0 12 -8 18 -13 9 -10 11 12 12 16
1 22 -1 15 -3z m1800 -7 c7 4 8 2 4 -5 -9 -13 -26 -5 -25 12 0 9 2 8 6 -1 2
-6 10 -9 15 -6z m-3478 -24 c3 -5 -1 -9 -9 -9 -8 0 -12 4 -9 9 3 4 7 8 9 8 2
0 6 -4 9 -8z m1657 -10 c13 -13 15 -19 5 -19 -7 0 -18 9 -25 19 -6 10 -9 18
-6 18 3 0 15 -8 26 -18z m1792 5 c-4 -7 1 -8 13 -3 14 5 16 4 8 -4 -8 -8 -18
-9 -30 -2 -11 5 -25 7 -33 4 -8 -2 -11 0 -8 5 4 6 18 11 32 11 14 0 22 -5 18
-11z m1668 -10 c-10 -9 -11 -8 -5 6 3 10 9 15 12 12 3 -3 0 -11 -7 -18z m144
-6 c3 -5 2 -12 -3 -15 -5 -3 -9 1 -9 9 0 17 3 19 12 6z m-3839 -56 c-1 -8 -5
-17 -8 -21 -5 -4 -4 16 1 34 3 9 9 -1 7 -13z m-146 -85 c-8 -5 -19 -10 -25
-10 -5 0 -3 5 5 10 8 5 20 10 25 10 6 0 3 -5 -5 -10z m2560 6 c0 -2 -8 -10
-17 -17 -16 -13 -17 -12 -4 4 13 16 21 21 21 13z m-2536 -24 c2 -4 -7 -8 -22
-9 -24 -2 -24 -1 -7 7 11 5 21 9 22 9 1 1 4 -3 7 -7z m2651 -43 c-7 -10 -35
-1 -35 11 0 5 9 6 20 3 11 -3 17 -9 15 -14z m-4195 -19 c6 10 12 10 26 0 17
-10 17 -11 1 -6 -11 3 -20 0 -24 -10 -5 -13 -7 -13 -14 -2 -5 7 -8 18 -8 23 0
6 3 4 6 -4 4 -10 7 -10 13 -1z m1255 -50 c-3 -5 -1 -10 4 -10 6 0 11 4 11 8 0
4 10 8 23 9 18 1 15 -2 -12 -16 -19 -10 -29 -21 -23 -25 6 -3 13 0 16 6 5 11
7 11 12 0 3 -6 11 -9 16 -6 7 4 8 2 4 -5 -4 -6 -12 -9 -17 -5 -5 3 -16 0 -24
-6 -16 -13 -16 -13 -19 23 -2 23 2 37 10 37 3 0 2 -4 -1 -10z m3074 3 c-4 -22
2 -33 14 -27 6 4 9 4 5 -1 -4 -4 -3 -14 3 -22 9 -9 8 -13 0 -13 -6 0 -11 5
-11 10 0 7 -7 7 -21 0 -11 -7 -23 -9 -26 -7 -2 3 5 8 17 12 16 5 19 10 10 20
-7 8 -9 19 -5 25 7 12 16 13 14 3z m-3288 -226 c-10 -9 -11 -8 -5 6 3 10 9 15
12 12 3 -3 0 -11 -7 -18z m-67 -18 c10 8 12 4 11 -19 -2 -28 -15 -57 -15 -32
0 6 -11 9 -27 6 -28 -5 -28 -5 -6 11 12 8 21 21 19 28 -1 6 -1 8 2 4 2 -4 10
-3 16 2z m-43 -22 c-10 -9 -11 -8 -5 6 3 10 9 15 12 12 3 -3 0 -11 -7 -18z
m3735 -13 c1 -9 0 -13 -4 -10 -3 4 -7 14 -8 22 -1 9 0 13 4 10 3 -4 7 -14 8
-22z m-4916 -14 c6 -11 8 -20 6 -20 -3 0 -10 9 -16 20 -6 11 -8 20 -6 20 3 0
10 -9 16 -20z m1072 -118 c-10 -3 -10 -7 0 -20 12 -16 11 -16 -6 -2 -18 14
-18 13 -12 -8 9 -27 -5 -29 -28 -3 -16 17 -16 19 1 26 10 5 21 7 26 7 4 -1 7
3 7 9 0 5 5 7 12 3 9 -6 9 -9 0 -12z m3988 14 c0 -2 -8 -10 -17 -17 -16 -13
-17 -12 -4 4 13 16 21 21 21 13z m-4074 -123 c-3 -7 0 -13 6 -13 6 0 9 -2 6
-5 -7 -8 -58 16 -58 27 0 4 5 7 11 6 6 -2 14 3 16 10 3 8 -2 10 -14 6 -15 -5
-15 -4 -3 5 11 8 18 6 28 -6 7 -10 10 -23 8 -30z m4149 -1 c-3 -3 -11 0 -18 7
-9 10 -8 11 6 5 10 -3 15 -9 12 -12z m-5359 -152 c0 -12 -4 -16 -9 -11 -5 5
-6 14 -3 20 10 15 12 14 12 -9z m5538 -47 c2 7 4 3 2 -8 -1 -11 -6 -28 -12
-38 -10 -17 -11 -17 -29 3 -10 11 -13 20 -7 20 7 0 12 -4 12 -10 0 -5 4 -10 8
-10 5 0 9 7 9 15 0 8 -6 15 -13 15 -7 0 -16 4 -19 10 -4 7 2 7 19 0 17 -6 26
-6 30 3z m-4574 -93 c0 -5 -7 -7 -15 -4 -8 4 -15 8 -15 10 0 2 7 4 15 4 8 0
15 -4 15 -10z m-5 -22 c14 -6 25 -15 25 -20 0 -7 -31 8 -59 29 -10 7 10 2 34
-9z m-157 -282 c21 3 23 2 12 -6 -13 -9 -13 -10 0 -10 13 0 13 -1 0 -10 -13
-9 -13 -11 0 -21 12 -9 12 -10 -4 -5 -11 4 -26 0 -36 -9 -15 -14 -16 -12 -14
23 3 50 5 59 10 45 3 -6 17 -10 32 -7z m-1064 -262 c3 -8 2 -12 -4 -9 -6 3
-10 10 -10 16 0 14 7 11 14 -7z m41 -24 c4 -6 -1 -7 -11 -3 -13 5 -15 3 -9 -7
5 -9 4 -11 -4 -6 -6 4 -9 12 -6 17 8 12 22 12 30 -1z m880 -170 c-3 -5 -14
-10 -23 -9 -14 0 -13 2 3 9 27 11 27 11 20 0z m5244 -67 c-12 -15 -12 -16 4
-10 12 5 16 3 11 -5 -5 -7 -2 -9 8 -6 8 4 15 1 16 -5 0 -7 3 -22 5 -34 4 -15
0 -23 -15 -26 -13 -4 -17 -10 -12 -19 6 -10 4 -10 -9 1 -13 10 -15 17 -6 27 6
8 15 12 19 9 5 -3 11 -2 14 3 3 5 -1 9 -9 10 -8 1 -22 3 -30 4 -8 1 -12 5 -10
9 3 4 15 5 28 2 19 -4 19 -2 -5 12 -26 15 -30 45 -6 45 6 0 4 -8 -3 -17z
m-6244 -193 c3 -5 1 -10 -4 -10 -6 0 -11 5 -11 10 0 6 2 10 4 10 3 0 8 -4 11
-10z m46 -23 c-10 -9 -11 -8 -5 6 3 10 9 15 12 12 3 -3 0 -11 -7 -18z m-26 -7
c3 -6 -1 -7 -9 -4 -18 7 -21 14 -7 14 6 0 13 -4 16 -10z m5 -40 c-12 -22 -21
-26 -18 -7 3 10 18 26 26 27 1 0 -2 -9 -8 -20z m885 -50 c-3 -5 -12 -10 -18
-10 -7 0 -6 4 3 10 19 12 23 12 15 0z m-1 -38 c3 -5 -1 -9 -9 -9 -8 0 -12 4
-9 9 3 4 7 8 9 8 2 0 6 -4 9 -8z m-7 -134 c-3 -7 -5 -2 -5 12 0 14 2 19 5 13
2 -7 2 -19 0 -25z m5443 18 c0 -3 -4 -8 -10 -11 -5 -3 -10 -1 -10 4 0 6 5 11
10 11 6 0 10 -2 10 -4z m-5420 -46 c0 -5 -4 -10 -10 -10 -5 0 -10 5 -10 10 0
6 5 10 10 10 6 0 10 -4 10 -10z m-38 -7 c-6 -2 -9 -10 -6 -15 4 -7 2 -8 -5 -4
-13 9 -5 26 12 25 9 0 8 -2 -1 -6z m29 -43 c5 0 9 -5 9 -10 0 -6 -7 -6 -19 2
-12 7 -17 18 -13 27 6 14 7 14 10 -1 2 -10 8 -18 13 -18z m-17 -23 c4 4 4 -1
0 -11 -7 -17 -8 -17 -19 3 -6 12 -15 18 -20 14 -4 -4 -5 -2 0 6 7 12 10 11 20
-2 7 -9 15 -14 19 -10z m9 -64 c-7 -2 -19 -2 -25 0 -7 3 -2 5 12 5 14 0 19 -2
13 -5z m-26 -28 c0 -8 -4 -12 -9 -9 -4 3 -8 9 -8 15 0 5 4 9 8 9 5 0 9 -7 9
-15z m43 11 c0 -2 -7 -7 -16 -10 -8 -3 -12 -2 -9 4 6 10 25 14 25 6z m-20 -70
c0 -2 -6 -9 -14 -15 -11 -9 -16 -9 -22 0 -4 7 -3 9 4 5 6 -3 13 -2 17 4 6 10
15 14 15 6z m15 -55 c3 -5 2 -12 -3 -15 -5 -3 -9 1 -9 9 0 17 3 19 12 6z
m-890 -179 c-3 -3 -11 0 -18 7 -9 10 -8 11 6 5 10 -3 15 -9 12 -12z m-30 -111
c3 -5 2 -12 -3 -15 -5 -3 -9 1 -9 9 0 17 3 19 12 6z m995 -110 c-6 -12 -5 -22
3 -31 8 -9 9 -11 0 -6 -6 3 -14 0 -17 -6 -3 -7 -3 1 0 17 3 17 6 35 6 42 1 7
5 10 10 7 4 -3 4 -13 -2 -23z m5290 -2 c0 -5 -5 -7 -12 -3 -7 5 -9 2 -5 -9 4
-12 1 -15 -14 -12 -16 3 -19 0 -14 -13 5 -13 3 -14 -6 -5 -12 12 -3 37 11 28
4 -3 10 2 14 10 6 17 26 20 26 4z m-111 -226 c-8 -9 -8 -13 -1 -13 6 0 15 7
20 16 6 11 11 13 16 5 4 -6 3 -11 -3 -11 -11 0 -9 -18 3 -40 5 -8 6 -12 1 -8
-4 4 -15 2 -23 -5 -13 -10 -14 -9 -8 1 6 9 3 12 -10 10 -14 -2 -19 4 -19 22
-2 32 1 37 19 37 12 0 13 -4 5 -14z m-6045 -15 c-3 -4 -9 -8 -15 -8 -5 0 -9 4
-9 8 0 5 7 9 15 9 8 0 12 -4 9 -9z m932 -93 c1 -8 -1 -17 -5 -19 -4 -3 -7 6
-7 19 0 25 8 25 12 0z m100 -140 c0 -13 -2 -23 -5 -23 -20 2 -31 -3 -27 -11 7
-11 -21 -8 -31 4 -4 4 -2 5 5 1 15 -9 15 -1 1 26 -6 12 -7 18 -1 14 5 -3 15 1
22 9 16 19 36 9 36 -20z m4955 -38 c-10 -9 -11 -8 -5 6 3 10 9 15 12 12 3 -3
0 -11 -7 -18z m-4946 -7 c3 -6 -1 -7 -9 -4 -18 7 -21 14 -7 14 6 0 13 -4 16
-10z m72 -105 c0 -8 -4 -12 -9 -9 -11 7 -10 -3 3 -29 7 -12 8 -19 4 -15 -5 4
-14 3 -22 -3 -10 -9 -13 -8 -13 0 0 7 -5 9 -12 5 -8 -5 -7 0 2 11 13 17 13 18
0 13 -11 -4 -16 0 -16 12 0 10 6 16 13 13 7 -3 13 -10 13 -16 0 -6 7 -1 16 11
18 26 21 27 21 7z m4798 -45 c-3 -5 -12 -10 -18 -10 -7 0 -6 4 3 10 19 12 23
12 15 0z m-4720 -119 c3 -5 2 -12 -3 -15 -5 -3 -9 1 -9 9 0 17 3 19 12 6z
m-1053 -16 c0 -5 -5 -11 -10 -13 -5 -1 -9 4 -9 13 0 9 4 14 9 13 5 -2 10 -8
10 -13z m1032 -21 c3 -8 2 -12 -4 -9 -6 3 -10 10 -10 16 0 14 7 11 14 -7z
m4541 -43 c3 -5 2 -12 -3 -15 -5 -3 -9 1 -9 9 0 17 3 19 12 6z m-4395 -185 c0
-3 -4 -8 -10 -11 -5 -3 -10 -1 -10 4 0 6 5 11 10 11 6 0 10 -2 10 -4z m93 -54
c-13 -8 -2 -35 13 -32 5 1 9 -3 10 -9 2 -7 1 -8 -3 -1 -2 5 -9 8 -13 5 -11 -7
-32 30 -23 39 3 3 11 6 17 6 7 0 7 -3 -1 -8z m4184 -7 c0 -8 -3 -13 -5 -10 -3
3 -10 0 -17 -5 -8 -7 -12 -5 -12 5 0 8 4 12 8 9 4 -2 10 0 14 6 9 14 12 13 12
-5z m-4090 -62 c-4 -3 -2 -12 4 -19 7 -8 7 -14 -1 -19 -6 -3 -8 -10 -6 -13 2
-4 -9 -8 -25 -8 l-28 -2 22 19 c12 10 17 18 12 19 -6 0 -16 -5 -22 -11 -9 -9
-11 -7 -9 7 2 11 10 18 19 16 8 -1 18 2 22 8 3 5 9 10 12 10 4 0 3 -3 0 -7z
m3983 -19 c0 -2 -9 0 -20 6 -11 6 -20 13 -20 16 0 2 9 0 20 -6 11 -6 20 -13
20 -16z m30 11 c-6 -8 -9 -19 -5 -25 5 -9 -1 -12 -21 -9 -4 0 -11 -5 -16 -13
-8 -10 -9 -10 -5 2 2 8 10 14 16 13 6 -2 11 6 11 16 0 16 9 26 29 30 2 1 -2
-6 -9 -14z m-3957 -90 c-3 -8 -9 -15 -15 -15 -5 0 -6 -5 -3 -10 4 -6 12 -7 18
-4 7 4 8 3 4 -1 -4 -5 -13 -10 -21 -11 -14 -2 -16 33 -3 54 11 16 28 5 20 -13z
m3872 -20 c-2 -27 -15 -48 -15 -26 0 7 -4 9 -10 6 -6 -3 -7 1 -4 10 5 11 2 14
-12 8 -14 -4 -12 0 6 14 30 25 39 22 35 -12z m-4955 -40 c0 -7 -30 -13 -34 -7
-3 4 4 9 15 9 10 1 19 0 19 -2z m4860 -12 c-8 -3 -24 -10 -35 -15 -20 -9 -20
-9 -1 6 11 9 27 16 35 15 14 0 14 -1 1 -6z m-4894 -21 c1 -7 0 -8 -3 -2 -2 5
-9 8 -14 4 -5 -3 -9 0 -9 6 0 15 23 7 26 -8z m49 -12 c3 -5 1 -10 -4 -10 -6 0
-11 5 -11 10 0 6 2 10 4 10 3 0 8 -4 11 -10z m1188 -5 c-3 -9 -8 -14 -10 -11
-3 3 -2 9 2 15 9 16 15 13 8 -4z m3672 6 c3 -5 0 -13 -6 -17 -8 -5 -9 -3 -4 6
6 10 2 11 -19 6 -18 -4 -25 -3 -21 4 8 13 42 13 50 1z m-3625 -55 c-7 -7 -13
-7 -20 0 -6 6 -3 10 10 10 13 0 16 -4 10 -10z m23 -11 c-3 -9 -8 -14 -10 -11
-3 3 -2 9 2 15 9 16 15 13 8 -4z m3518 -28 c-10 -9 -11 -8 -5 6 3 10 9 15 12
12 3 -3 0 -11 -7 -18z m-4577 -186 c3 -5 -2 -15 -12 -22 -15 -12 -16 -12 -5 2
7 9 10 19 6 22 -3 4 -4 7 0 7 3 0 8 -4 11 -9z m1506 -101 c12 -7 10 -9 -8 -7
-12 0 -22 5 -22 9 0 11 12 10 30 -2z m2594 -26 c5 -14 4 -15 -9 -4 -12 10 -15
10 -15 0 0 -8 -3 -11 -6 -7 -7 7 4 27 16 27 4 0 11 -7 14 -16z m-180 -49 c3
-8 1 -15 -4 -15 -6 0 -10 7 -10 15 0 8 2 15 4 15 2 0 6 -7 10 -15z m-2260 -17
c-5 -8 -2 -9 10 -5 10 4 15 3 11 -3 -3 -6 -1 -10 6 -10 7 0 10 -3 7 -6 -10 -9
-49 16 -43 27 4 5 8 9 11 9 3 0 2 -5 -2 -12z m2278 -20 c-7 -7 -12 -8 -12 -2
0 14 12 26 19 19 2 -3 -1 -11 -7 -17z m-247 -34 c6 0 17 -2 25 -3 13 -1 13 -2
0 -11 -9 -6 -11 -10 -3 -10 7 0 10 -6 7 -14 -3 -8 -14 -14 -24 -13 -10 1 -16
5 -14 9 3 4 0 8 -5 8 -6 0 -11 -7 -11 -16 0 -8 -4 -13 -10 -9 -5 3 -7 12 -4
19 3 8 1 17 -5 21 -7 4 -7 10 2 19 6 8 17 11 22 8 6 -4 15 -7 20 -8z m-1760
-14 c3 -6 -1 -7 -9 -4 -18 7 -21 14 -7 14 6 0 13 -4 16 -10z m1855 -14 c0 -3
-4 -8 -10 -11 -5 -3 -10 -1 -10 4 0 6 5 11 10 11 6 0 10 -2 10 -4z m1560 -6
c0 -5 -2 -10 -4 -10 -3 0 -8 5 -11 10 -3 6 -1 10 4 10 6 0 11 -4 11 -10z
m-3245 -40 c3 -5 1 -10 -4 -10 -6 0 -11 5 -11 10 0 6 2 10 4 10 3 0 8 -4 11
-10z m3185 -20 c0 -5 -2 -10 -4 -10 -3 0 -8 5 -11 10 -3 6 -1 10 4 10 6 0 11
-4 11 -10z m-2657 -55 c-3 -9 -8 -14 -10 -11 -3 3 -2 9 2 15 9 16 15 13 8 -4z
m133 -4 c10 8 14 8 14 0 0 -6 -4 -12 -10 -12 -5 -1 -15 -2 -20 -3 -13 -1 -30
-27 -25 -36 2 -4 -2 -7 -10 -7 -10 0 -11 5 -4 19 13 24 -6 25 -20 1 -5 -10
-13 -14 -17 -10 -10 10 28 38 44 32 7 -3 16 3 19 12 5 11 8 13 11 5 3 -10 7
-10 18 -1z m142 -8 c-6 -7 -12 -13 -13 -13 -2 0 -5 6 -8 13 -3 7 3 13 14 13
13 0 15 -3 7 -13z m2312 13 c0 -2 -8 -10 -17 -17 -16 -13 -17 -12 -4 4 13 16
21 21 21 13z m-2618 -28 c-7 -7 -12 -8 -12 -2 0 14 12 26 19 19 2 -3 -1 -11
-7 -17z m376 -2 c-2 -3 6 -12 17 -21 11 -9 13 -13 5 -9 -30 14 -39 26 -33 42
4 10 8 12 11 4 2 -6 2 -14 0 -16z m-318 4 c0 -5 -4 -10 -10 -10 -5 0 -10 5
-10 10 0 6 5 10 10 10 6 0 10 -4 10 -10z m266 -5 c-11 -8 -24 -15 -30 -15 -5
0 -1 7 10 15 10 8 24 14 29 14 6 0 1 -6 -9 -14z m-301 -4 c-3 -5 4 -13 16 -16
11 -4 18 -9 16 -12 -9 -8 -48 18 -42 28 4 5 8 9 11 9 3 0 3 -4 -1 -9z m-88 -7
c-3 -3 -12 -4 -19 -1 -8 3 -5 6 6 6 11 1 17 -2 13 -5z m243 -2 c0 -4 -9 -8
-20 -9 -11 -1 -20 2 -20 5 0 4 9 8 20 9 11 1 20 -2 20 -5z m181 -9 c13 -16 12
-17 -3 -4 -14 11 -18 11 -18 1 0 -8 -3 -11 -6 -7 -5 5 3 27 10 27 2 0 10 -8
17 -17z m149 13 c0 -3 -4 -8 -10 -11 -5 -3 -10 -1 -10 4 0 6 5 11 10 11 6 0
10 -2 10 -4z m2435 -34 c-3 -3 -11 0 -18 7 -9 10 -8 11 6 5 10 -3 15 -9 12
-12z m-39 -68 c1 -9 0 -13 -4 -10 -3 4 -7 14 -8 22 -1 9 0 13 4 10 3 -4 7 -14
8 -22z m-4959 -56 c2 -17 0 -19 -7 -8 -5 8 -6 18 -4 22 8 12 10 10 11 -14z
m261 -117 c11 -7 10 -9 -3 -14 -9 -4 -14 -3 -10 2 3 5 -1 12 -7 14 -7 3 -8 6
-3 6 6 0 16 -3 23 -8z m19 -35 c-3 -8 -2 -17 4 -20 5 -2 4 -3 -2 -2 -15 3 -21
36 -7 36 6 0 8 -6 5 -14z m4680 -28 c2 -17 0 -19 -7 -8 -5 8 -6 18 -4 22 8 12
10 10 11 -14z m-977 -98 c0 -5 -2 -10 -4 -10 -3 0 -8 5 -11 10 -3 6 -1 10 4
10 6 0 11 -4 11 -10z m1017 -25 c0 -8 -4 -12 -9 -9 -5 3 -6 10 -3 15 9 13 12
11 12 -6z m-4503 -11 c8 -22 8 -24 -6 -21 -17 3 -28 19 -22 29 8 13 21 9 28
-8z m4474 -49 c-3 -3 -9 2 -12 12 -6 14 -5 15 5 6 7 -7 10 -15 7 -18z m-1103
5 c6 0 2 -5 -8 -11 -9 -6 -16 -13 -13 -17 2 -4 -2 -13 -10 -19 -10 -10 -15
-10 -23 4 -12 23 4 52 26 48 10 -2 23 -4 28 -5z m1145 -6 c0 -8 -19 -13 -24
-6 -3 5 1 9 9 9 8 0 15 -2 15 -3z m-4367 -35 c4 -16 3 -18 -9 -8 -7 6 -11 15
-8 20 8 13 11 11 17 -12z m4337 9 c0 -11 -12 -10 -30 2 -12 7 -10 9 8 7 12 0
22 -5 22 -9z m-1316 -53 c-4 -8 -9 -15 -13 -15 -4 0 -8 7 -8 15 0 8 6 15 13
15 8 0 11 -6 8 -15z m-39 -45 c3 -6 -1 -7 -9 -4 -18 7 -21 14 -7 14 6 0 13 -4
16 -10z m-2545 -40 c15 -28 1 -45 -37 -46 -26 0 -30 2 -22 13 6 7 8 13 4 13
-4 0 -2 7 5 15 7 8 16 12 21 9 5 -3 9 0 9 5 0 17 8 13 20 -9z m2363 4 c-3 -8
4 -11 21 -10 21 3 24 1 15 -10 -6 -8 -8 -14 -4 -14 4 0 2 -7 -5 -15 -9 -11
-16 -12 -25 -5 -6 5 -14 8 -17 5 -3 -3 -11 2 -19 12 -9 11 -10 14 -1 9 6 -4
12 -3 12 1 0 5 -6 15 -12 22 -10 11 -10 13 0 7 6 -4 12 -3 12 2 0 5 6 9 14 9
8 0 12 -6 9 -13z m1637 -26 c0 -4 -4 -8 -9 -8 -6 0 -12 4 -15 8 -3 5 1 9 9 9
8 0 15 -4 15 -9z m-3680 -52 c0 -2 -7 -7 -16 -10 -8 -3 -12 -2 -9 4 6 10 25
14 25 6z m1734 -8 c-3 -4 -11 -5 -19 -1 -21 7 -19 12 4 10 11 0 18 -5 15 -9z
m17 -15 c-12 -20 -14 -14 -5 12 4 9 9 14 11 11 3 -2 0 -13 -6 -23z m-1794 2
c0 -8 -4 -12 -9 -9 -5 3 -6 10 -3 15 9 13 12 11 12 -6z m1893 -29 c0 -6 -5 -4
-10 4 -5 8 -10 10 -10 4 0 -6 -7 -11 -15 -11 -18 0 -19 9 -3 25 13 13 38 -1
38 -22z m1886 12 c14 -17 15 -20 2 -9 -9 7 -22 10 -27 6 -7 -3 -8 0 -5 9 8 20
7 20 30 -6z m-3395 -52 c1 -6 1 -14 0 -18 -2 -11 17 -10 24 1 3 5 1 12 -5 16
-5 3 -10 12 -10 18 0 7 5 4 11 -6 9 -15 13 -16 27 -5 12 10 14 10 8 1 -5 -9
-1 -13 10 -13 24 0 9 -13 -19 -16 -33 -4 -33 -4 -20 -12 7 -4 -14 -8 -47 -8
-54 -1 -58 1 -40 13 11 8 17 19 14 25 -8 13 15 28 33 21 7 -3 14 -10 14 -17z
m139 10 c0 -3 -4 -8 -10 -11 -5 -3 -10 -1 -10 4 0 6 5 11 10 11 6 0 10 -2 10
-4z m680 -6 c0 -5 -5 -10 -11 -10 -5 0 -7 5 -4 10 3 6 8 10 11 10 2 0 4 -4 4
-10z m60 0 c0 -5 -5 -10 -11 -10 -5 0 -7 5 -4 10 3 6 8 10 11 10 2 0 4 -4 4
-10z m35 -20 c-17 -33 -21 -35 -31 -18 -5 7 -3 8 6 3 10 -6 12 -4 7 9 -4 9 -3
15 2 12 5 -3 11 1 15 9 3 8 8 15 11 15 3 0 -1 -13 -10 -30z m46 18 c1 -7 1
-17 0 -22 -1 -5 5 -6 14 -2 10 4 14 2 9 -5 -4 -7 0 -9 14 -5 11 4 23 3 25 -1
3 -4 -15 -8 -39 -9 -42 -1 -56 8 -34 21 8 5 7 11 -1 21 -8 10 -8 14 0 14 6 0
12 -6 12 -12z m2639 -3 c0 -1 -6 -7 -13 -13 -10 -8 -13 -6 -13 7 0 11 6 17 13
14 7 -3 13 -6 13 -8z m180 5 c0 -5 -5 -10 -11 -10 -5 0 -7 5 -4 10 3 6 8 10
11 10 2 0 4 -4 4 -10z m-3632 -24 c-10 -7 -14 -17 -10 -21 4 -5 1 -5 -6 -1
-10 6 -10 11 -1 22 6 8 17 14 23 14 6 0 3 -7 -6 -14z m3744 -1 c13 -17 9 -21
-17 -21 -17 0 -21 3 -15 11 6 7 6 15 2 19 -4 4 0 6 8 4 8 -1 18 -7 22 -13z
m-2817 -13 c-3 -3 -11 0 -18 7 -9 10 -8 11 6 5 10 -3 15 -9 12 -12z m2485 4
c0 -3 -4 -8 -10 -11 -5 -3 -10 -1 -10 4 0 6 5 11 10 11 6 0 10 -2 10 -4z"/>
<path d="M7223 6958 c-14 -23 -11 -34 11 -35 11 -1 15 1 8 4 -9 4 -10 8 -2 18
7 8 7 15 1 19 -5 4 -13 1 -18 -6z"/>
<path d="M1646 6651 c-4 -5 -2 -12 3 -15 5 -4 12 -2 15 3 4 5 2 12 -3 15 -5 4
-12 2 -15 -3z"/>
<path d="M4069 6243 c-7 -10 -9 -15 -5 -11 5 4 15 0 23 -10 13 -15 13 -15 4 4
-6 12 -7 24 -4 28 3 3 4 6 1 6 -3 0 -12 -8 -19 -17z"/>
<path d="M2816 6153 c-6 -14 -5 -15 5 -6 7 7 10 15 7 18 -3 3 -9 -2 -12 -12z"/>
<path d="M4670 6099 c0 -5 5 -7 10 -4 6 3 10 8 10 11 0 2 -4 4 -10 4 -5 0 -10
-5 -10 -11z"/>
<path d="M4650 6091 c0 -10 19 -25 25 -20 1 2 -3 10 -11 17 -8 7 -14 8 -14 3z"/>
<path d="M4635 6060 c3 -5 8 -10 11 -10 2 0 4 5 4 10 0 6 -5 10 -11 10 -5 0
-7 -4 -4 -10z"/>
<path d="M4668 6043 c7 -3 16 -2 19 1 4 3 -2 6 -13 5 -11 0 -14 -3 -6 -6z"/>
<path d="M4805 5960 c-3 -6 1 -7 9 -4 18 7 21 14 7 14 -6 0 -13 -4 -16 -10z"/>
<path d="M4980 5920 c8 -5 20 -10 25 -10 6 0 3 5 -5 10 -8 5 -19 10 -25 10 -5
0 -3 -5 5 -10z"/>
<path d="M2253 5896 c-3 -6 -3 -8 2 -4 4 4 13 3 20 -2 8 -7 12 -5 12 3 0 16
-25 18 -34 3z"/>
<path d="M5210 5760 c0 -5 5 -10 10 -10 6 0 10 5 10 10 0 6 -4 10 -10 10 -5 0
-10 -4 -10 -10z"/>
<path d="M5241 5741 c-8 -5 -9 -11 -3 -15 5 -3 12 1 16 9 6 17 6 18 -13 6z"/>
<path d="M1693 5535 c0 -8 4 -12 8 -9 4 2 10 -2 12 -8 4 -10 8 -9 17 2 10 13
11 13 7 0 -2 -9 -14 -14 -28 -12 -17 1 -20 -1 -10 -7 11 -7 11 -9 0 -13 -8 -3
2 -4 22 -4 33 1 35 3 33 31 -1 16 -3 32 -3 34 -1 2 -8 -2 -16 -9 -11 -9 -19
-10 -28 -1 -10 8 -14 7 -14 -4z"/>
<path d="M5785 5200 c10 -11 20 -20 23 -20 3 0 -3 9 -13 20 -10 11 -20 20 -23
20 -3 0 3 -9 13 -20z"/>
<path d="M1393 5143 c4 -3 1 -13 -5 -22 -7 -9 -8 -13 -4 -9 5 4 15 0 23 -10
13 -16 13 -15 5 3 -5 11 -7 26 -5 33 3 6 -1 12 -8 12 -7 0 -9 -3 -6 -7z"/>
<path d="M5956 4965 c10 -8 23 -15 28 -15 6 0 1 7 -10 15 -10 8 -23 15 -28 15
-6 0 -1 -7 10 -15z"/>
<path d="M5927 4959 c7 -7 15 -10 18 -7 3 3 -2 9 -12 12 -14 6 -15 5 -6 -5z"/>
<path d="M5955 4930 c3 -5 8 -10 11 -10 2 0 4 5 4 10 0 6 -5 10 -11 10 -5 0
-7 -4 -4 -10z"/>
<path d="M1215 4883 c1 -25 35 -67 35 -45 0 7 4 11 9 8 5 -4 4 5 -2 19 -7 14
-16 25 -20 25 -5 0 -6 -4 -2 -9 3 -5 1 -12 -4 -15 -5 -4 -8 1 -7 10 1 8 9 20
17 24 10 7 9 9 -7 8 -15 -2 -20 -8 -19 -25z"/>
<path d="M6053 4815 c0 -8 4 -12 9 -9 5 3 6 10 3 15 -9 13 -12 11 -12 -6z"/>
<path d="M6108 4633 c6 -2 9 -10 6 -15 -4 -7 -2 -8 5 -4 13 9 5 26 -12 25 -9
0 -8 -2 1 -6z"/>
<path d="M3474 4588 c3 -15 26 -23 26 -8 0 6 -4 9 -9 6 -5 -4 -12 -1 -14 4 -3
6 -4 5 -3 -2z"/>
<path d="M3510 4588 c0 -6 6 -8 13 -5 8 3 13 -3 14 -17 0 -11 -1 -15 -4 -8 -3
6 -9 12 -14 12 -6 0 -7 -5 -3 -12 5 -8 2 -9 -10 -5 -10 4 -15 3 -11 -3 3 -6
15 -10 25 -10 10 0 21 -3 23 -8 3 -4 -8 -7 -23 -7 -20 -1 -33 6 -41 22 -13 25
-41 40 -33 18 3 -7 12 -16 20 -19 19 -7 18 -23 -1 -23 -8 0 -15 5 -15 11 0 6
-4 4 -9 -3 -6 -10 -23 -14 -48 -13 -33 2 -39 0 -39 -18 0 -11 4 -20 9 -20 5 0
4 -6 -2 -13 -6 -8 -8 -16 -5 -19 2 -3 -2 -8 -11 -12 -11 -4 -14 -2 -9 7 5 8 2
7 -9 -2 -14 -11 -17 -11 -18 0 -1 8 -1 18 0 22 1 5 -3 6 -9 2 -6 -3 -8 -10 -5
-15 3 -4 -1 -10 -8 -13 -14 -5 -16 -34 -4 -54 11 -17 -15 -31 -50 -28 -30 2
-31 1 -22 -17 8 -15 8 -19 0 -14 -14 9 -14 0 -1 -25 6 -11 7 -19 3 -18 -19 3
-22 -3 -13 -26 5 -13 6 -27 1 -29 -5 -3 -6 -16 -4 -30 3 -13 0 -27 -6 -30 -6
-4 -11 -13 -11 -19 0 -7 4 -6 10 3 9 13 10 13 10 -1 0 -8 -6 -21 -12 -28 -7
-8 -8 -11 -3 -8 6 3 10 -18 11 -53 0 -40 -3 -57 -10 -53 -7 5 -7 2 0 -8 6 -8
10 -24 8 -36 -2 -14 1 -23 9 -23 8 0 7 -4 -3 -10 -8 -5 -11 -10 -6 -10 6 0 1
-7 -10 -16 -15 -13 -16 -15 -2 -10 14 4 16 -1 13 -32 -2 -21 2 -40 8 -44 9 -6
9 -8 0 -8 -7 0 -10 -10 -7 -26 3 -19 1 -24 -8 -18 -10 6 -10 5 -2 -7 6 -8 10
-24 8 -36 -2 -14 1 -23 9 -23 8 0 7 -4 -3 -10 -8 -5 -11 -10 -6 -10 6 0 1 -7
-10 -16 -15 -13 -16 -15 -2 -10 14 4 16 -1 13 -32 -2 -21 2 -40 8 -44 9 -6 9
-8 0 -8 -7 0 -10 -10 -7 -26 3 -19 1 -24 -8 -18 -10 6 -10 5 -2 -7 6 -8 10
-24 8 -36 -2 -14 1 -23 9 -23 8 0 7 -4 -3 -10 -8 -5 -11 -10 -6 -10 6 0 1 -7
-10 -16 -15 -13 -16 -15 -2 -10 14 4 16 -1 13 -32 -2 -21 2 -40 8 -44 9 -6 9
-8 0 -8 -7 0 -10 -10 -7 -26 3 -19 1 -24 -8 -18 -10 6 -10 5 -2 -7 6 -8 10
-24 8 -36 -2 -14 1 -23 9 -23 8 0 7 -4 -3 -10 -8 -5 -11 -10 -6 -10 6 0 1 -7
-10 -16 -14 -11 -15 -14 -3 -11 21 7 24 -52 3 -60 -13 -5 -12 -8 2 -24 10 -11
12 -19 6 -19 -7 0 -12 -5 -12 -11 0 -5 4 -8 10 -4 5 3 8 -10 5 -32 -2 -22 2
-41 8 -45 9 -6 8 -8 -1 -8 -8 0 -10 -5 -6 -12 5 -7 2 -9 -9 -5 -11 4 -14 2
-10 -8 3 -8 9 -12 14 -9 16 10 9 -9 -8 -22 -17 -13 -17 -14 1 -7 13 4 17 3 12
-5 -3 -6 -2 -13 3 -17 6 -3 7 -13 4 -21 -6 -15 -8 -113 -3 -124 2 -3 3 -18 4
-34 1 -20 8 -30 20 -32 13 -2 16 2 12 14 -4 12 -2 12 9 -3 9 -11 19 -19 23
-18 4 2 7 -5 7 -15 1 -9 5 -23 9 -31 7 -10 5 -12 -5 -6 -11 6 -12 5 -1 -6 7
-7 28 -12 48 -11 23 2 33 -1 29 -8 -3 -5 -2 -10 4 -10 7 0 7 -8 1 -25 -6 -15
-6 -26 0 -30 6 -4 10 -3 10 2 0 4 5 1 10 -7 5 -8 10 -10 10 -5 0 6 12 10 28 9
16 -1 26 -7 24 -14 -2 -10 0 -11 10 -3 14 12 76 12 95 0 6 -4 15 -3 18 3 5 8
11 8 20 0 8 -7 18 -9 24 -6 5 4 12 -3 16 -14 4 -11 11 -18 16 -14 5 3 9 2 8
-3 -4 -25 5 -30 56 -30 44 1 55 4 53 16 -2 12 5 15 25 14 15 -1 27 2 27 7 0 4
-8 7 -17 5 -10 -1 -26 2 -35 7 -14 7 -16 5 -11 -9 5 -12 0 -10 -16 6 -14 14
-29 20 -42 16 -10 -4 -19 -2 -19 3 0 11 60 10 78 -2 7 -4 12 -2 12 5 0 9 3 9
14 0 10 -9 16 -9 21 -1 5 8 10 8 20 0 9 -8 15 -8 20 0 3 5 15 10 26 10 12 0
17 4 14 11 -4 6 3 5 14 -3 18 -11 23 -11 31 1 6 10 3 19 -8 28 -14 11 -14 13
-2 11 10 -2 14 4 12 16 -2 11 1 15 7 11 6 -3 11 -2 11 3 0 5 14 6 31 4 22 -3
30 -1 25 7 -4 6 -3 11 2 11 5 0 7 13 4 29 -4 32 15 52 29 30 7 -12 9 -11 9 1
0 13 1 13 10 0 7 -11 10 -11 10 -2 0 7 4 11 8 8 4 -2 7 7 6 22 -2 42 -3 44
-16 36 -7 -4 -8 -3 -4 4 4 6 12 9 19 6 9 -3 12 9 9 43 -2 46 -2 55 -1 96 0 10
5 15 11 11 7 -5 8 -2 2 7 -11 18 -13 79 -2 79 4 0 8 5 8 11 0 5 -4 7 -10 4
-20 -13 -9 13 13 29 l22 17 -22 -11 c-27 -13 -30 -3 -5 17 16 14 16 14 0 9
-10 -3 -20 -1 -23 4 -4 6 -3 10 2 10 4 0 8 153 8 340 0 223 3 340 10 340 7 0
7 3 0 8 -16 11 -12 75 5 90 13 12 13 13 -2 8 -10 -3 -20 -1 -23 4 -4 6 -2 10
3 10 5 0 7 12 4 26 -4 20 -2 25 8 19 9 -6 11 -4 5 6 -12 18 -14 99 -3 99 4 0
8 5 8 11 0 5 -4 8 -9 5 -5 -3 -7 16 -6 42 1 26 -2 55 -7 65 -5 10 -5 17 1 17
6 0 15 -8 20 -17 6 -10 11 -13 11 -7 0 5 -5 15 -12 22 -16 16 -20 94 -5 85 7
-3 5 2 -4 13 -9 11 -15 34 -14 56 1 27 -2 35 -12 31 -7 -3 -13 0 -13 7 0 9 -7
8 -24 -4 -23 -15 -25 -15 -21 4 2 11 -1 22 -6 26 -6 4 -6 10 1 19 15 18 -8 35
-43 31 -24 -3 -32 4 -28 27 0 4 -4 7 -10 7 -8 0 -8 4 0 14 15 18 -4 32 -48 34
-18 2 -42 7 -53 13 -15 8 -19 8 -14 0 4 -6 0 -11 -9 -11 -9 0 -14 4 -11 9 3 5
-1 11 -9 14 -9 4 -12 1 -9 -7 3 -7 -2 -13 -10 -13 -13 0 -13 4 0 29 9 17 10
28 4 28 -6 0 -16 -11 -22 -25 -12 -26 -32 -33 -43 -15 -4 6 -12 7 -18 3 -7 -4
-6 0 2 10 9 12 10 17 2 17 -7 0 -9 5 -6 11 5 6 12 4 20 -8 7 -10 11 -21 9 -25
-3 -5 -1 -8 5 -8 6 0 15 9 21 21 6 11 21 24 32 28 13 5 -14 7 -66 7 -74 -1
-89 -4 -98 -20 -9 -16 -7 -17 13 -11 20 5 19 3 -6 -13 -16 -11 -32 -17 -35
-15 -2 2 2 8 10 13 8 6 11 10 7 10 -4 0 -3 8 2 18 9 17 5 19 -35 19 -24 1 -44
-4 -44 -9z m60 -8 c0 -5 -4 -10 -10 -10 -5 0 -10 5 -10 10 0 6 5 10 10 10 6 0
10 -4 10 -10z m160 6 c0 -3 -4 -8 -10 -11 -5 -3 -10 -1 -10 4 0 6 5 11 10 11
6 0 10 -2 10 -4z m-525 -1486 c3 -5 1 -10 -4 -10 -6 0 -11 5 -11 10 0 6 2 10
4 10 3 0 8 -4 11 -10z m25 -362 c0 -4 -4 -8 -9 -8 -6 0 -12 4 -15 8 -3 5 1 9
9 9 8 0 15 -4 15 -9z m795 -8 c-3 -5 -12 -10 -18 -10 -7 0 -6 4 3 10 19 12 23
12 15 0z m30 -10 c3 -5 1 -10 -4 -10 -6 0 -11 5 -11 10 0 6 2 10 4 10 3 0 8
-4 11 -10z m-775 -16 c0 -8 -19 -13 -24 -6 -3 5 1 9 9 9 8 0 15 -2 15 -3z
m607 -139 c0 -8 -4 -12 -9 -9 -5 3 -6 10 -3 15 9 13 12 11 12 -6z m-236 -59
c5 3 9 0 9 -6 0 -15 -23 -7 -26 8 -1 7 0 8 3 2 2 -5 9 -8 14 -4z m70 -21 c3 2
10 -4 16 -14 10 -16 8 -18 -15 -17 -15 1 -32 5 -39 9 -6 4 -14 1 -16 -5 -4 -9
-6 -9 -6 -1 -2 21 30 45 43 33 7 -5 15 -8 17 -5z"/>
<path d="M3685 2480 c-3 -5 -5 -10 -3 -11 19 -4 51 -9 47 -6 -2 1 -11 8 -21
15 -11 9 -18 10 -23 2z"/>
<path d="M3790 4581 c-13 -25 -13 -31 2 -31 6 0 8 3 5 6 -3 4 -2 15 4 25 5 11
7 19 5 19 -3 0 -10 -9 -16 -19z"/>
<path d="M3817 4583 c-4 -3 -7 -13 -7 -22 1 -13 3 -13 11 2 11 19 8 33 -4 20z"/>
<path d="M3975 4500 c3 -5 8 -10 11 -10 2 0 4 5 4 10 0 6 -5 10 -11 10 -5 0
-7 -4 -4 -10z"/>
<path d="M6190 4481 c0 -5 6 -11 13 -14 8 -3 14 1 14 9 0 8 -6 14 -14 14 -7 0
-13 -4 -13 -9z"/>
<path d="M3970 4459 c0 -5 5 -7 10 -4 6 3 10 8 10 11 0 2 -4 4 -10 4 -5 0 -10
-5 -10 -11z"/>
<path d="M1095 4451 c-3 -5 -2 -12 3 -15 5 -3 9 1 9 9 0 17 -3 19 -12 6z"/>
<path d="M978 4262 c-10 -22 -2 -67 12 -67 21 -1 28 12 22 40 -4 23 -28 42
-34 27z m18 -27 c-3 -8 0 -15 7 -18 7 -2 5 -5 -4 -9 -11 -4 -15 1 -14 22 0 16
4 26 8 23 5 -3 6 -11 3 -18z"/>
<path d="M1026 4252 c-2 -4 -1 -14 4 -22 7 -11 9 -9 7 8 -1 24 -3 26 -11 14z"/>
<path d="M4116 4195 c-9 -26 -7 -32 5 -12 6 10 9 21 6 23 -2 3 -7 -2 -11 -11z"/>
<path d="M3134 4169 c-3 -6 -2 -15 3 -20 5 -5 9 -1 9 11 0 23 -2 24 -12 9z"/>
<path d="M4135 4119 c3 -14 -2 -19 -18 -20 -20 -1 -21 -2 -2 -6 11 -3 26 -10
34 -17 12 -9 13 -8 6 4 -12 19 -13 33 -2 41 5 3 2 9 -6 12 -11 4 -15 0 -12
-14z"/>
<path d="M3137 4104 c-8 -8 3 -34 15 -34 6 0 5 6 -2 15 -15 18 1 20 19 3 10
-11 11 -10 6 5 -7 17 -26 23 -38 11z"/>
<path d="M6250 4080 c0 -5 5 -10 10 -10 6 0 10 5 10 10 0 6 -4 10 -10 10 -5 0
-10 -4 -10 -10z"/>
<path d="M4115 4059 c-4 -6 -4 -13 -1 -16 3 -4 6 -1 6 5 0 6 7 9 17 5 11 -4
14 -3 9 5 -9 15 -23 15 -31 1z"/>
<path d="M3135 4040 c-8 -13 4 -32 15 -25 5 3 11 -2 13 -10 3 -11 4 -10 3 2
-1 10 -8 17 -14 16 -7 -2 -12 2 -12 8 0 7 10 9 28 5 20 -5 23 -4 12 4 -19 13
-37 13 -45 0z"/>
<path d="M4107 4023 c-10 -10 -8 -33 3 -33 5 0 6 7 3 17 -4 11 -3 14 5 9 7 -4
12 -2 12 3 0 12 -13 14 -23 4z"/>
<path d="M3137 3993 c-4 -3 -7 -11 -7 -17 0 -6 5 -5 12 2 6 6 9 14 7 17 -3 3
-9 2 -12 -2z"/>
<path d="M3173 3975 c-3 -9 -3 -18 -1 -21 3 -3 8 4 11 16 6 23 -1 27 -10 5z"/>
<path d="M4120 3980 c-13 -8 -13 -10 2 -10 9 0 20 5 23 10 8 13 -5 13 -25 0z"/>
<path d="M3153 3956 c1 -11 9 -21 17 -23 10 -3 11 -2 4 4 -6 4 -14 15 -17 23
-5 11 -6 9 -4 -4z"/>
<path d="M4097 3959 c7 -7 15 -10 18 -7 3 3 -2 9 -12 12 -14 6 -15 5 -6 -5z"/>
<path d="M4140 3960 c-9 -6 -10 -10 -3 -10 6 0 15 5 18 10 8 12 4 12 -15 0z"/>
<path d="M4113 3925 c0 -8 4 -15 9 -15 4 0 8 7 8 15 0 8 -4 15 -8 15 -5 0 -9
-7 -9 -15z"/>
<path d="M3140 3920 c8 -5 20 -10 25 -10 6 0 3 5 -5 10 -8 5 -19 10 -25 10 -5
0 -3 -5 5 -10z"/>
<path d="M3125 3902 c15 -11 19 -46 4 -36 -8 5 -10 3 -4 -6 6 -10 11 -10 20 3
7 9 16 13 21 9 5 -4 0 3 -10 16 -11 12 -24 22 -30 22 -7 0 -7 -3 -1 -8z"/>
<path d="M4090 3901 c0 -5 5 -13 10 -16 6 -3 10 -2 10 4 0 5 -4 13 -10 16 -5
3 -10 2 -10 -4z"/>
<path d="M4130 3889 c-7 -11 -9 -23 -6 -27 3 -3 6 0 6 7 0 7 4 10 8 7 4 -2 9
4 9 15 2 25 -4 24 -17 -2z"/>
<path d="M3175 3859 c-4 -6 -5 -12 -2 -15 2 -3 7 2 10 11 7 17 1 20 -8 4z"/>
<path d="M4137 3853 c-10 -10 -8 -23 4 -23 5 0 8 4 5 9 -4 5 0 12 6 14 7 3 8
6 2 6 -6 1 -14 -2 -17 -6z"/>
<path d="M3145 3840 c-3 -5 -1 -10 4 -10 6 0 11 5 11 10 0 6 -2 10 -4 10 -3 0
-8 -4 -11 -10z"/>
<path d="M4106 3823 c6 -4 14 -15 17 -23 5 -11 6 -9 4 4 -1 11 -9 21 -17 23
-10 3 -11 2 -4 -4z"/>
<path d="M3135 3800 c-8 -13 4 -32 15 -25 5 3 11 -2 13 -10 3 -11 4 -10 3 2
-1 10 -8 17 -14 16 -7 -2 -12 2 -12 8 0 7 10 9 28 5 20 -5 23 -4 12 4 -19 13
-37 13 -45 0z"/>
<path d="M4101 3794 c0 -11 3 -14 6 -6 3 7 2 16 -1 19 -3 4 -6 -2 -5 -13z"/>
<path d="M4134 3776 c-3 -9 -11 -13 -17 -9 -6 3 -7 1 -3 -5 4 -7 11 -12 16
-12 10 0 23 31 15 38 -2 3 -7 -3 -11 -12z"/>
<path d="M3137 3753 c-4 -3 -7 -11 -7 -17 0 -6 5 -5 12 2 6 6 9 14 7 17 -3 3
-9 2 -12 -2z"/>
<path d="M3173 3735 c-3 -9 -3 -18 -1 -21 3 -3 8 4 11 16 6 23 -1 27 -10 5z"/>
<path d="M4100 3741 c0 -9 30 -24 36 -18 2 1 -6 8 -16 15 -11 7 -20 8 -20 3z"/>
<path d="M3153 3716 c1 -11 9 -21 17 -23 10 -3 11 -2 4 4 -6 4 -14 15 -17 23
-5 11 -6 9 -4 -4z"/>
<path d="M4117 3696 c-8 -8 -18 -12 -22 -8 -5 4 -5 1 -1 -6 6 -11 12 -10 27 4
10 9 19 12 19 6 0 -6 -9 -17 -20 -25 -19 -13 -19 -15 -4 -21 9 -4 19 -4 22 -1
3 3 0 5 -7 5 -7 0 -9 5 -6 10 5 8 12 7 23 -2 14 -10 15 -10 5 1 -6 7 -9 19 -7
26 8 20 -13 27 -29 11z"/>
<path d="M3140 3680 c8 -5 20 -10 25 -10 6 0 3 5 -5 10 -8 5 -19 10 -25 10 -5
0 -3 -5 5 -10z"/>
<path d="M3125 3662 c15 -11 19 -46 4 -36 -8 5 -10 3 -4 -6 6 -10 11 -10 20 3
7 9 16 13 21 9 5 -4 0 3 -10 16 -11 12 -24 22 -30 22 -7 0 -7 -3 -1 -8z"/>
<path d="M3175 3619 c-4 -6 -5 -12 -2 -15 2 -3 7 2 10 11 7 17 1 20 -8 4z"/>
<path d="M4110 3615 c-29 -16 -19 -20 11 -5 11 7 19 7 19 1 0 -5 -6 -12 -12
-14 -10 -4 -10 -6 -1 -6 16 -1 27 19 17 29 -5 5 -20 2 -34 -5z"/>
<path d="M3145 3600 c-3 -5 -1 -10 4 -10 6 0 11 5 11 10 0 6 -2 10 -4 10 -3 0
-8 -4 -11 -10z"/>
<path d="M4100 3581 c0 -9 30 -24 36 -18 2 1 -6 8 -16 15 -11 7 -20 8 -20 3z"/>
<path d="M3135 3560 c-8 -13 4 -32 15 -25 5 3 11 -2 13 -10 3 -11 4 -10 3 2
-1 10 -8 17 -14 16 -7 -2 -12 2 -12 8 0 7 10 9 28 5 20 -5 23 -4 12 4 -19 13
-37 13 -45 0z"/>
<path d="M4117 3536 c-8 -8 -18 -12 -22 -8 -5 4 -5 1 -1 -6 6 -11 12 -10 27 4
10 9 19 12 19 6 0 -6 -9 -17 -20 -25 -19 -13 -19 -15 -4 -21 9 -4 19 -4 22 -1
3 3 0 5 -7 5 -7 0 -9 5 -6 10 5 8 12 7 23 -2 14 -10 15 -10 5 1 -6 7 -9 19 -7
26 8 20 -13 27 -29 11z"/>
<path d="M3137 3513 c-4 -3 -7 -11 -7 -17 0 -6 5 -5 12 2 6 6 9 14 7 17 -3 3
-9 2 -12 -2z"/>
<path d="M3173 3495 c-3 -9 -3 -18 -1 -21 3 -3 8 4 11 16 6 23 -1 27 -10 5z"/>
<path d="M3153 3476 c1 -11 9 -21 17 -23 10 -3 11 -2 4 4 -6 4 -14 15 -17 23
-5 11 -6 9 -4 -4z"/>
<path d="M4110 3455 c-29 -16 -19 -20 11 -5 11 7 19 7 19 1 0 -5 -6 -12 -12
-14 -10 -4 -10 -6 -1 -6 16 -1 27 19 17 29 -5 5 -20 2 -34 -5z"/>
<path d="M3140 3440 c8 -5 20 -10 25 -10 6 0 3 5 -5 10 -8 5 -19 10 -25 10 -5
0 -3 -5 5 -10z"/>
<path d="M3125 3422 c15 -11 19 -46 4 -36 -8 5 -10 3 -4 -6 6 -10 11 -10 20 3
7 9 16 13 21 9 5 -4 0 3 -10 16 -11 12 -24 22 -30 22 -7 0 -7 -3 -1 -8z"/>
<path d="M4100 3421 c0 -9 30 -24 36 -18 2 1 -6 8 -16 15 -11 7 -20 8 -20 3z"/>
<path d="M3175 3379 c-4 -6 -5 -12 -2 -15 2 -3 7 2 10 11 7 17 1 20 -8 4z"/>
<path d="M4117 3376 c-8 -8 -18 -12 -22 -8 -5 4 -5 1 -1 -6 6 -11 12 -10 27 4
10 9 19 12 19 6 0 -6 -9 -17 -20 -25 -19 -13 -19 -15 -4 -21 9 -4 19 -4 22 -1
3 3 0 5 -7 5 -7 0 -9 5 -6 10 5 8 12 7 23 -2 14 -10 15 -10 5 1 -6 7 -9 19 -7
26 8 20 -13 27 -29 11z"/>
<path d="M3145 3360 c-3 -5 -1 -10 4 -10 6 0 11 5 11 10 0 6 -2 10 -4 10 -3 0
-8 -4 -11 -10z"/>
<path d="M3135 3320 c-8 -13 4 -32 15 -25 5 3 11 -2 13 -10 3 -11 4 -10 3 2
-1 10 -8 17 -14 16 -7 -2 -12 2 -12 8 0 7 10 9 28 5 20 -5 23 -4 12 4 -19 13
-37 13 -45 0z"/>
<path d="M4110 3295 c-29 -16 -19 -20 11 -5 11 7 19 7 19 1 0 -5 -6 -12 -12
-14 -10 -4 -10 -6 -1 -6 16 -1 27 19 17 29 -5 5 -20 2 -34 -5z"/>
<path d="M3137 3273 c-4 -3 -7 -11 -7 -17 0 -6 5 -5 12 2 6 6 9 14 7 17 -3 3
-9 2 -12 -2z"/>
<path d="M3173 3255 c-3 -9 -3 -18 -1 -21 3 -3 8 4 11 16 6 23 -1 27 -10 5z"/>
<path d="M4100 3261 c0 -9 30 -24 36 -18 2 1 -6 8 -16 15 -11 7 -20 8 -20 3z"/>
<path d="M3153 3236 c1 -11 9 -21 17 -23 10 -3 11 -2 4 4 -6 4 -14 15 -17 23
-5 11 -6 9 -4 -4z"/>
<path d="M6250 3240 c-9 -6 -10 -10 -3 -10 6 0 15 5 18 10 8 12 4 12 -15 0z"/>
<path d="M4117 3216 c-8 -8 -18 -12 -22 -8 -5 4 -5 1 -1 -6 6 -11 12 -10 27 4
10 9 19 12 19 6 0 -6 -9 -17 -20 -25 -19 -13 -19 -15 -4 -21 9 -4 19 -4 22 -1
3 3 0 5 -7 5 -7 0 -9 5 -6 10 5 8 12 7 23 -2 14 -10 15 -10 5 1 -6 7 -9 19 -7
26 8 20 -13 27 -29 11z"/>
<path d="M3134 3201 c4 -5 1 -12 -4 -14 -6 -3 -5 -4 2 -3 15 3 23 26 8 26 -6
0 -9 -4 -6 -9z"/>
<path d="M6260 3200 c-9 -6 -10 -10 -3 -10 6 0 15 5 18 10 8 12 4 12 -15 0z"/>
<path d="M3150 3169 c0 -5 -4 -8 -8 -5 -4 2 -9 -5 -9 -17 -2 -20 -1 -21 11 -4
12 15 15 16 26 2 7 -9 15 -13 17 -11 3 2 -5 14 -16 25 -12 12 -21 16 -21 10z"/>
<path d="M4111 3136 c-21 -12 -21 -14 -6 -20 10 -3 20 -4 23 -1 3 3 -1 5 -9 5
-12 0 -12 2 1 10 9 6 17 5 22 -3 6 -9 8 -9 8 0 0 19 -14 22 -39 9z"/>
<path d="M3145 3120 c-3 -5 -2 -10 4 -10 5 0 13 5 16 10 3 6 2 10 -4 10 -5 0
-13 -4 -16 -10z"/>
<path d="M4090 3101 c0 -5 5 -13 10 -16 6 -3 10 -2 10 4 0 5 -4 13 -10 16 -5
3 -10 2 -10 -4z"/>
<path d="M4130 3089 c-7 -11 -9 -23 -6 -27 3 -3 6 0 6 7 0 7 4 10 8 7 4 -2 9
4 9 15 2 25 -4 24 -17 -2z"/>
<path d="M3133 3080 c1 -14 6 -24 12 -22 5 2 12 -5 16 -15 5 -12 7 -8 6 15 0
18 -5 35 -10 39 -6 3 -7 1 -3 -5 4 -7 4 -18 0 -24 -6 -9 -11 -5 -16 12 l-7 25
2 -25z"/>
<path d="M4135 3050 c-3 -6 1 -7 9 -4 18 7 21 14 7 14 -6 0 -13 -4 -16 -10z"/>
<path d="M3137 3033 c-4 -3 -7 -11 -7 -17 0 -6 5 -5 12 2 6 6 9 14 7 17 -3 3
-9 2 -12 -2z"/>
<path d="M3175 3019 c-4 -6 -5 -12 -2 -15 2 -3 7 2 10 11 7 17 1 20 -8 4z"/>
<path d="M4115 3019 c-4 -6 -4 -13 -1 -16 3 -4 6 -1 6 5 0 6 7 9 17 5 11 -4
14 -3 9 5 -9 15 -23 15 -31 1z"/>
<path d="M3154 2991 c1 -17 26 -28 26 -11 0 6 -4 9 -9 5 -5 -3 -11 0 -14 7 -2
9 -4 8 -3 -1z"/>
<path d="M4107 2983 c-10 -10 -8 -33 3 -33 5 0 6 7 3 17 -4 11 -3 14 5 9 7 -4
12 -2 12 3 0 12 -13 14 -23 4z"/>
<path d="M3130 2966 c0 -2 7 -7 16 -10 8 -3 12 -2 9 4 -6 10 -25 14 -25 6z"/>
<path d="M4135 2960 c-3 -5 -3 -10 2 -11 4 0 -1 -5 -12 -10 -19 -8 -19 -9 -1
-6 11 1 18 6 17 11 -2 5 3 13 11 17 9 6 9 9 1 9 -6 0 -15 -4 -18 -10z"/>
<path d="M3128 2943 c6 -2 9 -10 6 -15 -4 -7 -2 -8 5 -4 13 9 5 26 -12 25 -9
0 -8 -2 1 -6z"/>
<path d="M4115 2909 c-4 -6 -5 -12 -2 -15 2 -3 7 2 10 11 7 17 1 20 -8 4z"/>
<path d="M3164 2879 c-3 -6 -1 -16 5 -22 9 -9 10 -7 5 7 -6 15 -4 17 6 11 9
-5 11 -4 6 3 -9 15 -13 15 -22 1z"/>
<path d="M1053 2817 c-3 -5 -2 -11 1 -14 3 -4 6 -1 6 6 0 7 4 10 8 7 4 -2 14
-1 22 4 11 7 9 9 -8 7 -13 -1 -26 -5 -29 -10z"/>
<path d="M1087 2804 c-4 -4 -7 -12 -7 -18 0 -6 5 -4 10 4 9 13 11 13 21 0 9
-12 10 -12 7 -1 -5 17 -21 25 -31 15z"/>
<path d="M1055 2780 c-3 -5 -1 -10 4 -10 6 0 11 5 11 10 0 6 -2 10 -4 10 -3 0
-8 -4 -11 -10z"/>
<path d="M6115 2640 c-3 -5 -1 -10 4 -10 6 0 11 5 11 10 0 6 -2 10 -4 10 -3 0
-8 -4 -11 -10z"/>
<path d="M3517 2497 c4 -7 8 -21 8 -32 0 -18 7 -20 58 -21 54 0 74 10 42 22
-8 4 -13 9 -11 13 2 3 -7 11 -20 18 -14 6 -26 7 -30 2 -3 -5 -11 -6 -17 -2
-20 12 -38 12 -30 0z m48 -7 c9 7 17 4 28 -13 14 -22 14 -23 -22 -23 -32 0
-37 3 -37 23 0 15 3 20 10 13 6 -6 14 -6 21 0z"/>
<path d="M3570 2479 c0 -6 -7 -8 -16 -5 -8 3 -12 2 -9 -3 9 -15 44 -9 38 6 -6
16 -13 17 -13 2z"/>
<path d="M6059 2508 c-5 -18 -6 -38 -1 -34 7 8 12 36 6 36 -2 0 -4 -1 -5 -2z"/>
<path d="M5926 2321 c-13 -14 -14 -21 -5 -27 8 -5 10 -3 4 6 -6 9 -4 12 6 8
10 -4 15 1 15 13 0 23 1 23 -20 0z"/>
<path d="M1421 2181 c-8 -5 -11 -16 -7 -26 4 -13 2 -16 -9 -11 -8 3 -15 1 -15
-5 0 -6 8 -9 18 -7 9 2 16 10 14 17 -1 7 3 19 9 27 13 16 10 18 -10 5z"/>
<path d="M5883 2147 c0 -8 6 -14 14 -14 9 0 10 4 2 14 -6 7 -12 13 -14 13 -1
0 -2 -6 -2 -13z"/>
<path d="M5230 1506 c0 -2 7 -7 16 -10 8 -3 12 -2 9 4 -6 10 -25 14 -25 6z"/>
<path d="M2095 1455 c1 -16 3 -34 4 -40 0 -5 8 1 17 13 8 12 20 22 26 22 6 0
3 -10 -8 -22 l-19 -23 22 19 c16 13 20 23 13 31 -5 6 -7 15 -3 19 4 4 -4 3
-19 -3 -19 -7 -28 -7 -31 2 -3 7 -4 -1 -2 -18z m25 -10 c-7 -9 -15 -13 -17
-11 -7 7 7 26 19 26 6 0 6 -6 -2 -15z"/>
<path d="M5130 1470 c-9 -6 -10 -10 -3 -10 6 0 15 5 18 10 8 12 4 12 -15 0z"/>
<path d="M5145 1454 c-27 -20 -26 -39 1 -40 13 -1 24 3 24 10 0 6 5 4 10 -4 6
-9 10 -10 10 -3 0 6 -5 15 -11 19 -8 5 -8 9 1 14 9 5 8 9 -2 12 -8 3 -22 0
-33 -8z m21 -6 c-2 -14 -8 -18 -28 -18 -6 0 -3 7 8 15 23 18 23 18 20 3z"/>
<path d="M2615 1191 c-3 -5 -2 -12 3 -15 5 -3 9 1 9 9 0 17 -3 19 -12 6z"/>
<path d="M3085 1060 c-3 -6 1 -7 9 -4 18 7 21 14 7 14 -6 0 -13 -4 -16 -10z"/>
<path d="M4144 1058 c-3 -4 5 -5 17 -3 30 6 36 14 9 12 -12 -1 -24 -5 -26 -9z"/>
<path d="M3056 1046 c3 -8 13 -17 22 -21 13 -5 13 -2 -3 15 -21 24 -26 25 -19
6z"/>
<path d="M3106 1037 c3 -10 9 -15 12 -12 3 3 0 11 -7 18 -10 9 -11 8 -5 -6z"/>
<path d="M4180 1040 c-9 -6 -10 -10 -3 -10 6 0 15 5 18 10 8 12 4 12 -15 0z"/>
<path d="M4275 1040 c3 -5 8 -10 11 -10 2 0 4 5 4 10 0 6 -5 10 -11 10 -5 0
-7 -4 -4 -10z"/>
<path d="M4194 6253 c1 -7 8 -19 16 -26 8 -8 11 -8 6 0 -3 6 0 14 6 16 10 4
10 6 0 6 -7 1 -11 5 -8 9 3 5 -1 9 -8 9 -8 0 -13 -6 -12 -14z"/>
<path d="M1796 5602 c-3 -5 1 -9 9 -9 8 0 15 4 15 9 0 4 -4 8 -9 8 -6 0 -12
-4 -15 -8z"/>
<path d="M1624 5449 c-3 -6 -2 -15 3 -20 5 -5 9 -1 9 11 0 23 -2 24 -12 9z"/>
<path d="M1555 5360 c-3 -5 -1 -10 4 -10 6 0 11 5 11 10 0 6 -2 10 -4 10 -3 0
-8 -4 -11 -10z"/>
<path d="M1134 4724 c0 -22 1 -22 18 -7 19 17 17 26 -5 29 -8 1 -13 -9 -13
-22z"/>
<path d="M6183 2785 c0 -6 8 -11 17 -11 9 0 17 5 17 11 0 6 -8 11 -17 11 -9 0
-17 -5 -17 -11z"/>
<path d="M1150 2575 c-16 -19 -7 -30 17 -20 12 5 14 9 5 12 -6 3 -10 9 -6 14
9 15 -2 10 -16 -6z"/>
<path d="M1235 2380 c-3 -5 -1 -10 4 -10 6 0 11 5 11 10 0 6 -2 10 -4 10 -3 0
-8 -4 -11 -10z"/>
<path d="M1643 1843 c4 -3 1 -13 -6 -22 -11 -14 -10 -14 5 -2 16 12 16 31 1
31 -4 0 -3 -3 0 -7z"/>
<path d="M5566 1762 c-2 -4 -1 -14 4 -22 7 -11 9 -9 7 8 -1 24 -3 26 -11 14z"/>
<path d="M4530 1123 c0 -5 5 -15 10 -23 7 -12 9 -10 7 8 -1 19 -17 33 -17 15z"/>
<path d="M5207 415 c-4 -8 -3 -16 1 -19 4 -3 9 4 9 15 2 23 -3 25 -10 4z"/>
<path d="M2429 257 c-7 -16 -4 -34 7 -34 8 0 14 7 14 16 0 14 2 14 11 1 8 -12
10 -12 7 -1 -3 11 -35 26 -39 18z"/>
<path d="M4814 241 c0 -11 2 -18 5 -16 2 3 10 0 17 -6 16 -13 26 2 13 21 -7
13 -9 13 -9 1 0 -11 -3 -11 -13 3 -12 16 -13 16 -13 -3z"/>
<path d="M3097 104 c-9 -10 12 -44 26 -43 9 0 9 2 0 6 -7 2 -13 9 -13 14 0 6
6 7 13 3 8 -5 8 -2 -2 9 -15 19 -15 19 -24 11z"/>
<path d="M4195 7229 c-4 -6 -5 -12 -2 -15 2 -3 7 2 10 11 7 17 1 20 -8 4z"/>
<path d="M6588 7233 c7 -3 16 -2 19 1 4 3 -2 6 -13 5 -11 0 -14 -3 -6 -6z"/>
<path d="M4214 7219 c-4 -7 -3 -9 4 -5 5 3 12 0 15 -6 2 -7 7 -10 11 -7 4 3 0
12 -8 18 -11 9 -16 9 -22 0z"/>
<path d="M4036 7204 c-9 -9 -16 -11 -16 -4 0 6 -5 8 -11 5 -14 -9 -6 -16 23
-19 17 -2 24 2 24 16 0 22 -1 22 -20 2z"/>
<path d="M4170 7211 c0 -6 4 -13 10 -16 6 -3 7 1 4 9 -7 18 -14 21 -14 7z"/>
<path d="M3050 7202 c0 -5 7 -9 15 -9 8 0 12 4 9 9 -3 4 -9 8 -15 8 -5 0 -9
-4 -9 -8z"/>
<path d="M3090 7200 c0 -5 5 -10 10 -10 6 0 10 5 10 10 0 6 -4 10 -10 10 -5 0
-10 -4 -10 -10z"/>
<path d="M3227 7203 c-3 -5 -3 -13 1 -18 12 -17 30 -15 37 3 3 9 3 13 -1 9 -4
-4 -13 -2 -20 4 -7 5 -15 6 -17 2z"/>
<path d="M6575 7199 c-11 -16 -1 -19 13 -3 7 8 8 14 3 14 -5 0 -13 -5 -16 -11z"/>
<path d="M4146 7182 c-3 -5 1 -9 9 -9 8 0 15 4 15 9 0 4 -4 8 -9 8 -6 0 -12
-4 -15 -8z"/>
<path d="M2728 7152 c-10 -2 -18 -8 -18 -14 0 -5 7 -8 15 -4 8 3 19 -2 24 -12
5 -9 13 -13 17 -9 5 5 4 11 -2 15 -6 4 -13 12 -15 17 -2 6 -12 9 -21 7z"/>
<path d="M4496 7139 c8 -9 12 -23 9 -31 -4 -9 0 -15 10 -15 16 0 16 27 0 40
-6 5 -2 6 8 3 12 -4 16 -2 11 6 -4 6 -3 8 4 4 6 -3 9 -18 6 -32 -4 -22 -3 -23
10 -12 9 9 11 19 5 30 -6 11 -5 18 4 21 6 2 -9 3 -35 3 -42 -1 -45 -3 -32 -17z"/>
<path d="M2666 7137 c3 -10 9 -15 12 -12 3 3 0 11 -7 18 -10 9 -11 8 -5 -6z"/>
<path d="M4605 7140 c-3 -6 1 -7 9 -4 18 7 21 14 7 14 -6 0 -13 -4 -16 -10z"/>
<path d="M7176 7142 c-3 -5 1 -9 9 -9 8 0 12 4 9 9 -3 4 -7 8 -9 8 -2 0 -6 -4
-9 -8z"/>
<path d="M4616 7122 c-2 -4 -1 -14 4 -22 7 -11 9 -9 7 8 -1 24 -3 26 -11 14z"/>
<path d="M2710 7111 c0 -6 4 -13 10 -16 6 -3 7 1 4 9 -7 18 -14 21 -14 7z"/>
<path d="M4851 7075 c0 -5 9 -21 20 -35 16 -20 18 -21 10 -4 -6 12 -7 25 -3
29 4 5 2 5 -5 2 -6 -4 -14 -1 -16 5 -3 7 -6 9 -6 3z"/>
<path d="M4830 7035 c0 -8 2 -15 4 -15 2 0 6 7 10 15 3 8 1 15 -4 15 -6 0 -10
-7 -10 -15z"/>
<path d="M2406 7013 c-6 -14 -5 -15 5 -6 7 7 10 15 7 18 -3 3 -9 -2 -12 -12z"/>
<path d="M6364 6979 c-3 -6 -2 -15 3 -20 5 -5 9 -1 9 11 0 23 -2 24 -12 9z"/>
<path d="M2175 6961 c-3 -5 -2 -12 3 -15 5 -3 9 1 9 9 0 17 -3 19 -12 6z"/>
<path d="M5070 6945 c0 -7 30 -13 34 -7 3 4 -4 9 -15 9 -10 1 -19 0 -19 -2z"/>
<path d="M6340 6921 c0 -7 -4 -9 -10 -6 -5 3 -10 1 -10 -4 0 -6 4 -11 9 -11
13 0 25 20 17 27 -3 4 -6 1 -6 -6z"/>
<path d="M2005 6899 c-4 -6 -5 -12 -2 -15 2 -3 7 2 10 11 7 17 1 20 -8 4z"/>
<path d="M2036 6898 c3 -5 10 -6 15 -3 13 9 11 12 -6 12 -8 0 -12 -4 -9 -9z"/>
<path d="M2016 6873 c-6 -14 -5 -15 5 -6 7 7 10 15 7 18 -3 3 -9 -2 -12 -12z"/>
<path d="M5210 6878 c0 -4 4 -8 9 -8 6 0 12 4 15 8 3 5 -1 9 -9 9 -8 0 -15 -4
-15 -9z"/>
<path d="M5390 6836 c0 -2 8 -10 18 -17 15 -13 16 -12 3 4 -13 16 -21 21 -21
13z"/>
<path d="M1885 6819 c-4 -6 -4 -13 -1 -16 3 -4 6 -1 6 6 0 7 5 9 12 5 7 -4 8
-3 4 4 -9 15 -13 15 -21 1z"/>
<path d="M1840 6796 c0 -2 7 -7 16 -10 8 -3 12 -2 9 4 -6 10 -25 14 -25 6z"/>
<path d="M5856 6478 c3 -5 10 -6 15 -3 13 9 11 12 -6 12 -8 0 -12 -4 -9 -9z"/>
<path d="M1315 6400 c-3 -5 -1 -10 4 -10 6 0 11 5 11 10 0 6 -2 10 -4 10 -3 0
-8 -4 -11 -10z"/>
<path d="M6015 6351 c-6 -11 15 -61 27 -61 4 0 8 5 8 11 0 8 4 8 13 0 10 -8
14 -7 14 4 0 8 -4 12 -9 9 -4 -3 -8 0 -8 5 0 6 4 11 10 11 5 0 6 8 3 17 -4 11
-8 12 -11 5 -2 -8 -9 -9 -22 -2 -11 6 -21 6 -25 1z m24 -15 c9 -11 9 -16 -1
-22 -7 -4 -10 -4 -6 1 4 4 3 14 -3 22 -6 7 -9 13 -6 13 2 0 10 -6 16 -14z"/>
<path d="M729 5867 c7 -9 9 -17 4 -17 -5 0 -10 -6 -10 -14 0 -17 25 -14 39 5
7 11 9 9 5 -8 -3 -15 -1 -20 9 -16 10 4 11 10 3 24 -7 13 -6 19 1 19 6 0 8 5
4 11 -3 6 -9 7 -13 2 -8 -11 -22 -10 -41 2 -13 8 -13 7 -1 -8z m24 -22 c-3 -9
-8 -14 -10 -11 -3 3 -2 9 2 15 9 16 15 13 8 -4z"/>
<path d="M201 4807 c-9 -12 -8 -16 3 -20 19 -7 32 11 19 24 -6 6 -14 5 -22 -4z"/>
<path d="M0 4271 c0 -6 4 -13 10 -16 6 -3 7 1 4 9 -7 18 -14 21 -14 7z"/>
<path d="M10 4205 c-7 -9 -8 -15 -2 -15 5 0 12 7 16 15 3 8 4 15 2 15 -2 0 -9
-7 -16 -15z"/>
<path d="M50 4120 c-8 -5 -15 -20 -15 -34 -1 -14 2 -23 6 -20 4 2 9 1 12 -3 2
-5 3 -3 1 3 -1 6 3 17 9 24 10 10 8 11 -7 6 -19 -7 -19 -6 -1 14 20 22 18 25
-5 10z"/>
<path d="M35 3050 c-3 -5 -3 -10 2 -10 4 0 1 -5 -7 -11 -10 -7 -11 -9 -2 -7 8
2 13 7 12 12 -1 5 4 13 12 17 9 6 9 9 1 9 -6 0 -15 -4 -18 -10z"/>
<path d="M10 2999 c0 -5 5 -7 10 -4 6 3 10 8 10 11 0 2 -4 4 -10 4 -5 0 -10
-5 -10 -11z"/>
<path d="M120 2740 c8 -5 20 -10 25 -10 6 0 3 5 -5 10 -8 5 -19 10 -25 10 -5
0 -3 -5 5 -10z"/>
<path d="M110 2722 c0 -4 10 -9 22 -9 18 -2 20 0 8 7 -18 12 -30 13 -30 2z"/>
<path d="M110 2625 c0 -7 30 -13 34 -7 3 4 -4 9 -15 9 -10 1 -19 0 -19 -2z"/>
<path d="M409 1946 c-1 -1 -2 -13 -3 -28 -3 -24 -1 -26 12 -15 13 10 15 9 10
-4 -5 -13 -1 -16 17 -15 18 1 21 5 14 17 -5 10 -4 20 3 27 7 7 10 12 8 13 -8
2 -60 6 -61 5z m41 -21 c-6 -7 -6 -16 -2 -21 4 -4 0 -3 -9 4 -9 6 -18 10 -21
7 -2 -3 -5 1 -5 8 0 7 11 13 23 13 16 0 20 -3 14 -11z"/>
<path d="M490 1760 c0 -5 5 -10 10 -10 6 0 10 5 10 10 0 6 -4 10 -10 10 -5 0
-10 -4 -10 -10z"/>
<path d="M650 1499 c0 -5 5 -7 10 -4 6 3 10 8 10 11 0 2 -4 4 -10 4 -5 0 -10
-5 -10 -11z"/>
<path d="M5950 879 c0 -5 4 -8 9 -4 5 3 12 1 16 -5 3 -5 12 -10 18 -10 7 0 3
7 -7 15 -23 18 -36 19 -36 4z"/>
<path d="M1406 821 c-3 -4 0 -16 8 -26 11 -15 13 -16 13 -1 0 9 -4 16 -9 16
-5 0 -6 5 -3 10 3 6 4 10 1 10 -3 0 -7 -4 -10 -9z"/>
<path d="M5890 810 c10 -18 2 -34 -20 -43 -12 -4 -12 -6 2 -6 19 -1 28 9 34
42 2 16 -1 24 -11 24 -10 0 -11 -5 -5 -17z"/>
<path d="M5862 794 c-7 -8 -8 -14 -3 -14 10 0 25 19 20 25 -2 1 -10 -3 -17
-11z"/>
<path d="M5644 622 c2 -9 9 -18 16 -20 7 -3 10 0 6 6 -3 6 -1 12 6 14 7 3 3 7
-9 10 -15 4 -20 1 -19 -10z"/>
<path d="M1905 489 c-4 -6 -5 -12 -2 -15 2 -3 7 2 10 11 7 17 1 20 -8 4z"/>
<path d="M5399 470 l-25 -27 25 0 c14 0 20 2 13 4 -6 3 -9 9 -6 14 3 6 12 5
22 -3 14 -10 15 -10 5 1 -6 7 -9 20 -6 27 7 19 2 16 -28 -16z"/>
<path d="M2169 333 c-13 -16 -12 -17 4 -4 16 13 21 21 13 21 -2 0 -10 -8 -17
-17z"/>
<path d="M6336 337 c3 -10 9 -15 12 -12 3 3 0 11 -7 18 -10 9 -11 8 -5 -6z"/>
<path d="M7218 343 c-3 -5 -4 -19 -4 -33 1 -20 6 -25 29 -26 15 -1 25 2 21 5
-3 3 -9 6 -12 6 -20 1 -32 17 -22 30 7 8 7 15 1 19 -5 4 -11 3 -13 -1z"/>
<path d="M2220 330 c-9 -6 -10 -10 -3 -10 6 0 15 5 18 10 8 12 4 12 -15 0z"/>
<path d="M6371 324 c0 -11 3 -14 6 -6 3 7 2 16 -1 19 -3 4 -6 -2 -5 -13z"/>
<path d="M2193 302 c0 -15 2 -21 4 -14 3 6 9 10 14 6 14 -8 11 6 -5 21 -11 12
-13 10 -13 -13z"/>
<path d="M6335 301 c-9 -15 13 -23 32 -11 15 9 14 10 -6 4 -16 -4 -21 -3 -17
5 4 6 5 11 2 11 -3 0 -7 -4 -11 -9z"/>
<path d="M4150 98 c0 -11 28 -10 35 1 3 6 -4 9 -15 8 -11 -1 -20 -5 -20 -9z"/>
<path d="M2991 92 c-1 -7 -6 -10 -13 -6 -7 4 -8 3 -4 -5 4 -6 11 -9 16 -6 4 3
10 0 12 -7 3 -7 7 -5 11 6 4 9 3 15 -2 11 -5 -3 -12 1 -14 7 -4 10 -6 10 -6 0z"/>
<path d="M6590 95 c0 -5 5 -17 10 -25 5 -8 10 -10 10 -5 0 6 -5 17 -10 25 -5
8 -10 11 -10 5z"/>
<path d="M6618 93 c6 -2 9 -10 6 -15 -4 -7 -2 -8 5 -4 13 9 5 26 -12 25 -9 0
-8 -2 1 -6z"/>
<path d="M4280 80 c18 -12 30 -13 30 -2 0 4 -10 9 -22 9 -18 2 -20 0 -8 -7z"/>
</g>
</svg>
