<svg height="728pt" preserveAspectRatio="xMidYMid meet" viewBox="0 0 728 728" width="728pt" xmlns="http://www.w3.org/2000/svg"><g transform="matrix(.1 0 0 -.1 0 728)"><path d="m3070 7230c0-5 5-10 11-10 5 0 7 5 4 10-3 6-8 10-11 10-2 0-4-4-4-10z"/><path d="m3113 7227c-4-6-1-7 7-2 10 6 12 4 7-8-3-9-3-16 1-16 23 4 24-4 2-16-24-13-24-14-2-12 12 1 22 5 22 10 0 4 5 5 12 1 7-5 8-3 3 6-5 8-3 11 6 8 8-3 13-11 11-18-2-10 0-11 11-2 8 7 16 10 19 7 2-3 5 2 5 10s-3 12-7 10-7 2-7 10c0 11 4 12 14 4 10-9 13-8 13 2 1 11 3 11 13-1 7-8 19-16 27-18 21-4 48-32 32-32-7 0-12 5-12 10 0 6-5 10-11 10-5 0-7-4-4-10 7-12 13-11-97-14-52-2-85 1-82 6s-3 4-15-4c-18-11-23-10-36 7-12 16-14 16-9 3 5-15-1-17-38-17-97 0-138-4-138-15 0-7-3-7-8-1-11 15-64 17-55 2 5-8 2-8-9 1-10 8-18 9-22 3-7-11 27-34 38-26 3 3 3 2 0-2-3-5-10-9-15-9-5-1-12-2-16-3-4 0 1-7 10-13 16-12 15-13-9-15-15 0-23 2-17 5 5 4 1 15-10 25-18 18-18 18-15-4 3-21-1-24-34-25-23-1-38 3-38 10 0 6-5 3-11-7-8-13-14-15-30-7-13 8-25 7-39 0-11-6-31-8-44-6-14 2-27-1-30-7-3-9-5-9-5 1-1 6-11 11-23 11-17-1-19-2-5-6 9-2 17-9 17-14 0-6-5-7-11-3-8 4-8 0 0-15 18-32-2-25-22 9-18 30-40 32-52 2-5-13-3-13 14 2 20 18 20 18 18-9-2-22 2-28 20-30 37-3 37-13 1-14-84-3-204-8-210-10-5 0-8-6-8-12 0-5 6-7 13-3 10 6 10 4 0-7-16-16-17-30-2-26 6 1 13-4 15-11 1-7 0-8-2-3-3 5-16 4-31-4-17-9-32-11-43-5-10 5-21 6-25 2-3-4-25-8-47-8-40-2-59-16-57-44 1-11 3-10 6 3 2 9 8 17 13 17 9 0 7-26-3-36-7-7-74-15-135-16-25 0-30-3-22-13s7-16-7-24c-10-6-13-11-7-11 7 0 14-6 17-14 5-12-3-14-34-12-22 2-42 0-44-4s-24-6-47-5c-38 1-43-1-44-22-1-13 1-23 5-23s8-6 8-14c0-9-10-13-29-12-15 1-28 0-28-4 0-3-20-5-44-5-26 1-42-3-39-9 4-6-1-6-13-2-15 6-17 5-6-5 15-16 16-33 1-23-8 5-8 1 0-14 13-24 1-31-47-27-18 1-32-2-32-7s-6-6-12-2c-10 5-10 4-2-5 16-17 5-58-17-64-10-3-22-1-25 4s-13 5-23-1c-10-5-21-7-23-4-3 2-11-4-19-13-12-16-12-17 2-6 24 19 30 4 8-18-24-24-29-24-29 0 0 11-5 23-11 27-8 4-9-1-4-17 11-38 25-46 39-26 17 22 21 22 23-2 1-17-4-19-37-17-39 3-58-13-43-36 3-7 1-8-5-4-16 9-15-7 0-22 9-9 9-12 0-12-7 0-12 5-12 11 0 5-5 7-10 4-6-4-8-11-5-16 4-5 2-9-3-9-15 0-23 43-10 51 7 4 15 6 19 3 4-2 9 2 12 9 3 9-4 13-23 12-22 0-30-6-33-22-2-13-1-23 3-23s7-7 7-14c0-8-3-15-6-14-3 0-10-1-16-2-5-2-23-3-39-4-28-1-30-4-31-44-1-23-7-48-14-55-10-9-11-8-6 6 5 12 2 17-10 17-9 0-13-4-10-10 4-7-2-7-18-1-28 11-42 4-27-14 16-20-5-66-26-58-13 5-15 3-9-8s5-12-6-1c-22 21-38 14-35-15 4-38-13-71-25-52-5 8-9 9-9 3s-7-11-15-11-15 5-15 11-5 4-10-4c-14-22-12-30 7-24 15 5 16 4 3-5-8-6-15-20-15-33 0-18-6-23-28-25-19-1-25 2-20 10 5 9 3 8-9 0-8-7-18-10-21-6-4 3-7-1-7-11s5-14 12-10c7 5 8 3 2-7-5-8-7-22-6-31 2-10-1-18-7-18s-8-8-5-17c5-17 5-17-6 0s-46 25-36 8c4-5-2-7-13-4-15 4-18 0-16-21 2-13 6-30 11-37 4-8 3-9-4-5-12 7-14-2-15-56 0-23-4-27-23-24-13 3-25-1-28-7-3-9-5-9-5 1-1 18-21 15-21-4 0-9-5-12-12-8-10 6-10 4-2-7 28-39-13-81-54-55-9 6-11 0-8-20 3-17 0-31-7-36-9-6-9-8 0-8 7 0 10-7 7-15-4-8-10-12-15-9-12 7-11-3 1-26 7-12 6-21-3-28s-17-3-31 16c-20 27-20 27 0 10 28-24 34-22 21 5-8 16-17 22-32 19-17-3-21-10-20-38 1-19-2-34-8-34-5 0-5-6 2-13 6-8 8-17 5-20-4-4-7-17-8-29-1-18-7-23-29-23-15-1-27 3-27 9 0 19-14-5-18-30-2-18 1-24 9-18 8 5 9 3 3-7-8-14-14-34-16-56-1-7-5-10-10-7-4 3-8 0-8-7 0-8-4-8-15 1-8 7-15 17-15 22 0 6 6 6 14-1 10-9 15-8 19 2 3 9-2 13-16 11-12-1-24-3-27-4s-7-2-10-2-5-11-5-24c0-20 2-22 11-9 6 8 14 12 17 8 4-3 1-13-6-21-10-13-9-14 3-7 25 16 48 16 46 0-3-23-16-31-26-15-7 12-11 12-26-1-11-9-15-9-10-1 4 6 2 12-3 12-11 0-12-7-14-117 0-37-2-62-4-56-2 5-15 8-30 5-18-3-24-1-19 7 4 6 12 9 17 6 5-4 14-3 20 1 8 5 8 9-1 14-9 6-9 12 0 29 10 21 10 22-8 12-13-7-22-7-29 0s-12 5-16-5-1-13 8-10c16 6 15-25-1-43-6-6-10-32-9-57 2-26-2-46-7-46-6 0-8-7-4-15 7-19-8-19-24 0-10 12-10 15 0 15 8 0 11 2 8 5s-13 3-22-1c-14-5-12-10 11-28 31-23 42-56 19-52-9 1-19 6-23 11-4 4-1 4 7 0 13-8 13-6-1 15-9 13-22 26-30 28-11 3-11 1 1-7 10-7 11-11 3-11-7 0-13-5-13-11 0-8 6-7 17 2 15 12 16 12 10-4-4-10-7-20-7-23 0-2-6-1-14 2-16 6-17-37-1-48 6-5 6-8-1-8-8 0-12-19-11-52 0-31-4-53-11-56-7-2-9-9-5-15 13-19 10-54-4-54-7 0-13 4-13 9 0 4-5 8-11 8-5 0-8-4-4-9 6-11-13-26-22-18-3 3-1 12 3 19 13 20 14 39 2 32-7-4-8-2-4 5 4 6 11 9 15 6 5-2 16 3 24 13 15 16 15 18-3 18-10 0-16-4-14-8 3-4-3-8-13-8-15 0-18-9-19-65-1-36 2-62 7-60 4 3 2-7-6-22-9-17-11-29-5-31 5-2 6-11 2-20s-7-38-7-64c0-25-3-44-7-42-5 3-5 10-2 16 4 7 2 8-4 4-9-5-9-13 0-29 10-21 10-21-7-7-10 8-19 13-21 10-1-3-6-1-11 4s-2 6 6 1c9-5 12-4 7 3-3 6 2 15 11 21 10 6 14 11 10 11s-3 9 3 21c10 18 10 19-8 10-13-7-22-7-29 0s-12 6-16-4 1-13 18-11c17 1 22-2 18-13-4-10-8-11-13-3s-11 6-20-5c-11-13-10-14 5-9 16 7 16 5 3-17-11-16-15-47-14-96 1-40-1-73-4-73-8 0-6-72 3-87 4-6 3-14-3-18s-8-11-5-16c4-5 0-9-7-9-9 0-10-3-2-8 9-6 12-120 4-142-4-8-7-24-9-40-1-10-4-11-9-4-4 6-16 16-27 22s-14 12-7 12c6 0 12 5 12 11 0 5-4 8-8 5-4-2-8 4-8 14s3 17 7 14c15-9 16 22 1 39-9 10-10 17-4 17s18-10 28-22c11-15 14-17 11-6-4 10-1 20 5 24 7 4 5 10-6 16-9 5-13 14-10 20 5 7 2 8-5 3-9-5-10-10-2-18 16-16 13-31-4-17-24 20-39 1-18-23 15-17 15-19 2-15-14 5-16-32-16-375-1-276 2-386 10-396 9-12 9-13 0-7-18 10-18-55-1-73 7-8 8-11 3-8-7 3-10-30-10-97 0-77 3-103 13-103 9 0 9 4 2 11-5 5-10 15-10 21 1 5 10-1 20-14 11-13 20-19 20-14s-6 15-12 22c-11 10-9 12 6 9 10-2 21 4 23 12 4 13 3 13-6 0-8-12-11-12-11-1s-3 11-17 0c-14-12-16-12-11 1 3 8 12 15 20 14s15 4 15 11-6 11-14 8c-13-5-15-2-16 40-1 12-5 25-10 28-5 4-4 9 2 13s11 2 11-3c0-6 5-11 10-11 6 0 10 7 10 15s4 15 10 15c5 0 9-3 9-7-1-5 0-10 1-13 6-17 4-58-3-53-5 3-7 14-4 24 6 21-1 23-22 10-10-6-10-10-1-16 6-4 9-14 6-22s-2-11 3-8c16 10 26-18 26-75 0-35-5-59-14-66-11-9-12-12-1-19 9-5 11-4 6 3-4 7-3 12 3 12 13 0 23-17 14-23-10-6-9-60 2-77 6-9 4-11-4-5-10 5-11 3-4-11 5-11 8-33 7-49-2-24 2-31 17-32 12-1 17 3 13 9-4 7-2 8 5 4 16-10 3-27-17-24-13 2-17-5-17-27 0-16 4-36 9-42 5-8 5-13-1-13s-9-12-7-26c3-27 14-47 14-24 0 9 3 10 14 1 10-9 16-8 26 3 10 13 8 15-8 11-22-4-33 12-27 41 2 11 4 22 4 26 1 3 12 1 24-5 19-9 24-19 25-52 1-114 10-266 14-271 3-2 8 2 11 11 4 8 1 15-5 15-7 0-3 7 8 16 10 8 13 12 5 8-9-5-12-3-7 5 4 6 2 19-6 28-11 14-11 15 2 8 8-6 20-10 25-10 6 0 9-11 7-25-3-24-2-24 13-6 12 15 15 16 15 5 0-9-11-21-23-28-13-7-24-19-24-27 0-9 4-11 12-4 7 5 16 6 20 2 5-4 5-2 1 5-3 6-3 14 2 17 8 5 12-13 15-69 0-16 8-36 17-43 13-11 13-11-1-7-12 5-15-2-14-34 1-22 8-48 16-57 13-16 12-17-5-11-15 6-17 5-8-6 7-8 10-16 8-18s6-4 19-4 21 3 19 7c-2 3 2 8 8 11 10 3 10 8-1 21-8 9-20 15-27 12-15-6-27 21-14 29 6 4 10 2 10-3s9-12 20-15 18-1 15 3c-3 5-1 11 4 14 4 3 8-12 7-34s0-40 3-40c4 0 6-29 5-64 0-79 9-108 32-99 10 4 15 2 11-4-3-5 0-10 8-10 11 0 12 3 3 14-6 8-17 12-24 9-13-5-13 19 1 31 4 4 5 2 1-4-4-7-2-13 4-13 7 0 10 6 7 13-2 6-9 11-15 10-5-1-12 4-15 11-4 10 1 12 15 8 16-4 19-2 13 8-5 8-4 11 3 6 6-4 8-14 5-24-6-14-4-15 8-5 13 10 16 10 16-2 0-8-4-12-9-9-10 6-11-10-1-20 9-9 14-34 15-73 0-34 9-41 49-38 24 2 26-1 22-26-2-16 0-36 5-46 6-10 6-26 1-40-5-15-5-23 2-23 6 0 7-4 4-10-3-5-1-10 5-10s8-6 4-12c-4-7-4-10 1-6 4 4 14 3 22-4 10-8 17-8 26 1 9 10 8 11-4 6-10-4-20-2-24 4-4 7 2 10 17 8 27-5 32-36 8-54-12-10-11-11 10-7 20 5 22 3 10-5-14-10-7-16 14-12 5 1 4-4-2-12-15-17-9-63 7-60 6 2 11-3 11-10 0-8 4-7 10 3 9 13 11 13 20 0 5-8 10-11 10-6 0 6 6 1 14-10 8-10 11-23 6-29-4-5-6-18-4-28 3-22 14-36 14-19 0 7 5 12 11 12 5 0 7-6 3-12-6-10-4-10 7 0 7 6 20 12 28 12 11 0 10-4-5-16s-15-14-2-11c10 4 18-1 21-14 5-17 3-18-10-7-15 12-15 11-4-9 6-13 9-23 5-23-3 0-2-6 3-12 5-7 9-25 8-40-1-21 3-25 19-22 11 2 25-1 31-6 7-6 11-3 12 9 1 14-5 18-25 17-18-1-27 4-27 14 0 8-4 21-8 27-6 9-3 11 8 7s14-13 9-28c-6-18-5-19 9-7 9 7 15 17 12 21s2 10 10 13c10 4 12 1 8-10-4-10-2-14 4-10s9-6 8-24c-1-16 2-32 7-35 4-3 6-19 3-36-5-24-3-29 9-25 10 4 13 1 10-8-4-10 0-12 15-8 12 3 18 10 14 17-3 6 3 3 14-7 11-9 22-16 24-15 2 2-2-3-10-9-8-7-10-13-4-13s10-8 8-17c-4-28 14-44 36-32 11 5 16 15 13 21-4 7-3 8 5 4 6-4 9-12 6-17-4-5 0-12 9-15 8-3 12-12 9-20-8-22 5-61 21-61 8 0 13 4 10 9-7 11 3 10 27-3 11-5 17-14 14-20-4-5-1-9 6-9 8 0 8-4 1-13-7-8-7-17 1-27 14-17 57-23 57-7 0 6 5 6 13-1 7-6 12-27 11-46-1-20 2-39 7-42s9-1 9 4 7 9 15 9 15-5 15-10 7-3 16 4c14 11 16 10 14-11-4-40 0-74 6-67 3 3 17 2 29-3 16-6 25-5 29 3 3 9 5 8 5-1 1-7 5-11 10-8 4 3 7-12 6-34s1-37 6-35c4 3 10 1 14-5s12-7 18-3c19 12 37 12 37 2 0-6 4-8 9-4 5 3 13 1 16-5 5-7 11-8 19-1 6 5 16 7 22 3 13-9 12-52-1-51-15 1-33 13-37 24-2 5-7 9-11 7-5-1-5 3-1 10s3 9-2 5c-4-4-9-20-9-35-1-24 3-28 30-29 101-5 141-16 129-34-4-6-10-6-18 0-9 8-13 7-13-4 0-7 3-14 6-13 21 2 30-4 25-17-7-18 17-20 35-3 11 10 13 10 7 1-5-8-1-13 10-13 9 0 27-11 40-25s19-25 14-25-12 5-15 10c-3 6-11 10-17 10-7 0-6-6 2-15 10-12 10-15-1-15-12 0-12-2 0-9 8-5 23-8 33-6s18 1 18-3 18-7 40-6c26 0 37-3 33-10-4-6 1-5 11 3 14 12 19 12 29 1 9-10 9-11 0-6-7 4-13 2-13-3 0-6 5-11 11-11 8 0 8-4-1-15-6-8-9-18-6-23 8-13 55-21 62-11 3 5 13 5 22 0 9-4 28-7 42-6 35 3 52-12 40-35-7-13-6-20 3-23 7-4 8-6 1-6-6-1-17 6-24 14-10 12-10 18 0 30 9 10 9 15 1 15-6 0-11-5-11-11 0-8-5-8-15 1-11 9-15 9-15 1 0-7-4-10-8-7-4 2-8-8-7-23 0-29-11-27 137-33 36-2 64-6 61-10-2-5 0-8 6-8s7-8 4-17c-4-11-8-13-11-5-2 7-12 16-21 22-14 7-17 5-16-11 2-22 18-42 39-45 10-1 12 4 9 14-4 9-2 13 4 9 7-4 9 5 7 25-2 17-1 28 3 24s8-21 8-39c1-19 6-31 13-29 7 1 12-3 12-8 0-7 6-7 19 0 11 5 22 6 25 2 3-5 26-8 51-7 25 0 45-3 45-8 0-4 4-6 9-2 5 3 13 0 17-6 4-7 3-9-4-5-11 7-25-9-29-35-2-12 8-16 40-17 23-1 65-2 93-3l52-2-14-34c-8-18-13-33-12-34 2-1 19-2 38-3 20-1 41-6 48-10s12-3 12 2c0 11 50 3 67-10 6-5 14-5 17 0 7 12 125 7 139-7 6-6 7-11 3-11-5 0-3-6 3-14 9-11 9-16 0-22-8-5-9-3-4 6 6 9 4 11-5 5-8-5-11-4-7 3 5 6 0 8-13 5-12-3-20 0-20 6 0 7 4 10 9 6 5-3 12-1 15 4 4 5 1 13-5 17-7 4-9 3-6-3 3-5 0-10-8-10s-15 4-15 9-6 3-14-4c-9-8-11-17-5-22 13-15 11-28-3-20-7 4-9 3-5-1 13-15 36-14 30 1-4 10 0 12 11 8 9-3 14-9 11-14-2-4 8-6 22-4 15 1 35-2 45-7 14-8 18-6 18 8 0 11 3 14 8 7 9-13 8-13 160-17 91-3 126-7 132-17 9-15 4-30-10-30-5 0-7 9-5 19 3 14-1 18-12 14-8-3-11-9-6-12 10-7 10-22 1-37-5-8 159-11 593-11 330 0 602 4 605 8 3 5-1 6-8 4-9-4-14 3-15 16-2 17 1 19 10 10 6-6 16-11 22-11 12 1-25 23-43 26-6 1-9-2-6-7s2-9-3-8c-20 3-25-2-13-16 8-10 9-15 2-15-6 0-16 9-22 20s-15 18-21 15c-5-4-9-1-9 5s-4 9-9 5c-5-3-12-1-15 4-4 5-2 12 3 15 5 4 12 2 16-4s12-7 18-3c19 12 40 13 54 1 9-8 13-7 13 2s7 7 20-5c11-10 23-15 27-12 3 4 1 7-6 7s-10 4-7 8c6 10 36 9 53-1 6-4 14-4 16 0 3 5 46 8 96 8 71 0 90 3 86 13-3 8 0 10 8 5 6-4 23-9 37-10 20-3 22-1 10 7-13 8-13 10 2 10 9 0 24-7 32-16 9-8 16-11 16-5 0 5 9 8 20 6 27-5 35 13 16 34-17 18-50 25-39 8 4-6 1-7-7-2-9 6-11 4-5-5s4-11-5-5c-9 5-11 4-6-3 5-8 1-10-10-5-14 5-13 9 7 25 21 17 21 19 4 13-16-5-17-4-8 6 10 10 15 9 28-1 8-7 15-8 15-3s7 10 15 10 11-5 8-11c-4-6 0-5 8 1 12 10 18 10 29 0 10-9 11-9 6 1-5 8 0 11 16 8 13-2 31 0 40 5 11 6 18 5 21-4s8-9 18-1c16 12 48 12 66 1 6-4 14-3 18 3s11 7 17 4c7-4 8-2 4 4-4 7-1 12 6 12 10 0 10 2-1 9-9 6-10 11-2 15 6 4 9 12 5 17-3 5-9 7-14 4s-11-2-14 3 18 9 47 9c137 2 136 2 132 23-2 11 0 18 4 16 4-3 14 6 21 19 7 14 17 25 22 25s5-8 0-17c-5-10-7-24-5-31 3-7-1-11-7-10-7 2-15-4-17-12-4-12-3-12 5-2 5 8 13 13 18 13 5-1 10 8 10 20 2 31 15 38 78 41 32 2 60 7 63 11 3 5 10 3 14-4 6-9 8-5 5 14s-1 27 7 24c7-3 11-10 9-16-1-7 2-10 8-6 8 5 8 11 1 19-8 9-6 18 4 32 8 10 15 15 15 9 0-5 16-10 35-10s33 5 32 10c-2 6 10 18 26 28s26 21 23 25c-4 3-11 0-16-8-6-8-10-10-10-5 0 6-5 3-10-5s-10-10-10-5c1 21 26 40 53 39 15-1 30 3 34 9 3 6 8 6 12 0s19-6 40-1c33 9 33 9 15 30-11 12-13 18-5 13 11-6 13-4 8 8-7 18-6 19 33 21 16 1 24-4 22-12-1-8 2-11 8-7 6 3 8 10 5 15-9 15 15 22 30 10 8-7 15-11 16-9 7 35 6 39-8 37-10-2-17 5-18 19-1 15 3 19 13 15 9-3 13-1 10 4-4 5 4 9 16 9 13 0 23-6 23-13s-7-10-18-7c-9 3-20 2-23-3s8-9 25-10c17 0 29 4 28 11-4 31 1 38 20 27 13-6 22-7 26 0 3 5 13 6 22 3 13-5 15-2 11 15-4 15-2 20 5 15 7-4 7 0-1 9-17 21-1 32 45 33 17 0 35 3 39 8 4 4 1 7-6 7-9 0-8 6 5 20 10 11 13 20 7 20-7 0-12 5-12 11s7 9 15 5c8-3 15-2 15 3 0 9 24 12 95 13 22 1 32 3 23 5-10 3-18 8-18 13 0 4-10 7-23 6-17-2-23 2-22 16 1 10 8 24 15 31 12 10 12 9 2-4-9-13-6-15 23-16 25-1 32 3 28 13-5 12 12 17 43 13 4 0 11 5 15 13 7 10 9 10 9 1 0-7 4-13 9-13s9 17 8 38c-1 23 3 37 11 38 36 4 37 4 22 14-8 5-10 10-4 10 5 0 15-5 22-12 18-18 44 20 31 44-7 13-6 18 3 20 7 0 18 2 23 2 6 1 16 5 23 9 7 5 12 3 12-3s4-9 9-6c4 3 7 23 5 45-2 23 1 43 7 46 5 4 9 2 9-4s11-6 28-1c23 6 31 4 40-11 8-12 9-19 2-19s-8-6 0-19c7-14 7-22 0-26-6-4-8-11-4-16 3-5 9-7 14-4s12 0 16-6c4-7 3-9-3-6-6 4-16 0-23-8-8-9-8-15-2-15 7 0 8-10 3-27-5-16-5-37-1-48s3-25-2-32c-6-7-5-14 2-18 6-3 8-11 4-16-8-13-8-124 0-137 3-6 3-13-1-15-9-6-8-212 1-225 3-5 2-12-1-16-10-10-10-50 1-57 4-4 3-16-3-28-10-18-9-21 6-22 11 0 13-3 6-6-7-2-13-10-13-16 0-5 3-7 7-4 3 4 12 2 20-5 14-11 28-4 28 15 0 5 6 11 13 13 7 1 8 0 2-3-5-2-8-9-4-14 3-5 7-37 8-70 2-39 8-64 17-70 10-6 10-9 2-9-7 0-13-5-13-12 0-6 3-8 7-5 3 4 12 2 19-4 16-13 37-2 28 14-3 7 2 3 11-8s24-19 33-17c16 3 16 2 1-10-22-18-30-54-13-56 8-1 30-2 49-3 31-1 34-4 29-23-3-14 1-27 10-35 10-8 16-9 16-3s-5 12-11 14c-7 2-9 13-5 24 5 18 17 21 68 15 12-2-1-46-18-58-12-8 35-11 198-10l213 2v28c1 16-3 31-9 34-5 3-6 1-2-6 9-14-16-11-26 4-5 6-8 5-8-2 0-21-3-27-16-40-16-17-21-16-21 2 0 8 4 12 8 10 4-3 9 2 12 10 4 10 1 12-11 9-13-5-14-4-3 4 10 7 10 11 1 14-7 2 26 4 74 3 79 0 87 1 83 17-3 10-1 18 4 18 6 0 5 8-1 20-12 22-11 22 40 24 33 2 35 4 35 37 0 19 3 39 6 44 3 6 5 27 4 47-1 22 3 34 9 31 5-4 7 1 3 10-3 9-2 19 4 22 5 4 9 3 8-2-4-22 2-34 14-27 6 4 9 4 5-1-4-4-2-15 5-23 8-11 8-14 0-9-6 4-15 2-19-4-5-8-3-9 6-4 8 5 11 4 7-1-3-5 2-10 12-10 9 0 17 8 17 17 0 10-5 15-10 12-6-4-6 1-2 13 14 34 15 56 6 74-5 10-6 20-3 24 12 12 11 61-1 68-7 5-7 8-1 8 12 0 14 168 2 187-4 6-4 14 1 17 10 6 9 607-1 623-4 6-4 14 1 17 10 6 9 607-1 623-4 6-4 14 1 17 11 6 9 448-2 465-6 8-5 12 0 8 11-6 12 292 2 309-4 6-4 14 0 18 10 10 9 776 0 783-5 2-5 10-1 16 13 19 11 770-1 786-7 9-7 12-1 9 13-8 14 291 1 311-5 8-5 12 0 8 12-7 12 293 0 312-5 8-5 12 0 8 11-6 12 292 2 309-4 6-4 14 0 18 10 10 9 776 0 783-5 2-5 10-1 16 12 19 10 646-2 639-5-3-4 2 4 12 13 15 13 19 0 27-8 5-9 9-4 9 6 0 10 26 10 59s-2 59-5 59c-19-1-21 4-5 16 16 11 12 12-30 9-42-4-47-3-36 10 8 11 9 17 1 22-6 4-10 12-9 18 3 23-3 52-7 40-4-9-13-9-32-2-15 6-29 9-31 7-3-2-4 16-4 39 0 36-2 41-16 35-21-10-42-9-60 2-11 7-12 6-6-5 8-12 6-12-8 0-19 15-23 32-6 28 6-1 14 5 16 13 4 13 3 13-6 0-6-8-11-12-11-8 0 3-3 14-7 24-4 11-3 15 5 10 6-3 13-3 15 1 3 5-31 9-74 10-61 2-78 0-73-10 6-9 4-9-7-1-8 7-54 12-103 13-72 2-90-1-101-15-9-13-14-14-20-4-5 9-4 11 3 6 7-4 12-2 12 3 0 16-23 13-46-5-10-8-13-13-6-9 6 3 12 1 12-5s5-8 10-5c6 3 10 2 10-4 0-5-5-13-10-16-6-4-8-10-6-14 3-4-15-7-39-6-25 2-45-2-45-7 0-6-6-8-14-5-17 7-39-16-28-28 4-5 1-5-6-1-11 6-11 11 0 24s11 14-2 10c-10-3-15-17-15-39 0-19-5-38-12-42-8-5-11-12-8-16 2-5-2-14-10-21s-15-9-15-4-5 2-11-6c-9-13-10-13-6 0 2 8 10 15 18 15s14 8 14 18c0 9-4 16-10 15-5-2-9-7-7-12s-4-4-12 4c-9 7-17 10-17 6-1-3-2-10-3-15 0-5-4-13-8-16-4-4-3-16 2-26 6-11 6-20 1-23-5-4-9-23-8-43 1-21-3-38-11-41-8-2-10 2-5 15 4 11-3 7-16-9-12-16-30-28-39-28-15-1-14-3 2-15 11-8 14-15 7-15s-9-4-6-10c3-5 1-10-6-10-10 0-10-3-2-11 7-7 8-21 3-38-4-15-3-35 2-44 6-11 5-17-2-17s-8-6 0-19c7-14 7-22 0-26-8-5-8-11-1-19 6-7 8-15 5-19-8-8-8-122 0-135 3-6 3-13-2-16s-7-31-5-63 4-77 6-101c1-23-2-44-8-46-5-3-4-5 3-5 9-1 10-7 4-18-4-10-7-48-7-85l2-67-36 4c-54 4-73 14-58 30 7 7 17 10 22 7 6-3 4 2-3 11-8 9-11 20-8 25s-7 9-22 10c-59 0-60 1-57 29 4 43-4 54-34 46-14-3-30-11-34-17-6-7-7-5-4 6 7 19-8 27-45 23-21-2-25 0-21 13 4 9 2 13-4 9s-9 6-8 23c1 24-2 29-24 29-50 0-66 7-63 27 2 11 7 23 12 28 11 11 32-2 24-16-4-6-10-5-15 3-7 11-9 10-9-3 0-23 16-32 24-12 6 16 26 11 26-7 0-6-5-7-12-3s-8 3-4-4c4-6 13-9 22-5 13 5 12 8-3 26-17 20-17 20 1 13 15-5 17-4 8 7-7 8-8 17-4 22 4 4-3 3-15-4-16-8-24-8-29 0-4 8-9 7-15-2-6-11-9-10-14 3-5 12-16 15-41 12-20-2-34 0-34 6s6 8 13 4c9-6 9-4 1 7-6 8-14 26-18 42-6 24-9 26-26 17-15-8-20-8-20 1 0 8-5 7-17-2-15-13-16-12-11 8 4 13 2 25-3 28-4 3-6 12-2 20 5 15 3 16-44 19-16 1-33 5-40 9-6 4-14 1-16-5-4-10-6-10-6-1-1 7-8 10-16 7-18-7-47 14-39 27 3 5 9 7 14 4s11-1 15 5c3 5 12 10 18 10 7-1 1-10-12-20-13-11-18-20-13-20 6 0 14 5 18 11 4 8 9 7 15-2 7-11 9-11 9-1 0 7 4 10 10 7 5-3 7 0 4 8-8 22-55 40-108 42-31 1-51 6-54 15-3 7-1 10 4 7 11-6 11 39 1 50-4 4-35 8-70 9-34 2-66 3-71 3-4 1-5 8-2 17 6 15 4 15-11 3-10-7-15-9-11-5 4 5 2 16-5 24-8 10-8 13-1 9s15 0 18 9c3 8 2 12-4 9s-10-2-10 4c0 5-8 10-17 9-10 0-42 1-71 2-45 2-53 6-58 26-3 12-3 27 0 32 3 6-1 13-10 16-25 10-27 7-13-11 13-17 13-17-7-1-16 14-23 15-32 6-8-8-12-8-12-1 0 5-21 10-47 10-36 0-51 5-65 23-18 23-16 40 5 40 9 0 9-2 0-8-8-5-7-12 4-27 12-16 14-16 10-3-3 10-2 20 3 23 15 10-10 30-36 30-28 0-28 3-9-43 13-33 13-35 0-18-8 11-15 26-15 34 0 7-4 10-10 7-5-3-7 0-5 7 4 10-5 14-37 13s-48 4-61 19c-17 19-18 19-13 3 4-12 2-17-6-14-7 2-21 0-32-5-13-7-16-7-12 1 4 6 2 11-4 11s-8 5-4 12c5 7 2 9-7 6-11-4-15 1-15 17 0 13 4 21 8 19 5-3 6-10 3-15-12-19 23-8 41 13 12 14 13 18 3 10-9-6-19-9-22-6-12 12-62 13-69 1-6-9-8-9-8 0 0 7-20 12-55 13-85 2-90 2-97 14-5 7-8 7-8 0 0-15-87-11-102 6-11 12-10 12 6 0 18-14 19-13 13 3-5 12-3 16 4 11 7-4 10-1 7 7s-12 13-21 13c-8-1-13 4-11 11 4 9-18 12-81 13-47 1-90 4-96 7-5 4-9 1-9-5s-5-8-12-3c-7 4-56 8-108 9-52 0-104 5-114 9-12 5-17 5-13-2 3-5-3-9-16-8-12 2-21 8-20 14 2 6-2 11-9 11-6 0-3 7 8 16 16 13 16 15 2 10-10-3-18-1-18 4 0 13 27 13 35 0 4-7 13-7 26 0 17 10 59-1 59-14 0-2-9-2-20 1s-20 0-20-6c0-7 10-10 25-7 14 3 25 0 25-5 0-6 6-9 13-6 6 2 11 10 9 17s3 10 11 7c7-3 14 1 14 8 0 8-7 11-15 7-9-3-13-1-10 4 4 5-110 10-284 11-233 1-287-1-279-11 8-9 7-13-4-13-7 0-13 5-12 11 3 16-72 19-91 4-9-7-13-8-9-2 4 7-16 11-63 11-39 0-70-4-70-8 0-5 8-6 18-2 14 5 15 4 4-8s-15-12-25 1c-15 20-110 21-129 3-18-19-32-15-17 5 10 13 8 12-10-3-19-15-23-16-19-4 7 17-19 22-29 6zm203-28c3-6-5-3-20 6-14 10-26 19-26 22 0 7 39-17 46-28zm110 6c2-12-2-12-17-5-23 13-25 22-2 13 12-5 14-3 8 8-5 8-4 11 0 6 5-4 10-14 11-22zm61 7c-17-18-51-27-41-10 3 5 9 6 14 3 4-3 13 2 20 10s15 15 18 15-2-8-11-18zm327 10c3-5-1-9-9-9s-12 4-9 9c3 4 7 8 9 8s6-4 9-8zm92-17c1-9-4-11-14-7s-12 7-4 10c7 2 9 9 5 15-3 7-2 8 2 4 5-4 10-14 11-22zm34 5c-11-7-12-11 0-24 7-9 10-19 6-23-3-3-6-1-6 6s-4 10-8 7c-12-7-11 26 1 42 5 7 12 10 16 7 3-3-1-10-9-15zm187-5c0-11-4-12-14-4-7 6-13 15-13 20s6 6 13 3c8-3 14-11 14-19zm2854 5c6 0 7 6 3 13-5 8-2 8 9-2 9-7 17-19 17-25s-5-4-11 4c-9 12-10 11-6-7 4-19 1-23-18-23-13 0-27 4-30 10-3 5 0 7 8 4s18 0 23 7c5 8 3 10-6 4-9-5-11-4-6 3 4 7 2 12-4 12s-8 5-4 12c6 9 9 9 12 0 2-7 8-12 13-12zm-3784-5c0-8-4-12-9-9s-6 10-3 15c9 13 12 11 12-6zm770 0c-4-8-2-17 3-20 6-4 10-11 10-18 0-6-6-2-14 8-12 17-12 45 1 45 3 0 3-7 0-15zm-577-20c0-2-7-1-17 2-11 5-14 3-8-6 6-10 3-11-14-2-25 14-28 23-4 14 11-5 14-3 8 6-6 10-3 11 14 2 11-7 21-14 21-16zm3320 15c0-5-4-10-10-10-5 0-10 5-10 10 0 6 5 10 10 10 6 0 10-4 10-10zm-2845-10c3-6-1-7-9-4-18 7-21 14-7 14 6 0 13-4 16-10zm-464-23c-10-9-11-8-5 6 3 10 9 15 12 12s0-11-7-18zm200 6c13-16 12-17-3-4-10 7-18 15-18 17 0 8 8 3 21-13zm174 8c-9-8-36-10-30-2 2 4 11 8 20 8 8 0 13-3 10-6zm70-9c-3-3-11 0-18 7-9 10-8 11 6 5 10-3 15-9 12-12zm36-5c-10-9-11-8-5 6 3 10 9 15 12 12s0-11-7-18zm2804 14c3-5 0-13-6-17-7-4-9-3-5 4 3 5 0 13-6 15-9 4-10 6-1 6 6 1 14-3 18-8zm-4230-140c3-5 1-12-5-16-5-3-10 1-10 9 0 18 6 21 15 7zm2285-6c11-13 10-14-4-9-9 3-16 10-16 15 0 13 6 11 20-6zm-2207-8c3-8-1-14-8-14s-11 6-8 14c3 7 6 13 8 13s5-6 8-13zm-243-41c0-3-4-8-10-11-5-3-10-1-10 4 0 6 5 11 10 11 6 0 10-2 10-4zm4955-5c-3-5-1-12 4-16 6-3 7-13 4-22-5-12-3-14 8-8 12 8 12 6 0-8-7-9-23-15-34-13-16 2-22 11-23 34-1 20 3 29 11 25 7-2 16 0 20 6 3 6 8 11 11 11s3-4-1-9zm-4938-16c0-8-4-12-9-9s-6 10-3 15c9 13 12 11 12-6zm-19-30c-3-3-9 2-12 12-6 14-5 15 5 6 7-7 10-15 7-18zm2897-63c-3-3-11 0-18 7-9 10-8 11 6 5 10-3 15-9 12-12zm1195 8c12-7 10-9-8-7-12 0-22 5-22 9 0 11 12 10 30-2zm-10-35c0-8-2-15-4-15s-6 7-10 15c-3 8-1 15 4 15 6 0 10-7 10-15zm-1060-19c0-3-4-8-10-11-5-3-10-1-10 4 0 6 5 11 10 11 6 0 10-2 10-4zm1040-46c0-5-2-10-4-10-3 0-8 5-11 10-3 6-1 10 4 10 6 0 11-4 11-10zm-865-50c5-8 11-7 21 1 12 10 13 9 8-5-3-9-9-16-13-16-12 1-45 30-34 30 7 0 15-5 18-10zm900-58c-3-3-11 0-18 7-9 10-8 11 6 5 10-3 15-9 12-12zm-4708-24c1-10-3-18-9-18-7 0-7-4 0-13 9-10 6-13-13-13-20 0-22 2-12 15 10 12 9 14-6 8-18-7-17 1 4 29 13 17 35 12 36-8zm3947 1c-6-11-24-2-24 11 0 5 7 7 15 4 8-4 12-10 9-15zm722-45c1-9 0-13-4-10-3 4-7 14-8 22-1 9 0 13 4 10 3-4 7-14 8-22zm-606-29c0-2-9-3-19-2-11 0-18 5-15 9 4 6 34 0 34-7zm14-34c-3-4-9-6-12-6-4 0-12-3-18-7s-11-1-11 5c0 7 11 13 23 13 13 0 21-2 18-5zm-4487-223c-3-8-6-5-6 6-1 11 2 17 5 13 3-3 4-12 1-19zm2355 10c-14-14-44-20-36-7 3 5 9 7 14 4s11-1 15 5c3 5 9 10 13 10 3 0 1-5-6-12zm14-26c-17-16-18-16-5 5 7 12 15 20 18 17 3-2-3-12-13-22zm-2371-12c-3-5-12-10-18-10-7 0-6 4 3 10 19 12 23 12 15 0zm2215-10c9 5 19 5 27-2 9-7 13-7 13 1s6 9 18 4c27-13 99-8 118 8 10 8 15 9 11 3-4-8 5-14 26-17 17-2 33-1 35 4 2 4 10 5 19 2 12-5 14-3 8 8-5 9-1 8 10-3 13-12 24-14 41-7 13 4 24 5 24 0 0-4 7-8 15-8s15 3 15 6 11 6 25 6 25-2 25-5 55-5 123-6c93 0 121-3 119-13-1-7 2-10 8-6 5 3 10-1 10-9 0-9-5-16-11-16s-9-5-7-12c5-14 55-18 81-6 9 5 17 5 17 0s12-9 28-9c171-4 180-6 175-22-4-14-3-14 6 1 11 16 57 16 71 1 3-3-5-4-17-1-26 7-46-13-37-36 3-9 9-16 13-17 3 0 24-3 46-5 22-3 72-6 112-7 39-1 69-5 67-9-3-5-1-8 5-8 10 0 6-38-5-49-4-3-4 2-1 11 4 12 2 15-9 11s-12-8-3-19c7-8 14-12 17-10 2 3 13 1 23-5 13-7 19-6 19 1s6 8 18 1c10-5 34-9 53-9 60 1 66-1 49-12-11-7-11-10-2-10 7 0 10-5 7-10-5-8-11-7-21 1-8 6-14 8-14 3s-5-2-11 6c-9 13-10 13-6 0 2-8 9-14 15-13 6 2 16-6 22-17s15-18 21-15c5 4 9 2 9-3s7-9 15-9 15 5 15 10c0 6 10 2 22-9 12-10 18-13 13-5-6 10 4 7 26-6 19-12 37-22 42-22 10-1 9-16-2-16-5 0-13-4-18-10-4-6-4-7 1-3 4 4 15 0 24-8 8-9 18-11 21-6s15 7 26 5c11-3 28-5 37-6 12-1 14-6 8-17-5-9-7-25-6-36 3-19 9-20 81-23 23-1 27-3 15-11-8-5-10-10-4-10s14 3 18 7c11 12 36 12 43 1 3-7 1-8-5-4-7 4-12 2-12-3 0-6 4-11 9-11s8-12 5-26c-3-16-1-23 6-19 5 3 10 2 10-3s19-8 43-7c23 2 36 1 29-2-10-4-9-9 4-24 15-17 16-19 2-14-12 5-16 2-13-12 2-10 4-21 4-24 1-3 19-5 41-3s39 0 39-4c-4-28 1-34 19-21 14 11 13 10-2-9-14-17-16-22-5-22s11-2-1-10-10-10 8-10c16 0 21 4 16 13-5 8-2 8 9-2 9-7 17-10 17-7 0 4 6 1 13-6 8-7 13-27 11-45-1-18 3-36 9-40 5-3 7-1 4 4-4 6 4 11 18 11s25-4 25-9 5-8 11-7c6 2 14-3 17-11 2-8 0-11-6-7-9 5-10-14-2-34 1-3 2-9 1-14s5-6 14-3c8 4 15 1 15-5 0-7 4-7 14 1 16 14 38-8 36-36-4-31 0-41 16-47 10-4 13-2 8 7-5 8-2 7 9-2 14-11 17-11 17 0 0 8 7 6 19-7 19-20 18-39-2-27-8 5-8 2 0-9 7-8 10-18 6-21-3-4-1-7 6-7s9-5 5-12-4-10 1-6c4 4 14 3 22-4 8-6 13-7 11-2s2 10 7 11c6 1 9-6 7-15-2-14 0-14 13 2 11 15 15 16 15 5 0-8-5-20-12-27-8-8-9-12-1-12 6 0 10-8 8-17-1-10 0-22 4-28 3-5 6-22 7-38 1-26 14-53 14-29 0 6 7 9 15 5 9-3 21 2 28 11 10 14 12 7 12-38-1-59 4-65 51-62 27 2 30-1 30-30 0-19-5-30-11-28-5 3-3 0 6-8 11-9 14-20 9-33-12-32 5-53 39-50 32 3 43-12 37-50-2-11 1-28 6-37 6-13 5-18-4-19-9 0-9-2-2-5s10-13 7-23c-5-20 15-67 24-57 3 3 1 11-5 19-8 10-6 13 8 13 10 0 16-4 14-8-3-4 0-8 5-8 6 0 11 6 12 13 0 6 4 3 8-8 5-11 7-34 6-50-2-16 1-35 6-41 7-8 6-14-1-19-7-4-7-11-2-18s8-33 8-58c-1-37 1-46 13-41 9 3 12 1 8-5-7-12 17-12 29-1 8 9-32 29-41 20-4-4-2 4 5 17 10 19 9 22-1 16-7-5-10-4-5 3 4 6 14 8 23 5 11-4 14-3 9 5-4 8-2 10 7 6 8-3 14-13 12-22-1-9 3-20 9-24 8-5 7-8-2-8s-10-6-4-17c4-10 8-52 7-93 0-41 4-78 8-81 5-4 4-16-2-27-7-14-8-23-1-27 11-7 9-32-5-55-5-9 0-8 13 4 26 22 28 15 7-18-15-22-15-24 2-22 10 0 17-5 16-11-2-7 2-13 7-13 6 0 10 5 10 11 0 5 6 7 13 3 8-5 8-2-2 9-9 11-10 17-2 17 14 0 12 14 16-170 2-85 4-157 5-160s1-21 0-40-3-46-4-60 2-35 6-47c5-15 3-23-3-23-7 0-4-11 6-26 9-15 11-23 4-19-9 6-11 2-7-13 4-12 1-22-4-22-7 0-6-5 1-13 6-8 8-17 5-20-4-3-7-88-8-189s-5-189-10-196c-4-7-2-12 6-13 10 0 10-2 0-6-6-2-9-10-5-16 14-22 13-39-2-27-8 7-15 7-19 1-3-5-1-11 6-13 7-3 5-7-6-11-10-4-15-3-11 3 3 6 1 10-4 10-6 0-11 5-11 11 0 5 5 7 11 3 8-5 8-1 0 14-15 29-14 37 4 22 8-7 12-17 8-24-3-6-2-7 2-3 14 12 15 38 2 30-8-5-8-2 0 9 7 8 9 19 5 23-4 5-1 5 7 0 10-6 12-4 7 4-6 8-12 9-20 2-7-6-22-9-35-6-12 2-19 0-16-6 4-5 11-6 17-3 8 5 9 1 3-12-4-10-7-29-6-41 0-13-4-23-9-23-7 0-7-6-1-19 6-10 8-21 5-24-10-10-11-57-1-57 6 0 6-4 0-12-5-7-9-37-8-65 1-55-4-61-46-58-23 2-25-2-24-34 1-20-2-53-6-73-4-23-2-38 4-38s6-4-1-12c-5-7-9-26-7-41 2-20 0-27-10-23-9 3-12-3-10-20 3-31-1-30-20 4-16 27-16 27-11 2 5-24 5-25-11-5-15 19-15 19-9-12 3-18 2-33-2-33s-8-26-9-58c-3-77-6-102-12-97-2 3-9 1-15-5-8-6-12-3-12 9 0 10 5 17 11 14 7-2 12 3 12 11s-9 17-19 19c-10 3-16 1-12-4 3-5 1-9-5-9-5 0-12 6-15 13-3 6-3 0-1-15s-1-30-6-34c-6-4-6-11 1-19 7-9 7-15 1-19-5-4-9-19-8-34 3-33-12-53-34-42-26 14-42-5-43-53 0-25-4-43-8-41-6 4-5-21 1-43 3-8 0-13-5-12-4 0-11-5-15-13-7-10-9-10-9 0 0 7-4 11-9 7-5-3-13 0-17 6-5 8-3 9 6 4 9-6 11-4 5 5-5 9-4 11 4 6 7-5 10-2 9 6-2 7 3 12 10 10 8-1 11 2 7 8-3 6-11 8-16 5-5-4-9-2-9 4 0 5 6 11 13 14 6 2 1 4-13 3-27-1-26 2-32-127-1-35-2-36-39-34-21 1-36-2-33-7 3-4 1-8-5-8-10 0-10-18 2-37 11-18-22-32-55-23-16 5-28 5-28-1 0-5 6-9 13-9 9 0 9-2-1-9-16-9-15-19 1-41 6-8 8-12 3-8s-15 1-23-7c-18-18-43-19-43-2 0 8-4 7-10-3-5-8-10-11-10-7 0 5-5 5-11 2-7-5-4-14 8-28 17-20 17-20-1-13-15 5-16 4-8-7 18-21-2-40-36-35-26 4-32 1-37-20-3-13 0-31 7-40 10-12 10-14 1-8-7 4-13 2-13-4s-14-9-35-7c-38 5-49-11-48-66 0-23-2-25-15-15-14 11-15 10-9-7s5-18-5-5c-15 17-53 27-43 11 3-6 1-11-5-11s-9-4-5-9c3-6 15-8 27-6 11 3 17 1 14-3-4-4-11-6-14-5-13 3-31-19-26-31 4-10-5-13-31-10-24 1-38-2-42-12-3-8-8-12-12-9-4 2-8-2-8-10s4-12 9-9c4 3 8-2 8-10 0-17-11-25-40-31-11-2-20 1-20 7 0 7-4 7-13-1-8-6-18-7-22-3-5 4-4 0 0-8 5-8 10-26 12-41 2-24-1-28-25-27-51 1-63-2-56-13 4-8 0-8-15 0-16 9-21 9-21-1 0-8-3-9-8-3-4 6-13 11-19 12-13 3-17-8-13-41 1-10-3-15-8-12-6 4-14 1-18-5-4-7-3-9 4-5 6 3 14 1 17-5 5-7-3-10-21-9-48 3-65 1-59-9 3-5 0-13-6-17-7-4-9-3-5 4 3 6 2 13-4 17-9 5-14-7-11-27 0-4-7-4-16-1-11 4-13 8-5 11 21 7 13 17-15 19-15 0-21-2-14-7 16-9 16-20-1-32-9-6-5-7 12-3 23 6 22 5-8-18-21-16-40-23-58-19-17 3-30-2-40-14-13-16-15-16-10-2 4 13-1 16-22 13-15-1-28-4-29-5-2-1-7-3-12-4-5 0-12-4-16-8-10-9 17-4 35 7 11 7 11 2-3-18-17-26-17-28-1-25 9 2 18-3 20-10 1-7 0-8-3-2-3 8-9 7-19-1-8-6-14-8-14-5 0 4-9 2-20-4-14-8-20-8-20 0 0 7-6 8-17 2-10-5-31-8-48-7-16 2-34 0-40-3-16-10-45-9-51 0-3 5-15 2-25-8-14-13-16-20-8-31 20-23-6-41-52-36-27 3-39 1-34-6 4-7-3-7-20 1-22 10-28 9-36-3-5-8-9-9-9-4 0 6-18 10-39 10-22 0-37-3-35-6 6-10-26-20-39-13-7 4-5-1 4-10 16-18 63-31 54-15-4 5-10 7-15 4s-11-1-15 5c-3 5 2 11 12 12 48 4 58 2 58-12 0-8 3-20 7-25 4-6-2-11-12-11s-16 6-13 13c4 10-2 9-23-2-22-11-31-12-43-2-9 7-12 7-8 1 4-8-23-11-92-11-55 0-103-3-107-5-5-2-60-4-122-3-85 0-111-2-108-12 3-7-1-10-9-6-8 3-12 9-9 14s-13 8-36 6c-31-1-39-5-34-17 4-8 6-23 6-32s6-19 14-21c9-3 8-4-3-3-10 1-18 8-19 16-2 30-20 64-28 51-4-6-3-17 2-24 15-20 10-43-11-44-19-2-19-2-1 12 11 7 16 16 12 20-3 4-15-2-26-13-19-19-19-19-19 5 0 17 4 22 16 18 12-3 17 1 17 15 0 11-4 20-8 20s-8-4-8-10c0-5-5-10-11-10-5 0-8 4-5 8 2 4-24 8-60 7-35 0-64-4-64-9 0-4 8-5 18-1 13 5 14 3 5-5-8-9-16-9-30-1-10 6-13 11-8 11 6 0 3 4-5 10-9 5-19 5-27-2-7-6-13-7-13-3s-8 1-17-6c-11-10-14-10-9-2 4 8 1 13-9 13s-13-5-9-12c6-10 4-10-7-2-13 9-91 14-315 18-54 1-80 5-77 12 2 6-3 11-12 11s-14-6-11-12c2-6-2-12-9-12-8 0-11 7-7 15 4 11 1 13-7 7-10-6-11-3-2 12 6 11 9 22 8 25-1 2 6-5 17-17l19-20-8 24c-5 16-4 21 4 17 6-4 11-14 11-22 0-9 5-12 12-8 7 5 8 3 3-6-6-9-4-11 5-5s11 4 5-5c-5-8-4-11 3-6 13 8 5 36-11 36-6 0-3 6 6 12 14 11-1 13-89 13-58 0-108 3-111 8-2 4-13 2-25-4-12-7-18-7-14-1 4 7-8 9-33 7-32-2-38 0-36 14 1 9-2 22-8 29-14 17 7 16 22-2 9-11 9-15-1-18-8-3-6-7 6-11 11-4 15-3 11 4-4 6-1 10 6 8 26-3 39 1 39 12 0 5-5 7-10 4-6-3-13 1-16 10-5 13-9 13-22 3-13-11-15-10-10 2 4 12-2 15-26 15-17 0-34-4-38-10-5-6-8-6-8 2 0 7-17 10-45 10-25-1-45 1-45 5 0 5-3 7-8 5-4-1-17 8-30 21-24 24-18 31 8 7 15-13 17-13 17 0 0 8-5 15-10 15s-4 6 2 14c9 11 5 13-24 10-20-1-49 1-65 6-19 5-30 5-30-1s-7-6-19 0c-10 6-21 8-23 5-3-2-11 3-19 13-8 9-9 14-4 11 6-4 17 2 24 14 10 16 10 18 0 12-8-5-11-2-7 7 4 11-3 15-26 16-104 3-127 8-122 25 2 10 0 21-6 24-6 4-5 10 3 15 15 9 8 11-59 12-23 0-31 5-28 14 4 10 1 11-13 4-32-18-57-10-56 18 1 15-3 34-8 45-7 15-11 16-18 5-6-10-9-11-9-1 0 6-5 12-11 12-5 0-7-5-3-11 5-8 1-8-14 0-23 12-37 41-19 41 8 0 6 4-3 10-12 8-12 10-1 10 20 0 5 13-20 17-11 2-18-1-14-6 3-5-8-3-25 5-32 16-38 30-17 37 9 3 9 7 0 19-7 8-11 17-8 19 2 3-13 4-35 3-36-1-39 1-38 26 1 14-4 35-9 44-9 16-11 16-16 2-4-9-2-16 3-16 6 0 10-5 10-12 0-9-3-9-12 0-18 18-33 15-18-3 10-13 11-18 1-28-7-7-12-7-11-2 5 23-1 36-12 30-7-4-3 2 10 13 12 11 22 23 22 26 0 8-34-6-43-18-6-7-7-4-3 6 3 10 1 20-5 23-5 4-6 11-3 17 4 7 2 8-4 4s-9-14-6-24c3-9-2-6-10 8-16 27-22 55-6 30 7-11 10-11 10-2 0 7 4 11 8 8 5-3 9 1 9 9 0 12-3 12-16 2-12-10-14-9-9 3s-1 16-26 15c-30 0-31 2-31 41 0 40-7 47-32 31-7-5-13-4-13 2s-8 7-17 4c-12-5-15-2-10 9 3 9 3 19-1 23-3 3-7 16-7 28 0 18-6 22-30 21-36-1-57 23-44 48 11 21-4 32-46 32-16 1-30 6-30 13 0 6-3 15-7 18-4 4-3 15 2 24 5 10 5 23-1 32-5 7-9 9-9 3 0-9-31-11-50-4-3 1-7 2-10 2s-6 8-6 18 4 16 8 14c4-3 8-1 8 5 0 5-6 12-12 14-10 4-9 8 2 16 13 10 13 11 0 12-8 1-19 1-23 0-5-1-5 4 0 11 11 19 12 68 0 75-6 4-7 1-2-7s3-11-6-8c-8 3-22 1-31-4-14-7-16-5-11 8 4 11 2 15-4 11s-9 9-8 34c1 22-2 42-7 45-4 3-8 12-8 20 0 10 5 12 13 8 9-6 9-5 0 7-6 8-13 18-15 24-1 5-9 10-16 11-6 1-10-2-6-7 9-15-22-10-35 5-6 8-10 30-8 50s1 39-3 41c-4 3-6 18-5 35 3 34-23 58-43 38-15-15-30-2-28 24 1 13-2 31-7 42-6 13-6 16 2 12 7-5 9-1 5 8-3 9-11 13-18 9-8-5-8-3-1 8 6 8 10 25 10 39 0 21-4 25-25 22-13-1-27-7-31-13-9-16-17 22-15 75 1 26-3 46-9 47-5 0-4 3 3 6 6 2 9 9 6 15-4 6-7 33-8 62-1 28-5 57-9 64-5 6-4 12 0 12 5 0 9 14 9 31 1 17-1 28-5 23-3-5-15-11-26-13-20-3-20-3 0 20l20 24-23-20c-20-16-21-21-9-29 19-12 0-66-23-65-10 0-11 2-2 6 6 2 12 9 12 14 0 6-4 8-8 5-4-2-8 4-8 14s5 16 10 13c6-4 6 1 2 13-12 28-13 74-4 80 5 3 5 11 0 17-5 7-8 31-7 55 0 23-3 42-8 42-4 0-5 6-1 12 11 17 12 48 3 48-5 0-5 10 0 23 10 26-4 61-21 51-7-4-8-2-4 5 4 6 11 9 16 6 8-5 18 65 12 84-2 6-9 8-14 5-7-4-8-2-4 5 4 6 2 20-6 29-12 15-11 16 4 4 11-9 18-10 23-2 3 5 3 10-2 10-4 0-8 11-8 25s3 25 7 25 5 7 2 15c-4 8-10 13-14 10-5-3-12 0-16 7s-4 10 1 6c15-14 34 25 23 45-7 13-6 23 1 30s7 16 0 30c-7 12-7 23-1 29 13 13 3 59-12 52-6-3-2 2 9 12 20 16 20 16-1 12-13-3-21 0-21 7s6 11 13 8c10-4 13 5 10 31-1 20 2 36 8 37 6 0 5 3-2 6-6 2-10 8-7 13 10 16 12 70 4 76-5 3-6 11-2 17 4 7 8 62 9 122 2 147 1 140 19 125 8-6 20-8 26-4 8 5 10 2 5-7-4-8 0-5 8 5 19 23 20 31 5 58-8 15-8 19 0 14 11-7 12 2 15 131 0 28 4 55 8 59s2 14-5 23c-11 14-10 14 6 2 13-11 15-17 6-28-17-19-3-28 15-10 17 16 9 60-9 57-5-1-10 3-11 9-2 8-1 8 3 1 3-7 9-8 17-1s12 4 13-11c1-12 7-26 12-31 7-7 5-15-7-24-9-8-11-12-5-8 7 3 13 0 14-7 0-7 5-2 10 11 6 17 6 28-3 39s-9 14-1 9c6-4 14-3 18 3 3 5-2 10-12 10-15 0-16 2-3 10 8 5 11 10 7 10s-3 9 3 19c7 14 7 22-1 26-7 5-2 16 12 31 22 23 46 34 34 15-3-5 0-13 6-17 8-5 9-3 4 6-6 10-4 12 8 7 12-4 15-1 11 16-2 11 2 25 9 29 7 5 8 8 1 8s-8 17-3 54c4 30 5 70 4 89-4 33-3 35 30 34 27-1 32-4 23-14-7-9-7-13 1-13 6 0 10-5 9-11-2-6 4-14 12-16 10-3 11-2 4 4-11 8-11 26 0 73 3 14 1 27-7 32-9 6-9 8 1 8 7 0 10 5 7 10-3 6-2 10 4 10s7 7 4 17c-4 11-3 14 5 9 7-4 12-15 13-24 0-9 3-12 5-6 3 7 14 9 25 7 18-5 20-2 16 25-3 17-8 36-13 43-4 7-3 10 3 6 14-9 22 11 18 45-3 30 20 44 55 33 17-5 20-2 21 22 2 58 4 66 17 70 6 3 12-1 12-8 0-8 7-5 20 6 20 18 21 18 14 0-5-13-4-16 5-11 7 5 11 17 8 27-3 11 0 19 6 19 8 0 8 3 2 8-17 12-17 35 0 29 8-4 15-2 15 3 0 6-5 10-12 10-6 0-8 3-5 6 4 4 13 1 22-6 8-7 15-9 15-5s7 2 15-5c12-10 15-10 17 1 0 8 2 19 2 24 1 6 5 16 10 24 6 9 5 12-1 8s-13 0-17 8c-3 8 0 14 7 12 7-1 11 4 9 11-2 9 2 10 16 3 32-17 56-7 59 25 4 48 11 119 12 124 1 2 6-1 13-8 14-14 32-16 23-3-3 6 3 8 15 6 11-2 22 0 25 5s21 7 40 6c19-2 32 0 29 5s0 9 6 9c7 0 8 5 1 17-13 23 5 59 23 44 16-13 62 11 57 30-8 31-5 44 9 44 8 0 21 4 29 9 9 6 12 5 8 0-3-5 3-10 13-10s16 4 14 8c-3 4-1 8 5 8 7 0 7 8 1 25s-6 25 1 25c6 0 7 5 4 10-3 6 1 10 9 10 9 0 16-4 16-10 0-5 5-10 11-10 5 0 7 5 3 12-5 8-2 9 9 5 9-3 19-2 22 3s14 7 25 5c12-2 18 0 15 6-8 12 1 12 24 0 14-8 17-5 16 22-2 47 4 60 21 46 10-9 14-9 14 0 0 7 9 9 23 6 17-4 25 0 33 19 7 14 9 25 5 24-17-2-21 3-9 15 7 8 26 12 45 10 20-2 33 1 33 8 0 8 4 8 13 2 18-15 82 4 69 20-16 21 2 50 34 54 28 3 28 2 10-12-11-8-15-15-9-15s16 7 23 15c7 9 19 14 27 11 7-3 13-2 13 3 0 4 12 7 28 6 35-2 48 5 31 17-10 7-8 8 9 5 12-3 20-1 16 4-3 5-12 9-20 9-11 0-12 4-5 19 14 25 56 25 58-1 2-17 0-18-14-6-15 12-15 11-2-10 8-12 15-18 17-12s8 7 14 4c6-4 6 1-1 13-14 27 4 46 31 32 12-6 24-6 37 1 26 13 34 13 25-2-6-10-4-10 7-2 8 6 23 10 34 8 13-2 24 5 32 21 6 14 8 23 3 20-4-3-10 2-14 10-8 21 0 23 89 23 44 1 82 2 85 3s40 2 82 3c47 1 83 7 90 15 11 10 9 11-6 5s-17-4-11 6c6 9 4 11-5 5-8-5-11-3-8 6 3 8 11 13 17 12 6-2 10 2 9 8-2 7 12 13 30 15 21 1 30-1 26-8-5-7-2-8 7-2 8 5 64 10 124 11 136 2 128 1 119 16-4 6 1 4 12-5 13-11 24-14 34-8zm-415-9c3-5 1-12-5-16-5-3-10 1-10 9 0 18 6 21 15 7zm36-14c-6-8-9-21-6-29 4-9 0-15-10-15-11 0-14 7-10 21 5 17 3 16-9-4-10-15-15-19-16-10 0 12-2 12-8 2-6-8-9-2-9 19 0 29 1 30 12 9 10-19 13-20 18-6 4 9 13 16 22 16 8 0 15 5 15 12 0 6 3 8 6 5 4-4 2-13-5-20zm1139 14c13-1 13-2 0-11-8-5-11-10-7-10s4-8-1-17c-11-19-42-27-42-11 0 6-7 4-17-3-14-12-14-10 1 14 11 16 14 27 7 27-6 0-11 4-11 8 0 5 12 8 28 6 15-1 34-3 42-3zm-1267-16c-3-9-8-14-10-11-3 3-2 9 2 15 9 16 15 13 8-4zm3170 0c4-8 3-16-1-19s-9 4-9 15c-2 23 3 25 10 4zm-3123-20c0-2-6-5-13-8-8-3-14 1-14 8s6 11 14 8c7-3 13-6 13-8zm1261-2c12-16 12-17-2-6-9 7-19 10-22 6-4-3-7-1-7 5 0 17 16 15 31-5zm1832 10c-7-2-13-9-13-14 0-6 4-8 8-5 4 2 14 0 22-5 12-7 10-8-7-6-12 2-25 6-29 9-9 9 5 28 19 27 9 0 9-2 0-6zm-4972-36c-10-9-11-8-5 6 3 10 9 15 12 12s0-11-7-18zm5205-12c-1-8-5-17-8-21-5-4-4 16 1 34 3 9 9-1 7-13zm-3584-2c-10-4-8-9 7-19 12-9 18-21 14-30-4-12-8-13-14-3-4 7-5 17-2 23 4 6-1 7-13 2-10-4-15-4-11 0s0 12-8 18c-13 9-10 11 12 12 16 1 22-1 15-3zm1800-7c7 4 8 2 4-5-9-13-26-5-25 12 0 9 2 8 6-1 2-6 10-9 15-6zm-3478-24c3-5-1-9-9-9s-12 4-9 9c3 4 7 8 9 8s6-4 9-8zm1657-10c13-13 15-19 5-19-7 0-18 9-25 19-6 10-9 18-6 18s15-8 26-18zm1792 5c-4-7 1-8 13-3 14 5 16 4 8-4s-18-9-30-2c-11 5-25 7-33 4-8-2-11 0-8 5 4 6 18 11 32 11s22-5 18-11zm1668-10c-10-9-11-8-5 6 3 10 9 15 12 12s0-11-7-18zm144-6c3-5 2-12-3-15s-9 1-9 9c0 17 3 19 12 6zm-3839-56c-1-8-5-17-8-21-5-4-4 16 1 34 3 9 9-1 7-13zm-146-85c-8-5-19-10-25-10-5 0-3 5 5 10s20 10 25 10c6 0 3-5-5-10zm2560 6c0-2-8-10-17-17-16-13-17-12-4 4s21 21 21 13zm-2536-24c2-4-7-8-22-9-24-2-24-1-7 7 11 5 21 9 22 9 1 1 4-3 7-7zm2651-43c-7-10-35-1-35 11 0 5 9 6 20 3s17-9 15-14zm-4195-19c6 10 12 10 26 0 17-10 17-11 1-6-11 3-20 0-24-10-5-13-7-13-14-2-5 7-8 18-8 23 0 6 3 4 6-4 4-10 7-10 13-1zm1255-50c-3-5-1-10 4-10 6 0 11 4 11 8s10 8 23 9c18 1 15-2-12-16-19-10-29-21-23-25 6-3 13 0 16 6 5 11 7 11 12 0 3-6 11-9 16-6 7 4 8 2 4-5-4-6-12-9-17-5-5 3-16 0-24-6-16-13-16-13-19 23-2 23 2 37 10 37 3 0 2-4-1-10zm3074 3c-4-22 2-33 14-27 6 4 9 4 5-1-4-4-3-14 3-22 9-9 8-13 0-13-6 0-11 5-11 10 0 7-7 7-21 0-11-7-23-9-26-7-2 3 5 8 17 12 16 5 19 10 10 20-7 8-9 19-5 25 7 12 16 13 14 3zm-3288-226c-10-9-11-8-5 6 3 10 9 15 12 12s0-11-7-18zm-67-18c10 8 12 4 11-19-2-28-15-57-15-32 0 6-11 9-27 6-28-5-28-5-6 11 12 8 21 21 19 28-1 6-1 8 2 4 2-4 10-3 16 2zm-43-22c-10-9-11-8-5 6 3 10 9 15 12 12s0-11-7-18zm3735-13c1-9 0-13-4-10-3 4-7 14-8 22-1 9 0 13 4 10 3-4 7-14 8-22zm-4916-14c6-11 8-20 6-20-3 0-10 9-16 20s-8 20-6 20c3 0 10-9 16-20zm1072-118c-10-3-10-7 0-20 12-16 11-16-6-2-18 14-18 13-12-8 9-27-5-29-28-3-16 17-16 19 1 26 10 5 21 7 26 7 4-1 7 3 7 9 0 5 5 7 12 3 9-6 9-9 0-12zm3988 14c0-2-8-10-17-17-16-13-17-12-4 4s21 21 21 13zm-4074-123c-3-7 0-13 6-13s9-2 6-5c-7-8-58 16-58 27 0 4 5 7 11 6 6-2 14 3 16 10 3 8-2 10-14 6-15-5-15-4-3 5 11 8 18 6 28-6 7-10 10-23 8-30zm4149-1c-3-3-11 0-18 7-9 10-8 11 6 5 10-3 15-9 12-12zm-5359-152c0-12-4-16-9-11s-6 14-3 20c10 15 12 14 12-9zm5538-47c2 7 4 3 2-8-1-11-6-28-12-38-10-17-11-17-29 3-10 11-13 20-7 20 7 0 12-4 12-10 0-5 4-10 8-10 5 0 9 7 9 15s-6 15-13 15-16 4-19 10c-4 7 2 7 19 0 17-6 26-6 30 3zm-4574-93c0-5-7-7-15-4-8 4-15 8-15 10s7 4 15 4 15-4 15-10zm-5-22c14-6 25-15 25-20 0-7-31 8-59 29-10 7 10 2 34-9zm-157-282c21 3 23 2 12-6-13-9-13-10 0-10s13-1 0-10-13-11 0-21c12-9 12-10-4-5-11 4-26 0-36-9-15-14-16-12-14 23 3 50 5 59 10 45 3-6 17-10 32-7zm-1064-262c3-8 2-12-4-9s-10 10-10 16c0 14 7 11 14-7zm41-24c4-6-1-7-11-3-13 5-15 3-9-7 5-9 4-11-4-6-6 4-9 12-6 17 8 12 22 12 30-1zm880-170c-3-5-14-10-23-9-14 0-13 2 3 9 27 11 27 11 20 0zm5244-67c-12-15-12-16 4-10 12 5 16 3 11-5-5-7-2-9 8-6 8 4 15 1 16-5 0-7 3-22 5-34 4-15 0-23-15-26-13-4-17-10-12-19 6-10 4-10-9 1-13 10-15 17-6 27 6 8 15 12 19 9 5-3 11-2 14 3s-1 9-9 10-22 3-30 4-12 5-10 9c3 4 15 5 28 2 19-4 19-2-5 12-26 15-30 45-6 45 6 0 4-8-3-17zm-6244-193c3-5 1-10-4-10-6 0-11 5-11 10 0 6 2 10 4 10 3 0 8-4 11-10zm46-23c-10-9-11-8-5 6 3 10 9 15 12 12s0-11-7-18zm-26-7c3-6-1-7-9-4-18 7-21 14-7 14 6 0 13-4 16-10zm5-40c-12-22-21-26-18-7 3 10 18 26 26 27 1 0-2-9-8-20zm885-50c-3-5-12-10-18-10-7 0-6 4 3 10 19 12 23 12 15 0zm-1-38c3-5-1-9-9-9s-12 4-9 9c3 4 7 8 9 8s6-4 9-8zm-7-134c-3-7-5-2-5 12s2 19 5 13c2-7 2-19 0-25zm5443 18c0-3-4-8-10-11-5-3-10-1-10 4 0 6 5 11 10 11 6 0 10-2 10-4zm-5420-46c0-5-4-10-10-10-5 0-10 5-10 10 0 6 5 10 10 10 6 0 10-4 10-10zm-38-7c-6-2-9-10-6-15 4-7 2-8-5-4-13 9-5 26 12 25 9 0 8-2-1-6zm29-43c5 0 9-5 9-10 0-6-7-6-19 2-12 7-17 18-13 27 6 14 7 14 10-1 2-10 8-18 13-18zm-17-23c4 4 4-1 0-11-7-17-8-17-19 3-6 12-15 18-20 14-4-4-5-2 0 6 7 12 10 11 20-2 7-9 15-14 19-10zm9-64c-7-2-19-2-25 0-7 3-2 5 12 5s19-2 13-5zm-26-28c0-8-4-12-9-9-4 3-8 9-8 15 0 5 4 9 8 9 5 0 9-7 9-15zm43 11c0-2-7-7-16-10-8-3-12-2-9 4 6 10 25 14 25 6zm-20-70c0-2-6-9-14-15-11-9-16-9-22 0-4 7-3 9 4 5 6-3 13-2 17 4 6 10 15 14 15 6zm15-55c3-5 2-12-3-15s-9 1-9 9c0 17 3 19 12 6zm-890-179c-3-3-11 0-18 7-9 10-8 11 6 5 10-3 15-9 12-12zm-30-111c3-5 2-12-3-15s-9 1-9 9c0 17 3 19 12 6zm995-110c-6-12-5-22 3-31s9-11 0-6c-6 3-14 0-17-6-3-7-3 1 0 17 3 17 6 35 6 42 1 7 5 10 10 7 4-3 4-13-2-23zm5290-2c0-5-5-7-12-3-7 5-9 2-5-9 4-12 1-15-14-12-16 3-19 0-14-13s3-14-6-5c-12 12-3 37 11 28 4-3 10 2 14 10 6 17 26 20 26 4zm-111-226c-8-9-8-13-1-13 6 0 15 7 20 16 6 11 11 13 16 5 4-6 3-11-3-11-11 0-9-18 3-40 5-8 6-12 1-8-4 4-15 2-23-5-13-10-14-9-8 1 6 9 3 12-10 10-14-2-19 4-19 22-2 32 1 37 19 37 12 0 13-4 5-14zm-6045-15c-3-4-9-8-15-8-5 0-9 4-9 8 0 5 7 9 15 9s12-4 9-9zm932-93c1-8-1-17-5-19-4-3-7 6-7 19 0 25 8 25 12 0zm100-140c0-13-2-23-5-23-20 2-31-3-27-11 7-11-21-8-31 4-4 4-2 5 5 1 15-9 15-1 1 26-6 12-7 18-1 14 5-3 15 1 22 9 16 19 36 9 36-20zm4955-38c-10-9-11-8-5 6 3 10 9 15 12 12s0-11-7-18zm-4946-7c3-6-1-7-9-4-18 7-21 14-7 14 6 0 13-4 16-10zm72-105c0-8-4-12-9-9-11 7-10-3 3-29 7-12 8-19 4-15-5 4-14 3-22-3-10-9-13-8-13 0 0 7-5 9-12 5-8-5-7 0 2 11 13 17 13 18 0 13-11-4-16 0-16 12 0 10 6 16 13 13s13-10 13-16 7-1 16 11c18 26 21 27 21 7zm4798-45c-3-5-12-10-18-10-7 0-6 4 3 10 19 12 23 12 15 0zm-4720-119c3-5 2-12-3-15s-9 1-9 9c0 17 3 19 12 6zm-1053-16c0-5-5-11-10-13-5-1-9 4-9 13s4 14 9 13c5-2 10-8 10-13zm1032-21c3-8 2-12-4-9s-10 10-10 16c0 14 7 11 14-7zm4541-43c3-5 2-12-3-15s-9 1-9 9c0 17 3 19 12 6zm-4395-185c0-3-4-8-10-11-5-3-10-1-10 4 0 6 5 11 10 11 6 0 10-2 10-4zm93-54c-13-8-2-35 13-32 5 1 9-3 10-9 2-7 1-8-3-1-2 5-9 8-13 5-11-7-32 30-23 39 3 3 11 6 17 6 7 0 7-3-1-8zm4184-7c0-8-3-13-5-10-3 3-10 0-17-5-8-7-12-5-12 5 0 8 4 12 8 9 4-2 10 0 14 6 9 14 12 13 12-5zm-4090-62c-4-3-2-12 4-19 7-8 7-14-1-19-6-3-8-10-6-13 2-4-9-8-25-8l-28-2 22 19c12 10 17 18 12 19-6 0-16-5-22-11-9-9-11-7-9 7 2 11 10 18 19 16 8-1 18 2 22 8 3 5 9 10 12 10 4 0 3-3 0-7zm3983-19c0-2-9 0-20 6s-20 13-20 16c0 2 9 0 20-6s20-13 20-16zm30 11c-6-8-9-19-5-25 5-9-1-12-21-9-4 0-11-5-16-13-8-10-9-10-5 2 2 8 10 14 16 13 6-2 11 6 11 16 0 16 9 26 29 30 2 1-2-6-9-14zm-3957-90c-3-8-9-15-15-15-5 0-6-5-3-10 4-6 12-7 18-4 7 4 8 3 4-1-4-5-13-10-21-11-14-2-16 33-3 54 11 16 28 5 20-13zm3872-20c-2-27-15-48-15-26 0 7-4 9-10 6s-7 1-4 10c5 11 2 14-12 8-14-4-12 0 6 14 30 25 39 22 35-12zm-4955-40c0-7-30-13-34-7-3 4 4 9 15 9 10 1 19 0 19-2zm4860-12c-8-3-24-10-35-15-20-9-20-9-1 6 11 9 27 16 35 15 14 0 14-1 1-6zm-4894-21c1-7 0-8-3-2-2 5-9 8-14 4-5-3-9 0-9 6 0 15 23 7 26-8zm49-12c3-5 1-10-4-10-6 0-11 5-11 10 0 6 2 10 4 10 3 0 8-4 11-10zm1188-5c-3-9-8-14-10-11-3 3-2 9 2 15 9 16 15 13 8-4zm3672 6c3-5 0-13-6-17-8-5-9-3-4 6 6 10 2 11-19 6-18-4-25-3-21 4 8 13 42 13 50 1zm-3625-55c-7-7-13-7-20 0-6 6-3 10 10 10s16-4 10-10zm23-11c-3-9-8-14-10-11-3 3-2 9 2 15 9 16 15 13 8-4zm3518-28c-10-9-11-8-5 6 3 10 9 15 12 12s0-11-7-18zm-4577-186c3-5-2-15-12-22-15-12-16-12-5 2 7 9 10 19 6 22-3 4-4 7 0 7 3 0 8-4 11-9zm1506-101c12-7 10-9-8-7-12 0-22 5-22 9 0 11 12 10 30-2zm2594-26c5-14 4-15-9-4-12 10-15 10-15 0 0-8-3-11-6-7-7 7 4 27 16 27 4 0 11-7 14-16zm-180-49c3-8 1-15-4-15-6 0-10 7-10 15s2 15 4 15 6-7 10-15zm-2260-17c-5-8-2-9 10-5 10 4 15 3 11-3-3-6-1-10 6-10s10-3 7-6c-10-9-49 16-43 27 4 5 8 9 11 9s2-5-2-12zm2278-20c-7-7-12-8-12-2 0 14 12 26 19 19 2-3-1-11-7-17zm-247-34c6 0 17-2 25-3 13-1 13-2 0-11-9-6-11-10-3-10 7 0 10-6 7-14s-14-14-24-13-16 5-14 9c3 4 0 8-5 8-6 0-11-7-11-16 0-8-4-13-10-9-5 3-7 12-4 19 3 8 1 17-5 21-7 4-7 10 2 19 6 8 17 11 22 8 6-4 15-7 20-8zm-1760-14c3-6-1-7-9-4-18 7-21 14-7 14 6 0 13-4 16-10zm1855-14c0-3-4-8-10-11-5-3-10-1-10 4 0 6 5 11 10 11 6 0 10-2 10-4zm1560-6c0-5-2-10-4-10-3 0-8 5-11 10-3 6-1 10 4 10 6 0 11-4 11-10zm-3245-40c3-5 1-10-4-10-6 0-11 5-11 10 0 6 2 10 4 10 3 0 8-4 11-10zm3185-20c0-5-2-10-4-10-3 0-8 5-11 10-3 6-1 10 4 10 6 0 11-4 11-10zm-2657-55c-3-9-8-14-10-11-3 3-2 9 2 15 9 16 15 13 8-4zm133-4c10 8 14 8 14 0 0-6-4-12-10-12-5-1-15-2-20-3-13-1-30-27-25-36 2-4-2-7-10-7-10 0-11 5-4 19 13 24-6 25-20 1-5-10-13-14-17-10-10 10 28 38 44 32 7-3 16 3 19 12 5 11 8 13 11 5 3-10 7-10 18-1zm142-8c-6-7-12-13-13-13-2 0-5 6-8 13s3 13 14 13c13 0 15-3 7-13zm2312 13c0-2-8-10-17-17-16-13-17-12-4 4s21 21 21 13zm-2618-28c-7-7-12-8-12-2 0 14 12 26 19 19 2-3-1-11-7-17zm376-2c-2-3 6-12 17-21s13-13 5-9c-30 14-39 26-33 42 4 10 8 12 11 4 2-6 2-14 0-16zm-318 4c0-5-4-10-10-10-5 0-10 5-10 10 0 6 5 10 10 10 6 0 10-4 10-10zm266-5c-11-8-24-15-30-15-5 0-1 7 10 15 10 8 24 14 29 14 6 0 1-6-9-14zm-301-4c-3-5 4-13 16-16 11-4 18-9 16-12-9-8-48 18-42 28 4 5 8 9 11 9s3-4-1-9zm-88-7c-3-3-12-4-19-1-8 3-5 6 6 6 11 1 17-2 13-5zm243-2c0-4-9-8-20-9s-20 2-20 5c0 4 9 8 20 9s20-2 20-5zm181-9c13-16 12-17-3-4-14 11-18 11-18 1 0-8-3-11-6-7-5 5 3 27 10 27 2 0 10-8 17-17zm149 13c0-3-4-8-10-11-5-3-10-1-10 4 0 6 5 11 10 11 6 0 10-2 10-4zm2435-34c-3-3-11 0-18 7-9 10-8 11 6 5 10-3 15-9 12-12zm-39-68c1-9 0-13-4-10-3 4-7 14-8 22-1 9 0 13 4 10 3-4 7-14 8-22zm-4959-56c2-17 0-19-7-8-5 8-6 18-4 22 8 12 10 10 11-14zm261-117c11-7 10-9-3-14-9-4-14-3-10 2 3 5-1 12-7 14-7 3-8 6-3 6 6 0 16-3 23-8zm19-35c-3-8-2-17 4-20 5-2 4-3-2-2-15 3-21 36-7 36 6 0 8-6 5-14zm4680-28c2-17 0-19-7-8-5 8-6 18-4 22 8 12 10 10 11-14zm-977-98c0-5-2-10-4-10-3 0-8 5-11 10-3 6-1 10 4 10 6 0 11-4 11-10zm1017-25c0-8-4-12-9-9s-6 10-3 15c9 13 12 11 12-6zm-4503-11c8-22 8-24-6-21-17 3-28 19-22 29 8 13 21 9 28-8zm4474-49c-3-3-9 2-12 12-6 14-5 15 5 6 7-7 10-15 7-18zm-1103 5c6 0 2-5-8-11-9-6-16-13-13-17 2-4-2-13-10-19-10-10-15-10-23 4-12 23 4 52 26 48 10-2 23-4 28-5zm1145-6c0-8-19-13-24-6-3 5 1 9 9 9s15-2 15-3zm-4367-35c4-16 3-18-9-8-7 6-11 15-8 20 8 13 11 11 17-12zm4337 9c0-11-12-10-30 2-12 7-10 9 8 7 12 0 22-5 22-9zm-1316-53c-4-8-9-15-13-15s-8 7-8 15 6 15 13 15c8 0 11-6 8-15zm-39-45c3-6-1-7-9-4-18 7-21 14-7 14 6 0 13-4 16-10zm-2545-40c15-28 1-45-37-46-26 0-30 2-22 13 6 7 8 13 4 13s-2 7 5 15 16 12 21 9 9 0 9 5c0 17 8 13 20-9zm2363 4c-3-8 4-11 21-10 21 3 24 1 15-10-6-8-8-14-4-14s2-7-5-15c-9-11-16-12-25-5-6 5-14 8-17 5s-11 2-19 12c-9 11-10 14-1 9 6-4 12-3 12 1 0 5-6 15-12 22-10 11-10 13 0 7 6-4 12-3 12 2s6 9 14 9 12-6 9-13zm1637-26c0-4-4-8-9-8-6 0-12 4-15 8-3 5 1 9 9 9s15-4 15-9zm-3680-52c0-2-7-7-16-10-8-3-12-2-9 4 6 10 25 14 25 6zm1734-8c-3-4-11-5-19-1-21 7-19 12 4 10 11 0 18-5 15-9zm17-15c-12-20-14-14-5 12 4 9 9 14 11 11 3-2 0-13-6-23zm-1794 2c0-8-4-12-9-9s-6 10-3 15c9 13 12 11 12-6zm1893-29c0-6-5-4-10 4s-10 10-10 4-7-11-15-11c-18 0-19 9-3 25 13 13 38-1 38-22zm1886 12c14-17 15-20 2-9-9 7-22 10-27 6-7-3-8 0-5 9 8 20 7 20 30-6zm-3395-52c1-6 1-14 0-18-2-11 17-10 24 1 3 5 1 12-5 16-5 3-10 12-10 18 0 7 5 4 11-6 9-15 13-16 27-5 12 10 14 10 8 1-5-9-1-13 10-13 24 0 9-13-19-16-33-4-33-4-20-12 7-4-14-8-47-8-54-1-58 1-40 13 11 8 17 19 14 25-8 13 15 28 33 21 7-3 14-10 14-17zm139 10c0-3-4-8-10-11-5-3-10-1-10 4 0 6 5 11 10 11 6 0 10-2 10-4zm680-6c0-5-5-10-11-10-5 0-7 5-4 10 3 6 8 10 11 10 2 0 4-4 4-10zm60 0c0-5-5-10-11-10-5 0-7 5-4 10 3 6 8 10 11 10 2 0 4-4 4-10zm35-20c-17-33-21-35-31-18-5 7-3 8 6 3 10-6 12-4 7 9-4 9-3 15 2 12s11 1 15 9c3 8 8 15 11 15s-1-13-10-30zm46 18c1-7 1-17 0-22s5-6 14-2c10 4 14 2 9-5-4-7 0-9 14-5 11 4 23 3 25-1 3-4-15-8-39-9-42-1-56 8-34 21 8 5 7 11-1 21s-8 14 0 14c6 0 12-6 12-12zm2639-3c0-1-6-7-13-13-10-8-13-6-13 7 0 11 6 17 13 14s13-6 13-8zm180 5c0-5-5-10-11-10-5 0-7 5-4 10 3 6 8 10 11 10 2 0 4-4 4-10zm-3632-24c-10-7-14-17-10-21 4-5 1-5-6-1-10 6-10 11-1 22 6 8 17 14 23 14s3-7-6-14zm3744-1c13-17 9-21-17-21-17 0-21 3-15 11 6 7 6 15 2 19s0 6 8 4c8-1 18-7 22-13zm-2817-13c-3-3-11 0-18 7-9 10-8 11 6 5 10-3 15-9 12-12zm2485 4c0-3-4-8-10-11-5-3-10-1-10 4 0 6 5 11 10 11 6 0 10-2 10-4z"/><path d="m7223 6958c-14-23-11-34 11-35 11-1 15 1 8 4-9 4-10 8-2 18 7 8 7 15 1 19-5 4-13 1-18-6z"/><path d="m1646 6651c-4-5-2-12 3-15 5-4 12-2 15 3 4 5 2 12-3 15-5 4-12 2-15-3z"/><path d="m4069 6243c-7-10-9-15-5-11 5 4 15 0 23-10 13-15 13-15 4 4-6 12-7 24-4 28 3 3 4 6 1 6s-12-8-19-17z"/><path d="m2816 6153c-6-14-5-15 5-6 7 7 10 15 7 18s-9-2-12-12z"/><path d="m4670 6099c0-5 5-7 10-4 6 3 10 8 10 11 0 2-4 4-10 4-5 0-10-5-10-11z"/><path d="m4650 6091c0-10 19-25 25-20 1 2-3 10-11 17s-14 8-14 3z"/><path d="m4635 6060c3-5 8-10 11-10 2 0 4 5 4 10 0 6-5 10-11 10-5 0-7-4-4-10z"/><path d="m4668 6043c7-3 16-2 19 1 4 3-2 6-13 5-11 0-14-3-6-6z"/><path d="m4805 5960c-3-6 1-7 9-4 18 7 21 14 7 14-6 0-13-4-16-10z"/><path d="m4980 5920c8-5 20-10 25-10 6 0 3 5-5 10s-19 10-25 10c-5 0-3-5 5-10z"/><path d="m2253 5896c-3-6-3-8 2-4 4 4 13 3 20-2 8-7 12-5 12 3 0 16-25 18-34 3z"/><path d="m5210 5760c0-5 5-10 10-10 6 0 10 5 10 10 0 6-4 10-10 10-5 0-10-4-10-10z"/><path d="m5241 5741c-8-5-9-11-3-15 5-3 12 1 16 9 6 17 6 18-13 6z"/><path d="m1693 5535c0-8 4-12 8-9 4 2 10-2 12-8 4-10 8-9 17 2 10 13 11 13 7 0-2-9-14-14-28-12-17 1-20-1-10-7 11-7 11-9 0-13-8-3 2-4 22-4 33 1 35 3 33 31-1 16-3 32-3 34-1 2-8-2-16-9-11-9-19-10-28-1-10 8-14 7-14-4z"/><path d="m5785 5200c10-11 20-20 23-20s-3 9-13 20-20 20-23 20 3-9 13-20z"/><path d="m1393 5143c4-3 1-13-5-22-7-9-8-13-4-9 5 4 15 0 23-10 13-16 13-15 5 3-5 11-7 26-5 33 3 6-1 12-8 12s-9-3-6-7z"/><path d="m5956 4965c10-8 23-15 28-15 6 0 1 7-10 15-10 8-23 15-28 15-6 0-1-7 10-15z"/><path d="m5927 4959c7-7 15-10 18-7s-2 9-12 12c-14 6-15 5-6-5z"/><path d="m5955 4930c3-5 8-10 11-10 2 0 4 5 4 10 0 6-5 10-11 10-5 0-7-4-4-10z"/><path d="m1215 4883c1-25 35-67 35-45 0 7 4 11 9 8 5-4 4 5-2 19-7 14-16 25-20 25-5 0-6-4-2-9 3-5 1-12-4-15-5-4-8 1-7 10 1 8 9 20 17 24 10 7 9 9-7 8-15-2-20-8-19-25z"/><path d="m6053 4815c0-8 4-12 9-9s6 10 3 15c-9 13-12 11-12-6z"/><path d="m6108 4633c6-2 9-10 6-15-4-7-2-8 5-4 13 9 5 26-12 25-9 0-8-2 1-6z"/><path d="m3474 4588c3-15 26-23 26-8 0 6-4 9-9 6-5-4-12-1-14 4-3 6-4 5-3-2z"/><path d="m3510 4588c0-6 6-8 13-5 8 3 13-3 14-17 0-11-1-15-4-8-3 6-9 12-14 12-6 0-7-5-3-12 5-8 2-9-10-5-10 4-15 3-11-3 3-6 15-10 25-10s21-3 23-8c3-4-8-7-23-7-20-1-33 6-41 22-13 25-41 40-33 18 3-7 12-16 20-19 19-7 18-23-1-23-8 0-15 5-15 11s-4 4-9-3c-6-10-23-14-48-13-33 2-39 0-39-18 0-11 4-20 9-20s4-6-2-13c-6-8-8-16-5-19 2-3-2-8-11-12-11-4-14-2-9 7 5 8 2 7-9-2-14-11-17-11-18 0-1 8-1 18 0 22 1 5-3 6-9 2-6-3-8-10-5-15 3-4-1-10-8-13-14-5-16-34-4-54 11-17-15-31-50-28-30 2-31 1-22-17 8-15 8-19 0-14-14 9-14 0-1-25 6-11 7-19 3-18-19 3-22-3-13-26 5-13 6-27 1-29-5-3-6-16-4-30 3-13 0-27-6-30-6-4-11-13-11-19 0-7 4-6 10 3 9 13 10 13 10-1 0-8-6-21-12-28-7-8-8-11-3-8 6 3 10-18 11-53 0-40-3-57-10-53-7 5-7 2 0-8 6-8 10-24 8-36-2-14 1-23 9-23s7-4-3-10c-8-5-11-10-6-10 6 0 1-7-10-16-15-13-16-15-2-10 14 4 16-1 13-32-2-21 2-40 8-44 9-6 9-8 0-8-7 0-10-10-7-26 3-19 1-24-8-18-10 6-10 5-2-7 6-8 10-24 8-36-2-14 1-23 9-23s7-4-3-10c-8-5-11-10-6-10 6 0 1-7-10-16-15-13-16-15-2-10 14 4 16-1 13-32-2-21 2-40 8-44 9-6 9-8 0-8-7 0-10-10-7-26 3-19 1-24-8-18-10 6-10 5-2-7 6-8 10-24 8-36-2-14 1-23 9-23s7-4-3-10c-8-5-11-10-6-10 6 0 1-7-10-16-15-13-16-15-2-10 14 4 16-1 13-32-2-21 2-40 8-44 9-6 9-8 0-8-7 0-10-10-7-26 3-19 1-24-8-18-10 6-10 5-2-7 6-8 10-24 8-36-2-14 1-23 9-23s7-4-3-10c-8-5-11-10-6-10 6 0 1-7-10-16-14-11-15-14-3-11 21 7 24-52 3-60-13-5-12-8 2-24 10-11 12-19 6-19-7 0-12-5-12-11 0-5 4-8 10-4 5 3 8-10 5-32-2-22 2-41 8-45 9-6 8-8-1-8-8 0-10-5-6-12 5-7 2-9-9-5s-14 2-10-8c3-8 9-12 14-9 16 10 9-9-8-22s-17-14 1-7c13 4 17 3 12-5-3-6-2-13 3-17 6-3 7-13 4-21-6-15-8-113-3-124 2-3 3-18 4-34 1-20 8-30 20-32 13-2 16 2 12 14s-2 12 9-3c9-11 19-19 23-18 4 2 7-5 7-15 1-9 5-23 9-31 7-10 5-12-5-6-11 6-12 5-1-6 7-7 28-12 48-11 23 2 33-1 29-8-3-5-2-10 4-10 7 0 7-8 1-25-6-15-6-26 0-30s10-3 10 2c0 4 5 1 10-7s10-10 10-5c0 6 12 10 28 9s26-7 24-14c-2-10 0-11 10-3 14 12 76 12 95 0 6-4 15-3 18 3 5 8 11 8 20 0 8-7 18-9 24-6 5 4 12-3 16-14s11-18 16-14c5 3 9 2 8-3-4-25 5-30 56-30 44 1 55 4 53 16s5 15 25 14c15-1 27 2 27 7 0 4-8 7-17 5-10-1-26 2-35 7-14 7-16 5-11-9 5-12 0-10-16 6-14 14-29 20-42 16-10-4-19-2-19 3 0 11 60 10 78-2 7-4 12-2 12 5 0 9 3 9 14 0 10-9 16-9 21-1s10 8 20 0c9-8 15-8 20 0 3 5 15 10 26 10 12 0 17 4 14 11-4 6 3 5 14-3 18-11 23-11 31 1 6 10 3 19-8 28-14 11-14 13-2 11 10-2 14 4 12 16-2 11 1 15 7 11 6-3 11-2 11 3s14 6 31 4c22-3 30-1 25 7-4 6-3 11 2 11s7 13 4 29c-4 32 15 52 29 30 7-12 9-11 9 1 0 13 1 13 10 0 7-11 10-11 10-2 0 7 4 11 8 8 4-2 7 7 6 22-2 42-3 44-16 36-7-4-8-3-4 4 4 6 12 9 19 6 9-3 12 9 9 43-2 46-2 55-1 96 0 10 5 15 11 11 7-5 8-2 2 7-11 18-13 79-2 79 4 0 8 5 8 11 0 5-4 7-10 4-20-13-9 13 13 29l22 17-22-11c-27-13-30-3-5 17 16 14 16 14 0 9-10-3-20-1-23 4-4 6-3 10 2 10 4 0 8 153 8 340 0 223 3 340 10 340s7 3 0 8c-16 11-12 75 5 90 13 12 13 13-2 8-10-3-20-1-23 4-4 6-2 10 3 10s7 12 4 26c-4 20-2 25 8 19 9-6 11-4 5 6-12 18-14 99-3 99 4 0 8 5 8 11 0 5-4 8-9 5s-7 16-6 42-2 55-7 65-5 17 1 17 15-8 20-17c6-10 11-13 11-7 0 5-5 15-12 22-16 16-20 94-5 85 7-3 5 2-4 13s-15 34-14 56c1 27-2 35-12 31-7-3-13 0-13 7 0 9-7 8-24-4-23-15-25-15-21 4 2 11-1 22-6 26-6 4-6 10 1 19 15 18-8 35-43 31-24-3-32 4-28 27 0 4-4 7-10 7-8 0-8 4 0 14 15 18-4 32-48 34-18 2-42 7-53 13-15 8-19 8-14 0 4-6 0-11-9-11s-14 4-11 9-1 11-9 14c-9 4-12 1-9-7 3-7-2-13-10-13-13 0-13 4 0 29 9 17 10 28 4 28s-16-11-22-25c-12-26-32-33-43-15-4 6-12 7-18 3-7-4-6 0 2 10 9 12 10 17 2 17-7 0-9 5-6 11 5 6 12 4 20-8 7-10 11-21 9-25-3-5-1-8 5-8s15 9 21 21c6 11 21 24 32 28 13 5-14 7-66 7-74-1-89-4-98-20s-7-17 13-11c20 5 19 3-6-13-16-11-32-17-35-15-2 2 2 8 10 13 8 6 11 10 7 10s-3 8 2 18c9 17 5 19-35 19-24 1-44-4-44-9zm60-8c0-5-4-10-10-10-5 0-10 5-10 10 0 6 5 10 10 10 6 0 10-4 10-10zm160 6c0-3-4-8-10-11-5-3-10-1-10 4 0 6 5 11 10 11 6 0 10-2 10-4zm-525-1486c3-5 1-10-4-10-6 0-11 5-11 10 0 6 2 10 4 10 3 0 8-4 11-10zm25-362c0-4-4-8-9-8-6 0-12 4-15 8-3 5 1 9 9 9s15-4 15-9zm795-8c-3-5-12-10-18-10-7 0-6 4 3 10 19 12 23 12 15 0zm30-10c3-5 1-10-4-10-6 0-11 5-11 10 0 6 2 10 4 10 3 0 8-4 11-10zm-775-16c0-8-19-13-24-6-3 5 1 9 9 9s15-2 15-3zm607-139c0-8-4-12-9-9s-6 10-3 15c9 13 12 11 12-6zm-236-59c5 3 9 0 9-6 0-15-23-7-26 8-1 7 0 8 3 2 2-5 9-8 14-4zm70-21c3 2 10-4 16-14 10-16 8-18-15-17-15 1-32 5-39 9-6 4-14 1-16-5-4-9-6-9-6-1-2 21 30 45 43 33 7-5 15-8 17-5z"/><path d="m3685 2480c-3-5-5-10-3-11 19-4 51-9 47-6-2 1-11 8-21 15-11 9-18 10-23 2z"/><path d="m3790 4581c-13-25-13-31 2-31 6 0 8 3 5 6-3 4-2 15 4 25 5 11 7 19 5 19-3 0-10-9-16-19z"/><path d="m3817 4583c-4-3-7-13-7-22 1-13 3-13 11 2 11 19 8 33-4 20z"/><path d="m3975 4500c3-5 8-10 11-10 2 0 4 5 4 10 0 6-5 10-11 10-5 0-7-4-4-10z"/><path d="m6190 4481c0-5 6-11 13-14 8-3 14 1 14 9s-6 14-14 14c-7 0-13-4-13-9z"/><path d="m3970 4459c0-5 5-7 10-4 6 3 10 8 10 11 0 2-4 4-10 4-5 0-10-5-10-11z"/><path d="m1095 4451c-3-5-2-12 3-15s9 1 9 9c0 17-3 19-12 6z"/><path d="m978 4262c-10-22-2-67 12-67 21-1 28 12 22 40-4 23-28 42-34 27zm18-27c-3-8 0-15 7-18 7-2 5-5-4-9-11-4-15 1-14 22 0 16 4 26 8 23 5-3 6-11 3-18z"/><path d="m1026 4252c-2-4-1-14 4-22 7-11 9-9 7 8-1 24-3 26-11 14z"/><path d="m4116 4195c-9-26-7-32 5-12 6 10 9 21 6 23-2 3-7-2-11-11z"/><path d="m3134 4169c-3-6-2-15 3-20s9-1 9 11c0 23-2 24-12 9z"/><path d="m4135 4119c3-14-2-19-18-20-20-1-21-2-2-6 11-3 26-10 34-17 12-9 13-8 6 4-12 19-13 33-2 41 5 3 2 9-6 12-11 4-15 0-12-14z"/><path d="m3137 4104c-8-8 3-34 15-34 6 0 5 6-2 15-15 18 1 20 19 3 10-11 11-10 6 5-7 17-26 23-38 11z"/><path d="m6250 4080c0-5 5-10 10-10 6 0 10 5 10 10 0 6-4 10-10 10-5 0-10-4-10-10z"/><path d="m4115 4059c-4-6-4-13-1-16 3-4 6-1 6 5s7 9 17 5c11-4 14-3 9 5-9 15-23 15-31 1z"/><path d="m3135 4040c-8-13 4-32 15-25 5 3 11-2 13-10 3-11 4-10 3 2-1 10-8 17-14 16-7-2-12 2-12 8 0 7 10 9 28 5 20-5 23-4 12 4-19 13-37 13-45 0z"/><path d="m4107 4023c-10-10-8-33 3-33 5 0 6 7 3 17-4 11-3 14 5 9 7-4 12-2 12 3 0 12-13 14-23 4z"/><path d="m3137 3993c-4-3-7-11-7-17s5-5 12 2c6 6 9 14 7 17-3 3-9 2-12-2z"/><path d="m3173 3975c-3-9-3-18-1-21 3-3 8 4 11 16 6 23-1 27-10 5z"/><path d="m4120 3980c-13-8-13-10 2-10 9 0 20 5 23 10 8 13-5 13-25 0z"/><path d="m3153 3956c1-11 9-21 17-23 10-3 11-2 4 4-6 4-14 15-17 23-5 11-6 9-4-4z"/><path d="m4097 3959c7-7 15-10 18-7s-2 9-12 12c-14 6-15 5-6-5z"/><path d="m4140 3960c-9-6-10-10-3-10 6 0 15 5 18 10 8 12 4 12-15 0z"/><path d="m4113 3925c0-8 4-15 9-15 4 0 8 7 8 15s-4 15-8 15c-5 0-9-7-9-15z"/><path d="m3140 3920c8-5 20-10 25-10 6 0 3 5-5 10s-19 10-25 10c-5 0-3-5 5-10z"/><path d="m3125 3902c15-11 19-46 4-36-8 5-10 3-4-6 6-10 11-10 20 3 7 9 16 13 21 9s0 3-10 16c-11 12-24 22-30 22-7 0-7-3-1-8z"/><path d="m4090 3901c0-5 5-13 10-16 6-3 10-2 10 4 0 5-4 13-10 16-5 3-10 2-10-4z"/><path d="m4130 3889c-7-11-9-23-6-27 3-3 6 0 6 7s4 10 8 7c4-2 9 4 9 15 2 25-4 24-17-2z"/><path d="m3175 3859c-4-6-5-12-2-15 2-3 7 2 10 11 7 17 1 20-8 4z"/><path d="m4137 3853c-10-10-8-23 4-23 5 0 8 4 5 9-4 5 0 12 6 14 7 3 8 6 2 6-6 1-14-2-17-6z"/><path d="m3145 3840c-3-5-1-10 4-10 6 0 11 5 11 10 0 6-2 10-4 10-3 0-8-4-11-10z"/><path d="m4106 3823c6-4 14-15 17-23 5-11 6-9 4 4-1 11-9 21-17 23-10 3-11 2-4-4z"/><path d="m3135 3800c-8-13 4-32 15-25 5 3 11-2 13-10 3-11 4-10 3 2-1 10-8 17-14 16-7-2-12 2-12 8 0 7 10 9 28 5 20-5 23-4 12 4-19 13-37 13-45 0z"/><path d="m4101 3794c0-11 3-14 6-6 3 7 2 16-1 19-3 4-6-2-5-13z"/><path d="m4134 3776c-3-9-11-13-17-9-6 3-7 1-3-5 4-7 11-12 16-12 10 0 23 31 15 38-2 3-7-3-11-12z"/><path d="m3137 3753c-4-3-7-11-7-17s5-5 12 2c6 6 9 14 7 17-3 3-9 2-12-2z"/><path d="m3173 3735c-3-9-3-18-1-21 3-3 8 4 11 16 6 23-1 27-10 5z"/><path d="m4100 3741c0-9 30-24 36-18 2 1-6 8-16 15-11 7-20 8-20 3z"/><path d="m3153 3716c1-11 9-21 17-23 10-3 11-2 4 4-6 4-14 15-17 23-5 11-6 9-4-4z"/><path d="m4117 3696c-8-8-18-12-22-8-5 4-5 1-1-6 6-11 12-10 27 4 10 9 19 12 19 6s-9-17-20-25c-19-13-19-15-4-21 9-4 19-4 22-1s0 5-7 5-9 5-6 10c5 8 12 7 23-2 14-10 15-10 5 1-6 7-9 19-7 26 8 20-13 27-29 11z"/><path d="m3140 3680c8-5 20-10 25-10 6 0 3 5-5 10s-19 10-25 10c-5 0-3-5 5-10z"/><path d="m3125 3662c15-11 19-46 4-36-8 5-10 3-4-6 6-10 11-10 20 3 7 9 16 13 21 9s0 3-10 16c-11 12-24 22-30 22-7 0-7-3-1-8z"/><path d="m3175 3619c-4-6-5-12-2-15 2-3 7 2 10 11 7 17 1 20-8 4z"/><path d="m4110 3615c-29-16-19-20 11-5 11 7 19 7 19 1 0-5-6-12-12-14-10-4-10-6-1-6 16-1 27 19 17 29-5 5-20 2-34-5z"/><path d="m3145 3600c-3-5-1-10 4-10 6 0 11 5 11 10 0 6-2 10-4 10-3 0-8-4-11-10z"/><path d="m4100 3581c0-9 30-24 36-18 2 1-6 8-16 15-11 7-20 8-20 3z"/><path d="m3135 3560c-8-13 4-32 15-25 5 3 11-2 13-10 3-11 4-10 3 2-1 10-8 17-14 16-7-2-12 2-12 8 0 7 10 9 28 5 20-5 23-4 12 4-19 13-37 13-45 0z"/><path d="m4117 3536c-8-8-18-12-22-8-5 4-5 1-1-6 6-11 12-10 27 4 10 9 19 12 19 6s-9-17-20-25c-19-13-19-15-4-21 9-4 19-4 22-1s0 5-7 5-9 5-6 10c5 8 12 7 23-2 14-10 15-10 5 1-6 7-9 19-7 26 8 20-13 27-29 11z"/><path d="m3137 3513c-4-3-7-11-7-17s5-5 12 2c6 6 9 14 7 17-3 3-9 2-12-2z"/><path d="m3173 3495c-3-9-3-18-1-21 3-3 8 4 11 16 6 23-1 27-10 5z"/><path d="m3153 3476c1-11 9-21 17-23 10-3 11-2 4 4-6 4-14 15-17 23-5 11-6 9-4-4z"/><path d="m4110 3455c-29-16-19-20 11-5 11 7 19 7 19 1 0-5-6-12-12-14-10-4-10-6-1-6 16-1 27 19 17 29-5 5-20 2-34-5z"/><path d="m3140 3440c8-5 20-10 25-10 6 0 3 5-5 10s-19 10-25 10c-5 0-3-5 5-10z"/><path d="m3125 3422c15-11 19-46 4-36-8 5-10 3-4-6 6-10 11-10 20 3 7 9 16 13 21 9s0 3-10 16c-11 12-24 22-30 22-7 0-7-3-1-8z"/><path d="m4100 3421c0-9 30-24 36-18 2 1-6 8-16 15-11 7-20 8-20 3z"/><path d="m3175 3379c-4-6-5-12-2-15 2-3 7 2 10 11 7 17 1 20-8 4z"/><path d="m4117 3376c-8-8-18-12-22-8-5 4-5 1-1-6 6-11 12-10 27 4 10 9 19 12 19 6s-9-17-20-25c-19-13-19-15-4-21 9-4 19-4 22-1s0 5-7 5-9 5-6 10c5 8 12 7 23-2 14-10 15-10 5 1-6 7-9 19-7 26 8 20-13 27-29 11z"/><path d="m3145 3360c-3-5-1-10 4-10 6 0 11 5 11 10 0 6-2 10-4 10-3 0-8-4-11-10z"/><path d="m3135 3320c-8-13 4-32 15-25 5 3 11-2 13-10 3-11 4-10 3 2-1 10-8 17-14 16-7-2-12 2-12 8 0 7 10 9 28 5 20-5 23-4 12 4-19 13-37 13-45 0z"/><path d="m4110 3295c-29-16-19-20 11-5 11 7 19 7 19 1 0-5-6-12-12-14-10-4-10-6-1-6 16-1 27 19 17 29-5 5-20 2-34-5z"/><path d="m3137 3273c-4-3-7-11-7-17s5-5 12 2c6 6 9 14 7 17-3 3-9 2-12-2z"/><path d="m3173 3255c-3-9-3-18-1-21 3-3 8 4 11 16 6 23-1 27-10 5z"/><path d="m4100 3261c0-9 30-24 36-18 2 1-6 8-16 15-11 7-20 8-20 3z"/><path d="m3153 3236c1-11 9-21 17-23 10-3 11-2 4 4-6 4-14 15-17 23-5 11-6 9-4-4z"/><path d="m6250 3240c-9-6-10-10-3-10 6 0 15 5 18 10 8 12 4 12-15 0z"/><path d="m4117 3216c-8-8-18-12-22-8-5 4-5 1-1-6 6-11 12-10 27 4 10 9 19 12 19 6s-9-17-20-25c-19-13-19-15-4-21 9-4 19-4 22-1s0 5-7 5-9 5-6 10c5 8 12 7 23-2 14-10 15-10 5 1-6 7-9 19-7 26 8 20-13 27-29 11z"/><path d="m3134 3201c4-5 1-12-4-14-6-3-5-4 2-3 15 3 23 26 8 26-6 0-9-4-6-9z"/><path d="m6260 3200c-9-6-10-10-3-10 6 0 15 5 18 10 8 12 4 12-15 0z"/><path d="m3150 3169c0-5-4-8-8-5-4 2-9-5-9-17-2-20-1-21 11-4 12 15 15 16 26 2 7-9 15-13 17-11 3 2-5 14-16 25-12 12-21 16-21 10z"/><path d="m4111 3136c-21-12-21-14-6-20 10-3 20-4 23-1s-1 5-9 5c-12 0-12 2 1 10 9 6 17 5 22-3 6-9 8-9 8 0 0 19-14 22-39 9z"/><path d="m3145 3120c-3-5-2-10 4-10 5 0 13 5 16 10 3 6 2 10-4 10-5 0-13-4-16-10z"/><path d="m4090 3101c0-5 5-13 10-16 6-3 10-2 10 4 0 5-4 13-10 16-5 3-10 2-10-4z"/><path d="m4130 3089c-7-11-9-23-6-27 3-3 6 0 6 7s4 10 8 7c4-2 9 4 9 15 2 25-4 24-17-2z"/><path d="m3133 3080c1-14 6-24 12-22 5 2 12-5 16-15 5-12 7-8 6 15 0 18-5 35-10 39-6 3-7 1-3-5 4-7 4-18 0-24-6-9-11-5-16 12l-7 25z"/><path d="m4135 3050c-3-6 1-7 9-4 18 7 21 14 7 14-6 0-13-4-16-10z"/><path d="m3137 3033c-4-3-7-11-7-17s5-5 12 2c6 6 9 14 7 17-3 3-9 2-12-2z"/><path d="m3175 3019c-4-6-5-12-2-15 2-3 7 2 10 11 7 17 1 20-8 4z"/><path d="m4115 3019c-4-6-4-13-1-16 3-4 6-1 6 5s7 9 17 5c11-4 14-3 9 5-9 15-23 15-31 1z"/><path d="m3154 2991c1-17 26-28 26-11 0 6-4 9-9 5-5-3-11 0-14 7-2 9-4 8-3-1z"/><path d="m4107 2983c-10-10-8-33 3-33 5 0 6 7 3 17-4 11-3 14 5 9 7-4 12-2 12 3 0 12-13 14-23 4z"/><path d="m3130 2966c0-2 7-7 16-10 8-3 12-2 9 4-6 10-25 14-25 6z"/><path d="m4135 2960c-3-5-3-10 2-11 4 0-1-5-12-10-19-8-19-9-1-6 11 1 18 6 17 11-2 5 3 13 11 17 9 6 9 9 1 9-6 0-15-4-18-10z"/><path d="m3128 2943c6-2 9-10 6-15-4-7-2-8 5-4 13 9 5 26-12 25-9 0-8-2 1-6z"/><path d="m4115 2909c-4-6-5-12-2-15 2-3 7 2 10 11 7 17 1 20-8 4z"/><path d="m3164 2879c-3-6-1-16 5-22 9-9 10-7 5 7-6 15-4 17 6 11 9-5 11-4 6 3-9 15-13 15-22 1z"/><path d="m1053 2817c-3-5-2-11 1-14 3-4 6-1 6 6s4 10 8 7c4-2 14-1 22 4 11 7 9 9-8 7-13-1-26-5-29-10z"/><path d="m1087 2804c-4-4-7-12-7-18s5-4 10 4c9 13 11 13 21 0 9-12 10-12 7-1-5 17-21 25-31 15z"/><path d="m1055 2780c-3-5-1-10 4-10 6 0 11 5 11 10 0 6-2 10-4 10-3 0-8-4-11-10z"/><path d="m6115 2640c-3-5-1-10 4-10 6 0 11 5 11 10 0 6-2 10-4 10-3 0-8-4-11-10z"/><path d="m3517 2497c4-7 8-21 8-32 0-18 7-20 58-21 54 0 74 10 42 22-8 4-13 9-11 13 2 3-7 11-20 18-14 6-26 7-30 2-3-5-11-6-17-2-20 12-38 12-30 0zm48-7c9 7 17 4 28-13 14-22 14-23-22-23-32 0-37 3-37 23 0 15 3 20 10 13 6-6 14-6 21 0z"/><path d="m3570 2479c0-6-7-8-16-5-8 3-12 2-9-3 9-15 44-9 38 6-6 16-13 17-13 2z"/><path d="m6059 2508c-5-18-6-38-1-34 7 8 12 36 6 36-2 0-4-1-5-2z"/><path d="m5926 2321c-13-14-14-21-5-27 8-5 10-3 4 6s-4 12 6 8 15 1 15 13c0 23 1 23-20 0z"/><path d="m1421 2181c-8-5-11-16-7-26 4-13 2-16-9-11-8 3-15 1-15-5s8-9 18-7c9 2 16 10 14 17-1 7 3 19 9 27 13 16 10 18-10 5z"/><path d="m5883 2147c0-8 6-14 14-14 9 0 10 4 2 14-6 7-12 13-14 13-1 0-2-6-2-13z"/><path d="m5230 1506c0-2 7-7 16-10 8-3 12-2 9 4-6 10-25 14-25 6z"/><path d="m2095 1455c1-16 3-34 4-40 0-5 8 1 17 13 8 12 20 22 26 22s3-10-8-22l-19-23 22 19c16 13 20 23 13 31-5 6-7 15-3 19s-4 3-19-3c-19-7-28-7-31 2-3 7-4-1-2-18zm25-10c-7-9-15-13-17-11-7 7 7 26 19 26 6 0 6-6-2-15z"/><path d="m5130 1470c-9-6-10-10-3-10 6 0 15 5 18 10 8 12 4 12-15 0z"/><path d="m5145 1454c-27-20-26-39 1-40 13-1 24 3 24 10 0 6 5 4 10-4 6-9 10-10 10-3 0 6-5 15-11 19-8 5-8 9 1 14s8 9-2 12c-8 3-22 0-33-8zm21-6c-2-14-8-18-28-18-6 0-3 7 8 15 23 18 23 18 20 3z"/><path d="m2615 1191c-3-5-2-12 3-15s9 1 9 9c0 17-3 19-12 6z"/><path d="m3085 1060c-3-6 1-7 9-4 18 7 21 14 7 14-6 0-13-4-16-10z"/><path d="m4144 1058c-3-4 5-5 17-3 30 6 36 14 9 12-12-1-24-5-26-9z"/><path d="m3056 1046c3-8 13-17 22-21 13-5 13-2-3 15-21 24-26 25-19 6z"/><path d="m3106 1037c3-10 9-15 12-12s0 11-7 18c-10 9-11 8-5-6z"/><path d="m4180 1040c-9-6-10-10-3-10 6 0 15 5 18 10 8 12 4 12-15 0z"/><path d="m4275 1040c3-5 8-10 11-10 2 0 4 5 4 10 0 6-5 10-11 10-5 0-7-4-4-10z"/><path d="m4194 6253c1-7 8-19 16-26 8-8 11-8 6 0-3 6 0 14 6 16 10 4 10 6 0 6-7 1-11 5-8 9 3 5-1 9-8 9-8 0-13-6-12-14z"/><path d="m1796 5602c-3-5 1-9 9-9s15 4 15 9c0 4-4 8-9 8-6 0-12-4-15-8z"/><path d="m1624 5449c-3-6-2-15 3-20s9-1 9 11c0 23-2 24-12 9z"/><path d="m1555 5360c-3-5-1-10 4-10 6 0 11 5 11 10 0 6-2 10-4 10-3 0-8-4-11-10z"/><path d="m1134 4724c0-22 1-22 18-7 19 17 17 26-5 29-8 1-13-9-13-22z"/><path d="m6183 2785c0-6 8-11 17-11s17 5 17 11-8 11-17 11-17-5-17-11z"/><path d="m1150 2575c-16-19-7-30 17-20 12 5 14 9 5 12-6 3-10 9-6 14 9 15-2 10-16-6z"/><path d="m1235 2380c-3-5-1-10 4-10 6 0 11 5 11 10 0 6-2 10-4 10-3 0-8-4-11-10z"/><path d="m1643 1843c4-3 1-13-6-22-11-14-10-14 5-2 16 12 16 31 1 31-4 0-3-3 0-7z"/><path d="m5566 1762c-2-4-1-14 4-22 7-11 9-9 7 8-1 24-3 26-11 14z"/><path d="m4530 1123c0-5 5-15 10-23 7-12 9-10 7 8-1 19-17 33-17 15z"/><path d="m5207 415c-4-8-3-16 1-19s9 4 9 15c2 23-3 25-10 4z"/><path d="m2429 257c-7-16-4-34 7-34 8 0 14 7 14 16 0 14 2 14 11 1 8-12 10-12 7-1s-35 26-39 18z"/><path d="m4814 241c0-11 2-18 5-16 2 3 10 0 17-6 16-13 26 2 13 21-7 13-9 13-9 1 0-11-3-11-13 3-12 16-13 16-13-3z"/><path d="m3097 104c-9-10 12-44 26-43 9 0 9 2 0 6-7 2-13 9-13 14 0 6 6 7 13 3 8-5 8-2-2 9-15 19-15 19-24 11z"/><path d="m4195 7229c-4-6-5-12-2-15 2-3 7 2 10 11 7 17 1 20-8 4z"/><path d="m6588 7233c7-3 16-2 19 1 4 3-2 6-13 5-11 0-14-3-6-6z"/><path d="m4214 7219c-4-7-3-9 4-5 5 3 12 0 15-6 2-7 7-10 11-7s0 12-8 18c-11 9-16 9-22 0z"/><path d="m4036 7204c-9-9-16-11-16-4 0 6-5 8-11 5-14-9-6-16 23-19 17-2 24 2 24 16 0 22-1 22-20 2z"/><path d="m4170 7211c0-6 4-13 10-16s7 1 4 9c-7 18-14 21-14 7z"/><path d="m3050 7202c0-5 7-9 15-9s12 4 9 9c-3 4-9 8-15 8-5 0-9-4-9-8z"/><path d="m3090 7200c0-5 5-10 10-10 6 0 10 5 10 10 0 6-4 10-10 10-5 0-10-4-10-10z"/><path d="m3227 7203c-3-5-3-13 1-18 12-17 30-15 37 3 3 9 3 13-1 9s-13-2-20 4c-7 5-15 6-17 2z"/><path d="m6575 7199c-11-16-1-19 13-3 7 8 8 14 3 14s-13-5-16-11z"/><path d="m4146 7182c-3-5 1-9 9-9s15 4 15 9c0 4-4 8-9 8-6 0-12-4-15-8z"/><path d="m2728 7152c-10-2-18-8-18-14 0-5 7-8 15-4 8 3 19-2 24-12 5-9 13-13 17-9 5 5 4 11-2 15s-13 12-15 17c-2 6-12 9-21 7z"/><path d="m4496 7139c8-9 12-23 9-31-4-9 0-15 10-15 16 0 16 27 0 40-6 5-2 6 8 3 12-4 16-2 11 6-4 6-3 8 4 4 6-3 9-18 6-32-4-22-3-23 10-12 9 9 11 19 5 30s-5 18 4 21c6 2-9 3-35 3-42-1-45-3-32-17z"/><path d="m2666 7137c3-10 9-15 12-12s0 11-7 18c-10 9-11 8-5-6z"/><path d="m4605 7140c-3-6 1-7 9-4 18 7 21 14 7 14-6 0-13-4-16-10z"/><path d="m7176 7142c-3-5 1-9 9-9s12 4 9 9c-3 4-7 8-9 8s-6-4-9-8z"/><path d="m4616 7122c-2-4-1-14 4-22 7-11 9-9 7 8-1 24-3 26-11 14z"/><path d="m2710 7111c0-6 4-13 10-16s7 1 4 9c-7 18-14 21-14 7z"/><path d="m4851 7075c0-5 9-21 20-35 16-20 18-21 10-4-6 12-7 25-3 29 4 5 2 5-5 2-6-4-14-1-16 5-3 7-6 9-6 3z"/><path d="m4830 7035c0-8 2-15 4-15s6 7 10 15c3 8 1 15-4 15-6 0-10-7-10-15z"/><path d="m2406 7013c-6-14-5-15 5-6 7 7 10 15 7 18s-9-2-12-12z"/><path d="m6364 6979c-3-6-2-15 3-20s9-1 9 11c0 23-2 24-12 9z"/><path d="m2175 6961c-3-5-2-12 3-15s9 1 9 9c0 17-3 19-12 6z"/><path d="m5070 6945c0-7 30-13 34-7 3 4-4 9-15 9-10 1-19 0-19-2z"/><path d="m6340 6921c0-7-4-9-10-6-5 3-10 1-10-4 0-6 4-11 9-11 13 0 25 20 17 27-3 4-6 1-6-6z"/><path d="m2005 6899c-4-6-5-12-2-15 2-3 7 2 10 11 7 17 1 20-8 4z"/><path d="m2036 6898c3-5 10-6 15-3 13 9 11 12-6 12-8 0-12-4-9-9z"/><path d="m2016 6873c-6-14-5-15 5-6 7 7 10 15 7 18s-9-2-12-12z"/><path d="m5210 6878c0-4 4-8 9-8 6 0 12 4 15 8 3 5-1 9-9 9s-15-4-15-9z"/><path d="m5390 6836c0-2 8-10 18-17 15-13 16-12 3 4s-21 21-21 13z"/><path d="m1885 6819c-4-6-4-13-1-16 3-4 6-1 6 6s5 9 12 5 8-3 4 4c-9 15-13 15-21 1z"/><path d="m1840 6796c0-2 7-7 16-10 8-3 12-2 9 4-6 10-25 14-25 6z"/><path d="m5856 6478c3-5 10-6 15-3 13 9 11 12-6 12-8 0-12-4-9-9z"/><path d="m1315 6400c-3-5-1-10 4-10 6 0 11 5 11 10 0 6-2 10-4 10-3 0-8-4-11-10z"/><path d="m6015 6351c-6-11 15-61 27-61 4 0 8 5 8 11 0 8 4 8 13 0 10-8 14-7 14 4 0 8-4 12-9 9-4-3-8 0-8 5 0 6 4 11 10 11 5 0 6 8 3 17-4 11-8 12-11 5-2-8-9-9-22-2-11 6-21 6-25 1zm24-15c9-11 9-16-1-22-7-4-10-4-6 1 4 4 3 14-3 22-6 7-9 13-6 13 2 0 10-6 16-14z"/><path d="m729 5867c7-9 9-17 4-17s-10-6-10-14c0-17 25-14 39 5 7 11 9 9 5-8-3-15-1-20 9-16s11 10 3 24c-7 13-6 19 1 19 6 0 8 5 4 11-3 6-9 7-13 2-8-11-22-10-41 2-13 8-13 7-1-8zm24-22c-3-9-8-14-10-11-3 3-2 9 2 15 9 16 15 13 8-4z"/><path d="m201 4807c-9-12-8-16 3-20 19-7 32 11 19 24-6 6-14 5-22-4z"/><path d="m0 4271c0-6 4-13 10-16s7 1 4 9c-7 18-14 21-14 7z"/><path d="m10 4205c-7-9-8-15-2-15 5 0 12 7 16 15 3 8 4 15 2 15s-9-7-16-15z"/><path d="m50 4120c-8-5-15-20-15-34-1-14 2-23 6-20 4 2 9 1 12-3 2-5 3-3 1 3-1 6 3 17 9 24 10 10 8 11-7 6-19-7-19-6-1 14 20 22 18 25-5 10z"/><path d="m35 3050c-3-5-3-10 2-10 4 0 1-5-7-11-10-7-11-9-2-7 8 2 13 7 12 12s4 13 12 17c9 6 9 9 1 9-6 0-15-4-18-10z"/><path d="m10 2999c0-5 5-7 10-4 6 3 10 8 10 11 0 2-4 4-10 4-5 0-10-5-10-11z"/><path d="m120 2740c8-5 20-10 25-10 6 0 3 5-5 10s-19 10-25 10c-5 0-3-5 5-10z"/><path d="m110 2722c0-4 10-9 22-9 18-2 20 0 8 7-18 12-30 13-30 2z"/><path d="m110 2625c0-7 30-13 34-7 3 4-4 9-15 9-10 1-19 0-19-2z"/><path d="m409 1946c-1-1-2-13-3-28-3-24-1-26 12-15 13 10 15 9 10-4s-1-16 17-15 21 5 14 17c-5 10-4 20 3 27s10 12 8 13c-8 2-60 6-61 5zm41-21c-6-7-6-16-2-21 4-4 0-3-9 4-9 6-18 10-21 7-2-3-5 1-5 8s11 13 23 13c16 0 20-3 14-11z"/><path d="m490 1760c0-5 5-10 10-10 6 0 10 5 10 10 0 6-4 10-10 10-5 0-10-4-10-10z"/><path d="m650 1499c0-5 5-7 10-4 6 3 10 8 10 11 0 2-4 4-10 4-5 0-10-5-10-11z"/><path d="m5950 879c0-5 4-8 9-4 5 3 12 1 16-5 3-5 12-10 18-10 7 0 3 7-7 15-23 18-36 19-36 4z"/><path d="m1406 821c-3-4 0-16 8-26 11-15 13-16 13-1 0 9-4 16-9 16s-6 5-3 10c3 6 4 10 1 10s-7-4-10-9z"/><path d="m5890 810c10-18 2-34-20-43-12-4-12-6 2-6 19-1 28 9 34 42 2 16-1 24-11 24s-11-5-5-17z"/><path d="m5862 794c-7-8-8-14-3-14 10 0 25 19 20 25-2 1-10-3-17-11z"/><path d="m5644 622c2-9 9-18 16-20 7-3 10 0 6 6-3 6-1 12 6 14 7 3 3 7-9 10-15 4-20 1-19-10z"/><path d="m1905 489c-4-6-5-12-2-15 2-3 7 2 10 11 7 17 1 20-8 4z"/><path d="m5399 470-25-27h25c14 0 20 2 13 4-6 3-9 9-6 14 3 6 12 5 22-3 14-10 15-10 5 1-6 7-9 20-6 27 7 19 2 16-28-16z"/><path d="m2169 333c-13-16-12-17 4-4s21 21 13 21c-2 0-10-8-17-17z"/><path d="m6336 337c3-10 9-15 12-12s0 11-7 18c-10 9-11 8-5-6z"/><path d="m7218 343c-3-5-4-19-4-33 1-20 6-25 29-26 15-1 25 2 21 5-3 3-9 6-12 6-20 1-32 17-22 30 7 8 7 15 1 19-5 4-11 3-13-1z"/><path d="m2220 330c-9-6-10-10-3-10 6 0 15 5 18 10 8 12 4 12-15 0z"/><path d="m6371 324c0-11 3-14 6-6 3 7 2 16-1 19-3 4-6-2-5-13z"/><path d="m2193 302c0-15 2-21 4-14 3 6 9 10 14 6 14-8 11 6-5 21-11 12-13 10-13-13z"/><path d="m6335 301c-9-15 13-23 32-11 15 9 14 10-6 4-16-4-21-3-17 5 4 6 5 11 2 11s-7-4-11-9z"/><path d="m4150 98c0-11 28-10 35 1 3 6-4 9-15 8s-20-5-20-9z"/><path d="m2991 92c-1-7-6-10-13-6s-8 3-4-5c4-6 11-9 16-6 4 3 10 0 12-7 3-7 7-5 11 6 4 9 3 15-2 11-5-3-12 1-14 7-4 10-6 10-6 0z"/><path d="m6590 95c0-5 5-17 10-25s10-10 10-5c0 6-5 17-10 25s-10 11-10 5z"/><path d="m6618 93c6-2 9-10 6-15-4-7-2-8 5-4 13 9 5 26-12 25-9 0-8-2 1-6z"/><path d="m4280 80c18-12 30-13 30-2 0 4-10 9-22 9-18 2-20 0-8-7z"/></g></svg>