<svg enable-background="new 0 0 684 153.2" viewBox="0 0 684 153.2" xmlns="https://www.w3.org/2000/svg"><path d="m154.1 13.7-18.5 88.5-20-88.5h-26.6l-20 88.1-18.5-88.1h-35.2l35.1 135.6h31.3l20.3-87.8 20.8 87.8h30.4l35.9-135.6z"/><path d="m267.6 60.2c-9.5-10.1-22.9-16.1-38.5-16.1-31 0-53.3 26.2-53.3 54.6 0 30.2 24.7 53.9 53.9 53.9 10.4 0 20.5-3.1 29-9.2 8.6-5.9 15.8-14.7 20.7-26h-31.2c-3.7 5.3-8.8 9.5-18.5 9.5-11.9 0-22.2-7.1-23.5-18h75.7c2.3-18.6-1.5-34.9-14.3-48.7zm-61.1 25.7c.7-4.8 7-16.1 22.7-16.1s22 11.4 22.7 16.1z"/><path d="m409.9 44.1c-10.6 0-18.9 3.8-24.9 9.3-2.9 2.6-5.3 5.7-7.3 8.8-1.8-3.5-3.8-6.2-6-8.4-7.5-7.9-16.3-9.7-23.3-9.7-10.6 0-17.8 3.5-22.2 7.1-4.4 3.5-6.2 7.1-6.2 7.1v-10.7h-28.4v101.7h30.4v-54.1c0-3.1 0-8.6 2.2-13.6 2.2-4.9 6.4-9 15-9 7.7 0 11.4 3.8 13.4 8.6 1.8 4.6 1.8 9.9 1.8 12.6v55.4h30.4v-55.5c0-2.9 0-8.1 2.2-12.6 2-4.6 6.2-8.4 14.7-8.4 7.9 0 11.7 3.5 13.6 8.2 2 4.6 2 10.1 2 14.3v54.1h30.4v-55.5c0-22.5-1.5-29.3-11-39.4-8.3-8.7-19.7-10.3-26.8-10.3z"/><path d="m514 44.1c-18.1 0-24.6 9.3-28 14.3v-10.8h-28.4v101.7h30.4v-55.4c0-10.4 2.4-21.3 17.4-21.3 13.6 0 15.9 9.9 15.9 21.1v55.5h30.4v-63.6c0-13.7-3.5-41.5-37.7-41.5z"/><path d="m471.9 32.4c8.4 0 15.4-7 15.4-15.7 0-8.6-6.9-15.7-15.2-15.7h-.1c-9 0-15.6 7.4-15.6 15.7 0 8.5 6.9 15.7 15.5 15.7z"/><path d="m639.9 13.7v31.5 11c-3.3-3.3-11.9-12.1-29.9-12.1-25.8 0-50.4 19.6-50.4 54.1 0 30.6 20.2 54.4 51 54.4 20.5 0 27.9-10.1 30.8-14.3v11h29v-135.6zm-5.5 102.8c-4.8 4.8-11.5 7.7-18.9 7.7-14.3 0-25.5-10.4-25.5-26v-.2c0-11.7 8.2-25.5 25.8-25.5 7.1 0 13.6 2.6 18.1 7.1 4.6 4.4 7.5 10.6 7.5 18 .5 7.5-2.2 14.1-7 18.9z"/></svg>