<svg  xmlns="http://www.w3.org/2000/svg" xmlns:xlink="http://www.w3.org/1999/xlink" viewBox="0 0 48 86" width="48" height="86">
    <g fill="none" fill-rule="evenodd">
        <path fill="#454545" d="M48 0v86l-24-7.478L0 86V0h48zm-1.5 1.545h-45v50.467h45V1.545z"/>
        <path fill="#1A1A1A" fill-rule="nonzero" d="M34.287 8.201c-.025-.27-.234-.476-.492-.476H13.552a.504.504 0 0 0-.492.476l-1.698 21.507a.502.502 0 0 0 .492.554h23.724a.508.508 0 0 0 .492-.554L34.287 8.201zm-11.081 19.64c-3.542 0-6.42-3.632-6.42-8.075a.42.42 0 0 1 .406-.425.42.42 0 0 1 .406.425c0 3.992 2.521 7.238 5.62 7.238 3.1 0 5.62-3.246 5.62-7.238a.42.42 0 0 1 .407-.425.42.42 0 0 1 .405.425c-.024 4.443-2.902 8.075-6.444 8.075zm8.375-8.332a.382.382 0 0 1-.566 0l-1.77-1.855-1.796 1.88a.413.413 0 0 1-.283.129.366.366 0 0 1-.283-.129.425.425 0 0 1 0-.592l2.079-2.177a.39.39 0 0 1 .283-.128c.11 0 .209.038.282.128l2.054 2.151c.16.167.16.425 0 .593z"/>
        <path fill="#000" d="M14.253 15.063h18.505v16.243H14.253z"/>
        <path fill="#3E3E3E" fill-rule="nonzero" d="m37.952 35.31-2.03-25.757a.628.628 0 0 0-.614-.592H12.1c-.32 0-.59.258-.615.592L9.53 35.311c-.025.373.258.695.615.695h27.204c.357 0 .64-.322.603-.695zm-14.746-7.469c-3.542 0-6.42-3.632-6.42-8.075a.42.42 0 0 1 .406-.425.42.42 0 0 1 .406.425c0 3.993 2.521 7.238 5.62 7.238 3.1 0 5.62-3.245 5.62-7.238a.42.42 0 0 1 .407-.425.42.42 0 0 1 .405.425c-.024 4.443-2.902 8.075-6.444 8.075zm8.375-8.332a.382.382 0 0 1-.566 0l-1.77-1.855-1.796 1.88a.415.415 0 0 1-.283.13.369.369 0 0 1-.283-.13.425.425 0 0 1 0-.592l2.079-2.176a.389.389 0 0 1 .283-.13c.11 0 .209.04.282.13l2.054 2.15c.16.168.16.425 0 .593z"/>
        <path fill="#000" fill-rule="nonzero" d="M6.5 58.81c0-.265.044-.526.131-.782.092-.261.223-.493.395-.697.171-.204.38-.369.628-.495s.53-.19.846-.19c.374 0 .696.088.966.263.275.176.478.404.612.685l-.606.446a1.077 1.077 0 0 0-.44-.507.954.954 0 0 0-.274-.104 1.106 1.106 0 0 0-.28-.037c-.199 0-.372.043-.52.129a1.174 1.174 0 0 0-.366.336 1.493 1.493 0 0 0-.218.464 1.819 1.819 0 0 0 .012 1.069c.057.176.137.33.24.465.107.134.232.242.377.324.149.081.31.122.486.122.091 0 .187-.012.286-.037a1.11 1.11 0 0 0 .531-.317c.076-.086.137-.188.183-.306l.646.397a1.321 1.321 0 0 1-.28.434 1.762 1.762 0 0 1-.406.312c-.148.085-.309.15-.48.195-.171.045-.34.067-.503.067-.29 0-.554-.065-.794-.195s-.448-.3-.623-.507a2.53 2.53 0 0 1-.406-.715 2.45 2.45 0 0 1-.143-.82zm5.53 2.26c-.244 0-.463-.044-.657-.134a1.55 1.55 0 0 1-.498-.36 1.686 1.686 0 0 1-.308-.532c-.073-.2-.109-.41-.109-.63 0-.223.036-.435.109-.635.072-.2.175-.374.308-.525a1.497 1.497 0 0 1 1.155-.501c.244 0 .46.045.651.134.195.09.359.212.492.367.137.15.242.326.314.525.073.2.109.412.109.636 0 .22-.036.43-.109.63a1.676 1.676 0 0 1-.308.53 1.454 1.454 0 0 1-.492.361c-.194.09-.413.135-.657.135zm-.783-1.655c0 .142.019.273.057.391.042.114.097.214.166.3a.82.82 0 0 0 .251.201.715.715 0 0 0 .309.067c.11 0 .213-.022.309-.067a.744.744 0 0 0 .245-.202.872.872 0 0 0 .166-.305c.042-.118.063-.249.063-.391 0-.139-.021-.267-.063-.385a.886.886 0 0 0-.166-.306.688.688 0 0 0-.245-.195.66.66 0 0 0-.31-.074.666.666 0 0 0-.308.074.82.82 0 0 0-.251.201 1.042 1.042 0 0 0-.223.691zm4.706-.898c-.232.004-.44.053-.623.146a.8.8 0 0 0-.394.41v1.937h-.766v-3.202h.703v.684a1.34 1.34 0 0 1 .189-.293c.072-.09.15-.167.234-.232.084-.066.168-.114.251-.147a.649.649 0 0 1 .252-.055h.091c.023 0 .044.002.063.006v.746zm1.722 2.554c-.24 0-.457-.043-.651-.128-.194-.09-.36-.21-.497-.361a1.62 1.62 0 0 1-.32-.525c-.073-.2-.109-.41-.109-.63 0-.228.036-.442.109-.642a1.554 1.554 0 0 1 .811-.898c.198-.09.42-.134.663-.134.244 0 .461.045.652.134a1.511 1.511 0 0 1 .8.886 1.828 1.828 0 0 1 .103.776c0 .05-.004.09-.012.123H16.91c.011.126.04.238.085.336.046.097.105.18.177.25a.77.77 0 0 0 .532.214.848.848 0 0 0 .429-.116.63.63 0 0 0 .28-.318l.657.196c-.11.244-.288.446-.532.605-.24.154-.527.232-.863.232zm.778-1.931a.864.864 0 0 0-.252-.575.72.72 0 0 0-.531-.22c-.103 0-.2.02-.292.062a.733.733 0 0 0-.234.158.893.893 0 0 0-.172.251 1.011 1.011 0 0 0-.074.324h1.555zm4.537 1.93c-.236 0-.442-.054-.617-.164a1.184 1.184 0 0 1-.412-.458v1.863h-.766v-4.503h.669v.55c.11-.188.253-.334.429-.44.175-.11.377-.165.605-.165a1.305 1.305 0 0 1 1 .489c.126.146.224.321.292.525.073.2.109.412.109.636 0 .232-.033.45-.097.654-.065.203-.157.38-.275.531-.114.15-.251.269-.411.355-.16.085-.336.128-.526.128zm-.257-.696a.624.624 0 0 0 .314-.08.75.75 0 0 0 .252-.213c.068-.09.121-.194.16-.312a1.187 1.187 0 0 0-.006-.739.924.924 0 0 0-.177-.306.789.789 0 0 0-.589-.275.647.647 0 0 0-.223.043.709.709 0 0 0-.211.11 1.063 1.063 0 0 0-.178.171.787.787 0 0 0-.114.214v.752c.069.183.174.336.315.458.14.118.293.177.457.177zm2.96.697c-.146 0-.281-.025-.407-.073a1.044 1.044 0 0 1-.325-.214 1.087 1.087 0 0 1-.218-.324 1.055 1.055 0 0 1-.074-.403.943.943 0 0 1 .354-.746c.115-.09.25-.159.406-.208.156-.053.328-.08.515-.08.133 0 .262.013.388.037.13.025.244.06.343.104v-.183c0-.212-.057-.375-.171-.489-.11-.114-.277-.17-.498-.17-.16 0-.316.03-.468.09a2.13 2.13 0 0 0-.469.27l-.234-.52c.385-.273.8-.41 1.246-.41.43 0 .764.115 1 .343.24.224.36.55.36.978v.996c0 .085.013.146.04.183.03.037.078.057.143.061v.697a1.64 1.64 0 0 1-.337.043.502.502 0 0 1-.338-.104.464.464 0 0 1-.142-.275l-.018-.178a1.319 1.319 0 0 1-1.097.575zm.216-.599c.13 0 .252-.024.366-.073a.667.667 0 0 0 .274-.196c.084-.07.126-.146.126-.232v-.367a1.61 1.61 0 0 0-.297-.085 1.356 1.356 0 0 0-.309-.037.769.769 0 0 0-.486.147.431.431 0 0 0-.188.36c0 .139.05.255.148.349.1.09.221.134.366.134zm4.088-1.955c-.232.004-.44.053-.623.146a.8.8 0 0 0-.394.41v1.937h-.766v-3.202h.703v.684c.053-.11.116-.208.188-.293.073-.09.15-.167.235-.232a.994.994 0 0 1 .251-.147.649.649 0 0 1 .252-.055h.091c.023 0 .044.002.063.006v.746zm2.279 2.328a3.155 3.155 0 0 1-.377.146c-.149.05-.305.074-.469.074-.107 0-.208-.014-.303-.043a.72.72 0 0 1-.246-.134.73.73 0 0 1-.165-.245.961.961 0 0 1-.063-.367v-1.839h-.395v-.63h.395V56.77h.766v1.039h.628v.63h-.628v1.564c0 .114.026.195.08.244a.32.32 0 0 0 .205.067.66.66 0 0 0 .235-.043c.076-.028.137-.053.183-.073l.154.648zm3.24.165h-.767v-1.797c0-.256-.042-.444-.125-.562a.404.404 0 0 0-.349-.177.61.61 0 0 0-.234.049.86.86 0 0 0-.229.14 1.088 1.088 0 0 0-.189.208.838.838 0 0 0-.125.269v1.87h-.766v-3.202h.691v.592c.11-.203.27-.362.48-.476.21-.114.446-.171.71-.171.186 0 .338.036.456.11.119.073.21.169.275.287.065.118.108.253.131.403.027.151.04.304.04.459v1.998zm2.111.06c-.24 0-.457-.042-.651-.127-.195-.09-.36-.21-.498-.361a1.638 1.638 0 0 1-.32-.525c-.072-.2-.108-.41-.108-.63 0-.228.036-.442.108-.642a1.557 1.557 0 0 1 .812-.898c.198-.09.419-.134.663-.134.244 0 .46.045.651.134a1.511 1.511 0 0 1 .801.886 1.828 1.828 0 0 1 .102.776c0 .05-.003.09-.011.123h-2.315c.012.126.04.238.086.336.046.097.105.18.177.25a.76.76 0 0 0 .532.214.842.842 0 0 0 .428-.116.63.63 0 0 0 .28-.318l.658.196c-.11.244-.288.446-.532.605-.24.154-.528.232-.863.232zm.777-1.93a.859.859 0 0 0-.251-.575.721.721 0 0 0-.532-.22c-.102 0-.2.02-.291.062a.712.712 0 0 0-.234.158.893.893 0 0 0-.172.251.961.961 0 0 0-.074.324h1.554zm3.096-.623c-.232.004-.44.053-.623.146a.8.8 0 0 0-.394.41v1.937h-.766v-3.202h.703v.684c.053-.11.116-.208.188-.293.073-.09.15-.167.235-.232a.994.994 0 0 1 .251-.147.649.649 0 0 1 .252-.055h.091c.023 0 .044.002.063.006v.746z"/>
        <path fill="#565656" d="m7.95 43.72 1.029-2.516h.92l-1.95 4.113L6 41.204h.92l1.03 2.517zm2.653.367c0 .166.033.299.099.388.065.088.17.133.317.133a.486.486 0 0 0 .362-.139.545.545 0 0 0 .137-.382v-1.553h.711v2.55h-.711v-.393a.86.86 0 0 1-.302.327.845.845 0 0 1-.465.122c-.296 0-.52-.083-.668-.25-.148-.166-.22-.41-.22-.726v-1.63h.74v1.553zm2.862-.122c.027.205.11.36.24.46.132.1.29.15.472.15a.63.63 0 0 0 .355-.09.647.647 0 0 0 .225-.26l.602.222c-.076.139-.164.26-.262.36a.955.955 0 0 1-.378.244 1.572 1.572 0 0 1-.575.089c-.263 0-.499-.055-.707-.172a1.246 1.246 0 0 1-.487-.471c-.12-.2-.175-.433-.175-.688 0-.044 0-.094.005-.138a.6.6 0 0 1 .017-.139 1.18 1.18 0 0 1 .432-.76c.236-.193.531-.293.893-.293.246 0 .465.055.657.16.192.106.34.256.449.444.11.194.164.427.164.693v.083c0 .034-.005.067-.01.106h-1.917zm.016-.455h1.216a.625.625 0 0 0-.186-.366.572.572 0 0 0-.4-.133.644.644 0 0 0-.416.133.57.57 0 0 0-.214.366zm4.516.222c.126.244.262.432.41.56a.778.778 0 0 0 .542.194c.17 0 .302-.039.39-.117a.437.437 0 0 0 .136-.338.42.42 0 0 0-.115-.305 1.035 1.035 0 0 0-.301-.205c-.126-.055-.263-.116-.405-.172a2.145 2.145 0 0 1-.318-.144 1.45 1.45 0 0 1-.334-.222.979.979 0 0 1-.263-.332.996.996 0 0 1-.104-.472.93.93 0 0 1 .164-.548c.11-.156.258-.283.455-.372a1.55 1.55 0 0 1 .663-.133c.251 0 .47.044.651.128.175.088.323.194.438.321.11.133.192.26.247.394l-.603.366a1.417 1.417 0 0 0-.284-.372.627.627 0 0 0-.417-.144.603.603 0 0 0-.366.105.354.354 0 0 0-.132.289c0 .1.038.188.126.255.082.072.192.133.323.188.132.056.28.111.433.167.164.06.317.138.465.238.148.1.269.222.362.377.093.155.142.35.142.571 0 .377-.126.665-.367.87-.246.206-.58.305-1.007.305-.23 0-.439-.038-.636-.127s-.372-.21-.52-.366a1.51 1.51 0 0 1-.345-.56l.57-.4zm2.987-2.085h.69v.887h.438v.61h-.438v1.94h-.69v-1.94h-.432v-.61h.432v-.887zm2.059 2.162c0 .217.06.388.191.522.132.133.29.2.477.2a.63.63 0 0 0 .47-.2.707.707 0 0 0 .198-.522.704.704 0 0 0-.197-.52c-.132-.134-.285-.2-.471-.2s-.345.066-.477.2c-.131.132-.191.304-.191.52zm-.729 0c0-.266.06-.499.181-.698.12-.2.29-.355.498-.466.209-.11.45-.166.718-.166.263 0 .504.055.717.166.208.111.378.266.499.466.12.2.186.432.186.698a1.265 1.265 0 0 1-.685 1.165c-.213.11-.454.166-.717.166-.269 0-.51-.055-.718-.166a1.27 1.27 0 0 1-.498-.466 1.33 1.33 0 0 1-.18-.699zm4.766-.52a.835.835 0 0 0-.148-.106.444.444 0 0 0-.181-.039.343.343 0 0 0-.307.16c-.07.106-.104.25-.104.433v1.348h-.7v-2.55h.7v.315a.93.93 0 0 1 .274-.271.598.598 0 0 1 .329-.1c.087 0 .175.016.262.05a.446.446 0 0 1 .198.15l-.323.61zm1.15.676c.027.205.109.36.24.46.132.1.29.15.471.15a.632.632 0 0 0 .356-.09.647.647 0 0 0 .225-.26l.602.222c-.077.139-.164.26-.263.36a.934.934 0 0 1-.378.244 1.568 1.568 0 0 1-.575.089c-.262 0-.498-.055-.706-.172a1.246 1.246 0 0 1-.487-.471c-.12-.2-.176-.433-.176-.688 0-.044 0-.094.006-.138a.6.6 0 0 1 .016-.139c.05-.31.192-.565.433-.76.235-.193.531-.293.893-.293.246 0 .465.055.657.16.191.106.34.256.449.444.11.194.164.427.164.693v.083c0 .034-.005.067-.01.106h-1.918zm.016-.455h1.216a.62.62 0 0 0-.187-.366.57.57 0 0 0-.4-.133.646.646 0 0 0-.416.133.565.565 0 0 0-.213.366zm3.75-2.023a.31.31 0 0 0-.257-.145.218.218 0 0 0-.192.1c-.05.067-.071.172-.071.316v.776h.596v.61h-.596v1.94h-.696v-1.94h-.296v-.61h.296v-.942c0-.288.071-.51.225-.671.153-.155.372-.238.662-.238.165 0 .296.033.395.088.098.061.18.117.235.172l-.301.544zm1.934 1.801a.881.881 0 0 0-.148-.105.443.443 0 0 0-.18-.039.34.34 0 0 0-.307.16c-.072.106-.104.25-.104.433v1.348h-.701v-2.55h.7v.315a.93.93 0 0 1 .274-.271.598.598 0 0 1 .329-.1c.088 0 .175.016.263.05a.443.443 0 0 1 .197.15l-.323.61zm1.172.521c0 .217.06.388.191.522.132.133.29.2.477.2a.63.63 0 0 0 .47-.2.707.707 0 0 0 .198-.522.704.704 0 0 0-.197-.52c-.132-.134-.285-.2-.471-.2s-.345.066-.477.2c-.131.132-.191.304-.191.52zm-.729 0c0-.266.06-.499.181-.698.12-.2.29-.355.498-.466.208-.11.45-.166.718-.166.263 0 .504.055.717.166.208.111.378.266.498.466s.187.432.187.698c0 .267-.066.5-.187.699-.12.2-.29.355-.498.466-.213.11-.454.166-.717.166-.269 0-.51-.055-.718-.166a1.27 1.27 0 0 1-.498-.466 1.33 1.33 0 0 1-.18-.699zm4.957-.277c0-.166-.033-.294-.099-.382-.065-.089-.17-.139-.317-.139a.508.508 0 0 0-.362.139.517.517 0 0 0-.136.382v1.553h-.718v-2.55h.718v.387a.8.8 0 0 1 .3-.321.863.863 0 0 1 .46-.122c.296 0 .515.083.663.25.148.166.225.41.225.726v1.63h-.734v-1.553zm1.542-1.885h.69v.887H42v.61h-.438v1.94h-.69v-1.94h-.433v-.61h.433v-.887z"/>
        <path fill="#2B2B2B" fill-rule="nonzero" d="M1.5 74.349 24 67.976l22.5 6.373v6.501L24 74.349 1.5 80.85z"/>
    </g>
</svg>