<svg xmlns="http://www.w3.org/2000/svg" xmlns:xlink="http://www.w3.org/1999/xlink"  viewBox="0 0 162 20" width="162" height="20">
    <path fill="#454545" fill-rule="evenodd" d="M145.208.33h5.62v9.98l4.107-4.646h6.768l-5.146 4.91 5.443 9.11h-6.2l-2.905-5.624-2.067 1.98v3.644h-5.62V.33zm-8.312 12.7a25.91 25.91 0 0 1-2.365.699c-1.116.291-1.824.578-2.12.859-.307.29-.46.62-.46.99 0 .422.15.767.452 1.037.302.268.747.402 1.332.402a3.49 3.49 0 0 0 1.71-.437c.525-.29.899-.644 1.119-1.061.221-.42.332-.962.332-1.632v-.857zm-4.77-2.825-5.254-.541c.198-.898.484-1.605.858-2.12.373-.514.912-.961 1.614-1.339.504-.273 1.198-.485 2.08-.634a17.12 17.12 0 0 1 2.864-.224c1.648 0 2.973.09 3.972.27 1 .18 1.833.557 2.5 1.13.468.395.837.956 1.108 1.683.27.725.405 1.418.405 2.079V16.7c0 .66.042 1.177.128 1.55.085.375.273.853.56 1.434h-5.16c-.207-.361-.342-.636-.406-.825a6.156 6.156 0 0 1-.189-.891c-.72.677-1.436 1.161-2.148 1.451-.972.387-2.103.581-3.391.581-1.71 0-3.01-.387-3.896-1.161-.888-.775-1.332-1.73-1.332-2.865 0-1.065.32-1.94.959-2.627.64-.687 1.82-1.197 3.54-1.53 2.063-.406 3.4-.69 4.013-.853.611-.162 1.26-.376 1.945-.64 0-.66-.14-1.122-.42-1.387-.278-.263-.768-.396-1.471-.396-.901 0-1.577.141-2.027.423-.351.22-.635.634-.852 1.24zm-13.66 9.479h5.497V5.664h-5.497v14.02zm0-15.697h5.497V.33h-5.497v3.657zm-18.297 1.677h5.12v2.284c.765-.934 1.54-1.6 2.324-2.001.783-.4 1.737-.6 2.864-.6 1.522 0 2.713.442 3.574 1.326.859.884 1.29 2.251 1.29 4.1v8.91h-5.527v-7.71c0-.88-.167-1.502-.499-1.867-.333-.366-.802-.548-1.405-.548-.667 0-1.208.247-1.621.74-.414.492-.621 1.376-.621 2.653v6.733h-5.499V5.664zm-8.313 7.366c-.756.264-1.544.498-2.363.699-1.117.291-1.823.578-2.122.859-.305.29-.458.62-.458.99 0 .422.15.767.452 1.037.302.268.745.402 1.33.402.613 0 1.183-.146 1.709-.437.528-.29.9-.644 1.122-1.061.222-.42.33-.962.33-1.632v-.857zm-4.767-2.825-5.256-.541c.197-.898.484-1.605.858-2.12.374-.514.912-.961 1.614-1.339.504-.273 1.198-.485 2.081-.634.882-.15 1.837-.224 2.863-.224 1.65 0 2.973.09 3.972.27 1 .18 1.833.557 2.5 1.13.468.395.837.956 1.107 1.683.27.725.406 1.418.406 2.079V16.7c0 .66.042 1.177.129 1.55.085.375.272.853.56 1.434h-5.161c-.207-.361-.342-.636-.406-.825a6.296 6.296 0 0 1-.189-.891c-.719.677-1.436 1.161-2.148 1.451-.973.387-2.103.581-3.39.581-1.712 0-3.01-.387-3.899-1.161-.886-.775-1.329-1.73-1.329-2.865 0-1.065.319-1.94.959-2.627.639-.687 1.82-1.197 3.539-1.53 2.063-.406 3.4-.69 4.012-.853a18.621 18.621 0 0 0 1.945-.64c0-.66-.138-1.122-.418-1.387-.28-.263-.77-.396-1.473-.396-.9 0-1.575.141-2.025.423-.352.22-.636.634-.851 1.24zM54.81 5.664h5.133V7.71c.739-.854 1.485-1.461 2.237-1.822.751-.36 1.658-.54 2.722-.54 1.144 0 2.048.197 2.715.593.666.396 1.211.985 1.635 1.77.864-.917 1.652-1.54 2.363-1.87.712-.33 1.59-.494 2.635-.494 1.54 0 2.742.446 3.607 1.34.864.893 1.297 2.29 1.297 4.191v8.806h-5.512v-7.988c0-.633-.126-1.105-.379-1.412-.368-.484-.827-.726-1.377-.726-.648 0-1.17.228-1.567.687-.396.457-.595 1.191-.595 2.205v7.234h-5.512V11.96c0-.616-.036-1.035-.108-1.255a1.703 1.703 0 0 0-.607-.85 1.639 1.639 0 0 0-1.014-.324c-.63 0-1.148.233-1.553.7-.406.465-.608 1.232-.608 2.297v7.155H54.81V5.664zm-13.297 7.035c0 1.25.259 2.175.776 2.773.519.6 1.17.898 1.952.898.793 0 1.444-.294 1.953-.884.509-.59.764-1.536.764-2.839 0-1.215-.258-2.12-.77-2.713-.514-.593-1.149-.89-1.906-.89-.8 0-1.464.3-1.986.903s-.783 1.521-.783 2.752zm-5.512.014c0-2.138.739-3.901 2.216-5.287 1.476-1.386 3.472-2.079 5.985-2.079 2.872 0 5.042.814 6.511 2.442 1.18 1.31 1.77 2.926 1.77 4.845 0 2.156-.732 3.923-2.196 5.3C48.823 19.312 46.8 20 44.215 20c-2.306 0-4.17-.571-5.592-1.716C36.875 16.867 36 15.01 36 12.714zm-3.138-7.05h2.621v3.935h-2.621v10.086H27.35V9.598h-2.053V5.664h2.053V5.03c0-.572.064-1.201.189-1.888.126-.686.362-1.247.71-1.683.346-.436.832-.788 1.459-1.056C30.334.134 31.25 0 32.458 0c.963 0 2.363.11 4.201.33l-.608 3.248c-.657-.106-1.189-.158-1.594-.158-.495 0-.85.08-1.067.243-.217.163-.37.42-.46.773-.044.193-.067.602-.067 1.228zm-24.213 0h5.12v2.285c.766-.934 1.54-1.6 2.324-2.001.783-.4 1.738-.6 2.864-.6 1.522 0 2.713.442 3.573 1.326.86.884 1.29 2.251 1.29 4.1v8.91h-5.524v-7.71c0-.88-.168-1.502-.5-1.867-.334-.366-.802-.548-1.406-.548-.666 0-1.206.247-1.621.74-.414.492-.621 1.376-.621 2.653v6.733H8.65V5.664zM0 19.684h5.499V5.664H0v14.02zM0 3.988h5.499V.33H0v3.657z"/>
</svg>