<svg xmlns="http://www.w3.org/2000/svg" width="85" height="85">
    <defs><linearGradient id="a" x1="6.395%" x2="83.34%" y1="6.575%" y2="86.25%"><stop offset="0%" stop-color="#0098C7"/><stop offset="100%" stop-color="#0DE9C9"/></linearGradient></defs><path d="M27.587 74.037c8.67 8.668 22.753 8.671 31.411.015.64-.641 1.794-.646 2.442-.015.692.692.692 1.794.014 2.471-4.842 4.842-11.29 7.509-18.153 7.509-6.866 0-13.314-2.667-18.156-7.509-.644-.644-.644-1.81 0-2.456.684-.666 1.774-.666 2.442-.015zm26.593-8.192c.44 0 .92.2 1.23.51.31.31.51.789.51 1.228 0 .43-.194.904-.496 1.213A17.025 17.025 0 0143.3 73.82c-4.578 0-8.88-1.78-12.11-5.01-.312-.312-.487-.796-.483-1.237.001-.442.181-.925.497-1.232.312-.304.85-.519 1.226-.496.459.004.908.194 1.23.524 5.312 5.31 13.971 5.308 19.294-.015a1.832 1.832 0 011.053-.498l.165-.01h.008zM51.51 1.472c11.83 0 21.455 9.624 21.455 21.456 0 .755-.048 1.511-.134 2.285C79.632 27.283 84.6 33.61 84.6 41.08c0 .172-.055.334-.108.494-.264 8.871-7.546 16.011-16.48 16.011H20.155C10.145 57.585 2 49.441 2 39.43c0-8.131 5.46-15.258 13.168-17.455.49-6.883 6.233-12.334 13.237-12.334 1.933 0 3.765.424 5.424 1.17C37.81 5.013 44.44 1.47 51.51 1.47zm0 3.304c-5.919 0-11.448 2.957-14.83 7.774 3.05 2.437 5.01 6.18 5.01 10.378 0 .912-.82 1.733-1.732 1.733-.914 0-1.735-.821-1.735-1.733 0-5.414-4.404-9.818-9.818-9.818-5.413 0-9.817 4.404-9.817 9.818 0 .119-.048.23-.075.343a1.648 1.648 0 01-1.316 1.605c-6.893 1.39-11.893 7.513-11.893 14.554 0 8.189 6.66 14.851 14.85 14.851h47.858c7.176 0 13.02-5.757 13.185-12.894-.022-.102-.066-.2-.066-.307 0-7.232-5.886-13.119-13.119-13.119-.912 0-1.735-.82-1.735-1.732 0-.914.823-1.735 1.735-1.735.529 0 1.05.03 1.568.08.053-.557.08-1.104.08-1.646 0-10.01-8.142-18.152-18.15-18.152z" fill="url(#a)" fill-rule="evenodd"/>
</svg>
