<svg xmlns="http://www.w3.org/2000/svg" width="86" height="85" fill="#ff9c00">
    <path d="M68.209 7.23c3.305 0 6.023 2.636 6.142 5.904l.004.223v12.18c0 3.294-2.644 6.004-5.922 6.123l-.224.004H45.007v5.438h23.202c3.305 0 6.023 2.636 6.142 5.904l.004.224v12.179c0 3.295-2.644 6.004-5.922 6.123l-.224.004H45.007V75.4h25.968c.845 0 1.536.69 1.536 1.532 0 .796-.616 1.455-1.397 1.526l-.14.006H15.966c-.845 0-1.536-.69-1.536-1.532 0-.796.616-1.455 1.397-1.526l.14-.006h25.967V61.536H18.731c-3.305 0-6.023-2.636-6.142-5.904l-.004-.223v-12.18c0-3.295 2.644-6.004 5.922-6.123l.224-.004h23.202v-5.438H18.731c-3.305 0-6.023-2.636-6.142-5.904l-.004-.224V13.357c0-3.295 2.644-6.004 5.922-6.123l.224-.004h49.478zm0 32.936H18.731a3.08 3.08 0 00-3.068 2.884l-.005.18v12.179a3.078 3.078 0 002.893 3.058l.18.005h49.478a3.08 3.08 0 003.068-2.884l.005-.18V43.23a3.078 3.078 0 00-3.073-3.064zm-41.104 3.217c3.304 0 5.993 2.68 5.993 5.974s-2.689 5.975-5.993 5.975c-3.303 0-5.992-2.68-5.992-5.975 0-3.293 2.689-5.974 5.992-5.974zm0 2.987a2.914 2.914 0 00-2.92 2.91 2.914 2.914 0 002.92 2.911 2.914 2.914 0 002.92-2.91 2.913 2.913 0 00-2.92-2.91zm36.955 1.38c.845 0 1.537.69 1.537 1.532a1.54 1.54 0 01-1.537 1.532H40.09c-.846 0-1.537-.69-1.537-1.532 0-.843.691-1.532 1.537-1.532zm4.149-37.455H18.731a3.08 3.08 0 00-3.068 2.884l-.005.18v12.178a3.078 3.078 0 002.893 3.059l.18.005h49.478a3.08 3.08 0 003.068-2.885l.005-.179v-12.18a3.077 3.077 0 00-3.073-3.063zm-41.104 3.14c3.304 0 5.993 2.68 5.993 5.975 0 3.293-2.689 5.974-5.993 5.974-3.303 0-5.992-2.68-5.992-5.974s2.689-5.975 5.992-5.975zm0 3.064a2.914 2.914 0 00-2.92 2.91 2.914 2.914 0 002.92 2.911 2.914 2.914 0 002.92-2.91 2.914 2.914 0 00-2.92-2.911zm36.955 1.379c.845 0 1.537.689 1.537 1.532a1.54 1.54 0 01-1.397 1.525l-.14.006H40.09a1.538 1.538 0 01-1.537-1.531 1.54 1.54 0 011.397-1.526l.14-.006h23.97z" fill-rule="evenodd"/>
</svg>
