<svg xmlns="http://www.w3.org/2000/svg" width="86" height="85">
    <defs><linearGradient id="a" x1="6.395%" x2="83.34%" y1="19.211%" y2="75.701%"><stop offset="0%" stop-color="#0098C7"/><stop offset="100%" stop-color="#0DE9C9"/></linearGradient></defs><path d="M74.538 47.614V32.248c3.594.729 6.308 3.897 6.308 7.684 0 3.686-2.573 6.787-6.026 7.62l-.282.062zm-3.153 18.977c0 1.73-1.415 3.136-3.154 3.136a3.148 3.148 0 01-3.154-3.136V13.273c0-1.73 1.414-3.137 3.154-3.137s3.154 1.407 3.154 3.137V66.59zM54.038 55.614H35.842V24.25h18.196c3.087 0 5.88-1.267 7.885-3.303v37.968a11.036 11.036 0 00-7.885-3.301zm-15.769 9.25V58.75h6.149c-.608 2.968-2.909 5.333-5.852 6.048l-.297.066zm-3.154 6.431c0 .865-.708 1.569-1.577 1.569h-6.307c-.815 0-1.488-.62-1.569-1.409l-.008-.16c0-.06-.003-.116-.01-.174L24.261 58.75h10.854v12.545zM5.154 39.932c0-8.649 7.074-15.682 15.77-15.682h11.764v31.364H20.923c-8.57 0-15.567-6.836-15.765-15.313l-.004-.37zM68.23 7c3.391 0 6.166 2.674 6.302 6.015l.005.258V29.08C79.88 29.844 84 34.412 84 39.932c0 5.41-3.96 9.907-9.149 10.802l-.313.05V66.59c0 3.458-2.829 6.273-6.307 6.273-3.392 0-6.166-2.676-6.303-6.015l-.005-.258c0-4.232-3.388-7.691-7.608-7.836l-.277-.005h-6.433c-.68 4.688-4.34 8.42-9.008 9.232l-.328.052v3.261c0 2.516-1.996 4.577-4.495 4.7l-.236.005h-6.307c-2.496 0-4.547-1.932-4.72-4.371l-.011-.238-1.411-12.641h-.166C10.49 58.75 2 50.307 2 39.932c0-10.252 8.285-18.615 18.547-18.815l.376-.003h33.115c4.256 0 7.734-3.371 7.88-7.567l.005-.274c0-3.46 2.83-6.273 6.308-6.273zM20.695 27.224c-6.376 0-11.565 5.192-11.565 11.576 0 .794.716 1.51 1.509 1.51.793 0 1.508-.716 1.508-1.51 0-4.718 3.834-8.557 8.548-8.557.793 0 1.508-.716 1.508-1.51 0-.793-.715-1.51-1.508-1.51z" fill="url(#a)" fill-rule="evenodd"/>
</svg>
