<svg xmlns="http://www.w3.org/2000/svg" width="85" height="85">
    <defs><linearGradient id="a" x1="6.395%" x2="83.34%" y1="19.355%" y2="75.582%"><stop offset="0%" stop-color="#0098C7"/><stop offset="100%" stop-color="#0DE9C9"/></linearGradient></defs><path d="M75.249 8c4.168 0 7.568 3.264 7.744 7.355l.007.334v21.713c0 4.135-3.29 7.507-7.415 7.682l-.336.007H59.094a18.293 18.293 0 01.169 16.688l-.272.525 4.499 4.462a5.387 5.387 0 010 7.65A5.445 5.445 0 0159.635 76a5.44 5.44 0 01-3.612-1.357l-.244-.227-4.497-4.463a18.689 18.689 0 01-8.782 2.185c-10.307 0-18.692-8.32-18.692-18.546 0-2.86.666-5.565 1.839-7.987l.259-.514H9.75c-4.168 0-7.568-3.263-7.744-7.355L2 37.402V15.69c0-4.134 3.29-7.507 7.415-7.682L9.75 8h65.5zM57.253 64.95l-.055.063a18.824 18.824 0 01-2.682 2.754l-.56.455 4.026 4.009c.883.874 2.422.874 3.305 0a2.306 2.306 0 00.16-3.102l-.16-.176-4.034-4.003zM42.5 38.138c-8.59 0-15.577 6.931-15.577 15.454 0 8.522 6.988 15.455 15.577 15.455 3.052 0 5.893-.889 8.298-2.4a15.639 15.639 0 004.863-4.825 15.251 15.251 0 002.416-8.23c0-8.523-6.988-15.454-15.577-15.454zm0 3.09c6.871 0 12.462 5.546 12.462 12.363 0 6.817-5.591 12.364-12.462 12.364-6.871 0-12.462-5.547-12.462-12.364 0-6.817 5.591-12.364 12.462-12.364zm0 3.09c-5.154 0-9.346 4.16-9.346 9.273 0 5.114 4.192 9.273 9.346 9.273s9.346-4.159 9.346-9.273-4.192-9.273-9.346-9.273zm32.749-33.227H9.75c-2.465 0-4.486 1.918-4.628 4.328l-.008.27v21.713c0 2.444 1.934 4.45 4.364 4.59L9.75 42h18.18c3.43-4.233 8.682-6.953 14.569-6.953a18.71 18.71 0 0114.232 6.548l.337.405h18.18c2.465 0 4.486-1.918 4.628-4.328l.008-.27V15.69c0-2.444-1.934-4.45-4.364-4.59l-.272-.008zM49.433 21.569a1.714 1.714 0 012.28-.743 1.703 1.703 0 01.854 2.105l-.073.17-4.233 8.4c-.09.18-.219.34-.371.473-.122.118-.26.22-.396.286-.237.12-.501.181-.766.181a1.88 1.88 0 01-.767-.18 1.634 1.634 0 01-.41-.296 1.681 1.681 0 01-.236-.263l-.095-.153-2.72-5.395-2.695 5.348a1.53 1.53 0 01-.369.47 1.602 1.602 0 01-.397.288 1.825 1.825 0 01-1.533 0 1.671 1.671 0 01-.405-.29c-.09-.08-.17-.168-.24-.267l-.096-.154-4.254-8.438a1.7 1.7 0 01.766-2.28 1.736 1.736 0 012.21.601l.09.159 2.696 5.347 2.694-5.347c.081-.161.198-.316.337-.446.126-.126.274-.238.43-.315a1.584 1.584 0 01.578-.157l.126-.009.179.004c.226.008.447.063.65.162.14.071.275.167.392.28.1.086.187.183.261.29l.102.167 2.706 5.37 2.705-5.368zm-21.14 0a1.716 1.716 0 012.269-.749 1.709 1.709 0 01.865 2.112l-.072.17L27.12 31.5c-.092.18-.22.341-.371.473-.121.117-.26.22-.396.287-.238.118-.501.18-.766.18-.243 0-.551-.073-.768-.18a1.697 1.697 0 01-.41-.296 1.68 1.68 0 01-.235-.263l-.095-.152-2.72-5.396-2.696 5.347c-.09.18-.218.341-.37.473-.122.117-.26.22-.396.287a1.829 1.829 0 01-1.533 0 1.664 1.664 0 01-.411-.296 1.585 1.585 0 01-.235-.263l-.096-.152-4.252-8.438a1.7 1.7 0 01.766-2.28c.825-.389 1.748-.116 2.208.6l.091.16 2.695 5.345 2.695-5.346c.083-.162.201-.316.338-.446a1.616 1.616 0 01.633-.397c.121-.04.247-.065.375-.076l.126-.009.18.006c.225.008.448.062.649.162.138.07.272.164.388.275.1.087.189.184.264.292l.102.169 2.707 5.37 2.706-5.369zm42.27.022a1.72 1.72 0 012.095-.846l.205.086a1.7 1.7 0 01.844 2.1l-.073.17-4.232 8.4c-.09.18-.217.34-.37.471a1.564 1.564 0 01-.397.289c-.236.117-.501.18-.766.18-.242 0-.552-.073-.766-.18a1.727 1.727 0 01-.405-.29c-.09-.08-.17-.169-.24-.267l-.097-.154-2.721-5.397-2.693 5.348c-.092.18-.219.34-.371.471a1.6 1.6 0 01-.397.289 1.825 1.825 0 01-1.533 0 1.727 1.727 0 01-.405-.29c-.09-.08-.17-.169-.24-.267l-.097-.154-4.254-8.438a1.702 1.702 0 01.767-2.281c.827-.388 1.748-.115 2.209.6l.091.16 2.695 5.347 2.695-5.347c.081-.162.2-.317.338-.445.126-.128.273-.238.428-.315a1.58 1.58 0 01.578-.159l.126-.008.152.002.028.003c.225.007.448.063.65.162.138.07.272.164.387.275.1.086.189.184.264.292l.104.17 2.707 5.37 2.693-5.347z" fill="url(#a)" fill-rule="evenodd"/>
</svg>
