<svg xmlns="http://www.w3.org/2000/svg" width="86" height="85">
    <defs><linearGradient id="a" x1="6.395%" x2="83.34%" y1="6.523%" y2="86.293%"><stop offset="0%" stop-color="#0098C7"/><stop offset="100%" stop-color="#0DE9C9"/></linearGradient></defs><path d="M74.363 8.074a1.387 1.387 0 011.433.338c.376.375.506.93.338 1.432l-2.061 6.185c-.07.207-.185.395-.339.548L51.756 38.555l21.683 21.683a8.567 8.567 0 012.517 6.097c0 2.31-.895 4.476-2.517 6.1a8.597 8.597 0 01-6.099 2.522 8.596 8.596 0 01-6.098-2.522L39.559 50.752 37.5 52.81a7.187 7.187 0 011.218 4.026c0 1.937-.75 3.752-2.11 5.112L26.316 72.24a10.067 10.067 0 01-7.173 2.96 10.07 10.07 0 01-7.175-2.96c-3.957-3.957-3.957-10.394 0-14.35l10.291-10.292c2.48-2.48 6.328-2.773 9.136-.889l2.061-2.06-5.19-5.19a16.008 16.008 0 01-3.242.337c-4.215 0-8.177-1.64-11.158-4.621a1.484 1.484 0 01-.137-.16A15.692 15.692 0 019.414 21.8a3.771 3.771 0 012.555-3.059 3.779 3.779 0 013.896.916l3.37 3.371a3.395 3.395 0 004.8 0c.636-.637.986-1.49.986-2.398 0-.911-.35-1.763-.987-2.4l-3.371-3.37a3.782 3.782 0 01-.916-3.894 3.782 3.782 0 013.068-2.558c4.96-.707 9.832.92 13.366 4.453l.023.024c3.884 3.9 5.295 9.34 4.25 14.366l5.199 5.2 21.979-21.978c.154-.154.341-.27.547-.339zm-46.991 40.21a4.41 4.41 0 00-3.133 1.295L13.947 59.87c-2.864 2.865-2.864 7.527 0 10.39 2.863 2.864 7.525 2.863 10.39 0l10.291-10.292a4.392 4.392 0 001.29-3.132 4.39 4.39 0 00-1.29-3.133l-4.122-4.124a4.419 4.419 0 00-3.134-1.295zm22.404-7.75l-8.238 8.238 21.684 21.682a5.833 5.833 0 008.237 0 5.783 5.783 0 001.697-4.119c0-1.56-.603-3.022-1.697-4.117L49.776 40.535zM30.472 57.859c.514.513.546 1.41.097 1.97l-.096.107-8.23 8.23c-.263.264-.667.432-1.038.432s-.777-.168-1.04-.431c-.512-.512-.545-1.41-.096-1.97l.097-.108 8.229-8.23c.525-.525 1.553-.525 2.078 0zm35.369 6.977a2.125 2.125 0 012.999 0c.401.4.623.934.623 1.5 0 .57-.222 1.103-.623 1.503-.4.399-.931.62-1.5.62a2.101 2.101 0 01-1.502-.624 2.098 2.098 0 01-.62-1.498c0-.567.221-1.1.623-1.501zm1.5.823a.681.681 0 00-.678.678.678.678 0 10.677-.678zM26.35 53.735c.513.514.545 1.41.096 1.97l-.096.108-8.23 8.23c-.263.262-.667.43-1.04.43-.37 0-.775-.168-1.039-.43-.511-.513-.543-1.41-.096-1.97l.096-.108 8.231-8.23c.546-.547 1.53-.547 2.078 0zm46.243-42.12l-3.216 1.072-22.734 22.735-10.217 10.217-2.95 2.95 1.07 1.072 1.072 1.073L71.52 14.83l1.072-3.216zm-33.085 18.65c-.056.13-.127.254-.186.383-.138.298-.276.596-.434.888-.08.147-.17.287-.255.43-.168.29-.336.58-.525.86-.121.18-.259.352-.387.528-.168.23-.328.46-.51.682a15.88 15.88 0 01-1.03 1.14c-.356.355-.728.693-1.116 1.012a15.666 15.666 0 01-3.793 2.318l4.164 4.164 8.237-8.238zm-5.33-15.445c-2.904-2.89-6.9-4.219-10.97-3.638a.971.971 0 00-.805.672.98.98 0 00.24 1.027l3.37 3.37a6.144 6.144 0 011.808 4.38 6.157 6.157 0 01-1.807 4.38 6.204 6.204 0 01-8.759 0l-3.37-3.373c-.394-.395-.85-.296-1.028-.241a.968.968 0 00-.67.8c-.595 4.168.852 8.297 3.885 11.2l.618.556c.035.033.068.065.1.098 3.457 2.842 8.05 3.617 12.13 2.338.473-.147.931-.319 1.378-.516.075-.032.148-.073.224-.11a13.094 13.094 0 001.428-.781c.278-.175.547-.362.812-.56.122-.09.246-.179.367-.274.37-.298.73-.61 1.072-.952.34-.34.652-.701.95-1.07.099-.123.188-.252.282-.378a13.354 13.354 0 00.808-1.22c.186-.322.358-.653.516-.99.04-.086.086-.168.124-.254.196-.445.37-.903.516-1.373 1.283-4.103.492-8.72-2.387-12.18l-.04-.045z" fill="url(#a)" fill-rule="evenodd"/>
</svg>
