<svg xmlns="http://www.w3.org/2000/svg" viewBox="0 0 803.8 783"><path d="M655.5 516.7c5.6-4 132.5-97.1 67.4-252C666.4 130 596.1 47.5 526 29.9 478.8 18 419.5 35 373.2 66.7L64.5 275.5l77.4 163.3 178.5-126-127.8 231.9L273.3 733l57.3-94.9 41.6 78.7 283.3-200.1zM533.4 325c13.2 28.9 25.7 56.3-23.3 93.3l-91 63.5c-15-27.6-35.4-70-61.4-125L332.8 304c27-19.1 64.9-44.7 64.8-44.6l6.4-4.2c36.5-25.9 45.5-28.8 63.6-25.1 25.1 5.1 48.1 55.3 65.8 94.9zm-29.3 354.8c21.4 0 38.4 17.4 38.4 39.1 0 22-17 39.2-38.6 39.2-21.3 0-38.7-17.2-38.7-39.2 0-21.7 17.4-39.1 38.7-39.1h.2zm-.2 6.1c-17.2 0-31.3 14.8-31.3 33 0 18.6 14.1 33.2 31.4 33.2 17.4.2 31.3-14.6 31.3-33s-13.9-33.2-31.3-33.2h-.1zm-7.3 55.7h-6.9V698c3.7-.5 7.1-1 12.3-1 6.6 0 10.9 1.4 13.5 3.3 2.6 1.9 4 4.9 4 9 0 5.7-3.8 9.2-8.5 10.6v.3c3.9.7 6.4 4.2 7.3 10.6 1.1 6.8 2.1 9.4 2.8 10.8h-7.3c-1-1.4-2.1-5.4-3-11.1-1-5.6-3.8-7.7-9.4-7.7h-4.9v18.8zm0-24.1h5c5.7 0 10.6-2.1 10.6-7.5 0-3.8-2.8-7.6-10.6-7.6-2.2 0-3.8.2-5 .4v14.7z" fill="#9e8b60"/></svg>