<svg xmlns="http://www.w3.org/2000/svg" viewBox="0 0 282.58 43.45"><defs><style>.cls-2{fill:#4d4d4d}.cls-3{fill:#f26322}</style></defs><g id="Layer_2" data-name="Layer 2"><g id="Layer_1-2" data-name="Layer 1"><path fill="none" stroke="#4d4d4d" stroke-miterlimit="10" stroke-width=".75" d="M137.92 0v43.45"/><path class="cls-2" d="M147.73 9.49h2.9l5.31 13.37 5.13-13.37H164v17.16h-2.09V12.2l-5.68 14.45h-.65l-5.93-14.45v14.45h-1.92zm19.36 13.68c0-2.9 3.08-3.89 6.29-3.89h1.8v-.91c0-2-.76-2.83-2.68-2.83-1.73 0-2.69.72-2.89 2.25h-2c.27-2.85 2.55-3.91 5-3.91s4.59 1 4.59 4.49v8.28h-2v-1.58a4.52 4.52 0 0 1-3.91 1.8c-2.35 0-4.2-1.13-4.2-3.7zm8.09-.91V20.7h-1.72c-2.53 0-4.37.62-4.37 2.47 0 1.3.62 2.11 2.37 2.11 2.12 0 3.72-1.08 3.72-3.02zm5.91-8.16h2v2.25a4.38 4.38 0 0 1 4.13-2.47v1.87c-2.52.12-4.13.92-4.13 4v6.89h-2zm9.02-6h2v11.78l5.21-5.78h2.33l-5.38 5.83 5.83 6.72h-2.42l-5.57-6.5v6.5h-2zm10.97 12.41v-.2c0-3.79 2.42-6.43 5.88-6.43 2.9 0 5.64 1.75 5.64 6.24v.65h-9.46c.1 2.86 1.47 4.44 4 4.44 2 0 3.08-.72 3.34-2.18h2c-.43 2.52-2.52 3.84-5.35 3.84-3.53 0-6.05-2.5-6.05-6.36zm9.48-1.35c-.19-2.59-1.54-3.62-3.6-3.62s-3.41 1.39-3.75 3.62zm5.52 4.35v-7.73h-1.8V14.1h1.8v-2.86h2v2.86H221v1.68h-2.93v7.53c0 1.23.55 1.83 1.56 1.83a4.12 4.12 0 0 0 1.54-.27v1.69a4.89 4.89 0 0 1-1.71.26 3 3 0 0 1-3.38-3.31zm8.09-9.41h2v2.11a5.17 5.17 0 0 1 4.25-2.33c3.28 0 5.71 2.4 5.71 6.31v.2c0 3.84-2.26 6.48-5.71 6.48a4.75 4.75 0 0 1-4.25-2.28V31h-2zm9.88 6.38v-.19c0-3.17-1.75-4.75-3.86-4.75-2.33 0-4.1 1.53-4.1 4.75v.19c0 3.22 1.68 4.73 4.12 4.73s3.84-1.68 3.84-4.73zm5.21-12.38h2v18.55h-2zm5.07 15.07c0-2.9 3.07-3.89 6.28-3.89h1.8v-.91c0-2-.76-2.83-2.68-2.83-1.73 0-2.69.72-2.88 2.25h-2c.27-2.85 2.55-3.91 5-3.91s4.59 1 4.59 4.49v8.28h-2v-1.58a4.52 4.52 0 0 1-3.91 1.8c-2.36 0-4.2-1.13-4.2-3.7zm8.08-.91V20.7h-1.72c-2.52 0-4.37.62-4.37 2.47 0 1.3.62 2.11 2.37 2.11 2.12 0 3.72-1.08 3.72-3.02zm4.97-1.75v-.2a6.1 6.1 0 0 1 6.1-6.43c2.61 0 5.06 1.2 5.45 4.39h-2c-.31-2-1.75-2.73-3.48-2.73-2.28 0-4 1.82-4 4.77v.2c0 3.07 1.68 4.7 4.1 4.7a3.39 3.39 0 0 0 3.6-3.07H269a5.25 5.25 0 0 1-5.47 4.73 6 6 0 0 1-6.15-6.36zm13.68 0v-.2c0-3.79 2.43-6.43 5.88-6.43 2.91 0 5.64 1.75 5.64 6.24v.65h-9.45c.09 2.86 1.46 4.44 4 4.44 1.94 0 3.07-.72 3.33-2.18h2c-.44 2.52-2.52 3.84-5.36 3.84-3.52 0-6.04-2.5-6.04-6.36zm9.48-1.35c-.19-2.59-1.53-3.62-3.6-3.62s-3.41 1.39-3.74 3.62z"/><path class="cls-3" d="M15.49 0L0 8.94V26.8l4.42 2.55-.03-17.86 11.07-6.38 11.06 6.38v17.86l4.43-2.55V8.93L15.49 0z"/><path class="cls-3" d="M17.68 29.35l-2.21 1.28-2.22-1.27V11.49l-4.42 2.56.01 17.86 6.63 3.82 6.63-3.82V14.05l-4.42-2.56v17.86z"/><path class="cls-2" d="M41.07 9.05l6.08 15.36h.05l5.94-15.36h2.31v17.6h-1.6V11.31h-.05q-.12.42-.27.84c-.08.23-.18.48-.28.76s-.2.55-.29.79l-5.09 13h-1.45l-5.15-13c-.1-.23-.2-.48-.29-.75l-.28-.77c-.09-.3-.19-.59-.29-.87v15.34h-1.58V9.05zM60.1 26.72a3.45 3.45 0 0 1-1.31-.66 3.1 3.1 0 0 1-.88-1.06 3.57 3.57 0 0 1-.32-1.55 3.64 3.64 0 0 1 .41-1.9 3.33 3.33 0 0 1 1.13-1.14 5.75 5.75 0 0 1 1.66-.65 19.2 19.2 0 0 1 2-.35c.62-.06 1.15-.13 1.58-.21a4.34 4.34 0 0 0 1.06-.28 1.27 1.27 0 0 0 .59-.45 1.36 1.36 0 0 0 .19-.78v-.25a2.33 2.33 0 0 0-.79-1.93 3.57 3.57 0 0 0-2.27-.63c-2.26 0-3.45.95-3.57 2.83h-1.5a4.18 4.18 0 0 1 1.37-3 5.4 5.4 0 0 1 3.7-1.11 5.26 5.26 0 0 1 3.3.93 3.53 3.53 0 0 1 1.21 3v6.92a1.28 1.28 0 0 0 .21.82.82.82 0 0 0 .63.29h.26a2.11 2.11 0 0 0 .3-.07h.08v1.11a3 3 0 0 1-.42.13 2.71 2.71 0 0 1-.62.06 2 2 0 0 1-1.33-.43 1.86 1.86 0 0 1-.49-1.36v-.27h-.07a8.28 8.28 0 0 1-.65.76 4.56 4.56 0 0 1-.93.71 4.89 4.89 0 0 1-1.25.52 6.22 6.22 0 0 1-1.63.2 5.82 5.82 0 0 1-1.65-.23m3.76-1.34a4.21 4.21 0 0 0 1.34-.85 3.33 3.33 0 0 0 .8-1.14 3.38 3.38 0 0 0 .27-1.31v-2.29a5.52 5.52 0 0 1-1.49.53c-.58.12-1.18.22-1.81.3s-1 .17-1.5.26a3.88 3.88 0 0 0-1.19.43 2.19 2.19 0 0 0-.8.8 2.58 2.58 0 0 0-.3 1.32 2.34 2.34 0 0 0 .24 1.11 2 2 0 0 0 .61.71 2.62 2.62 0 0 0 .9.39 5.42 5.42 0 0 0 1.08.11 4.64 4.64 0 0 0 1.84-.34m7.95 4.78a3.38 3.38 0 0 1-1.46-2.38h1.48A2.07 2.07 0 0 0 73 29.37a5.46 5.46 0 0 0 2.38.48 4.12 4.12 0 0 0 3-1 3.65 3.65 0 0 0 1-2.67v-2h-.08a5.19 5.19 0 0 1-1.65 1.65 4.51 4.51 0 0 1-2.38.56 5.35 5.35 0 0 1-2.27-.45 4.93 4.93 0 0 1-1.72-1.31 5.86 5.86 0 0 1-1.1-2 8.42 8.42 0 0 1-.38-2.58 8 8 0 0 1 .44-2.74 6 6 0 0 1 1.19-2 4.9 4.9 0 0 1 1.73-1.23 5.41 5.41 0 0 1 2.11-.42 4.43 4.43 0 0 1 2.43.61 4.89 4.89 0 0 1 1.6 1.63h.08v-2h1.5v12.26a4.89 4.89 0 0 1-1.18 3.42 5.61 5.61 0 0 1-4.26 1.53 6 6 0 0 1-3.64-.95m6.67-6.44a6.18 6.18 0 0 0 1-3.69 8.27 8.27 0 0 0-.24-2.03 4.53 4.53 0 0 0-.76-1.61 3.6 3.6 0 0 0-1.3-1.05 4.22 4.22 0 0 0-1.8-.37 3.46 3.46 0 0 0-3 1.41 6.14 6.14 0 0 0-1 3.74 7.89 7.89 0 0 0 .24 2 4.82 4.82 0 0 0 .74 1.6 3.38 3.38 0 0 0 1.23 1.06 3.7 3.7 0 0 0 1.75.38 3.6 3.6 0 0 0 3.13-1.4m7.71 2.71a5.22 5.22 0 0 1-1.86-1.41A6.22 6.22 0 0 1 83.17 23a8.71 8.71 0 0 1-.4-2.65 8.13 8.13 0 0 1 .42-2.65 6.54 6.54 0 0 1 1.17-2.11 5.35 5.35 0 0 1 1.82-1.41 5.69 5.69 0 0 1 2.4-.5 5.24 5.24 0 0 1 2.58.58 4.86 4.86 0 0 1 1.7 1.55 6.44 6.44 0 0 1 .92 2.19 12.14 12.14 0 0 1 .27 2.58h-9.7a7.55 7.55 0 0 0 .31 2 5.18 5.18 0 0 0 .81 1.61 3.64 3.64 0 0 0 1.34 1.08 4.36 4.36 0 0 0 1.9.4 3.59 3.59 0 0 0 2.47-.78 4.23 4.23 0 0 0 1.24-2.08h1.48a5.46 5.46 0 0 1-1.72 3A5.14 5.14 0 0 1 88.71 27a6.19 6.19 0 0 1-2.54-.5m6-8.87a4.22 4.22 0 0 0-.72-1.42 3.15 3.15 0 0 0-1.18-.95 3.85 3.85 0 0 0-1.7-.35 4 4 0 0 0-1.71.35 3.5 3.5 0 0 0-1.26.95 4.69 4.69 0 0 0-.83 1.41 7.4 7.4 0 0 0-.41 1.77h8.08a7.12 7.12 0 0 0-.27-1.76m5.3-3.71v1.95a5.26 5.26 0 0 1 1.69-1.59 4.87 4.87 0 0 1 2.57-.63 4.24 4.24 0 0 1 2.92 1 3.78 3.78 0 0 1 1.14 3v9h-1.53v-8.89a2.7 2.7 0 0 0-.77-2.13 3.14 3.14 0 0 0-2.13-.67 4.32 4.32 0 0 0-1.53.27 4 4 0 0 0-1.25.75 3.4 3.4 0 0 0-1.16 2.6v8.07h-1.48V13.92zm12.31 12.3a2.13 2.13 0 0 1-.67-1.76v-9.28h-1.92v-1.26h1.92V10h1.53v3.91H113v1.26h-2.36v9a1.18 1.18 0 0 0 .31.95 1.4 1.4 0 0 0 .92.26 2.74 2.74 0 0 0 .56-.06 2.42 2.42 0 0 0 .45-.14h.12v1.31a4.25 4.25 0 0 1-1.41.22 2.77 2.77 0 0 1-1.77-.53m7.7.29a5.4 5.4 0 0 1-1.86-1.41 6.28 6.28 0 0 1-1.17-2.06 9 9 0 0 1 0-5.3 6.28 6.28 0 0 1 1.17-2.11 5.4 5.4 0 0 1 1.86-1.41 6 6 0 0 1 2.48-.5 5.88 5.88 0 0 1 2.46.5 5.42 5.42 0 0 1 1.84 1.41 6.09 6.09 0 0 1 1.16 2.11 9.2 9.2 0 0 1 0 5.3 6.09 6.09 0 0 1-1.16 2.11 5.42 5.42 0 0 1-1.84 1.41A5.88 5.88 0 0 1 120 27a6 6 0 0 1-2.48-.5m4.35-1.2a3.84 3.84 0 0 0 1.35-1.15 5.31 5.31 0 0 0 .81-1.73 8.22 8.22 0 0 0 0-4.18 5.31 5.31 0 0 0-.81-1.73 3.84 3.84 0 0 0-1.35-1.15 4 4 0 0 0-5.11 1.15 5.14 5.14 0 0 0-.83 1.73 8.22 8.22 0 0 0 0 4.18 5.14 5.14 0 0 0 .83 1.73 4.21 4.21 0 0 0 5.11 1.15m5.93-9.3a1.54 1.54 0 0 1-1.59-1.64 1.6 1.6 0 1 1 3.2 0A1.56 1.56 0 0 1 127.8 16m0-3.09a1.33 1.33 0 0 0-1.36 1.45 1.37 1.37 0 1 0 2.74 0A1.34 1.34 0 0 0 127.8 13m.48 2.32l-.55-.77h-.17v.75h-.31v-1.87h.55c.38 0 .63.19.63.53a.49.49 0 0 1-.36.5l.52.74zm-.48-1.55h-.24v.53h.22c.21 0 .34-.08.34-.27s-.12-.26-.32-.26M40.48 38.88L39.71 41a.08.08 0 0 1-.08.07h-.73q-.09 0-.06-.09l2.32-6.47s0-.09.05-.15a2.9 2.9 0 0 0 0-.29v-.05h1.05l.06.05L44.91 41v.08h-.81A.09.09 0 0 1 44 41l-.78-2.16zm2.46-.82c0-.17-.13-.41-.24-.71s-.21-.6-.32-.92-.22-.63-.32-.93-.18-.54-.23-.73c0 .17-.1.38-.18.64s-.18.52-.28.82l-.32.92c-.11.31-.22.62-.31.91zm2.87-.94v-1.14c0-.04 0-.07.06-.07h.67a.09.09 0 0 1 .09.07.58.58 0 0 1 0 .21v.32a2.21 2.21 0 0 1 1.63-.7 2.46 2.46 0 0 1 .59.08 1.38 1.38 0 0 1 .56.32 1.66 1.66 0 0 1 .42.63 2.7 2.7 0 0 1 .17 1V41a.07.07 0 0 1-.08.08h-.72c-.05 0-.07 0-.07-.09V38a1.65 1.65 0 0 0-.27-1 .93.93 0 0 0-.86-.4 1.52 1.52 0 0 0-.74.17 1.79 1.79 0 0 0-.59.48V41s0 .08-.07.08h-.75c-.05 0-.07 0-.07-.08zM55 38.88L54.2 41a.09.09 0 0 1-.09.07h-.73q-.08 0-.06-.09l2.33-6.47a1.13 1.13 0 0 1 0-.15 2.9 2.9 0 0 0 0-.29s0-.05.05-.05h1s.06 0 .06.05L59.39 41v.08h-.81a.1.1 0 0 1-.09-.06l-.78-2.16zm2.47-.82l-.24-.71c-.11-.3-.21-.6-.33-.92l-.32-.93c-.1-.3-.17-.54-.22-.73l-.19.64c-.08.25-.17.52-.28.82l-.32.92c-.11.31-.21.62-.31.91zm5.06 3.14a3.19 3.19 0 0 1-1-.16 2.38 2.38 0 0 1-.84-.5 2.58 2.58 0 0 1-.56-.83 3.2 3.2 0 0 1-.2-1.16 2.79 2.79 0 0 1 .21-1.09 2.73 2.73 0 0 1 .59-.87 2.7 2.7 0 0 1 .92-.57 3.18 3.18 0 0 1 1.18-.21 2.12 2.12 0 0 1 .38 0h.29v-2.3s0-.06.07-.06h.83v7a2.46 2.46 0 0 0 0 .26.08.08 0 0 1 0 .08 4.21 4.21 0 0 1-.91.3 4.56 4.56 0 0 1-.96.11zm.93-4.52a1.53 1.53 0 0 0-.31-.08 2.3 2.3 0 0 0-.38 0 2.11 2.11 0 0 0-.82.14 1.89 1.89 0 0 0-.62.4 1.81 1.81 0 0 0-.39.62 1.92 1.92 0 0 0-.14.77 2.31 2.31 0 0 0 .15.88 1.58 1.58 0 0 0 .4.59 1.56 1.56 0 0 0 .58.34 2.25 2.25 0 0 0 .68.11h.44a1.53 1.53 0 0 0 .41-.11zm4.47-.87a2.38 2.38 0 0 1 1 .2 2.12 2.12 0 0 1 .76.57 2.44 2.44 0 0 1 .48.85 3.06 3.06 0 0 1 .17 1.06 3.23 3.23 0 0 1-.18 1.11 2.6 2.6 0 0 1-.5.86 2.54 2.54 0 0 1-2.85.51 2.12 2.12 0 0 1-.76-.62 2.77 2.77 0 0 1-.45-.87 3.61 3.61 0 0 1-.14-1 3.32 3.32 0 0 1 .17-1.06 2.6 2.6 0 0 1 .49-.86 2.18 2.18 0 0 1 .77-.57 2.45 2.45 0 0 1 1.04-.18zm0 .77a1.41 1.41 0 0 0-.62.13 1.61 1.61 0 0 0-.47.39 1.67 1.67 0 0 0-.31.61 2.35 2.35 0 0 0-.11.77 2.76 2.76 0 0 0 .1.77 1.9 1.9 0 0 0 .31.62 1.33 1.33 0 0 0 .49.42 1.44 1.44 0 0 0 .67.15 1.34 1.34 0 0 0 .56-.12A1.24 1.24 0 0 0 69 40a1.92 1.92 0 0 0 .34-.6 2.37 2.37 0 0 0 .13-.85 2.84 2.84 0 0 0-.09-.72 2.06 2.06 0 0 0-.28-.62 1.48 1.48 0 0 0-.49-.44 1.41 1.41 0 0 0-.72-.19zm4.36-3.13h.06V36a3.06 3.06 0 0 1 1.15-.21 2.66 2.66 0 0 1 1 .18 2.27 2.27 0 0 1 1.26 1.32 2.64 2.64 0 0 1 .17 1 2.94 2.94 0 0 1-.25 1.27 2.77 2.77 0 0 1-.66.9 2.62 2.62 0 0 1-.94.55 3.43 3.43 0 0 1-1.1.18 6 6 0 0 1-.76 0 4 4 0 0 1-.7-.17c-.05 0-.07 0-.07-.1v-7.41s0-.06.08-.06zm2.76 4.93a1.84 1.84 0 0 0-.45-1.31 1.6 1.6 0 0 0-1.22-.48 3 3 0 0 0-.57 0 2.53 2.53 0 0 0-.44.14v3.58a1.14 1.14 0 0 0 .32.07h.38a2.26 2.26 0 0 0 .74-.13 1.85 1.85 0 0 0 1.07-1 2.29 2.29 0 0 0 .17-.87zm2.63.23a2.36 2.36 0 0 0 .11.72 1.47 1.47 0 0 0 .33.57 1.52 1.52 0 0 0 .56.39 2.05 2.05 0 0 0 .78.14 3.84 3.84 0 0 0 .69-.07 2.85 2.85 0 0 0 .64-.22h.06v.61a.1.1 0 0 1-.06.1 2.58 2.58 0 0 1-.63.23 3.68 3.68 0 0 1-.87.08 2.6 2.6 0 0 1-1.17-.16 2.14 2.14 0 0 1-.78-.6 2.65 2.65 0 0 1-.42-.86 3.43 3.43 0 0 1-.14-1 3.73 3.73 0 0 1 .16-1.06 2.8 2.8 0 0 1 .47-.87 2.18 2.18 0 0 1 1.73-.81 2 2 0 0 1 1 .21 1.75 1.75 0 0 1 .64.52 2.07 2.07 0 0 1 .36.69 2.68 2.68 0 0 1 .11.72 3.33 3.33 0 0 1 0 .34v.22c0 .05 0 .06-.08.06h-3.43zm2-.66h.69a.35.35 0 0 0 0-.06v-.06a1.48 1.48 0 0 0-.06-.36 1.15 1.15 0 0 0-.58-.76 1.19 1.19 0 0 0-.62-.15 1.34 1.34 0 0 0-.58.12 1.35 1.35 0 0 0-.43.31 1.67 1.67 0 0 0-.28.46 2.33 2.33 0 0 0-.13.52zm9.86 2.94c0 .07 0 .1-.05.11a2.23 2.23 0 0 1-.63.16 6.65 6.65 0 0 1-.81 0 4.23 4.23 0 0 1-1.32-.2 3.14 3.14 0 0 1-2-1.77 4 4 0 0 1-.32-1.67 3.85 3.85 0 0 1 .27-1.47 3.33 3.33 0 0 1 .78-1.05 3.39 3.39 0 0 1 1.18-.74 4.24 4.24 0 0 1 1.55-.27 6.3 6.3 0 0 1 .86.05 2.62 2.62 0 0 1 .5.14.09.09 0 0 1 0 .09v.71s0 .07-.07.06a2.91 2.91 0 0 0-1.37-.25 3.17 3.17 0 0 0-1.14.2 2.54 2.54 0 0 0-.89.56 2.46 2.46 0 0 0-.58.88 3.23 3.23 0 0 0-.2 1.15 3 3 0 0 0 .28 1.39 2.46 2.46 0 0 0 .69.88 2.65 2.65 0 0 0 .92.46 3.37 3.37 0 0 0 .9.13h.72a2.69 2.69 0 0 0 .62-.16h.06zm3.14-5.08a2.37 2.37 0 0 1 1 .2 2 2 0 0 1 .76.57 2.63 2.63 0 0 1 .49.85 3.32 3.32 0 0 1 .17 1.06 3.23 3.23 0 0 1-.18 1.11 2.62 2.62 0 0 1-.51.86 2.36 2.36 0 0 1-.76.55 2.45 2.45 0 0 1-1 .19 2.39 2.39 0 0 1-1.08-.2 2.21 2.21 0 0 1-.76-.62 2.55 2.55 0 0 1-.44-.87 3.27 3.27 0 0 1-.15-1 3.32 3.32 0 0 1 .17-1.06 2.79 2.79 0 0 1 .49-.86 2.22 2.22 0 0 1 .78-.57 2.38 2.38 0 0 1 1.02-.21zm-.05.77a1.44 1.44 0 0 0-.62.13 1.61 1.61 0 0 0-.47.39 2.06 2.06 0 0 0-.31.61 2.65 2.65 0 0 0-.11.77 2.43 2.43 0 0 0 .11.77 2.1 2.1 0 0 0 .3.62 1.33 1.33 0 0 0 .49.42 1.48 1.48 0 0 0 .68.15 1.33 1.33 0 0 0 .55-.12 1.24 1.24 0 0 0 .48-.35 1.74 1.74 0 0 0 .34-.6 2.37 2.37 0 0 0 .13-.85 2.84 2.84 0 0 0-.09-.72 1.84 1.84 0 0 0-.28-.62 1.36 1.36 0 0 0-.48-.44 1.47 1.47 0 0 0-.72-.16zm3.65 4.52s-.06 0-.06-.08v-4.65a3.32 3.32 0 0 0 0-.42.06.06 0 0 1 .07-.07h.67s.06 0 .09.06 0 .13 0 .23v.28a2.28 2.28 0 0 1 1.6-.67 1.51 1.51 0 0 1 1.42.78 3.31 3.31 0 0 1 .77-.56 2.12 2.12 0 0 1 1-.22 2.08 2.08 0 0 1 .6.09 1.38 1.38 0 0 1 .56.32 1.81 1.81 0 0 1 .41.62 2.83 2.83 0 0 1 .16 1V41s0 .07-.08.07h-.73a.07.07 0 0 1-.08-.08v-3.08a1.66 1.66 0 0 0-.26-.93.92.92 0 0 0-.83-.38 1.6 1.6 0 0 0-.73.16 2.06 2.06 0 0 0-.58.45 1.68 1.68 0 0 1 0 .3V41a.07.07 0 0 1-.08.08h-.75s-.07 0-.07-.08v-3.12a1.49 1.49 0 0 0-.27-1 1 1 0 0 0-.8-.33 1.46 1.46 0 0 0-.67.14 2.42 2.42 0 0 0-.62.45V41s0 .07-.06.07zm10.79-5.29a2.66 2.66 0 0 1 1.05.19 2.2 2.2 0 0 1 .79.53 2.24 2.24 0 0 1 .49.8 3.11 3.11 0 0 1-.09 2.26 2.63 2.63 0 0 1-.69.9 3 3 0 0 1-1 .54 3.48 3.48 0 0 1-1.11.17h-.3a.88.88 0 0 1-.24 0v2.13a.07.07 0 0 1-.06.08h-.78v-6.66a1.94 1.94 0 0 0 0-.22 1.85 1.85 0 0 0 0-.25.06.06 0 0 1 0-.05c.19-.07.45-.16.79-.26a3.9 3.9 0 0 1 1.15-.16zm-.1.78a3 3 0 0 0-.53 0 2.23 2.23 0 0 0-.46.13v3.61a1.36 1.36 0 0 0 .29.06h.31a2.48 2.48 0 0 0 .76-.13 1.82 1.82 0 0 0 1.14-1 2.19 2.19 0 0 0 .18-.92 1.84 1.84 0 0 0-.44-1.31 1.61 1.61 0 0 0-1.22-.44zm7.38 3.6v.26a1.06 1.06 0 0 0 0 .25 4.68 4.68 0 0 1-1 .36 5.09 5.09 0 0 1-1 .09 2.9 2.9 0 0 1-.79-.1 1.87 1.87 0 0 1-.63-.32 1.5 1.5 0 0 1-.41-.52 1.67 1.67 0 0 1-.15-.73 1.3 1.3 0 0 1 .19-.73 1.62 1.62 0 0 1 .5-.51 2.8 2.8 0 0 1 .75-.3 4.62 4.62 0 0 1 .94-.09h.73v-.26a1.31 1.31 0 0 0 0-.31.84.84 0 0 0-.17-.34 1.07 1.07 0 0 0-.36-.29 1.41 1.41 0 0 0-.63-.12 2.87 2.87 0 0 0-.73.08 2.94 2.94 0 0 0-.63.24s-.07 0-.07-.06v-.65a.1.1 0 0 1 .05-.08 3.38 3.38 0 0 1 .7-.24 4.3 4.3 0 0 1 .82-.08 2.16 2.16 0 0 1 .88.16 1.53 1.53 0 0 1 .59.43 1.77 1.77 0 0 1 .35.63 2.83 2.83 0 0 1 .11.78zm-.87-1.57h-.7a2.1 2.1 0 0 0-1.16.25.8.8 0 0 0-.38.7 1 1 0 0 0 .07.35.66.66 0 0 0 .22.31 1.42 1.42 0 0 0 .39.21 2 2 0 0 0 .59.08 2.5 2.5 0 0 0 1-.18zm2.36-1.5v-.64a2.81 2.81 0 0 0 0-.3 1 1 0 0 0 0-.2s0-.07.06-.07h.66a.1.1 0 0 1 .1.07v.53a2.25 2.25 0 0 1 1.64-.7 2.53 2.53 0 0 1 .59.08 1.38 1.38 0 0 1 .56.32 1.66 1.66 0 0 1 .42.63 2.72 2.72 0 0 1 .16 1V41s0 .08-.07.08h-.75s-.07 0-.07-.09V38a1.65 1.65 0 0 0-.27-1 .94.94 0 0 0-.83-.37 1.52 1.52 0 0 0-.74.17 1.69 1.69 0 0 0-.59.48V41a.07.07 0 0 1-.07.08h-.76s-.06 0-.06-.08zm5.82-1.21s.06 0 .08.06c.22.59.41 1.11.58 1.55s.31.84.43 1.17l.3.81.16.51c.17-.49.37-1.06.6-1.7l.84-2.34a.1.1 0 0 1 .09-.06h.75c.05 0 .07 0 .05.08-.2.57-.42 1.17-.65 1.8s-.47 1.24-.72 1.87-.5 1.26-.76 1.87-.52 1.22-.78 1.79a.14.14 0 0 1-.11.07l-.8.06s-.06 0 0-.08l.51-1.11c.18-.4.36-.82.54-1.25a.17.17 0 0 0 0-.14c0-.1-.11-.26-.19-.47s-.18-.44-.29-.71l-.36-.88-.39-1-.39-1c-.13-.32-.25-.62-.35-.89v-.07z"/></g></g></svg>