<svg version="1" xmlns="http://www.w3.org/2000/svg" viewBox="0 0 250 136.9"><path d="M168.7 93.2c3.6-4 5.9-8.9 6-14.9 0-1.1 0-2.1-.1-3H187l6.3-18.4s-8.4 6.1-19.4 6.1h-4.7c-6.1-6.9-16.5-10.5-26.7-13.8-16-5-19.1-6.4-19-10.2.2-5 7.2-8.8 17.6-8 9.1.7 14.3 3.6 17.2 6.5 3.4 3.4 4 7.7 4 7.7 3.1-3.4 10.6-14.9 10.6-14.9-10.2-7.2-19.5-11.1-34.1-11.3-15.6-.2-31.6 6.5-33 22.2-.8 8.8 2.6 17.3 18.3 23.1 15.5 5.7 31.2 7.3 30.2 18.3-.5 5.7-9.8 12-22.1 9.9-7.1-1.2-11.6-3.5-14.9-6.2-3.5-2.9-4.7-5.6-5.3-6.4-.1-.1-10.9 10.8-10.9 10.8 3.5 2.2 14.9 12 33 14.6 3.7.5 8.2.3 12.8-.6L125.7 116 .8 49.5l124.9 87.4 124.9-87.4-81.9 43.7z"/><path d="M66.4 18.1c2.3 1.1 2.6 3.9 2.6 6.6v44c0 3.2-1.7 5.3-4.3 6.6h72.4c-4.7-6.1-19.6-11.8-20.4-12.2-11.8-.2-24.7.1-26.2 0V20.4c0-3.6 1.9-6.1 5.3-6.6 9.5-.8 19.2-1.2 29.1-1.2 49.1 0 93.4 10.1 125 26.4C223.2 15.5 177.2 0 125 0S26.8 15.5 0 38.9c17.6-9 39.1-16.2 63.2-20.7.7-.2 2.2-.6 3.2-.1z"/><text transform="translate(157.626 134.043)" font-size="11.533" font-family="TradeGothicLTStd-Bd2">TM</text></svg>