<svg viewBox="0 0 298.5 82" xmlns="http://www.w3.org/2000/svg"><path d="m0 0h298.5v82h-298.5z" fill="#fff"/><path d="m0 0h298.5v82h-298.5z" fill="#ffe400"/><g fill="#010000"><path d="m224 17c-4.4 0-6.3 1.2-8.6 5.4l-23.2 42.4h18.4l26.1-47.8"/><path d="m196.1 17c-4.1 0-6.1.6-8.1 4.7l-15 30.2.5-34.8h-16.4l.5 47.8h24.6l26.1-47.8"/><path d="m267.6 28.9c1.8 0 4.3.2 7.9.2l7.1-12.2c-3.8-.2-10.1-.4-13.1-.4-12.9 0-20.1 1.1-27 8-5.4 5.4-14.4 21.3-14.4 29 0 7.6 4.8 11.5 17.1 11.5 4.6 0 11.5 0 16.5-.3l7.1-12.2c-5.2.1-10.8.3-14.9.3-4.4 0-7.5-.9-7.5-3.9 0-4.1 5.2-12.9 8.7-16.4 3.4-3.1 7-3.6 12.5-3.6"/><path d="m130.7 17c-5.7 0-7.1.6-11 6.1l-23.4 32.7 4.9-38.8h-14.2c-4 0-6.4 1.2-8.5 4.3l-14.9 21.7 2.6-26h-18.6l-32.2 47.8h17.8l17.2-28.6-2.2 28.6h10.6c3.1 0 5.7-1.2 7.4-3.6l17-24.8-3.7 28.4h28.4l5.4-8.2h19.1l-.1 8.2h16.5l-.5-47.8m-15.7 28.4h-11.8l12.1-18.7z"/></g></svg>