<svg version="1" xmlns="http://www.w3.org/2000/svg" viewBox="-305 333 128 128"><path fill="#CF102D" d="M-183.3 441.2c.6 0 1.1 0 1.1-.7 0-.6-.5-.6-.9-.6h-.9v1.4h.7zm-.8 2.4h-.7v-4.4h1.7c1 0 1.5.4 1.5 1.2 0 .8-.5 1.1-1.1 1.2l1.2 1.9h-.7l-1.2-1.9h-.7v2zm.8 1.6c-2.1 0-3.9-1.6-3.9-3.8 0-2.2 1.8-3.8 3.9-3.8 2.1 0 3.8 1.6 3.8 3.8 0 2.2-1.7 3.8-3.8 3.8zm-3.1-3.8c0 1.8 1.4 3.2 3.1 3.2 1.7 0 3.1-1.3 3.1-3.2 0-1.8-1.4-3.1-3.1-3.1-1.7 0-3.1 1.3-3.1 3.1zm-80.8-25.7c0 9.1 9.2 9.1 9.2 9.1 9.2 0 9.2-9.1 9.2-9.1V364h-11v-16.8h37.2V417c-.2 7.7 6.1 7.9 6.1 7.9 7.2 0 10.5-7.9 10.5-7.9 5.4-11.1 4.8-21.7 4.8-21.7 0-17.6-4.8-31.3-4.8-31.3h-9.2v-16.8h30.6c6.6 16.3 7.1 44.1 7.1 44.1.3 37-17.6 48.9-17.6 48.9-8.7 7.9-21.4 6.7-21.4 6.7-13.5 0-20.6-11.5-20.6-11.5-8.4 11.7-22.7 11.5-22.7 11.5-33.6 0-33.6-31.9-33.6-31.9v-51h-11v-16.8h37.2v68.5" fill-rule="evenodd" clip-rule="evenodd"/></svg>