<svg height="30" viewBox="0 0 194 30" width="194" xmlns="http://www.w3.org/2000/svg"><g fill-rule="evenodd"><path d="m188.743226 23.125h5.256774v5.375h-5.256774z"/><path d="m177.854193 7.875h-3.254193v3.375h3.254193v12.25c.125161 3.5.87613 5.25 5.381936 5.25 1.001291 0 1.87742-.125 2.87871-.25v-3.5c-.625806.125-1.251613.125-1.877419.125-2.002581 0-2.127743-1-2.127743-2.875v-11h3.88v-3.375h-3.88v-6.25h-4.380644z"/><path d="m161.708387 17.75-7.384516 10.875h5.131613l4.88129-7.625 5.006452 7.625h5.256774l-7.509677-11.125 6.75871-9.625h-5.006453l-4.255483 6.375-4.130323-6.375h-5.507097z"/><path d="m140.430967 16.375c.125162-3.125 2.127743-5.5 5.131613-5.5 3.003871 0 4.75613 2.625 5.006453 5.5zm-4.255483 1.875c0 6.375 3.379355 10.875 9.637419 10.875 4.255484 0 8.010323-2.5 8.886451-7h-4.130321c-.750969 2.25-2.252904 3.5-4.75613 3.5-3.629677 0-5.256774-2.875-5.256774-6.125h14.393548c.750969-6.25-3.129031-12.125-9.261935-12.125-5.882581 0-9.512258 5-9.512258 10.875z" fill-rule="nonzero"/><path d="m116.024516 0h-5.006452v28.625h4.505807v-21h.125162l12.390967 21h5.006451v-28.625h-4.505805v21h-.125162z"/><path d="m97.1251609 13.75h4.5058061c-.500644-4.625-4.1303214-6.375-8.2606444-6.375-3.6296775 0-8.2606452 1.375-8.2606452 5.875 0 4.25 3.1290323 5.375 6.2580646 6.125 3.129032.75 6.2580645 1 6.3832254 3.5.1251619 2.375-2.7535479 2.75-4.3806448 2.75-2.3780646 0-4.1303226-.875-4.5058065-3.625h-4.3806451c.1251613 4.875 3.7548387 7.25 8.7612903 7.25 4.1303224 0 8.7612897-1.75 8.7612897-6.75 0-4.125-3.2541933-5.25-6.383225-6-3.2541937-.75-6.383226-1.125-6.383226-3.375 0-1.75 2.3780646-2.125 3.6296774-2.125 2.2529031 0 3.8799998.5 4.2554835 2.75"/><path d="m83.7329033 5.375v-5.375h-4.7561291v5.375h2.3780645c0 1.75-.5006451 3.25-2.3780645 3.625v2.375c2.8787097-.5 4.7561291-2.875 4.7561291-6"/><path d="m72.5935484 18.25c0 3.625-1.7522581 7.375-5.6322581 7.375s-5.632258-3.75-5.632258-7.375 1.752258-7.25 5.632258-7.25 5.6322581 3.625 5.6322581 7.25m4.2554839 0c0-6.25-3.6296774-10.875-9.887742-10.875-6.2580645 0-9.8877419 4.625-9.8877419 10.875 0 6.375 3.6296774 10.875 9.8877419 10.875 6.2580646 0 9.887742-4.5 9.887742-10.875" fill-rule="nonzero"/><path d="m50.1896774 28.625h4.3806452v-14.25c0-4.625-2.6283872-7-7.0090323-7-2.628387 0-4.8812903 1.375-5.8825806 3.25h-.1251613v-10.625h-4.3806451v28.625h4.3806451v-12.25c0-3 1.8774193-5.5 4.756129-5.5 2.6283872 0 3.7548387 1.375 3.88 4.625z"/><path d="m28.036129 28.625 7.5096774-28.625h-4.756129l-5.0064516 21.875h-.1251612l-5.3819356-21.875h-4.8812903l-5.50709675 21.875h-.1251613l-4.88129032-21.875h-4.88129033l7.13419354 28.625h4.88129036l5.7574194-21.875h.1251613l5.3819354 21.875z"/></g></svg>