<svg xmlns="http://www.w3.org/2000/svg" xmlns:xlink="http://www.w3.org/1999/xlink" width="263" height="184" viewBox="0 0 263 184">
    <defs>
        <path id="8a2tnp8bja" d="M0 0.517L261.851 0.517 261.851 183.6 0 183.6z"/>
    </defs>
    <g fill="none" fill-rule="evenodd">
        <g>
            <g>
                <g>
                    <g>
                        <g>
                            <g transform="translate(-365 -6992) translate(-1 3069) translate(.666 3626) translate(220 155) translate(146 142)">
                                <mask id="g8x8nqqadb" fill="#fff">
                                    <use xlink:href="#8a2tnp8bja"/>
                                </mask>
                                <path fill="#129CD7" d="M108.965 20.484c8.443-8.787 20.2-14.238 33.204-14.238 17.287 0 32.365 9.626 40.397 23.918 6.981-3.113 14.705-4.847 22.833-4.847 31.176 0 56.452 25.468 56.452 56.883 0 31.42-25.276 56.887-56.452 56.887-3.806 0-7.524-.384-11.122-1.107-7.07 12.598-20.547 21.113-36.018 21.113-6.473 0-12.596-1.492-18.053-4.152-7.165 16.845-23.872 28.659-43.337 28.659-20.274 0-37.553-12.813-44.184-30.784-2.898.61-5.903.933-8.982.933C19.565 153.75 0 134.001 0 109.64c0-16.33 8.786-30.584 21.851-38.212-2.69-6.185-4.183-13.005-4.183-20.178C17.668 23.233 40.44.517 68.525.517c16.49 0 31.146 7.831 40.44 19.967" mask="url(#g8x8nqqadb)"/>
                            </g>
                            <path fill="#FEFEFE" d="M38.76 95.607c-.164.44.056.53.11.605.487.365.978.628 1.476.923C42.986 98.579 45.483 99 48.09 99c5.312 0 8.611-2.913 8.611-7.606v-.09c0-4.338-3.725-5.917-7.214-7.055l-.457-.15c-2.633-.883-4.905-1.645-4.905-3.436v-.09c0-1.531 1.329-2.658 3.387-2.658 2.287 0 5 .785 6.746 1.783 0 0 .518.341.704-.173.103-.279.986-2.733 1.081-3 .099-.287-.076-.502-.259-.616-1.998-1.253-4.756-2.109-7.61-2.109l-.529.004c-4.863 0-8.257 3.031-8.257 7.374v.09c0 4.574 3.744 6.062 7.252 7.095l.564.18c2.557.81 4.76 1.509 4.76 3.362v.094c0 1.696-1.435 2.96-3.74 2.96-.899 0-3.756-.015-6.842-2.03-.373-.228-.586-.388-.875-.568-.152-.099-.533-.268-.7.246l-1.047 3zM116.16 95.607c-.164.44.056.53.11.605.487.365.978.628 1.476.923 2.64 1.444 5.137 1.865 7.743 1.865 5.312 0 8.611-2.913 8.611-7.606v-.09c0-4.338-3.725-5.917-7.214-7.055l-.457-.15c-2.633-.883-4.905-1.645-4.905-3.436v-.09c0-1.531 1.329-2.658 3.387-2.658 2.287 0 5 .785 6.746 1.783 0 0 .518.341.704-.173.103-.279.986-2.733 1.081-3 .099-.287-.076-.502-.259-.616-1.998-1.253-4.753-2.109-7.61-2.109l-.529.004c-4.863 0-8.257 3.031-8.257 7.374v.09c0 4.574 3.748 6.062 7.252 7.095l.564.18c2.557.81 4.764 1.509 4.764 3.362v.094c0 1.696-1.435 2.96-3.744 2.96-.899 0-3.752-.015-6.842-2.03-.373-.228-.594-.38-.875-.568-.095-.063-.544-.244-.696.246l-1.05 3zM169.526 85.973c0 2.572-.479 4.603-1.42 6.035-.933 1.417-2.342 2.11-4.304 2.11-1.966 0-3.366-.693-4.285-2.11-.93-1.432-1.4-3.463-1.4-6.035 0-2.568.47-4.595 1.396-6.012.923-1.402 2.323-2.085 4.289-2.085 1.962 0 3.37.683 4.304 2.085.941 1.417 1.42 3.444 1.42 6.012m4.421-4.77c-.432-1.474-1.112-2.774-2.012-3.856-.899-1.086-2.041-1.958-3.396-2.59-1.351-.633-2.946-.957-4.737-.957-1.795 0-3.393.324-4.744.956-1.351.633-2.494 1.505-3.394 2.595-.903 1.082-1.578 2.381-2.01 3.852-.433 1.467-.654 3.07-.654 4.77 0 1.7.22 3.307.653 4.77.433 1.47 1.108 2.77 2.011 3.856.9 1.085 2.047 1.955 3.398 2.571 1.35.618 2.945.93 4.74.93 1.791 0 3.382-.312 4.737-.93 1.35-.616 2.494-1.486 3.396-2.571.9-1.082 1.58-2.381 2.012-3.856.433-1.467.653-3.07.653-4.77 0-1.7-.22-3.303-.653-4.77M211.232 93.441c-.15-.43-.589-.266-.589-.266-.668.248-1.38.472-2.142.587-.767.118-1.613.175-2.522.175-2.225 0-4-.64-5.27-1.9-1.268-1.265-1.983-3.307-1.976-6.068.008-2.51.636-4.399 1.767-5.843 1.123-1.431 2.835-2.167 5.111-2.167 1.897 0 3.348.214 4.866.67 0 0 .364.153.534-.304.407-1.082.704-1.848 1.135-3.032.122-.339-.178-.48-.29-.522-.596-.225-2.003-.594-3.07-.75-.993-.145-2.159-.221-3.455-.221-1.933 0-3.657.32-5.131.952-1.474.629-2.72 1.501-3.712 2.587-.989 1.085-1.74 2.384-2.237 3.854-.502 1.466-.751 3.073-.751 4.78 0 3.679 1.028 6.654 3.063 8.828 2.04 2.19 5.1 3.299 9.092 3.299 2.36 0 4.779-.46 6.522-1.12 0 0 .332-.156.186-.53l-1.13-3.009zM219.428 83.504c.213-1.43.604-2.617 1.21-3.543.915-1.406 2.312-2.183 4.277-2.183 1.965 0 3.26.777 4.193 2.183.619.93.888 2.163.994 3.547l-10.674-.004zm14.883-3.14c-.376-1.425-1.306-2.86-1.913-3.516-.964-1.044-1.909-1.772-2.842-2.175-1.218-.527-2.683-.873-4.288-.873-1.867 0-3.563.316-4.94.964-1.377.647-2.535 1.535-3.446 2.64-.907 1.101-1.59 2.412-2.025 3.902-.437 1.478-.657 3.09-.657 4.792 0 1.734.227 3.35.68 4.797.454 1.467 1.183 2.751 2.166 3.822.986 1.074 2.25 1.912 3.764 2.503 1.506.583 3.335.887 5.434.88 4.321-.012 6.598-.98 7.535-1.501.167-.096.323-.256.13-.72l-.983-2.752c-.149-.407-.562-.258-.562-.258-1.074.4-2.592 1.116-6.144 1.108-2.321-.003-4.04-.69-5.118-1.767-1.105-1.098-1.651-2.713-1.742-4.995l14.962.011s.394-.004.436-.392c.015-.16.512-3.087-.447-6.47zM97.929 83.504c.212-1.43.603-2.617 1.206-3.543.922-1.406 2.315-2.183 4.28-2.183 1.966 0 3.264.777 4.197 2.183.615.93.884 2.163.99 3.547l-10.673-.004zm14.881-3.14c-.375-1.425-1.305-2.86-1.913-3.516-.963-1.044-1.904-1.772-2.841-2.175-1.222-.527-2.683-.873-4.284-.873-1.87 0-3.566.316-4.944.964-1.378.647-2.535 1.535-3.445 2.64-.907 1.101-1.59 2.412-2.026 3.902-.437 1.478-.657 3.09-.657 4.792 0 1.734.228 3.35.68 4.797.455 1.467 1.183 2.751 2.166 3.822.986 1.074 2.25 1.912 3.764 2.503 1.506.583 3.335.887 5.434.88 4.321-.012 6.598-.98 7.535-1.501.167-.096.322-.256.129-.72l-.983-2.752c-.148-.407-.561-.258-.561-.258-1.074.4-2.592 1.116-6.144 1.108-2.318-.003-4.04-.69-5.118-1.767-1.104-1.098-1.65-2.713-1.742-4.995l14.961.011s.395-.004.437-.392c.015-.16.512-3.087-.448-6.47zM64.805 93.346c-.602-.468-.683-.586-.882-.89-.306-.46-.462-1.115-.462-1.952 0-1.317.447-2.268 1.367-2.904-.008 0 1.32-1.126 4.442-1.085 2.193.027 4.158.347 4.158.347v6.823s-1.946.408-4.135.537c-3.114.186-4.5-.88-4.488-.876m6.091-10.545c-.621-.045-1.425-.069-2.388-.069-1.312 0-2.581.16-3.773.477-1.196.315-2.271.802-3.195 1.449-.932.655-1.678 1.488-2.22 2.478-.545.99-.82 2.154-.82 3.455 0 1.332.233 2.485.703 3.429.466.948 1.137 1.74 1.995 2.348.85.609 1.902 1.055 3.117 1.324 1.204.271 2.567.408 4.058.408 1.572 0 3.133-.13 4.65-.38 1.503-.252 3.343-.617 3.856-.735.508-.114 1.07-.266 1.07-.266.382-.096.35-.492.35-.492l-.007-13.723c0-3.014-.82-5.244-2.43-6.63-1.607-1.377-3.976-2.074-7.035-2.074-1.15 0-2.993.153-4.104.37 0 0-3.342.635-4.717 1.693 0 0-.302.183-.14.598l1.084 2.854c.136.37.504.243.504.243s.117-.045.253-.125c2.943-1.568 6.67-1.523 6.67-1.523 1.653 0 2.927.332 3.785.971.834.632 1.257 1.576 1.257 3.577v.636c-1.312-.187-2.523-.293-2.523-.293M194.369 75.688c.118-.336-.13-.5-.233-.537-.264-.095-1.59-.363-2.609-.427-1.957-.114-3.042.2-4.013.62-.967.417-2.037 1.094-2.629 1.862l-.004-1.82c0-.25-.185-.45-.445-.45h-3.99c-.261 0-.446.2-.446.45V97.65c0 .249.209.45.473.45h4.089c.26 0 .47-.201.47-.45V86.527c0-1.495.173-2.982.517-3.917.335-.927.793-1.665 1.36-2.195.57-.53 1.217-.9 1.927-1.108.722-.213 1.523-.284 2.083-.284.817 0 1.709.204 1.709.204.304.03.47-.148.573-.405.264-.681 1.026-2.729 1.168-3.134" transform="translate(-365 -6992) translate(-1 3069) translate(.666 3626) translate(220 155) translate(146 142)"/>
                            <path fill="#FEFEFE" d="M156.288 65.309c-.493-.148-.94-.246-1.53-.35-.595-.106-1.3-.159-2.1-.159-2.797 0-5 .767-6.55 2.279-1.537 1.5-2.585 3.787-3.11 6.792l-.188 1.014h-3.51s-.431-.015-.518.437l-.576 3.115c-.044.296.09.482.502.482h3.42l-3.471 18.75c-.27 1.507-.58 2.75-.926 3.691-.337.93-.67 1.626-1.078 2.13-.396.488-.77.852-1.416 1.06-.533.172-1.149.252-1.82.252-.372 0-.87-.061-1.24-.133-.368-.068-.56-.148-.834-.26 0 0-.4-.147-.561.24-.125.32-1.035 2.747-1.145 3.047-.11.296.043.528.239.597.455.155.792.258 1.412.398.863.197 1.588.209 2.267.209 1.423 0 2.721-.194 3.796-.57 1.082-.38 2.023-1.04 2.859-1.93.898-.964 1.466-1.974 2.007-3.353.538-1.364.993-3.058 1.362-5.033l3.482-19.095h5.094s.431.015.518-.437l.576-3.115c.04-.296-.09-.482-.502-.482h-4.945c.023-.106.247-1.793.816-3.377.243-.68.698-1.223 1.086-1.599.377-.369.816-.63 1.294-.783.49-.151 1.047-.228 1.66-.228.466 0 .92.054 1.27.122.478.1.666.152.792.186.502.152.569.008.67-.228l1.18-3.145c.123-.338-.171-.482-.282-.524M88.2 97.638c0 .254-.166.462-.4.462h-3.7c-.234 0-.4-.208-.4-.462v-32.38c0-.254.166-.458.4-.458h3.7c.234 0 .4.204.4.458v32.38z" transform="translate(-365 -6992) translate(-1 3069) translate(.666 3626) translate(220 155) translate(146 142)"/>
                        </g>
                    </g>
                </g>
            </g>
        </g>
    </g>
</svg>
