<svg xmlns="http://www.w3.org/2000/svg" width="329" height="97" viewBox="0 0 329 97">
    <g fill="none" fill-rule="evenodd">
        <g>
            <g>
                <g>
                    <g>
                        <path fill="#222221" d="M300.992 68.219s4.859 6.034 12.032 6.034c3.701 0 6.94-1.625 6.94-5.106 0-7.194-21.98-6.498-21.98-19.494 0-7.659 6.71-11.372 14.808-11.372 4.859 0 13.188 1.625 13.188 7.89v3.714h-6.94v-2.089c0-2.32-3.471-3.48-6.016-3.48-4.628 0-7.404 1.624-7.404 4.873 0 7.658 21.98 6.034 21.98 19.494 0 7.194-6.247 11.836-14.808 11.836-10.643 0-15.964-6.962-15.964-6.962l4.164-5.338zm-49.745-20.655c0-1.16-.694-1.856-1.85-1.856h-3.24v-6.499h7.635c3.702 0 5.09 1.625 5.09 4.874v19.03c0 5.57 1.157 9.98 7.404 9.98 8.33 0 13.189-7.195 13.189-15.085V39.209h7.635v31.795c0 1.16.694 1.856 1.85 1.856h3.24v6.498h-7.404c-3.47 0-5.09-1.624-5.09-4.409V71.004h-.231c-1.62 3.945-6.71 9.283-14.808 9.283-9.024 0-13.651-4.874-13.651-15.317V47.564h.231zm-22.212-16.013h6.941v-8.123h-6.94v8.123zm-.231 16.013c0-1.16-.694-1.856-1.851-1.856h-3.24v-6.499h7.636c3.47 0 5.09 1.625 5.09 5.106v26.689c0 1.16.694 1.856 1.851 1.856h3.24v6.499h-7.636c-3.47 0-5.09-1.625-5.09-5.106V47.564zm-23.831-15.781c0-1.16-.694-1.857-1.851-1.857h-3.24v-6.498h7.636c3.47 0 5.09 1.625 5.09 5.106v42.702c0 1.16.694 1.856 1.85 1.856h3.24v6.499h-7.635c-3.47 0-5.09-1.625-5.09-5.106V31.783zm-40.49 57.787c3.007 0 5.552-2.321 6.94-5.802l1.852-4.41-13.651-31.794c-.463-1.16-1.157-1.624-2.546-1.624h-.925v-6.498h4.628c3.239 0 4.396.928 5.784 3.945l9.023 22.743c.694 2.089 1.389 4.874 1.389 4.874h.23s.464-2.785 1.39-4.874l8.329-22.743c1.156-3.25 2.545-3.945 5.784-3.945h4.627v6.498h-.925c-1.157 0-2.083.232-2.545 1.624l-16.196 39.22c-2.546 6.267-7.404 9.516-12.957 9.516-6.016 0-9.486-3.945-9.486-3.945l3.239-5.57c.231 0 2.545 2.785 6.015 2.785zm-44.424-22.976s5.784 6.73 14.114 6.73c5.321 0 9.486-3.249 9.486-8.354 0-11.836-27.07-9.98-27.07-27.385 0-8.355 7.403-15.085 17.815-15.085 6.016 0 15.965 2.785 15.965 10.443v4.642h-7.404v-2.553c0-3.017-4.165-5.106-8.561-5.106-6.016 0-9.718 3.25-9.718 7.659 0 11.371 26.84 8.819 26.84 27.153 0 8.587-6.71 16.013-17.816 16.013-11.8 0-18.51-8.355-18.51-8.355l4.859-5.802z" transform="translate(-319 -8486) translate(-1 3069) translate(220.666 5233) translate(100 184)"/>
                        <path fill="#2EB99B" d="M13.5 56.7L32.857 94.274 68.771 94.5 77.4 82.504z" transform="translate(-319 -8486) translate(-1 3069) translate(220.666 5233) translate(100 184)"/>
                        <path fill="#179E82" d="M31.24 17.296l12.822 9.73L55.486 5.25 51.522 2.7 31.24 17.296zM0 60.621L26.11 96.3h42.664L77.4 83.094 0 60.621z" transform="translate(-319 -8486) translate(-1 3069) translate(220.666 5233) translate(100 184)"/>
                        <path fill="#2EB99B" d="M47.238 5.324L71.5 25.001 54.401 0l-7.163 5.324zM67.804 96.3L30.6 17.362l8.088-5.788L81.9 74.54 67.804 96.3z" transform="translate(-319 -8486) translate(-1 3069) translate(220.666 5233) translate(100 184)"/>
                    </g>
                </g>
            </g>
        </g>
    </g>
</svg>
