<svg height="222" viewBox="0 0 825 222" width="825" xmlns="http://www.w3.org/2000/svg"><g fill="none" fill-rule="evenodd"><path d="m241.52 101.84c0 6.4.64 12.36 1.92 17.88s3.36 10.32 6.24 14.4 6.6 7.28 11.16 9.6 10.04 3.48 16.44 3.48c6.08 0 11.68-1.04 16.8-3.12s9.04-4.24 11.76-6.48v-78.72c-2.24-.64-5.24-1.2-9-1.68s-9-.72-15.72-.72c-12 0-21.6 3.92-28.8 11.76s-10.8 19.04-10.8 33.6zm-18.84-27.24c2.96-8.08 7.16-14.92 12.6-20.52s12-9.92 19.68-12.96 16.32-4.56 25.92-4.56c10.4 0 19.56.76 27.48 2.28s14.52 2.92 19.8 4.2v174.078l-22.32 4.09v-62.728c-2.72 1.76-6.84 3.6-12.36 5.52s-11.88 2.88-19.08 2.88c-8.96 0-16.92-1.6-23.88-4.8s-12.84-7.68-17.64-13.44-8.44-12.64-10.92-20.64-3.72-16.72-3.72-26.16c0-10.08 1.48-19.16 4.44-27.24zm247.04 27c0 9.92-1.44 18.88-4.32 26.88s-6.92 14.88-12.12 20.64-11.4 10.2-18.6 13.32-15.04 4.68-23.52 4.68-16.32-1.56-23.52-4.68-13.4-7.56-18.6-13.32-9.24-12.64-12.12-20.64-4.32-16.96-4.32-26.88c0-9.76 1.44-18.68 4.32-26.76s6.92-15 12.12-20.76 11.4-10.2 18.6-13.32 15.04-4.68 23.52-4.68 16.32 1.56 23.52 4.68 13.4 7.56 18.6 13.32 9.24 12.68 12.12 20.76 4.32 17 4.32 26.76zm-23.28 0c0-14.08-3.16-25.24-9.48-33.48s-14.92-12.36-25.8-12.36-19.48 4.12-25.8 12.36-9.48 19.4-9.48 33.48 3.16 25.24 9.48 33.48 14.92 12.36 25.8 12.36 19.48-4.12 25.8-12.36 9.48-19.4 9.48-33.48zm47.72-58.8c5.12-1.28 11.92-2.64 20.4-4.08s18.24-2.16 29.28-2.16c9.92 0 18.16 1.4 24.72 4.2s11.8 6.72 15.72 11.76 6.68 11.08 8.28 18.12 2.4 14.8 2.4 23.28v70.08h-22.32v-65.28c0-7.68-.52-14.24-1.56-19.68s-2.76-9.84-5.16-13.2-5.6-5.8-9.6-7.32-8.96-2.28-14.88-2.28c-2.4 0-4.88.08-7.44.24s-5 .36-7.32.6-4.4.52-6.24.84-3.16.56-3.96.72v105.36h-22.32zm151.64-3.6h47.28v18.72h-47.28v57.6c0 6.24.48 11.4 1.44 15.48s2.4 7.28 4.32 9.6 4.32 3.96 7.2 4.92 6.24 1.44 10.08 1.44c6.72 0 12.12-.76 16.2-2.28s6.92-2.6 8.52-3.24l4.32 18.48c-2.24 1.12-6.16 2.52-11.76 4.2s-12 2.52-19.2 2.52c-8.48 0-15.48-1.08-21-3.24s-9.96-5.4-13.32-9.72-5.72-9.64-7.08-15.96-2.04-13.64-2.04-21.96v-111.36l22.32-3.84zm178.76 62.4c0 9.92-1.44 18.88-4.32 26.88s-6.92 14.88-12.12 20.64-11.4 10.2-18.6 13.32-15.04 4.68-23.52 4.68-16.32-1.56-23.52-4.68-13.4-7.56-18.6-13.32-9.24-12.64-12.12-20.64-4.32-16.96-4.32-26.88c0-9.76 1.44-18.68 4.32-26.76s6.92-15 12.12-20.76 11.4-10.2 18.6-13.32 15.04-4.68 23.52-4.68 16.32 1.56 23.52 4.68 13.4 7.56 18.6 13.32 9.24 12.68 12.12 20.76 4.32 17 4.32 26.76zm-23.28 0c0-14.08-3.16-25.24-9.48-33.48s-14.92-12.36-25.8-12.36-19.48 4.12-25.8 12.36-9.48 19.4-9.48 33.48 3.16 25.24 9.48 33.48 14.92 12.36 25.8 12.36 19.48-4.12 25.8-12.36 9.48-19.4 9.48-33.48z" fill="#404e5b"/><path d="m22.18 73.893a75.656 75.656 0 0 0 49.57 22.324 76.6 76.6 0 0 0 -22.18-49.894 75.655 75.655 0 0 0 -49.57-22.323 76.55 76.55 0 0 0 22.18 49.893zm107.39 0a75.656 75.656 0 0 1 -49.57 22.324 76.6 76.6 0 0 1 22.18-49.894 75.655 75.655 0 0 1 49.57-22.323 76.55 76.55 0 0 1 -22.18 49.893zm0 52.431a75.656 75.656 0 0 0 -49.57-22.324 76.6 76.6 0 0 0 22.18 49.894 75.655 75.655 0 0 0 49.57 22.323 76.55 76.55 0 0 0 -22.18-49.893zm-107.39 0c13.187-13.326 31.11-21.29 49.828-22.332-1.013 18.791-9.167 36.56-22.438 49.902a75.655 75.655 0 0 1 -49.57 22.323 76.55 76.55 0 0 1 22.18-49.893z" fill="#7a69e6"/></g></svg>