<svg viewBox="-129 313.6 352.9 167.4" xmlns="http://www.w3.org/2000/svg"><g fill="#516b2e"><path d="m-52.8 407h21.3l-3.4-15.1z"/><path d="m46.9 321.3c-97.1 0-175.9 34.2-175.9 76.5 0 42.2 78.7 76.5 175.9 76.5 97.1 0 175.9-34.2 175.9-76.5-.1-42.3-78.8-76.5-175.9-76.5zm0 148.1c-89.4 0-162-32.1-162-71.7s72.5-71.7 162-71.7c89.4 0 162 32.1 162 71.7s-72.5 71.7-162 71.7z"/><path d="m181.5 369c-24.5-23-75.3-38-134-38-37.6 0-71.9 6-98.1 16.3l208.8 21.3-245.7.4c-9.6 8-15 18.3-15 28.9 0 37.2 66.9 67.1 149.5 67.1s149.5-29.7 149.5-66.9c0-10.6-5.4-21.1-15-29.1zm-200 54.9c-3.4 0-6.7.4-10.1.5-.5-4.8-.9-9.4-2-13.4h-27c-5.3 5-10 8.8-14.3 13.3-1.8-.1-3.5-.3-5.4-.3s-3.8.1-5.7.2l53.8-45c1.4.1 2.8.2 4.3.2s2.9-.1 4.5-.2l11.6 45.1c-3.2-.2-6.4-.4-9.7-.4zm31.7.3c-2.8-.1-5.7-.3-8.6-.3s-5.9.2-8.8.3l18.3-39.9c-8.2 0-15.8.5-22 .9.6-.9 1.4-1.7 1.9-2.6.4-.9.5-1.6.7-2.6h59.7c-.7 1-1.4 1.7-1.8 2.6-.4 1-.5 1.8-.7 2.7-6.6-.5-13.3-.9-20.3-.9zm81.7-23.7c-.4.9-.5 2-.7 2.9-4.1-.3-8.8-.5-14-.5h-12.1l-7.6 16.4c11.9-.1 19.9-.5 27.2-1-.7.9-1.4 1.9-1.9 2.8-.4.9-.5 1.8-.7 2.8h-44.1l20.3-44h44.2c-.7 1-1.4 1.7-1.9 2.6-.4.9-.5 1.8-.7 2.7-6.8-.5-14.5-.7-26.4-.6l-6.4 14.4h12.1c5.2 0 10.1-.6 14.5-.9-.6.9-1.4 1.5-1.8 2.4zm79.2-11.5h-1.6c-2.7-4-9-6.3-16.5-6.3-19.3 0-31.8 10.2-36.2 19.7-5.1 11.1 1.1 18.8 18.9 18.8 7.2 0 16.5-2.1 23-4.9l1.3.4-5.1 5.6c-7.9 2-16.5 2.8-24.3 2.8-24.8 0-39.7-8.6-33.6-21.9 7.8-17 32.2-24.7 57.5-24.7 7.7 0 16.4 1.4 22.2 3.5-1.9 2.2-3.6 5-5.6 7z"/></g></svg>