<svg enable-background="new 0 0 350 116" viewBox="0 0 350 116" xmlns="http://www.w3.org/2000/svg"><path d="m337.4 82c-1.7-1-3.9-.9-5.7-1.1-1.2-.1-2.5-.1-3.7-.4-.9-.3-1.1-1-1.2-1.9 0-.8-.1-1.9.5-2.5.7-.7 2.2-.6 3.1-.6 1.1 0 2.6-.2 3.6.3.9.4.7 1.8.7 2.7 0 .1.1.2.2.2h4c.1 0 .2-.1.2-.2 0-1.5 0-3.1-.8-4.4-.6-1.1-1.7-1.7-2.9-2.1-1.5-.4-3.1-.3-4.6-.3s-3.1 0-4.6.4c-3.1.8-3.8 4-3.6 7 .1 1.4.5 2.9 1.5 4 .9.9 2.1 1.2 3.2 1.4 2 .3 4 .2 6 .4.9.1 1.6.5 1.8 1.6.2.9.2 2.2-.2 3s-1.4.9-2.2 1c-1.2.1-2.5.1-3.8 0-.8-.1-1.7-.3-2.1-1.2-.2-.7-.1-1.5-.1-2.2 0-.1-.1-.2-.2-.2h-4c-.1 0-.2.1-.2.2 0 2.9.3 5.7 3.2 6.8 1.4.5 3 .5 4.4.5 1.6 0 3.3 0 4.9-.2 1.2-.2 2.3-.6 3.2-1.4.9-.9 1.2-2.3 1.4-3.6.2-2.4.2-5.8-2-7.2"/><path d="m316.5 80.2c0 .8-.1 1.7-.7 2.2-.6.6-1.8.6-2.5.6h-5.2v-7.3h3.1c1.2 0 2.5-.1 3.6.1 1.9.4 1.7 2.8 1.7 4.4m3.5-5.7c-1.2-2.6-4.4-2.8-6.7-2.8-3 0-6.1 0-9.1 0-.1 0-.2.1-.2.2v21.9c0 .1.1.2.2.2h4c.1 0 .2-.1.2-.2v-6.9h5.9c2.4-.1 5-.4 6-3 .6-1.5.6-3.3.6-5-.1-1.4-.2-3-.9-4.4"/><path d="m301.7 71.8h-6.5c-.1 0-.1.1-.2.1-1.4 4.2-2.9 8.4-4.3 12.6-.3.9-.6 1.9-1 2.9-.1.2-.1.3-.2.5-.6-1.7-1.2-3.4-1.8-5.1-1.2-3.6-2.5-7.2-3.7-10.8 0-.1-.1-.1-.2-.1h-6.4c-.1 0-.2.1-.2.2v21.9c0 .1.1.2.2.2h4c.1 0 .2-.1.2-.2-.1-6.1-.2-11.5-.3-17.6 0 0 .5 1.4.7 2 .7 2.1 1.5 4.2 2.2 6.3 1.1 3.1 2.2 6.2 3.3 9.4 0 .1.1.1.2.1h3.6s.1 0 .2-.1c1.1-3.1 2.2-6.2 3.2-9.2.7-2.1 1.5-4.2 2.2-6.3.3-.7.5-1.4.7-2.1 0-.1 0-.1.1-.2-.1 6-.2 11.8-.3 17.8 0 .1.1.2.2.2h4c.1 0 .2-.1.2-.2v-22.2c.1 0 0-.1-.1-.1"/><path d="m275.3 90.1h-10.1v-5.5h9.5c.1 0 .2-.1.2-.2v-3.4c0-.1-.1-.2-.2-.2h-9.5v-5.1h10c.1 0 .2-.1.2-.2v-3.6c0-.1-.1-.2-.2-.2h-14.2c-.1 0-.2.1-.2.2v21.9c0 .1.1.2.2.2h14.2c.1 0 .2-.1.2-.2v-3.6c.1 0 0-.1-.1-.1"/><path d="m259 71.8h-16.1c-.1 0-.2.1-.2.2v3.6c0 .1.1.2.2.2h5.9v18.1c0 .1.1.2.2.2h4 .1s.1-.1.1-.1v-18.3h5.9c.1 0 .2-.1.2-.2v-3.6c-.2 0-.2-.1-.3-.1"/><path d="m240.7 71.8h-4c-.1 0-.2.1-.2.2.1 5.9.2 11.8.3 17.8l-.1-.3c-.3-.7-.7-1.4-1-2.1-1-2.1-2-4.2-3-6.3-1.5-3.1-3-6.2-4.5-9.2 0-.1-.1-.1-.1-.1h-6.6c-.1 0-.2.1-.2.2v21.9c0 .1.1.2.2.2h4c.1 0 .2-.1.2-.2-.1-5.9-.3-17.8-.3-17.9 0 0 .8 1.7 1.1 2.4 1 2.1 2 4.2 3 6.3 1.5 3.1 3 6.2 4.4 9.2 0 .1.1.1.1.1h6.6c.1 0 .2-.1.2-.2v-21.9s0-.1-.1-.1"/><path d="m218.7 71.8h-4c-.1 0-.2.1-.2.2v21.9c0 .1.1.2.2.2h4c.1 0 .2-.1.2-.2v-22s-.1-.1-.2-.1"/><path d="m208 80.1c0 .8-.2 1.8-.9 2.3s-1.7.4-2.5.5h-5.2v-7.1c2.2 0 4.5-.2 6.7.1.8.1 1.5.4 1.8 1.3.2.8.2 1.9.1 2.9m3.8 2.5c.6-1.4.5-3.3.5-4.8 0-1.4-.3-2.9-1.1-4s-2-1.5-3.2-1.8c-2-.4-4.1-.2-6.1-.2h-6.5c-.1 0-.2.1-.2.2v21.9c0 .1.1.2.2.2h4c.1 0 .2-.1.2-.2v-7.1h5.9c2 0 2.5 1.6 2.5 3.4v3.6c0 .1.1.2.2.2h4c.1 0 .2-.1.2-.2 0-1.7.1-3.4 0-5.1-.1-1.1-.3-2.1-.9-3-.5-.7-1.3-1-2.1-1.1.5-.2 1.3-.5 1.4-.6.4-.2.8-.8 1-1.4"/><path d="m189.3 80.2c0 .8-.1 1.7-.7 2.2-.6.6-1.8.6-2.5.6h-5.2v-7.3h3.1c1.2 0 2.5-.1 3.6.1 1.9.4 1.7 2.8 1.7 4.4m3.5-5.7c-1.2-2.6-4.4-2.8-6.7-2.8-3 0-6.1 0-9.1 0-.1 0-.2.1-.2.2v21.9c0 .1.1.2.2.2h4c.1 0 .2-.1.2-.2v-6.9h5.9c2.4-.1 5-.4 6-3 .6-1.5.6-3.3.6-5-.1-1.4-.2-3-.9-4.4"/><path d="m135.7 93.3v1.6h-3.4v-23.9h3.4v10.1c1.3-1.2 3.1-2 5-2 4.5 0 7.7 3.7 7.7 8.1s-3.3 8.1-7.7 8.1c-2 0-3.7-.8-5-2zm0-6.1c0 2.8 2 4.9 4.7 4.9s4.7-2.1 4.7-4.9-2-4.9-4.7-4.9-4.7 2.1-4.7 4.9z"/><path d="m151.4 102.7 5-10.2-7-13h3.6l5 9.6 4.2-9.6h3.6l-10.8 23.2z"/><path d="m13.4 51.6v-23.8h3.6v3.4c.7-1.2 1.7-2.1 3-2.8 1.2-.7 2.7-1.1 4.3-1.1 1.8 0 3.2.4 4.4 1.1 1.1.7 1.9 1.8 2.4 3.1 1.9-2.8 4.3-4.2 7.4-4.2 2.4 0 4.2.7 5.5 2s1.9 3.3 1.9 6.1v16.4h-4v-15c0-1.6-.1-2.8-.4-3.5s-.7-1.3-1.4-1.7-1.5-.7-2.4-.7c-1.7 0-3.1.6-4.2 1.7s-1.7 2.9-1.7 5.4v13.9h-4v-15.8c0-1.8-.3-3.1-1-4s-1.7-1.3-3.2-1.3c-1.1 0-2.2.3-3.2.9s-1.7 1.5-2.1 2.6c-.4 1.2-.7 2.8-.7 5v12.4h-4.2z"/><path d="m67.3 48.7c-1.5 1.3-2.9 2.2-4.3 2.7s-2.9.8-4.5.8c-2.6 0-4.6-.6-6.1-1.9-1.4-1.3-2.1-2.9-2.1-4.9 0-1.2.3-2.2.8-3.2s1.2-1.7 2.1-2.3 1.8-1 2.9-1.3c.8-.2 2-.4 3.6-.6 3.3-.4 5.7-.9 7.2-1.4 0-.6 0-.9 0-1.1 0-1.7-.4-2.8-1.1-3.5-1-.9-2.6-1.4-4.6-1.4-1.9 0-3.3.3-4.2 1s-1.6 1.8-2 3.5l-4-.5c.4-1.7 1-3.1 1.8-4.1s2-1.8 3.6-2.4 3.4-.8 5.4-.8 3.7.2 5 .7 2.2 1.1 2.8 1.8 1 1.6 1.3 2.8c.1.7.2 1.9.2 3.7v5.4c0 3.8.1 6.1.3 7.1s.5 2 1 2.9h-4.2c-.5-.9-.7-1.9-.9-3zm-.3-9c-1.5.6-3.7 1.1-6.6 1.5-1.7.2-2.8.5-3.5.8s-1.2.7-1.6 1.3-.6 1.2-.6 1.9c0 1.1.4 2 1.2 2.7s2 1.1 3.6 1.1 2.9-.3 4.2-1c1.2-.7 2.1-1.6 2.7-2.8.4-.9.7-2.3.7-4v-1.5z"/><path d="m92.9 51.6v-3c-1.5 2.4-3.7 3.6-6.7 3.6-1.9 0-3.7-.5-5.3-1.6-1.6-1-2.8-2.5-3.7-4.4s-1.3-4-1.3-6.5c0-2.4.4-4.5 1.2-6.5.8-1.9 2-3.4 3.6-4.5 1.6-1 3.4-1.6 5.3-1.6 1.4 0 2.7.3 3.8.9s2 1.4 2.7 2.4v-11.7h4v33h-3.6zm-12.8-11.9c0 3.1.6 5.3 1.9 6.9 1.3 1.5 2.8 2.3 4.6 2.3s3.3-.7 4.5-2.2c1.2-1.4 1.9-3.7 1.9-6.6 0-3.3-.6-5.7-1.9-7.2s-2.8-2.3-4.7-2.3c-1.8 0-3.3.7-4.5 2.2-1.2 1.4-1.8 3.8-1.8 6.9z"/><path d="m119.3 44 4.2.5c-.7 2.4-1.9 4.3-3.7 5.7-1.8 1.3-4.1 2-6.8 2-3.5 0-6.3-1.1-8.3-3.2-2-2.2-3.1-5.2-3.1-9.1 0-4 1-7.1 3.1-9.4 2.1-2.2 4.8-3.3 8.1-3.3 3.2 0 5.8 1.1 7.8 3.3s3 5.2 3 9.2v1.1h-17.8c.1 2.6.9 4.6 2.2 6s3 2.1 5 2.1c1.5 0 2.8-.4 3.8-1.2 1.1-.8 1.9-2 2.5-3.7zm-13.3-6.6h13.3c-.2-2-.7-3.5-1.5-4.5-1.3-1.6-3-2.3-5-2.3-1.9 0-3.4.6-4.7 1.9-1.2 1.2-1.9 2.8-2.1 4.9z"/><path d="m144.4 23.3v-4.7h4v4.7zm0 28.3v-23.8h4v23.9h-4z"/><path d="m154.6 51.6v-23.8h3.6v3.4c1.8-2.6 4.3-3.9 7.6-3.9 1.4 0 2.8.3 4 .8s2.1 1.2 2.7 2 1 1.8 1.3 3c.1.7.2 2.1.2 3.9v14.7h-4v-14.6c0-1.7-.2-2.9-.5-3.7s-.9-1.5-1.7-2-1.7-.7-2.8-.7c-1.7 0-3.2.5-4.5 1.6s-1.9 3.2-1.9 6.2v13h-4z"/><path d="m219.3 51.6h-5.9v-3.5c-1 1.4-2.1 2.4-3.5 3-1.3.7-2.7 1-4 1-2.7 0-5.1-1.1-7.1-3.3s-2.9-5.3-2.9-9.3 1-7.1 2.9-9.2 4.3-3.2 7.2-3.2c2.7 0 5 1.1 6.9 3.3v-11.7h6.3v32.9zm-16.8-12.4c0 2.5.4 4.4 1.1 5.5 1 1.7 2.4 2.5 4.3 2.5 1.5 0 2.7-.6 3.7-1.9 1-1.2 1.5-3.1 1.5-5.5 0-2.7-.5-4.7-1.5-5.9s-2.3-1.8-3.8-1.8-2.8.6-3.8 1.8c-1 1.1-1.5 2.9-1.5 5.3z"/><path d="m239.4 44 6.3 1.1c-.8 2.3-2.1 4.1-3.8 5.3s-3.9 1.8-6.6 1.8c-4.2 0-7.2-1.4-9.2-4.1-1.6-2.2-2.4-4.9-2.4-8.2 0-4 1-7.1 3.1-9.3s4.7-3.4 7.8-3.4c3.6 0 6.4 1.2 8.4 3.5 2.1 2.3 3 5.9 2.9 10.8h-15.8c0 1.9.6 3.3 1.5 4.4 1 1 2.2 1.6 3.6 1.6 1 0 1.8-.3 2.5-.8.8-.6 1.3-1.5 1.7-2.7zm.4-6.3c0-1.8-.5-3.2-1.4-4.2s-2-1.4-3.3-1.4c-1.4 0-2.5.5-3.4 1.5s-1.3 2.4-1.3 4.1z"/><path d="m249 44.8 6.3-1c.3 1.2.8 2.2 1.6 2.8s2 1 3.5 1c1.6 0 2.9-.3 3.7-.9.6-.4.8-1 .8-1.7 0-.5-.1-.9-.4-1.2s-1-.6-2.1-.8c-5.1-1.1-8.3-2.2-9.7-3.1-1.9-1.3-2.8-3.1-2.8-5.4 0-2.1.8-3.8 2.5-5.2 1.6-1.4 4.2-2.1 7.6-2.1 3.3 0 5.7.5 7.3 1.6s2.7 2.6 3.3 4.7l-6 1.1c-.3-.9-.7-1.6-1.5-2.1-.7-.5-1.7-.7-3-.7-1.7 0-2.9.2-3.6.7-.5.3-.7.8-.7 1.3 0 .4.2.8.6 1.1.6.4 2.5 1 5.9 1.8s5.7 1.7 7.1 2.8c1.3 1.1 2 2.7 2 4.7 0 2.2-.9 4.1-2.7 5.6-1.8 1.6-4.5 2.4-8.1 2.4-3.3 0-5.8-.7-7.7-2-2.1-1.3-3.4-3.1-3.9-5.4z"/><path d="m276.8 24.5v-5.8h6.3v5.8zm0 27.1v-23.8h6.3v23.9h-6.3z"/><path d="m289 53.2 7.2.9c.1.8.4 1.4.8 1.7.6.4 1.5.7 2.8.7 1.7 0 2.9-.2 3.7-.7.6-.3 1-.9 1.3-1.6.2-.5.3-1.5.3-2.9v-3.5c-1.9 2.6-4.3 3.9-7.2 3.9-3.2 0-5.8-1.4-7.6-4.1-1.5-2.1-2.2-4.8-2.2-8 0-4 1-7.1 2.9-9.2s4.3-3.2 7.2-3.2c3 0 5.4 1.3 7.3 3.9v-3.4h5.9v21.4c0 2.8-.2 4.9-.7 6.3s-1.1 2.5-2 3.3c-.8.8-2 1.4-3.4 1.9-1.4.4-3.2.7-5.3.7-4 0-6.9-.7-8.6-2.1s-2.5-3.1-2.5-5.3c.1-.1.1-.4.1-.7zm5.7-14c0 2.5.5 4.4 1.5 5.6s2.2 1.8 3.6 1.8c1.5 0 2.8-.6 3.9-1.8s1.6-3 1.6-5.4c0-2.5-.5-4.3-1.5-5.5s-2.3-1.8-3.9-1.8c-1.5 0-2.8.6-3.7 1.8-1 1.1-1.5 2.9-1.5 5.3z"/><path d="m339.5 51.6h-6.3v-12.1c0-2.6-.1-4.2-.4-5s-.7-1.3-1.3-1.8c-.6-.4-1.3-.6-2.2-.6-1.1 0-2.1.3-2.9.9-.9.6-1.5 1.4-1.8 2.4s-.5 2.8-.5 5.5v10.8h-6.3v-23.9h5.9v3.5c2.1-2.7 4.7-4 7.9-4 1.4 0 2.7.3 3.8.8 1.2.5 2 1.1 2.6 1.9s1 1.7 1.2 2.7.3 2.4.3 4.3z"/></svg>