<svg enable-background="new 0 0 110 50" viewBox="0 0 110 50" xmlns="http://www.w3.org/2000/svg"><path d="m69.3 4.6h2.3v2.3h-2.3zm-58.8 6.5-.9 2.2c-1-.4-1.9-.7-2.6-.7s-1.3.2-2 .6-1.2.9-1.8 1.7c-.5.7-.8 1.1-.8 1.2v10h-2.4v-15.4h2.3v3.1c1.2-2.3 2.8-3.5 4.8-3.5 1.1 0 2.3.2 3.4.8m16 7.3h-10.6c0 1.7.5 3.2 1.5 4.3s2.2 1.7 3.7 1.7c1.4 0 2.8-.3 4.3-.8l.4 1.8c-1.4.6-2.9.9-4.8.9-2.3 0-4.1-.7-5.5-2.2s-2.1-3.4-2.1-5.9c0-2.4.6-4.4 1.9-5.8 1.3-1.5 2.9-2.2 4.9-2.2 1.8 0 3.3.7 4.4 2 1.2 1.3 1.8 3.1 1.8 5.4v.8zm-2.5-1.8c0-1.2-.4-2.2-1.1-3s-1.6-1.2-2.5-1.2c-1.2 0-2.2.4-3 1.2s-1.2 1.8-1.3 3.1h7.9zm32 7.5v-24.1h-13.7v12.7c-1.1-1.5-2.8-2.4-4.7-2.4-1.8 0-3.2.7-4.2 2.2-1.1 1.6-1.7 3.6-1.6 5.6 0 2.4.5 4.4 1.5 6s2.4 2.4 4.2 2.4c1 0 1.9-.2 2.8-.7s1.6-1.1 2-1.9v2.2h2.3v-24.1h9.1v24.1h9v-2zm-13.7-2.7c0 .1-.3.5-.8 1.2-.5.6-1.1 1.1-1.7 1.4s-1.2.5-1.8.5c-1.2 0-2.2-.6-2.9-1.7-.7-1.2-1-2.6-1-4.4 0-1.7.4-3.2 1.1-4.3.6-1.1 1.8-1.7 3-1.7 1.6 0 2.9.9 4 2.7v6.3zm29.5 4.7h-2.3v-13.4h-4.5v-2h6.8zm19.6 0h-2.3v-9.9c0-1.4-.2-2.4-.7-3-.4-.6-1.1-.9-2.1-.9-1.4 0-2.9.9-4.5 2.6v11.1h-2.3v-15.3h2.3v2.3c1.7-1.8 3.4-2.6 5.2-2.6 2.9 0 4.3 1.7 4.3 5.2zm18.4-7.7h-10.6c0 1.7.5 3.2 1.5 4.3s2.2 1.7 3.7 1.7c1.4 0 2.8-.3 4.3-.8l.4 1.8c-1.4.6-2.9.9-4.8.9-2.3 0-4.1-.7-5.5-2.2s-2.1-3.4-2.1-5.9c0-2.4.6-4.4 1.9-5.8 1.3-1.5 2.9-2.2 4.9-2.2 1.8 0 3.3.7 4.4 2 1.2 1.3 1.8 3.1 1.8 5.4zm-2.5-1.8c0-1.2-.4-2.2-1.1-3-.8-.8-1.6-1.2-2.5-1.2-1.2 0-2.2.4-3 1.2s-1.2 1.8-1.3 3.1h7.9zm-32.1 32.8c0-.1 0-.2-.1-.2-7.5 0-8.5-.4-10-.4-.4 0-.6.2-.7.3-.2.1-.3.2-.6.2s-.4-.1-.6-.2-.4-.3-.7-.3c-1.6 0-2.6.4-10 .4-.1 0-.1.1-.1.2s0 .2.1.2c7.5 0 8.5.4 10 .4.4 0 .6-.1.7-.3.2-.1.3-.2.6-.2s.4.1.6.2.4.3.7.3c1.6 0 2.6-.4 10-.4.1.1.1-.1.1-.2m-22.6 0c0-.1 0-.2-.1-.2-7.5 0-8.5-.4-10-.4-.4 0-.6.2-.7.3-.2.1-.3.2-.6.2s-.4-.1-.6-.2-.4-.3-.7-.3c-1.6 0-2.6.4-10 .4-.1 0-.1.1-.1.2s0 .2.1.2c7.5 0 8.5.4 10 .4.4 0 .6-.1.7-.3.2-.1.3-.2.6-.2s.4.1.6.2.4.3.7.3c1.6 0 2.6-.4 10-.4.1.1.1-.1.1-.2m-7.7-9.9h-.7v.6c0 .3 0 .5.6.6v.2h-1.8v-.1-.1c.5-.1.6-.2.6-.6v-2c0-.3 0-.5-.6-.6v-.1-.1h1.8c.9 0 1.3.5 1.3 1.1s-.5 1.1-1.2 1.1m-.2-1.9c-.5 0-.5.1-.5.4v1.1c0 .2.1.2.4.2.6 0 .8-.4.8-.8 0-.7-.3-.9-.7-.9m5.9 3.2h-1.6v-.1-.1c.3 0 .3-.1.3-.3 0-.1 0-.2-.1-.3l-.2-.5h-1.1v.5c0 .1-.1.2-.1.3 0 .2 0 .3.4.3v.2h-1.3v-.1c0-.1 0-.1.1-.1.4 0 .5-.3.6-.7l1.2-2.7s0-.1.1-.1c0 0 .1 0 .1.1l1 2.7c.1.3.2.6.7.7-.1 0 0 .1-.1.2.1 0 .1 0 0 0m-2-2.6-.5 1.2h.9zm6.9 2.6h-1.1l-.7-1.2c-.2-.3-.3-.4-.7-.4v.9c0 .3 0 .5.6.6v.2h-1.8v-.1-.1c.5-.1.6-.2.6-.6v-2c0-.3 0-.5-.6-.6v-.1-.1h1.8c.8 0 1.3.4 1.3.9 0 .4-.3.7-.8.8l.7 1.1c.2.3.3.4.7.5 0 0 .1.1 0 .2zm-2-3.2c-.3 0-.4 0-.4.4v1h.3c.6 0 .8-.2.8-.7-.1-.5-.2-.7-.7-.7m5.1 3.2h-1.8v-.1-.1c.5-.1.6-.2.6-.6v-2c0-.3 0-.5-.6-.6v-.1-.1h1.8v.2c-.6.2-.6.3-.6.7v2c0 .3 0 .5.6.7zm2.9.1c-.5 0-.6-.1-1.1-.1 0-.3-.1-.7-.1-1h.2c.2.7.5.9 1 .9.4 0 .6-.2.6-.6 0-.8-1.7-.8-1.7-1.8 0-.5.5-1 1.2-1 .4 0 .5.1.8.1 0 .3.1.6.1.9h-.2c-.2-.6-.4-.8-.8-.8s-.6.2-.6.5c0 .7 1.7.8 1.7 1.8.1.6-.3 1.1-1.1 1.1"/></svg>