<svg xmlns="http://www.w3.org/2000/svg" viewBox="0 0 182 34">
	<path d="M45.772 24.692c-2.229 0-3.748-.906-3.748-2.597V10.951h-3.87v11.462c0 4.728 4.164 5.732 7.593 5.732v-.006c1.419 0 3.232-.046 4.536-.24l-.568-3.404c-1.078.123-2.695.197-3.943.197zM9.349 17.853c-2.765-.293-5.017-.489-5.017-1.811 0-1.052.636-1.762 4.405-1.762 2.496 0 5.09.074 8.297 1.077V11.71c-1.591-.465-4.161-.881-8.199-.881C1.982 10.83 0 12.91 0 16.067c0 3.842 2.863 4.846 8.738 5.482 3.23.343 4.87.416 4.87 1.64 0 1.101-.832 1.591-4.503 1.615-2.594 0-5.678-.293-8.565-1.321v3.867c3.01.784 5.458 1.028 8.615 1.028 5.163 0 8.81-1.028 8.81-5.31-.002-4.065-2.939-4.603-8.616-5.215zm18.624-7.146c-2.031 0-4.943.44-7.293 1.004v3.622c2.937-.587 5.605-.955 7.293-.955 1.885 0 4.307.123 4.307 1.493 0 1.174-1.444 1.567-4.307 1.933-5.164.686-8.884 1.347-8.884 5.336 0 4.111 3.231 5.286 8.884 5.286 6.339 0 8.567-2.227 8.567-5.825v-6.118c0-5.067-4.431-5.776-8.567-5.776zm4.699 11.111c0 2.471-2.129 2.985-5.139 2.985-3.499 0-4.185-.66-4.185-1.664 0-1.077 1.125-1.297 3.965-1.713 2.325-.318 4.796-.881 5.359-1.469v1.861zM60.521 10.83h-2.08c-4.553 0-7.025 1.738-7.539 5.286-.196 1.003-.269 2.129-.294 3.328v.539c.025 1.175.098 2.301.294 3.328.514 3.524 2.986 5.262 7.539 5.262h2.08c4.552 0 7.025-1.738 7.538-5.262.196-1.028.269-2.154.293-3.328v-.539c-.024-1.199-.098-2.325-.293-3.328-.513-3.549-2.985-5.286-7.538-5.286zm3.745 10.89c-.27 2.056-1.493 3.059-3.745 3.059h-2.08c-2.252 0-3.476-1.003-3.745-3.059a24.865 24.865 0 0 1-.147-2.007c.025-.735.073-1.395.147-2.008.269-2.08 1.493-3.083 3.745-3.083h2.08c2.252 0 3.475 1.004 3.745 3.083.073.612.122 1.273.146 2.008-.024.71-.073 1.371-.146 2.007zM91.53 10.854h-1.102c-2.643 0-4.601.587-5.874 1.787-1.247-1.2-3.206-1.787-5.849-1.787h-1.102c-4.552 0-7.024 1.737-7.538 5.262-.22 1.199-.294 2.496-.294 3.867v8.027h3.941v-8.027c0-.808.074-1.567.171-2.277.245-2.055 1.469-3.059 3.72-3.059h1.102c2.251 0 3.474 1.004 3.744 3.059.098.71.147 1.469.147 2.277v8.027h3.94v-8.027c0-.808.048-1.567.147-2.277.269-2.055 1.493-3.059 3.744-3.059h1.102c2.251 0 3.475 1.004 3.719 3.059.122.71.172 1.469.172 2.277v8.027h3.94v-8.027c0-1.371-.073-2.668-.294-3.867-.513-3.525-2.984-5.262-7.536-5.262zm38.204-.024h-1.836c-4.553 0-7.049 1.738-7.562 5.286-.196 1.174-.27 2.471-.27 3.867v8.003h3.94v-8.003c0-.832.049-1.591.147-2.277.269-2.08 1.493-3.083 3.745-3.083h1.836c2.251 0 3.475 1.004 3.72 3.083.098.686.147 1.444.147 2.277v8.003h3.965v-8.003c0-1.395-.098-2.692-.294-3.867-.514-3.549-2.987-5.286-7.538-5.286zm-18.87 0h-2.055c-4.576 0-7.048 1.738-7.562 5.286a19.85 19.85 0 0 0-.269 3.328v.539c0 1.175.097 2.301.269 3.328.514 3.524 2.986 5.262 7.562 5.262h2.055c4.553 0 7.049-1.738 7.563-5.262.171-1.028.245-2.154.269-3.328v-.539c-.024-1.199-.098-2.325-.269-3.328-.514-3.549-3.01-5.286-7.563-5.286zm3.745 10.89c-.245 2.056-1.493 3.059-3.745 3.059h-2.055c-2.252 0-3.5-1.003-3.744-3.059a13.099 13.099 0 0 1-.147-2.007c0-.735.049-1.395.147-2.008.244-2.08 1.492-3.083 3.744-3.083h2.055c2.252 0 3.5 1.004 3.745 3.083.099.612.147 1.273.147 2.008-.001.71-.049 1.371-.147 2.007zM178.868-.168h-27.371a3.131 3.131 0 0 0-3.131 3.132v27.37a3.131 3.131 0 0 0 3.131 3.132h27.371A3.132 3.132 0 0 0 182 30.334V2.964a3.132 3.132 0 0 0-3.132-3.132zm-2.128 10.251a.619.619 0 0 1-.619.619h-3.471c-.346 0-.78-.147-1.177-.37l-2.693-1.515c-.434-.242-.848-.363-1.165-.363h-5.623c-.665 0-1.088.539-1.088 1.204 0 .421.217.837.546 1.008l13.951 7.845c.797.449 1.339 1.373 1.339 2.345v5.891c0 .684-.555 1.228-1.238 1.299-6.917.673-13.725.673-20.643.001-.662-.081-1.233-.61-1.233-1.292v-3.541c0-.342.277-.619.62-.619h3.47c.346 0 .78.147 1.178.37l2.692 1.515c.435.242.849.363 1.165.363h5.623c.665 0 1.087-.539 1.087-1.204 0-.421-.216-.837-.546-1.007l-13.951-7.847c-.797-.449-1.339-1.373-1.339-2.344V6.549c0-.684.556-1.228 1.238-1.3a105.94 105.94 0 0 1 20.643 0c.662.08 1.234.61 1.234 1.292v3.542z"/>
</svg>