<svg xmlns="http://www.w3.org/2000/svg" viewBox="0 0 159.7 63"><style>.st0{fill:#0a4ca2}.st1{fill:#fbb731}</style><g id="Calque_1"><path class="st0" d="M2.3 49.1h3.1c1.6 0 3.3.7 2.9 2.8-.2 1.1-1 2-2.1 2 1.3.1 1.8.9 1.6 2.2-.2 1.2-1.2 2.8-3.5 2.8H.7l1.6-9.8zm1.6 7.6c.6 0 1.1-.3 1.3-.9.1-.7-.4-.9-1-.9H4l-.3 1.9h.2zm.6-3.8c.5 0 1.1-.2 1.2-.9.1-.6-.3-.8-.8-.8h-.3l-.3 1.7h.2zm7.9 5.9l-.8-4.1c-.1.5-.1 1-.2 1.4l-.4 2.6H8.3l1.5-9.8h2.6c2.3 0 3.8.7 3.4 3.3-.2 1.1-.8 2-1.9 2.4l1.3 4.1h-2.8zm-.5-5.2c.7 0 1.2-.6 1.3-1.2.1-.9-.3-1.2-1.1-1.2l-.4 2.4h.2z"/><path class="st0" d="M19.8 58.8v-1.3H18l-.4 1.3h-2.7l3.9-9.8H22l.5 9.8h-2.7zm0-3.3l.1-2.3c0-.6.1-1.2.1-1.8-.2.6-.3 1.2-.5 1.8l-.7 2.3h1zm4.3 3.3l-.7-9.8h2.8v4c0 .8-.1 1.6-.1 2.4.2-.8.4-1.6.7-2.4l1.4-4h2.9l-4.2 9.8h-2.8zm10.3-9.9c2.7 0 3.3 2.7 2.9 5.1-.3 2.3-1.8 5-4.5 5s-3.3-2.7-2.9-5.1c.4-2.3 1.8-5 4.5-5zm-1.2 7.7c1 0 1.3-2 1.4-2.6.1-.6.4-2.6-.6-2.6s-1.4 2-1.4 2.6c-.1.6-.4 2.6.6 2.6zm4 4.3h-1.4l1.3-3.1h1.7l-1.6 3.1zm4.6-2.1l1.5-9.8H46l-1.2 7.5h2l-.4 2.3h-4.6zm6.8-9.7h4.9l-.4 2.3h-2.3l-.2 1.4h2l-.4 2.3h-2l-.2 1.4h2.3l-.4 2.3H47l1.6-9.7zm4.6 6.5c.3.5.8 1.1 1.5 1.1.4 0 .8-.2.9-.6 0-.2 0-.4-.1-.5-.1-.1-.2-.3-.4-.4-.5-.4-.8-.8-1.1-1.2-.3-.5-.4-1-.3-1.7.2-1.1 1.2-3.2 3.5-3.2.6 0 1.3.2 1.8.5l-.5 3c-.2-.5-.8-1-1.4-1-.3 0-.7.2-.8.6 0 .2.1.4.2.5.1.2.3.3.4.4.5.4.9.8 1.1 1.2.2.4.3 1 .2 1.7-.2 1.6-1.7 3-3.6 3-.7 0-1.3-.1-1.9-.4l.5-3zm12.1 3.2l.6-4h-1.3l-.6 4h-2.6l1.5-9.8h2.6l-.5 3.6h1.3l.6-3.5h2.6L68 58.9h-2.7zm8.4-9.9c2.7 0 3.3 2.7 2.9 5.1-.4 2.4-1.8 5.1-4.5 5.1s-3.3-2.7-2.9-5.1c.4-2.4 1.8-5.1 4.5-5.1zm-1.2 7.7c1 0 1.3-2 1.4-2.6.1-.6.4-2.6-.6-2.6s-1.3 2-1.4 2.6c-.1.6-.4 2.6.6 2.6zm10.8 2.2l.7-6.1c-.2.7-.4 1.4-.7 2.1l-1.4 4h-2.2l.1-6.1c-.1.7-.2 1.4-.4 2.2l-.8 4h-2.8l2.7-9.8h3.3l-.1 5.2c.2-.6.3-1.2.5-1.8l1.2-3.4h3.3l-.6 9.8h-2.8zm10.4 0l.7-6.1c-.2.7-.4 1.4-.7 2.1l-1.4 4h-2.2l.1-6.1c-.1.7-.2 1.4-.4 2.2l-.8 4h-2.8l2.7-9.8h3.3l-.2 5.2c.2-.6.3-1.2.5-1.8l1.2-3.4H97l-.6 9.8h-2.7zm4.7-9.7h4.9l-.4 2.3h-2.3l-.2 1.4h2l-.4 2.3h-2l-.2 1.5h2.3l-.4 2.3h-4.9l1.6-9.8zm4.6 6.5c.3.5.8 1.1 1.5 1.1.4 0 .8-.2.9-.6 0-.2 0-.4-.1-.5-.1-.1-.2-.3-.4-.4-.5-.4-.8-.8-1.1-1.2-.3-.5-.4-1-.3-1.7.2-1.1 1.2-3.2 3.5-3.2.6 0 1.3.2 1.8.5l-.5 3c-.2-.5-.8-1-1.4-1-.3 0-.7.2-.8.6 0 .2.1.4.2.5.1.2.3.3.4.4.5.4.9.8 1.1 1.2.2.4.3 1 .2 1.7-.3 1.8-1.8 3.3-3.6 3.3-.7 0-1.3-.1-1.9-.4l.5-3.3zm9.8-6.5h4.9l-.4 2.3H115l-.2 1.4h2l-.4 2.3h-2l-.2 1.5h2.3l-.4 2.3h-4.9l1.6-9.8zm5.8 0h2.5l1.2 5.9c.1-1.1.1-2.2.2-3.4l.4-2.5h2.5l-1.5 9.8h-2.5l-1.1-5.6c-.1.9-.1 1.8-.3 2.7l-.5 2.9H117l1.6-9.8zm10.8 0h3.1c1.6 0 3.3.7 2.9 2.8-.2 1.1-1 2-2.1 2 1.3.1 1.8.9 1.6 2.2-.2 1.2-1.2 2.8-3.5 2.8h-3.5l1.5-9.8zm1.6 7.6c.6 0 1.1-.3 1.3-.9.1-.7-.4-.9-1-.9h-.2l-.3 1.9h.2zm.6-3.8c.5 0 1.1-.2 1.2-.9.1-.6-.3-.8-.8-.8h-.3l-.3 1.7h.2zm3.5 5.9l1.5-9.8h2.6l-1.2 7.5h2l-.4 2.3h-4.5zm7-9.7h4.9l-.4 2.3h-2.3l-.2 1.4h2l-.4 2.3h-2l-.2 1.5h2.3l-.4 2.3h-4.9l1.6-9.8zm12.3 0l-1 6.4c-.2 1.2-.8 3.5-3.9 3.5-3.1 0-2.9-2.4-2.8-3.5l1-6.4h2.6l-1 6.1c0 .3-.1.6-.1.9 0 .3.2.5.5.5.4 0 .6-.2.7-.5.1-.3.2-.6.2-.9l1-6.2h2.8zm.6 8.4c.1-.8.9-1.5 1.7-1.5.8 0 1.4.6 1.3 1.5-.1.8-.9 1.5-1.7 1.5-.9 0-1.4-.7-1.3-1.5zm.6-2.1l1.1-6.8h2.6l-1.1 6.8h-2.6z"/><path class="st1" d="M.1 62.6s7.4-1.6 15.8-1.9c0 0 8.6-.2 12.9.2 0 0 3.1 0 6.2.7 0 0-.1.7-.4 1 0 0-5.6-.3-7.6-.5 0 0-12.5-.3-14.1 0 0 0-5.7.2-8.4.6 0 0-1.4 0-3.9.4-.1-.1-.9 0-.5-.5z"/><path class="st0" d="M158.9 21.7H155l1.1-1c.3 0 .5-.3.5-.6v-5.9l2.7-2.6.1-.1v-.2c0-6.5-5.2-10.4-10.2-10.4h-13.5L131.4 5c-2.1-2.9-5.4-4.7-9.2-4.7-.4 0-.8 0-1.2.1-.4 0-.7.1-1.1.2-2.2.4-4.1 1.5-5.6 3-2.6 2-5.1 4.5-7.2 6.7l-.3.3c-2 2.1-3.1 4.9-3.1 7.8 0 1.4.2 2.8.7 4l-2.6 2.3V.7c0-.3-.3-.6-.6-.6C95.1.1 90.6 3.5 88 6.5c-.8.7-1.6 1.4-2.3 2.1C83.7 5.3 78.6 0 71 0h-.3l-.1.1-7 6.6c-.1.1-.2.3-.2.4v18.7L51.6 1.4l-.1-.1-.1-.1h-.5s-.1 0-.1.1h-.1l-7 6.6c-.1.1-.1.1-.1.2l-7 15.5c-.1-3.1-1.3-5.9-3.4-8.3l3.2-3v-.4C36.4 5.6 31.3.5 25 .5c-.4 0-.8 0-1.2.1-.5 0-.9.1-1.4.2-2 .5-3.8 1.4-5.2 2.8-2.6 2-5.2 4.6-7.3 6.8l-.3.3c-2 2.1-3.1 4.9-3.1 7.8 0 1.4.2 2.8.7 4L1 27.9c-.1.1-.2.2-.2.3-.1.7-.2 1.5-.2 2.3 0 7.9 6.5 14.4 14.4 14.4 3.6 0 7.1-1.3 9.7-3.8.5-.4 1-.9 1.6-1.4 1.5-1.3 3.3-2.8 4.8-4.5l-3.3 7.2c-.1.2-.1.4 0 .6.1.2.3.3.5.3h7c2.6 0 4.3-.5 5.2-1.4.4-.4 2.1-2.1 4-4.1 2.6 3.5 5.8 5.3 9.7 5.3h6.2c.1 0 .3-.1.4-.2l2.5-2.3v2c0 .3.3.6.6.6h9c.1 0 .3-.1.4-.2l1.4-1.3v.9c0 .3.3.6.6.6H83c.1 0 .3-.1.4-.2l1.4-1.3v.8c0 .3.3.6.6.6h8.9c.1 0 .3-.1.4-.2l5.3-5c2.5 4.1 7.1 6.9 12.3 6.9 3.6 0 7.1-1.3 9.7-3.8.5-.4 1-.9 1.6-1.4 1.7-1.5 3.7-3.2 5.3-5 1 4.5 4.9 8.6 10.7 8.6H152c.1 0 .3-.1.4-.2l7-6.6V22.3c.1-.3-.2-.6-.5-.6z"/><path class="st1" d="M124.5 12.2c-.2-.1-.4-.4-.3-.7.1-.3.3-.4.6-.4h7.6c-.3-5.4-4.8-9.7-10.2-9.7-5.6 0-10.2 4.6-10.2 10.2 0 2.8 1.1 5.4 3.1 7.3l2.2 2.3c.2.2.2.4.1.6-.1.2-.3.4-.5.4h-10.7c-.1.5-.1 1-.1 1.6 0 7.3 5.9 13.2 13.2 13.2 7.3 0 13.2-5.9 13.2-13.2-.1-2.2-.9-7.9-8-11.6zM42.4 35.5c2.8 0 3.9-.6 4.3-1.1.7-.8 2.2-2.6 2.7-3.3l-2.9-5.9c-.1-.2-.1-.4 0-.6s.3-.3.5-.3h1.5c.2 0 .4.1.5.3 0 0 .5 1.1 2.3 4.2 2.5 4.2 5.7 6.4 9.8 6.4h5.3L51.1 3 36.4 35.5h6zm43.7-24.1c-.3 0-.6-.3-.6-.6 0-.5-1.3-3-3.8-5.3-2.1-1.9-5.5-4.2-10.2-4.4v34.2h7.8v-6c0-.3.3-.6.6-.6h2.4c.3 0 .6.3.6.6v6h6.5v-6c0-.3.3-.6.6-.6h2.3c.3 0 .6.3.6.6v6h7.7V1.2c-4.6.2-8 2.4-10.1 4.4-2.5 2.3-3.8 4.7-3.8 5.3 0 .3-.3.5-.6.5zm60.6 10.9v-2.2c0-.3.3-.6.6-.6h8.1v-5.6h-8.1c-.3 0-.6-.3-.6-.6v-2.2c0-.3.3-.6.6-.6h11c-.3-3.8-3.1-8.7-9-8.7h-12.5v23.8c0 4.7 3.7 9.8 9.8 9.8h11.8V22.9h-11c-.4 0-.7-.3-.7-.6zM27.4 12.2c-.2-.1-.4-.4-.3-.7.1-.3.3-.4.6-.4h7.6c-.3-5.4-4.8-9.7-10.2-9.7-5.6 0-10.2 4.6-10.2 10.2 0 2.8 1.1 5.4 3.1 7.3l2.2 2.3c.2.2.2.4.1.6-.1.2-.3.4-.5.4L9 22.3c-.1.5-.1 1.1-.1 1.6 0 7.3 5.9 13.2 13.2 13.2s13.2-5.9 13.2-13.2c0-2.3-.8-8-7.9-11.7z"/></g></svg>