<svg enable-background="new 0 0 841.89 140.28" viewBox="0 0 841.89 140.28" xmlns="http://www.w3.org/2000/svg"><path d="m24.4 80.92v-.57c0-2.58 2.09-4.67 4.67-4.67h53.65c5.59 0 8.39-2.06 8.39-6.19v-8.49c0-4.13-2.8-6.19-8.39-6.19h-39.46c-3.81 0-7.05-.4-9.72-1.19s-4.85-1.91-6.53-3.34-2.91-3.13-3.67-5.1-1.14-4.16-1.14-6.57v-3.91c0-2.41.38-4.61 1.14-6.58s1.98-3.67 3.67-5.1c1.68-1.43 3.86-2.54 6.53-3.33s5.91-1.19 9.72-1.19h52.13c2.58 0 4.67 2.09 4.67 4.67v.57c0 2.58-2.09 4.67-4.67 4.67h-52.13c-5.59 0-8.39 2.06-8.39 6.19v4.1c0 4.13 2.8 6.19 8.39 6.19h39.45c3.81 0 7.05.4 9.72 1.19s4.84 1.91 6.53 3.33c1.68 1.43 2.91 3.13 3.67 5.1s1.14 4.16 1.14 6.58v8.29c0 2.41-.38 4.61-1.14 6.57-.76 1.97-1.99 3.67-3.67 5.1s-3.86 2.54-6.53 3.34-5.91 1.19-9.72 1.19h-53.64c-2.58.01-4.67-2.08-4.67-4.66z" fill="#717070"/><path d="m191.88 83.43-29.31-45.79c-1.83-2.86-6-2.87-7.85-.03l-29.84 45.84c-.86 1.32-2.33 2.12-3.91 2.12h-2.86c-3.73 0-5.95-4.15-3.89-7.26l38.39-57.75c.87-1.3 2.33-2.09 3.89-2.09h4.23c1.57 0 3.03.79 3.9 2.1l38.14 57.75c2.05 3.11-.18 7.25-3.9 7.25h-3.06c-1.59.02-3.07-.79-3.93-2.14z" fill="#717070"/><path d="m299.9 84.69-62.91-45.91c-3.09-2.25-7.42-.05-7.42 3.77v38.36c0 2.58-2.09 4.67-4.67 4.67h-1.71c-2.58 0-4.67-2.09-4.67-4.67v-57.74c0-2.58 2.09-4.67 4.67-4.67h4.74c1.01 0 1.99.33 2.79.93l58.1 43.34c3.08 2.3 7.46.1 7.46-3.74v-35.86c0-2.58 2.09-4.67 4.67-4.67h1.71c2.58 0 4.67 2.09 4.67 4.67v57.75c0 2.58-2.09 4.67-4.67 4.67-.99 0-1.96-.32-2.76-.9z" fill="#717070"/><path d="m324.96 80.92v-57.75c0-2.58 2.09-4.67 4.67-4.67h3.33c2.58 0 4.67 2.09 4.67 4.67v57.75c0 2.58-2.09 4.67-4.67 4.67h-3.33c-2.58 0-4.67-2.09-4.67-4.67z" fill="#717070"/><path d="m445.7 80.92v-27.93c0-4.53-5.79-6.41-8.45-2.74l-24.27 33.42c-.88 1.21-2.28 1.93-3.78 1.93h-5.63c-1.49 0-2.89-.71-3.77-1.92l-24.37-33.4c-2.66-3.65-8.44-1.77-8.44 2.75v27.89c0 2.58-2.09 4.67-4.67 4.67h-2.38c-2.58 0-4.67-2.09-4.67-4.67v-57.75c0-2.58 2.09-4.67 4.67-4.67h4.77c1.49 0 2.9.72 3.78 1.92l34.65 47.66c1.87 2.57 5.7 2.57 7.56-.01l34.47-47.64c.88-1.21 2.29-1.93 3.78-1.93h3.81c2.58 0 4.67 2.09 4.67 4.67v57.75c0 2.58-2.09 4.67-4.67 4.67h-2.38c-2.59 0-4.68-2.09-4.68-4.67z" fill="#717070"/><path d="m550.86 83.43-29.31-45.79c-1.83-2.86-6-2.87-7.85-.03l-29.83 45.84c-.86 1.32-2.33 2.12-3.91 2.12h-2.86c-3.73 0-5.95-4.15-3.89-7.26l38.39-57.75c.87-1.3 2.33-2.09 3.89-2.09h4.23c1.57 0 3.03.79 3.9 2.1l38.14 57.75c2.05 3.11-.18 7.25-3.9 7.25h-3.05c-1.61.02-3.09-.79-3.95-2.14z" fill="#717070"/><path d="m592.16 80.92v-47.84c0-2.58-2.09-4.67-4.67-4.67h-25.82c-2.58 0-4.67-2.09-4.67-4.67v-.57c0-2.58 2.09-4.67 4.67-4.67h72.71c2.58 0 4.67 2.09 4.67 4.67v.57c0 2.58-2.09 4.67-4.67 4.67h-24.87c-2.58 0-4.67 2.09-4.67 4.67v47.83c0 2.58-2.09 4.67-4.67 4.67h-3.33c-2.58.01-4.68-2.08-4.68-4.66z" fill="#717070"/><path d="m652.3 80.92v-57.75c0-2.58 2.09-4.67 4.67-4.67h59.65c2.58 0 4.67 2.09 4.67 4.67v.57c0 2.58-2.09 4.67-4.67 4.67h-46.98c-2.58 0-4.67 2.09-4.67 4.67v7.43c0 2.58 2.09 4.67 4.67 4.67h44.12c2.58 0 4.67 2.09 4.67 4.67v.57c0 2.58-2.09 4.67-4.67 4.67h-44.12c-2.58 0-4.67 2.09-4.67 4.67v11.24c0 2.58 2.09 4.67 4.67 4.67h46.98c2.58 0 4.67 2.09 4.67 4.67v.57c0 2.58-2.09 4.67-4.67 4.67h-59.65c-2.58.01-4.67-2.08-4.67-4.66z" fill="#717070"/><path d="m529.79 71.27h-24.65c-2.33 0-4.23-1.89-4.23-4.23 0-2.33 1.89-4.23 4.23-4.23h24.65c2.33 0 4.23 1.89 4.23 4.23s-1.89 4.23-4.23 4.23z" fill="#f1b99e"/><path d="m170.82 71.27h-24.65c-2.33 0-4.23-1.89-4.23-4.23 0-2.33 1.89-4.23 4.23-4.23h24.65c2.33 0 4.23 1.89 4.23 4.23-.01 2.34-1.9 4.23-4.23 4.23z" fill="#f1b99e"/><g fill="#717070" opacity=".2"><path d="m29.07 93.63h53.65c3.81 0 7.05.15 9.72.47s4.84.75 6.53 1.3c1.68.56 2.91 1.22 3.67 1.99s1.14 1.63 1.14 2.57v3.24c0 .94-.38 1.8-1.14 2.57s-1.99 1.43-3.67 1.99-3.86.99-6.53 1.3-5.91.47-9.72.47h-39.46c-5.59 0-8.39.81-8.39 2.42v1.6c0 1.61 2.8 2.42 8.39 2.42h52.13c2.58 0 4.67.82 4.67 1.83v.22c0 1.01-2.09 1.83-4.67 1.83h-52.13c-3.81 0-7.05-.16-9.72-.47s-4.85-.74-6.53-1.3-2.91-1.22-3.67-1.99-1.14-1.63-1.14-2.57v-1.53c0-.94.38-1.8 1.14-2.57s1.98-1.43 3.67-1.99c1.68-.56 3.86-.99 6.53-1.3s5.91-.47 9.72-.47h39.45c5.59 0 8.39-.81 8.39-2.42v-3.32c0-1.61-2.8-2.42-8.39-2.42h-53.64c-2.58 0-4.67-.82-4.67-1.83v-.22c0-1.01 2.09-1.82 4.67-1.82z"/><path d="m195.81 93.63h3.06c3.72 0 5.95 1.62 3.9 2.83l-38.14 22.57c-.86.51-2.33.82-3.9.82h-4.23c-1.56 0-3.02-.31-3.89-.82l-38.39-22.57c-2.06-1.21.16-2.84 3.89-2.84h2.86c1.58 0 3.05.31 3.91.83l29.84 17.92c1.85 1.11 6.02 1.11 7.85-.01l29.31-17.9c.86-.52 2.34-.83 3.93-.83z"/><path d="m302.66 93.63c2.58 0 4.67.82 4.67 1.83v22.57c0 1.01-2.09 1.83-4.67 1.83h-1.71c-2.58 0-4.67-.82-4.67-1.83v-14.02c0-1.5-4.38-2.36-7.46-1.46l-58.1 16.94c-.81.24-1.79.36-2.79.36h-4.74c-2.58 0-4.67-.82-4.67-1.83v-22.57c0-1.01 2.09-1.83 4.67-1.83h1.71c2.58 0 4.67.82 4.67 1.83v14.99c0 1.49 4.34 2.36 7.42 1.47l62.91-17.94c.8-.22 1.77-.34 2.76-.34z"/><path d="m329.63 93.63h3.33c2.58 0 4.67.82 4.67 1.83v22.57c0 1.01-2.09 1.83-4.67 1.83h-3.33c-2.58 0-4.67-.82-4.67-1.83v-22.58c0-1.01 2.09-1.82 4.67-1.82z"/><path d="m450.37 93.63h2.38c2.58 0 4.67.82 4.67 1.83v22.57c0 1.01-2.09 1.83-4.67 1.83h-3.81c-1.5 0-2.91-.28-3.78-.76l-34.47-18.62c-1.86-1.01-5.69-1.01-7.56 0l-34.65 18.63c-.88.47-2.28.75-3.78.75h-4.77c-2.58 0-4.67-.82-4.67-1.83v-22.58c0-1.01 2.09-1.83 4.67-1.83h2.38c2.58 0 4.67.82 4.67 1.83v10.9c0 1.77 5.78 2.5 8.44 1.08l24.37-13.05c.88-.47 2.28-.75 3.77-.75h5.63c1.5 0 2.9.28 3.78.75l24.27 13.06c2.66 1.43 8.45.7 8.45-1.07v-10.92c.01-1.01 2.1-1.82 4.68-1.82z"/><path d="m554.79 93.63h3.05c3.72 0 5.95 1.62 3.9 2.83l-38.14 22.57c-.86.51-2.33.82-3.9.82h-4.23c-1.56 0-3.02-.31-3.89-.82l-38.38-22.57c-2.06-1.21.16-2.84 3.89-2.84h2.86c1.58 0 3.05.31 3.91.83l29.83 17.92c1.85 1.11 6.02 1.11 7.85-.01l29.31-17.9c.87-.52 2.35-.83 3.94-.83z"/><path d="m596.83 93.63h3.33c2.58 0 4.67.82 4.67 1.83v18.7c0 1.01 2.09 1.83 4.67 1.83h24.87c2.58 0 4.67.82 4.67 1.83v.22c0 1.01-2.09 1.83-4.67 1.83h-72.71c-2.58 0-4.67-.82-4.67-1.83v-.22c0-1.01 2.09-1.83 4.67-1.83h25.82c2.58 0 4.67-.82 4.67-1.83v-18.7c.01-1.02 2.11-1.83 4.68-1.83z"/><path d="m656.97 93.63h59.65c2.58 0 4.67.82 4.67 1.83v.22c0 1.01-2.09 1.83-4.67 1.83h-46.98c-2.58 0-4.67.82-4.67 1.83v4.39c0 1.01 2.09 1.83 4.67 1.83h44.12c2.58 0 4.67.82 4.67 1.83v.22c0 1.01-2.09 1.83-4.67 1.83h-44.12c-2.58 0-4.67.82-4.67 1.83v2.9c0 1.01 2.09 1.83 4.67 1.83h46.98c2.58 0 4.67.82 4.67 1.83v.22c0 1.01-2.09 1.83-4.67 1.83h-59.65c-2.58 0-4.67-.82-4.67-1.83v-22.6c0-1.01 2.09-1.82 4.67-1.82z"/></g><path d="m532.37 99.22h-29.8c-.91 0-1.65.74-1.65 1.65s.74 1.65 1.65 1.65h29.8c.91 0 1.65-.74 1.65-1.65s-.74-1.65-1.65-1.65z" fill="#f1b99e" opacity=".2"/><path d="m173.39 99.22h-29.8c-.91 0-1.65.74-1.65 1.65s.74 1.65 1.65 1.65h29.8c.91 0 1.65-.74 1.65-1.65s-.74-1.65-1.65-1.65z" fill="#f1b99e" opacity=".2"/><g fill="#717070"><path d="m807.51 71.87c-.76-.67-1.45-1.37-2.12-2.1h-18.75c2.78 1.13 5.42 2.73 7.76 4.85l11.38 10.25c.42.38.96.58 1.52.58h9.67c2.1 0 3.07-2.6 1.5-3.98z"/><path d="m781.16 66.35v-7.03c0-2.36 1.31-3.67 2.92-3.67h-.05c-1.61 0-2.92 1.31-2.92 3.67v7.03c0 .91.55 1.68 1.36 2.05h.12c-.84-.35-1.43-1.12-1.43-2.05z"/><path d="m755.95 47.43c-.11-.64-.25-1.28-.41-1.92.16.64.3 1.27.41 1.92z"/><path d="m747.28 31.94c.83.73 1.59 1.51 2.31 2.32h18.93c-2.94-1.13-5.73-2.8-8.2-5.02l-11.42-10.29c-.42-.38-.96-.58-1.52-.58h-9.57c-2.1 0-3.07 2.6-1.5 3.98z"/><path d="m755.39 44.92c-.12-.45-.26-.9-.4-1.34.14.44.27.89.4 1.34z"/><path d="m756.44 48.52c.24.31.56.55.93.69-.37-.14-.69-.38-.93-.69z"/><path d="m773.57 36.86c-.16-.51-.5-.94-.95-1.23h-.08c.49.28.86.7 1.03 1.23z"/><path d="m750.75 35.62c.33.43.66.87.96 1.31-.31-.44-.63-.88-.96-1.31z"/><path d="m753.8 40.61c-.18-.38-.37-.77-.57-1.14.2.37.39.75.57 1.14z"/><path d="m754.77 42.95c-.21-.58-.43-1.16-.68-1.73.25.57.47 1.14.68 1.73z"/><path d="m752.78 38.65c-.17-.3-.36-.6-.54-.89.18.29.36.59.54.89z"/><path d="m773.68 47.09c0 .47-.14.91-.39 1.27.25-.36.39-.8.39-1.27z"/><path d="m756.44 48.52c-.16-.2-.29-.44-.38-.7.08.26.21.5.38.7z"/><path d="m773.59 36.92c.06.19.09.39.09.59 0-.21-.03-.4-.09-.59z"/><path d="m758.15 49.36c-.28 0-.54-.05-.79-.15.25.1.52.15.79.15z"/><path d="m781.16 47.09v-9.58c0-.81.46-1.49 1.14-1.89h-.13c-.64.41-1.06 1.1-1.06 1.89v9.58c0 1.25 1.02 2.27 2.27 2.27h.05c-1.25 0-2.27-1.02-2.27-2.27z"/><path d="m807.51 31.94 10.97-9.6c1.58-1.38.6-3.98-1.5-3.98h-9.57c-.56 0-1.1.21-1.52.58l-11.42 10.29c-2.47 2.22-5.25 3.89-8.2 5.02h18.93c.72-.79 1.47-1.58 2.31-2.31z"/><path d="m755.77 57.59c.22-1.04 1.09-1.8 2.15-1.8h-.04c-1.06 0-1.93.77-2.15 1.8-.82 3.86-2.5 7.56-5.04 10.81h.04c2.53-3.25 4.22-6.95 5.04-10.81z"/><path d="m773.19 67.87c-.09.11-.18.22-.3.31.12-.1.21-.2.3-.31z"/><path d="m747.28 72-10.97 9.6c-1.58 1.38-.6 3.98 1.5 3.98h9.67c.56 0 1.1-.21 1.52-.58l11.38-10.25c2.44-2.2 5.19-3.85 8.1-4.98h-18.96c-.7.77-1.43 1.53-2.24 2.23z"/><path d="m772.59 68.4c.08-.05.16-.11.24-.17-.09.07-.19.12-.29.17z"/></g><path d="m773.57 36.86c.01.02.01.04.02.06 0-.02-.01-.04-.02-.06z" fill="#d1131e"/><path d="m754.09 41.21c-.09-.21-.19-.41-.29-.61.09.21.2.41.29.61z" fill="#d1131e"/><path d="m754.98 43.58c-.07-.21-.14-.42-.21-.63.08.21.14.42.21.63z" fill="#d1131e"/><path d="m773.68 47.09v-9.58z" fill="#d1131e"/><path d="m753.23 39.46c-.15-.28-.3-.55-.46-.82.16.28.32.55.46.82z" fill="#d1131e"/><path d="m752.23 37.75c-.17-.27-.34-.55-.53-.82.19.27.36.55.53.82z" fill="#d1131e"/><path d="m755.54 45.51c-.05-.2-.1-.4-.16-.59.06.2.11.39.16.59z" fill="#d1131e"/><path d="m773.02 48.69c-.21.21-.45.37-.72.49.27-.11.51-.28.72-.49z" fill="#d1131e"/><path d="m772.54 35.62h-21.8c.33.43.66.87.96 1.31.18.27.35.54.53.82.19.3.37.59.54.89.16.27.31.54.46.82.2.38.39.76.57 1.14.1.2.2.4.29.61.25.57.47 1.15.68 1.73.07.21.14.42.21.63.15.44.28.89.4 1.34.05.2.11.4.16.59.16.64.3 1.27.41 1.92.02.14.06.27.1.4.09.26.22.49.38.7.24.31.56.55.93.69.24.1.51.15.79.15h13.25c.31 0 .61-.06.88-.18.27-.11.52-.28.72-.49.1-.1.2-.22.28-.34.24-.36.39-.8.39-1.27v-9.58c0-.21-.03-.41-.09-.59-.01-.02-.01-.04-.02-.06-.16-.52-.53-.94-1.02-1.23z" fill="#d1131e"/><path d="m798.84 47.43c-.19 1.1-1.09 1.93-2.21 1.93h.05c1.12 0 2.02-.83 2.21-1.93.71-4.21 2.45-8.28 5.2-11.8h-.05c-2.74 3.52-4.48 7.59-5.2 11.8z" fill="#d1131e"/><path d="m798.84 47.43c.71-4.21 2.46-8.28 5.2-11.8h-21.74c-.67.4-1.14 1.07-1.14 1.89v9.58c0 1.25 1.02 2.27 2.27 2.27h13.2c1.12-.01 2.03-.84 2.21-1.94z" fill="#d1131e"/><path d="m773.68 59.46v7.03c0 .52-.18 1-.49 1.38.32-.38.53-.84.53-1.38v-7.03c0-2.36-1.31-3.67-2.92-3.67h-12.89 12.84c1.62 0 2.93 1.31 2.93 3.67z" fill="#d1131e"/><path d="m772.9 68.18c-.02.02-.05.03-.07.05.02-.02.05-.04.07-.05z" fill="#d1131e"/><path d="m755.77 57.59c-.82 3.86-2.5 7.56-5.04 10.81h21.81c.1-.06.2-.11.29-.17.02-.02.05-.03.07-.05.11-.09.2-.2.3-.31.31-.38.49-.86.49-1.38v-7.03c0-2.36-1.31-3.67-2.92-3.67h-12.84c-1.07 0-1.94.76-2.16 1.8z" fill="#d1131e"/><path d="m799.07 57.45c.83 3.91 2.54 7.67 5.15 10.95h.05c-2.6-3.28-4.32-7.03-5.15-10.95-.22-1.04-1.09-1.8-2.15-1.8h-.05c1.06 0 1.93.77 2.15 1.8z" fill="#d1131e"/><path d="m781.16 59.32v7.03c0 .93.59 1.69 1.43 2.05h21.63c-2.6-3.28-4.32-7.03-5.15-10.95-.22-1.04-1.09-1.8-2.15-1.8h-12.84c-1.61 0-2.92 1.31-2.92 3.67z" fill="#d1131e"/><g fill="#717070"><path d="m807.94 98.99 10.97-3.75c1.58-.54.6-1.56-1.5-1.56h-9.67c-.56 0-1.1.08-1.52.23l-11.38 4.01c-2.36.83-5.02 1.45-7.82 1.89h18.8c.67-.28 1.36-.56 2.12-.82z" opacity=".2"/><path d="m781.6 103.9v-2.75c0-.36.59-.66 1.43-.8h-.12c-.81.14-1.36.44-1.36.8v2.75c0 .92 1.31 1.43 2.92 1.43h.05c-1.61 0-2.92-.51-2.92-1.43z" opacity=".2"/><path d="m774.11 112.42c0 .08-.03.16-.09.23.06-.07.09-.15.09-.23z" opacity=".2"/><path d="m755.42 110.05c.15-.17.28-.35.4-.53-.12.18-.26.35-.4.53z" opacity=".2"/><path d="m753.67 111.66c.2-.15.39-.3.57-.45-.19.15-.37.3-.57.45z" opacity=".2"/><path d="m755.98 109.29c.16-.25.3-.5.41-.75-.12.25-.26.5-.41.75z" opacity=".2"/><path d="m773.06 113.16c.45-.11.79-.28.95-.48-.17.2-.55.37-1.03.48z" opacity=".2"/><path d="m758.59 107.79c-.56 0-1.06.08-1.45.22.39-.14.89-.22 1.45-.22z" opacity=".2"/><path d="m747.72 114.6-10.97 3.75c-1.58.54-.6 1.56 1.5 1.56h9.57c.56 0 1.1-.08 1.52-.23l11.42-4.02c2.47-.87 5.27-1.52 8.22-1.96h-18.96c-.71.3-1.47.61-2.3.9z" opacity=".2"/><path d="m752.67 112.32c.19-.12.37-.23.54-.35-.17.12-.36.24-.54.35z" opacity=".2"/><path d="m752.14 112.64c-.3.17-.63.34-.96.51.33-.16.65-.33.96-.51z" opacity=".2"/><path d="m755.21 110.29c-.21.23-.43.46-.69.68.25-.22.48-.45.69-.68z" opacity=".2"/><path d="m818.91 118.35-10.97-3.75c-.83-.29-1.59-.59-2.31-.91h-18.96c2.95.44 5.74 1.09 8.22 1.96l11.42 4.02c.42.15.96.23 1.52.23h9.57c2.11 0 3.08-1.01 1.51-1.55z" opacity=".2"/><path d="m781.6 112.42v-3.74c0-.49 1.02-.89 2.27-.89h-.05c-1.25 0-2.27.4-2.27.89v3.74c0 .31.42.58 1.06.74h.13c-.68-.16-1.14-.42-1.14-.74z" opacity=".2"/><path d="m756.2 104.57c-.82-1.51-2.5-2.96-5.04-4.22h-.04c2.54 1.27 4.23 2.72 5.04 4.22.22.4 1.09.7 2.15.7h.04c-1.06 0-1.93-.29-2.15-.7z" opacity=".2"/><path d="m773.26 100.41c-.08-.02-.15-.05-.24-.07h-.06c.11.03.21.05.3.07z" opacity=".2"/><path d="m736.75 95.18 10.97 3.75c.81.28 1.54.57 2.24.88h18.99c-2.92-.44-5.68-1.09-8.13-1.95l-11.38-4.01c-.42-.15-.96-.23-1.52-.23h-9.67c-2.1.01-3.08 1.02-1.5 1.56z" opacity=".2"/><path d="m773.33 100.43c.11.04.2.08.3.12-.09-.04-.19-.08-.3-.12z" opacity=".2"/></g><path d="m753.21 111.98c.16-.11.31-.21.46-.32-.15.1-.3.21-.46.32z" fill="#d1131e" opacity=".2"/><path d="m774.11 112.42v-3.74z" fill="#d1131e" opacity=".2"/><path d="m755.82 109.52c.05-.08.11-.15.16-.23-.05.08-.11.16-.16.23z" fill="#d1131e" opacity=".2"/><path d="m754.23 111.21c.09-.08.2-.15.29-.23-.09.07-.19.15-.29.23z" fill="#d1131e" opacity=".2"/><path d="m752.14 112.64c.18-.11.35-.21.53-.32-.18.11-.35.22-.53.32z" fill="#d1131e" opacity=".2"/><path d="m755.42 110.05c-.07.08-.14.16-.21.25.07-.09.14-.17.21-.25z" fill="#d1131e" opacity=".2"/><path d="m774.02 112.65c-.01.01-.01.02-.02.02.01 0 .02-.01.02-.02z" fill="#d1131e" opacity=".2"/><path d="m772.73 107.86c.27.04.52.11.72.19-.21-.08-.45-.15-.72-.19z" fill="#d1131e" opacity=".2"/><path d="m772.98 113.16c.48-.11.86-.28 1.03-.48.01-.01.01-.02.02-.02.06-.07.09-.15.09-.23v-3.74c0-.25-.25-.47-.67-.63-.21-.08-.45-.15-.72-.19s-.57-.07-.88-.07h-13.25c-.56 0-1.06.08-1.45.22s-.66.32-.75.54c-.11.25-.25.5-.41.75-.05.08-.1.15-.16.23-.12.18-.26.35-.4.53-.07.08-.14.16-.21.25-.21.23-.43.46-.69.68-.09.08-.19.16-.29.23-.18.15-.37.3-.57.45-.15.11-.3.21-.46.32-.17.12-.36.23-.54.35-.17.11-.34.22-.53.32-.3.17-.63.34-.96.51h21.8z" fill="#717070" opacity=".2"/><path d="m772.98 113.16c.48-.11.86-.28 1.03-.48.01-.01.01-.02.02-.02.06-.07.09-.15.09-.23v-3.74c0-.25-.25-.47-.67-.63-.21-.08-.45-.15-.72-.19s-.57-.07-.88-.07h-13.25c-.56 0-1.06.08-1.45.22s-.66.32-.75.54c-.11.25-.25.5-.41.75-.05.08-.1.15-.16.23-.12.18-.26.35-.4.53-.07.08-.14.16-.21.25-.21.23-.43.46-.69.68-.09.08-.19.16-.29.23-.18.15-.37.3-.57.45-.15.11-.3.21-.46.32-.17.12-.36.23-.54.35-.17.11-.34.22-.53.32-.3.17-.63.34-.96.51h21.8z" fill="#d1131e" opacity=".2"/><path d="m799.28 108.54c.71 1.65 2.46 3.24 5.2 4.61h.05c-2.75-1.38-4.49-2.97-5.2-4.61-.19-.43-1.09-.76-2.21-.76h-.05c1.12.01 2.02.33 2.21.76z" fill="#d1131e" opacity=".2"/><path d="m781.6 108.68v3.74c0 .32.46.58 1.14.74h21.75c-2.75-1.38-4.49-2.97-5.2-4.61-.19-.43-1.09-.76-2.2-.76h-13.2c-1.28 0-2.29.4-2.29.89z" fill="#717070" opacity=".2"/><path d="m781.6 108.68v3.74c0 .32.46.58 1.14.74h21.75c-2.75-1.38-4.49-2.97-5.2-4.61-.19-.43-1.09-.76-2.2-.76h-13.2c-1.28 0-2.29.4-2.29.89z" fill="#d1131e" opacity=".2"/><path d="m773.26 100.41c.02.01.05.01.07.02-.02 0-.04-.01-.07-.02z" fill="#d1131e" opacity=".2"/><path d="m774.11 101.09v2.75c0 .92-1.31 1.43-2.92 1.43h-12.85 12.89c1.61 0 2.92-.51 2.92-1.43v-2.75c0-.21-.21-.39-.53-.54.31.15.49.34.49.54z" fill="#d1131e" opacity=".2"/><path d="m751.16 100.35c2.54 1.27 4.23 2.72 5.04 4.22.22.4 1.09.7 2.15.7h12.85c1.61 0 2.92-.51 2.92-1.43v-2.75c0-.2-.18-.39-.49-.54-.09-.04-.18-.09-.3-.12-.02-.01-.05-.01-.07-.02-.09-.03-.19-.05-.29-.07h-21.81z" fill="#717070" opacity=".2"/><path d="m751.16 100.35c2.54 1.27 4.23 2.72 5.04 4.22.22.4 1.09.7 2.15.7h12.85c1.61 0 2.92-.51 2.92-1.43v-2.75c0-.2-.18-.39-.49-.54-.09-.04-.18-.09-.3-.12-.02-.01-.05-.01-.07-.02-.09-.03-.19-.05-.29-.07h-21.81z" fill="#d1131e" opacity=".2"/><path d="m799.5 104.62c-.22.4-1.09.7-2.15.7h.05c1.06 0 1.93-.3 2.15-.7.83-1.53 2.54-3 5.15-4.28h-.05c-2.6 1.29-4.32 2.76-5.15 4.28z" fill="#d1131e" opacity=".2"/><path d="m799.5 104.62c.83-1.53 2.54-3 5.15-4.28h-21.63c-.83.14-1.43.44-1.43.8v2.75c0 .92 1.31 1.43 2.92 1.43h12.84c1.06.01 1.93-.29 2.15-.7z" fill="#717070" opacity=".2"/><path d="m799.5 104.62c.83-1.53 2.54-3 5.15-4.28h-21.63c-.83.14-1.43.44-1.43.8v2.75c0 .92 1.31 1.43 2.92 1.43h12.84c1.06.01 1.93-.29 2.15-.7z" fill="#d1131e" opacity=".2"/><path d="m772.73 100.29h-21.68c.04.02.07.04.1.05h21.81c-.07-.01-.14-.03-.23-.05z" fill="#717070" opacity=".2"/><path d="m772.73 100.29h-21.68c.04.02.07.04.1.05h21.81c-.07-.01-.14-.03-.23-.05z" fill="#d1131e" opacity=".2"/><path d="m772.73 100.29h-21.68c.04.02.07.04.1.05h21.81c-.07-.01-.14-.03-.23-.05z" fill="#fff" opacity=".2"/><path d="m751.18 113.16c-.02.01-.04.02-.06.03.02-.01.04-.02.06-.03z" fill="#717070" opacity=".2"/><path d="m751.18 113.16c-.02.01-.04.02-.06.03.02-.01.04-.02.06-.03z" fill="#fff" opacity=".2"/><path d="m751.1 113.2c.01 0 .02-.01.03-.01-.02 0-.02.01-.03.01z" fill="#d1131e" opacity=".2"/><path d="m751.1 113.2c.01 0 .02-.01.03-.01-.02 0-.02.01-.03.01z" fill="#fff" opacity=".2"/><path d="m751.12 113.19c-.01 0-.02.01-.03.01h21.71c.06-.01.11-.03.17-.04h-21.8c-.01.01-.03.02-.05.03z" fill="#717070" opacity=".2"/><path d="m804.56 113.2h.05c-.03-.01-.05-.03-.08-.04h-.05c.03.01.05.03.08.04z" fill="#d1131e" opacity=".2"/><path d="m804.56 113.2h.05c-.03-.01-.05-.03-.08-.04h-.05c.03.01.05.03.08.04z" fill="#fff" opacity=".2"/></svg>