<svg viewBox="0 0 202 74.28" xmlns="http://www.w3.org/2000/svg"><path d="m186.73.7c-.66 3.85-1.55 7.39-1.8 11-.52 7.38 2 14 5.78 20.23 1.84 3 4 5.92 6.07 8.79 8.44 11.49 3.69 27.94-9.52 32.82-.73.27-1.5.43-2.71.77 3.06-3.66 2.52-7 .62-10.47-1.19-2.17-2.2-4.44-3.24-6.57l-.87 1.73c-.91-2.48-1.82-5-2.73-7.5l-.75.13c1.56 5.22-.89 9.21-3.65 13.2a6.86 6.86 0 0 0 -.11 7.63c.27.48.58.94 1.09 1.76-.93-.17-1.52-.23-2.07-.39a19.88 19.88 0 0 1 -14-24.34 20.53 20.53 0 0 1 .77-2.29 90.26 90.26 0 0 1 6.71-13 38.38 38.38 0 0 0 5.83-18.2c1.29 3.75 2 7.19 4.62 10.14.76-9.65 3.5-18.2 9.96-25.44z" fill="#f47521"/><path d="m122.9 13.91a15.74 15.74 0 1 1 -15.83 15.67 15.74 15.74 0 0 1 15.83-15.67zm5.1 15.92c-.15-2.37-.68-4.6-2.51-6.28a4.28 4.28 0 0 0 -6-.06l-.06.06c-3.34 3-3.32 9.57 0 12.52a4.29 4.29 0 0 0 6.07-.07 8.67 8.67 0 0 0 2.5-6.17z" fill="#f47521"/><path d="m10.36 64.46c.07 2.29 1.38 3.22 3.39 3.21 1.85 0 2.93-1 3.29-3.15.26-1.54.34-3.1.52-4.75h8c1.32 6.36-1.92 11.43-8.31 12.41a30.35 30.35 0 0 1 -8.19 0c-4.06-.48-7.57-3.27-7.65-7.18v-16.5c0-5.32 4.22-8 9.35-8.48a27.19 27.19 0 0 1 8 .42c5 1.06 7.23 5 6.54 10.87h-8c-.18-1.41-.3-2.83-.58-4.21a2.78 2.78 0 0 0 -2.95-2.36c-1.93 0-3.57.39-3.57 4.61z"/><path d="m140.14 45v-30.53c6.47.3 12.85.26 19.14 1 4.51.52 6.64 3.52 6.84 7.86.22 4.9-1.65 8.14-6 9.37a76.89 76.89 0 0 1 -9.42 1.48v10.82zm10.54-17.48c1.68 0 3.56.46 4.13-1.31a6.11 6.11 0 0 0 -.28-4.21c-.7-1.39-2.41-1.13-3.85-.91z" fill="#f47521"/><path d="m36 50.63c2.85-3.53 6.23-3.63 9.78-2.63a4.62 4.62 0 0 1 3.75 4.41c.14 6.49 0 13 0 19.58h-8.17v-15.99c0-1.58-.34-2.9-2.26-3a2.82 2.82 0 0 0 -3.1 2.49 4.34 4.34 0 0 0 0 .51v15.91h-8.18v-31.32h8.18z"/><path d="m90.34 45v-23.06h-7.12v-7.06h24.78v7h-7v23.12z" fill="#f47521"/><path d="m113.53 48.18h8.37v16.51a2.22 2.22 0 0 0 2 2.43h.1a2.61 2.61 0 0 0 3-1.81 8 8 0 0 0 .33-2.38v-14.71h8.19v23.78h-7.77l-.17-2.51a8.67 8.67 0 0 1 -7.71 3.16c-4-.25-6.21-2.22-6.29-6.2-.14-6.04-.05-12.05-.05-18.27z"/><path d="m66.29 69.47c-2.26 2.73-5 3.38-8.07 3.09-3.41-.32-5.32-2.17-5.88-5.72s.92-6.79 4-7.81c2.47-.83 5.07-1.28 7.61-1.93 1.11-.29 2.16-.67 2.18-2.15s-.29-2.44-1.75-2.66-3-.26-3.6 1.51a14.93 14.93 0 0 0 -.45 1.62h-6.63a2.62 2.62 0 0 1 -.54-.12c-.13-3.7 1.53-6.15 5-7.14a21.17 21.17 0 0 1 10.4-.22c3.67.82 5.2 2.77 5.28 6.66s0 7.51 0 11.26c0 2 .24 4.07.38 6.19h-5.37c-2.19 0-2.19-.05-2.56-2.58zm-.22-9.13c-1.5.52-2.82.89-4.07 1.44-1.5.65-2.07 2.35-1.51 4.17a2.29 2.29 0 0 0 2.74 1.7 2.9 2.9 0 0 0 2.82-3c.08-1.32.02-2.65.02-4.31z"/><path d="m111.65 61.3h-14.37c.12 1.47.18 2.82.34 4.16.18 1.61.93 2.68 2.73 2.73s2.63-1.12 2.92-2.76c.08-.43.1-.87.16-1.43h7.57a7.4 7.4 0 0 1 -6.21 8.06 29.2 29.2 0 0 1 -8.35.12 7.53 7.53 0 0 1 -6.93-7 43.4 43.4 0 0 1 -.05-10.06 7.5 7.5 0 0 1 6.54-7 30.92 30.92 0 0 1 8.7-.06c3.43.44 5.55 2.76 6.13 6.2.41 2.2.54 4.5.82 7.04zm-8.29-4.3c-.09-1.74.33-3.65-1.37-4.63a3.7 3.7 0 0 0 -3.12 0c-1.69 1-1.41 2.84-1.47 4.6z"/><path d="m78.1 40.53h8.12v31.4h-8.12z"/><path d="m147.2 48.22v3c2.11-2.82 4.6-4 7.9-3.65v6.62h-3.1c-3.13.18-4.51 1.61-4.55 4.75v13.06h-8.26v-23.78z"/></svg>